<svg height="407pt" viewBox="-1 0 407 407.49306" width="407pt" xmlns="http://www.w3.org/2000/svg"><path d="m307.445312 186.472656c0 84.832032-68.769531 153.601563-153.597656 153.601563-84.832031 0-153.601562-68.769531-153.601562-153.601563 0-84.832031 68.769531-153.601562 153.601562-153.601562 84.828125 0 153.597656 68.769531 153.597656 153.601562zm0 0" fill="#ffe8dc"/><path d="m204.648438 300.882812c7.929687-4.59375 15.074218-10.96875 20.816406-19.175781 17.109375-24.4375 15.257812-58.261719-4.460938-80.644531-26.164062-29.691406-71.449218-29.613281-97.582031-1.296875-5.496094 5.957031-9.648437 12.664063-12.511719 19.761719-2.550781 6.324218-8.15625 10.972656-14.929687 11.746094-22.945313 2.613281-44.949219 14.480468-59.863281 35.523437-22.324219 31.5-20.152344 75.15625 5.152343 104.316406 33.839844 39.003907 92.914063 39.0625 126.933594 2.195313 13.382813-14.5 20.707031-32.402344 22.179687-50.648438.738282-9.167968 6.304688-17.167968 14.265626-21.777344zm0 0" fill="#ffce56"/><path d="m105.691406 407.492188c-.464844 0-.933594-.007813-1.398437-.011719-26.085938-.402344-50.941407-12.019531-68.179688-31.894531-27.261719-31.40625-29.601562-78.820313-5.558593-112.738282 15.40625-21.742187 38.363281-35.363281 64.652343-38.355468 4.097657-.472657 7.695313-3.351563 9.378907-7.527344 3.246093-8.066406 7.902343-15.410156 13.816406-21.824219 13.890625-15.054687 33.511718-23.242187 54.078125-23.308594 20.761719.242188 39.8125 9.015625 53.640625 24.714844 21.726562 24.660156 23.808594 62.125 4.941406 89.070313-6.132812 8.761718-13.867188 15.882812-22.992188 21.167968-6.273437 3.640625-10.347656 9.777344-10.882812 16.417969-1.664062 20.621094-9.953125 39.546875-23.957031 54.726563-17.390625 18.835937-41.929688 29.5625-67.539063 29.5625zm65.957032-222.011719c-16.382813 0-32.09375 6.871093-43.207032 18.914062-4.792968 5.191407-8.5625 11.144531-11.195312 17.683594-3.566406 8.820313-11.414063 14.941406-20.492188 15.972656-22.375 2.554688-41.933594 14.160157-55.066406 32.6875-20.441406 28.851563-18.453125 69.179688 4.730469 95.898438 14.921875 17.1875 35.546875 26.847656 58.082031 27.195312.398438 0 .796875.007813 1.191406.007813 21.800782 0 42.699219-9.128906 57.5-25.167969 11.910156-12.914063 18.964844-29.015625 20.378906-46.558594.898438-11.113281 7.492188-21.253906 17.652344-27.140625 7.386719-4.28125 13.660156-10.066406 18.648438-17.179687 15.300781-21.855469 13.613281-52.226563-3.992188-72.21875-11.242187-12.761719-26.714844-19.894531-43.5625-20.085938-.21875 0-.445312-.007812-.667968-.007812zm0 0" fill="#4c241d"/><path d="m348 79.777344-23-21.226563-184.273438 186.933594 35.703126 32.945313zm0 0" fill="#fff"/><g fill="#4c241d"><path d="m176.433594 285.261719c-1.714844 0-3.367188-.640625-4.628906-1.808594l-35.707032-32.953125c-1.359375-1.261719-2.152344-3.007812-2.199218-4.863281-.039063-1.84375.667968-3.632813 1.964843-4.953125l184.277344-186.921875c2.585937-2.628907 6.785156-2.722657 9.484375-.226563l23.003906 21.21875c2.703125 2.5 2.945313 6.695313.539063 9.480469l-171.566407 198.660156c-1.207031 1.398438-2.933593 2.253907-4.78125 2.351563-.125.007812-.261718.015625-.386718.015625zm-25.894532-40.015625 25.339844 23.386718 162.632813-188.320312-13.285157-12.265625zm0 0"/><path d="m261.820312 185.566406c-1.660156 0-3.320312-.601562-4.632812-1.8125l-28.558594-26.359375c-2.769531-2.554687-2.941406-6.871093-.382812-9.644531 2.546875-2.769531 6.875-2.941406 9.648437-.382812l28.558594 26.359374c2.765625 2.554688 2.941406 6.875.378906 9.648438-1.339843 1.453125-3.171875 2.191406-5.011719 2.191406zm0 0"/><path d="m232.167969 217.699219c-1.660157 0-3.320313-.601563-4.632813-1.8125l-28.5625-26.359375c-2.765625-2.550782-2.9375-6.871094-.378906-9.644532 2.554688-2.765624 6.878906-2.941406 9.644531-.382812l28.5625 26.359375c2.765625 2.554687 2.9375 6.875.378907 9.648437-1.339844 1.453126-3.171876 2.191407-5.011719 2.191407zm0 0"/><path d="m205.804688 246.261719c-1.660157 0-3.316407-.601563-4.632813-1.8125l-28.558594-26.359375c-2.765625-2.554688-2.941406-6.875-.378906-9.648438 2.542969-2.757812 6.871094-2.933594 9.644531-.378906l28.558594 26.359375c2.765625 2.554687 2.941406 6.871094.382812 9.644531-1.339843 1.453125-3.175781 2.195313-5.015624 2.195313zm0 0"/><path d="m283.71875 159.5c-1.660156 0-3.316406-.601562-4.625-1.804688l-26.234375-24.210937c-2.773437-2.558594-2.945313-6.878906-.390625-9.644531 2.558594-2.78125 6.886719-2.941406 9.644531-.390625l26.234375 24.207031c2.773438 2.558594 2.945313 6.878906.390625 9.644531-1.34375 1.460938-3.179687 2.199219-5.019531 2.199219zm0 0"/><path d="m304.378906 132.285156c-1.660156 0-3.3125-.601562-4.625-1.804687l-21.429687-19.769531c-2.773438-2.558594-2.945313-6.878907-.390625-9.644532 2.566406-2.78125 6.878906-2.941406 9.644531-.394531l21.429687 19.769531c2.773438 2.558594 2.945313 6.878906.390626 9.644532-1.347657 1.460937-3.179688 2.199218-5.019532 2.199218zm0 0"/><path d="m327.441406 107.292969c-1.660156 0-3.320312-.601563-4.628906-1.804688l-21.417969-19.769531c-2.773437-2.558594-2.949219-6.878906-.394531-9.644531 2.566406-2.78125 6.894531-2.933594 9.648438-.394531l21.417968 19.769531c2.773438 2.558593 2.949219 6.878906.394532 9.644531-1.347657 1.460938-3.179688 2.199219-5.019532 2.199219zm0 0"/></g><path d="m344.039062 76.125-15.082031-13.917969c-5.332031-4.921875-4.824219-13.492187 1.050781-17.746093l15.128907-10.957032c1.246093-.90625 2.300781-2.050781 3.097656-3.371094l9.265625-15.363281c3.757812-6.230469 12.28125-7.441406 17.628906-2.507812l14.996094 13.839843c5.347656 4.929688 4.820312 13.527344-1.085938 17.773438l-14.574218 10.464844c-1.25.902344-2.308594 2.042968-3.109375 3.359375l-9.710938 15.953125c-3.773437 6.199218-12.273437 7.390625-17.605469 2.472656zm0 0" fill="#fc8c29"/><path d="m351.8125 85.992188c-4.574219 0-8.988281-1.707032-12.398438-4.851563l-15.082031-13.914063c-4.054687-3.738281-6.191406-9.046874-5.867187-14.546874.324218-5.507813 3.074218-10.519532 7.53125-13.746094l15.128906-10.960938c.519531-.375.933594-.824218 1.25-1.351562l9.277344-15.382813c2.851562-4.726562 7.625-7.886719 13.09375-8.664062 5.484375-.800781 10.945312.925781 15.003906 4.664062l15 13.839844c4.066406 3.753906 6.203125 9.0625 5.867188 14.578125-.339844 5.515625-3.105469 10.527344-7.589844 13.757812l-14.582032 10.472657c-.511718.367187-.933593.820312-1.253906 1.351562l-9.710937 15.960938c-2.867188 4.714843-7.640625 7.855469-13.101563 8.613281-.851562.128906-1.710937.179688-2.566406.179688zm-3.148438-14.890626c1.414063 1.3125 3.007813 1.3125 3.820313 1.191407.816406-.113281 2.335937-.546875 3.328125-2.1875l9.707031-15.953125c1.273438-2.105469 2.945313-3.90625 4.964844-5.359375l14.574219-10.46875c1.558594-1.117188 1.882812-2.671875 1.925781-3.5.054687-.824219-.070313-2.40625-1.484375-3.707031l-15-13.839844c-1.421875-1.304688-2.988281-1.292969-3.828125-1.191406-.8125.121093-2.332031.558593-3.324219 2.207031l-9.269531 15.367187c-1.277344 2.121094-2.945313 3.941406-4.964844 5.386719l-15.101562 10.9375c-1.550781 1.128906-1.867188 2.675781-1.917969 3.5-.046875.820313.078125 2.402344 1.492188 3.703125zm0 0" fill="#4c241d"/><path d="m355.773438 21.0625c-1.660157 0-3.320313-.601562-4.632813-1.8125l-8.019531-7.410156c-2.769532-2.550782-2.941406-6.871094-.382813-9.644532 2.558594-2.773437 6.878907-2.941406 9.644531-.378906l8.023438 7.40625c2.765625 2.550782 2.9375 6.871094.378906 9.644532-1.34375 1.453124-3.179687 2.195312-5.011718 2.195312zm0 0" fill="#4c241d"/><path d="m346.164062 38.632812c-1.660156 0-3.316406-.601562-4.625-1.808593l-8.027343-7.40625c-2.773438-2.558594-2.945313-6.878907-.390625-9.644531 2.558594-2.773438 6.890625-2.941407 9.644531-.394532l8.027344 7.40625c2.773437 2.5625 2.945312 6.882813.390625 9.648438-1.34375 1.460937-3.175782 2.199218-5.019532 2.199218zm0 0" fill="#4c241d"/><path d="m329.414062 49.621094c-1.660156 0-3.320312-.601563-4.632812-1.8125l-8.019531-7.40625c-2.769531-2.554688-2.941407-6.875-.382813-9.648438 2.566406-2.765625 6.878906-2.933594 9.644532-.378906l8.023437 7.40625c2.765625 2.554688 2.9375 6.871094.378906 9.644531-1.347656 1.453125-3.179687 2.195313-5.011719 2.195313zm0 0" fill="#4c241d"/><path d="m397.734375 59.78125c-1.664063 0-3.320313-.601562-4.628906-1.808594l-8.019531-7.398437c-2.773438-2.5625-2.945313-6.882813-.390626-9.648438 2.558594-2.777343 6.882813-2.941406 9.644532-.390625l8.019531 7.398438c2.773437 2.5625 2.949219 6.878906.390625 9.648437-1.34375 1.460938-3.175781 2.199219-5.015625 2.199219zm0 0" fill="#4c241d"/><path d="m380.988281 70.769531c-1.65625 0-3.3125-.601562-4.628906-1.808593l-8.027344-7.402344c-2.773437-2.550782-2.945312-6.871094-.390625-9.644532 2.558594-2.765624 6.878906-2.941406 9.644532-.390624l8.027343 7.398437c2.773438 2.554687 2.949219 6.871094.394531 9.644531-1.347656 1.460938-3.179687 2.203125-5.019531 2.203125zm0 0" fill="#4c241d"/><path d="m371.375 88.339844c-1.664062 0-3.320312-.601563-4.628906-1.808594l-8.019532-7.398438c-2.773437-2.5625-2.945312-6.878906-.390624-9.648437 2.558593-2.777344 6.890624-2.933594 9.644531-.390625l8.019531 7.398438c2.773438 2.5625 2.949219 6.882812.390625 9.648437-1.34375 1.460937-3.175781 2.199219-5.015625 2.199219zm0 0" fill="#4c241d"/><path d="m166.683594 249.601562c-12.816406-11.828124-32.792969-11.027343-44.621094 1.789063s-11.027344 32.796875 1.789062 44.625c12.816407 11.824219 32.796876 11.023437 44.625-1.792969 11.828126-12.816406 11.027344-32.792968-1.792968-44.621094zm0 0" fill="#bd53b5"/><path d="m145.21875 311.214844c-9.671875 0-18.851562-3.589844-26.003906-10.1875-15.5625-14.355469-16.539063-38.703125-2.179688-54.269532 14.378906-15.550781 38.71875-16.53125 54.273438-2.179687 7.539062 6.960937 11.917968 16.441406 12.332031 26.6875.40625 10.253906-3.199219 20.046875-10.152344 27.582031l-.007812.003906c-6.953125 7.542969-16.425781 11.914063-26.679688 12.328126-.527343.023437-1.054687.035156-1.582031.035156zm.054688-63.148438c-6.679688 0-13.332032 2.671875-18.207032 7.953125-9.253906 10.027344-8.621094 25.71875 1.40625 34.972657 4.859375 4.488281 11.238282 6.761718 17.777344 6.546874 6.609375-.265624 12.714844-3.085937 17.195312-7.945312l.007813-.007812c4.480469-4.851563 6.804687-11.167969 6.539063-17.773438-.265626-6.605469-3.089844-12.710938-7.945313-17.199219-4.746094-4.378906-10.773437-6.546875-16.773437-6.546875zm0 0" fill="#4c241d"/><path d="m110.257812 342.972656-32.132812-29.65625c-3.941406-3.636718-4.1875-9.785156-.550781-13.730468 3.640625-3.941407 9.789062-4.1875 13.730469-.550782l32.132812 29.652344c3.945312 3.640625 4.191406 9.789062.550781 13.730469-3.636719 3.945312-9.785156 4.191406-13.730469.554687zm0 0" fill="#fc8c29"/><path d="m116.832031 352.375c-4.164062 0-8.125-1.539062-11.199219-4.378906l-32.132812-29.652344c-6.699219-6.1875-7.121094-16.675781-.945312-23.382812 6.199218-6.699219 16.683593-7.113282 23.378906-.9375l32.132812 29.652343c3.246094 2.992188 5.132813 7.078125 5.3125 11.492188.171875 4.414062-1.382812 8.632812-4.371094 11.878906-2.992187 3.246094-7.074218 5.140625-11.496093 5.3125-.226563.015625-.453125.015625-.679688.015625zm-32.121093-49.082031c-.777344 0-1.550782.308593-2.125.929687-1.074219 1.164063-1 3 .175781 4.085938l32.125 29.644531c.007812.007813.007812.007813.007812.007813.757813.699218 1.546875.742187 2.074219.761718.445312-.023437 1.292969-.160156 2-.929687.710938-.765625.785156-1.632813.765625-2.078125-.015625-.449219-.160156-1.300782-.921875-2l-32.132812-29.65625c-.558594-.511719-1.261719-.765625-1.96875-.765625zm0 0" fill="#4c241d"/></svg>