<svg height="402pt" viewBox="0 -27 402.77333 402" width="402pt" xmlns="http://www.w3.org/2000/svg"><path d="m307.199219 153.988281c0 84.828125-68.769531 153.597657-153.597657 153.597657-84.832031 0-153.601562-68.769532-153.601562-153.597657 0-84.832031 68.769531-153.601562 153.601562-153.601562 84.828126 0 153.597657 68.769531 153.597657 153.601562zm0 0" fill="#ffe8dc"/><path d="m381.214844 116.441406h-339.175782c-8.136718 0-14.730468 6.59375-14.730468 14.730469v195.816406c0 8.136719 6.59375 14.734375 14.730468 14.734375h339.175782c8.136718 0 14.734375-6.597656 14.734375-14.734375v-195.816406c-.003907-8.136719-6.597657-14.730469-14.734375-14.730469zm0 0" fill="#bd53b5"/><path d="m381.214844 348.546875h-339.175782c-11.886718 0-21.558593-9.671875-21.558593-21.558594v-195.816406c0-11.886719 9.671875-21.558594 21.558593-21.558594h339.175782c11.886718 0 21.558594 9.671875 21.558594 21.558594v195.816406c0 11.886719-9.671876 21.558594-21.558594 21.558594zm-339.175782-225.28125c-4.359374 0-7.90625 3.546875-7.90625 7.90625v195.816406c0 4.359375 3.546876 7.90625 7.90625 7.90625h339.175782c4.359375 0 7.90625-3.546875 7.90625-7.90625v-195.816406c0-4.359375-3.546875-7.90625-7.90625-7.90625zm0 0" fill="#4c241d"/><path d="m47.785156 136.921875h327.679688v143.359375h-327.679688zm0 0" fill="#fff"/><path d="m375.464844 287.105469h-327.679688c-3.769531 0-6.824218-3.054688-6.824218-6.824219v-143.359375c0-3.773437 3.054687-6.828125 6.824218-6.828125h327.679688c3.773437 0 6.828125 3.054688 6.828125 6.828125v143.359375c0 3.769531-3.054688 6.824219-6.828125 6.824219zm-320.851563-13.652344h314.027344v-129.707031h-314.027344zm0 0" fill="#4c241d"/><path d="m47.785156 184.707031h327.679688v68.265625h-327.679688zm0 0" fill="#ffce56"/><path d="m375.464844 259.800781h-327.679688c-3.769531 0-6.824218-3.058593-6.824218-6.828125v-68.265625c0-3.769531 3.054687-6.828125 6.824218-6.828125h327.679688c3.773437 0 6.828125 3.058594 6.828125 6.828125v68.265625c0 3.769532-3.054688 6.828125-6.828125 6.828125zm-320.851563-13.652343h314.027344v-54.613282h-314.027344zm0 0" fill="#4c241d"/><path d="m320.851562 218.839844c0 15.082031-12.222656 27.308594-27.304687 27.308594s-27.308594-12.226563-27.308594-27.308594c0-15.082032 12.226563-27.304688 27.308594-27.304688s27.304687 12.222656 27.304687 27.304688zm0 0" fill="#fff"/><path d="m293.546875 252.972656c-18.820313 0-34.132813-15.3125-34.132813-34.132812 0-18.820313 15.3125-34.132813 34.132813-34.132813s34.132813 15.3125 34.132813 34.132813c0 18.820312-15.3125 34.132812-34.132813 34.132812zm0-54.613281c-11.292969 0-20.480469 9.1875-20.480469 20.480469 0 11.292968 9.1875 20.480468 20.480469 20.480468s20.480469-9.1875 20.480469-20.480468c0-11.292969-9.1875-20.480469-20.480469-20.480469zm0 0" fill="#4c241d"/><path d="m157.011719 218.839844c0 15.082031-12.222657 27.308594-27.304688 27.308594s-27.308593-12.226563-27.308593-27.308594c0-15.082032 12.226562-27.304688 27.308593-27.304688s27.304688 12.222656 27.304688 27.304688zm0 0" fill="#fff"/><path d="m129.707031 252.972656c-18.820312 0-34.132812-15.3125-34.132812-34.132812 0-18.820313 15.3125-34.132813 34.132812-34.132813 18.820313 0 34.132813 15.3125 34.132813 34.132813 0 18.820312-15.3125 34.132812-34.132813 34.132812zm0-54.613281c-11.292969 0-20.480469 9.1875-20.480469 20.480469 0 11.292968 9.1875 20.480468 20.480469 20.480468s20.480469-9.1875 20.480469-20.480468c0-11.292969-9.1875-20.480469-20.480469-20.480469zm0 0" fill="#4c241d"/><path d="m88.746094 307.585938h238.933594l17.363281 34.132812h-273.660157zm0 0" fill="#6b4f5b"/><path d="m345.042969 348.546875h-273.660157c-2.375 0-4.578124-1.234375-5.820312-3.257813-1.238281-2.027343-1.339844-4.546874-.261719-6.664062l17.363281-34.132812c1.164063-2.289063 3.511719-3.730469 6.082032-3.730469h238.933594c2.570312 0 4.921874 1.441406 6.082031 3.730469l17.363281 34.132812c1.078125 2.117188.976562 4.640625-.261719 6.664062-1.242187 2.023438-3.449219 3.257813-5.820312 3.257813zm-262.527344-13.652344h251.394531l-10.417968-20.480469h-230.558594zm0 0" fill="#4c241d"/></svg>