<svg height="402pt" viewBox="0 -13 402.77333 402" width="402pt" xmlns="http://www.w3.org/2000/svg"><path d="m307.199219 153.988281c0 84.828125-68.769531 153.597657-153.597657 153.597657-84.832031 0-153.601562-68.769532-153.601562-153.597657 0-84.832031 68.769531-153.601562 153.601562-153.601562 84.828126 0 153.597657 68.769531 153.597657 153.601562zm0 0" fill="#ffe8dc"/><path d="m372.785156 369.027344h-256.730468v-279.894532h256.730468c12.789063 0 23.160156 10.371094 23.160156 23.164063v233.566406c0 12.792969-10.371093 23.164063-23.160156 23.164063zm0 0" fill="#fff"/><path d="m372.785156 375.851562h-256.730468c-3.769532 0-6.828126-3.054687-6.828126-6.824218v-279.894532c0-3.769531 3.058594-6.824218 6.828126-6.824218h256.730468c16.535156 0 29.988282 13.453125 29.988282 29.988281v233.566406c0 16.535157-13.453126 29.988281-29.988282 29.988281zm-249.90625-13.652343h249.90625c9.003906 0 16.335938-7.328125 16.335938-16.335938v-233.566406c0-9.007813-7.332032-16.335937-16.335938-16.335937h-249.90625zm0 0" fill="#4c241d"/><path d="m116.054688 369.027344h-22.847657c-10.003906 0-18.113281-8.109375-18.113281-18.117188v-243.664062c0-10.003906 8.109375-18.113282 18.113281-18.113282h22.847657zm0 0" fill="#bd53b5"/><path d="m116.054688 375.851562h-22.847657c-13.753906 0-24.941406-11.183593-24.941406-24.9375v-243.667968c0-13.753906 11.1875-24.9375 24.941406-24.9375h22.847657c3.769531 0 6.824218 3.054687 6.824218 6.824218v279.894532c0 3.769531-3.054687 6.824218-6.824218 6.824218zm-22.847657-279.890624c-6.222656 0-11.285156 5.0625-11.285156 11.285156v243.664062c0 6.222656 5.0625 11.289063 11.285156 11.289063h16.019531v-266.238281zm0 0" fill="#4c241d"/><path d="m360.175781 229.078125c0 57.535156-46.640625 104.175781-104.175781 104.175781s-104.175781-46.640625-104.175781-104.175781c0-57.53125 46.640625-104.171875 104.175781-104.171875s104.175781 46.640625 104.175781 104.171875zm0 0" fill="#ffce56"/><path d="m256 340.082031c-61.207031 0-111.003906-49.796875-111.003906-111.003906 0-61.203125 49.796875-111 111.003906-111s111.003906 49.796875 111.003906 111c0 61.207031-49.796875 111.003906-111.003906 111.003906zm0-208.351562c-53.679688 0-97.351562 43.667969-97.351562 97.347656 0 53.683594 43.671874 97.351563 97.351562 97.351563s97.351562-43.667969 97.351562-97.351563c0-53.679687-43.671874-97.347656-97.351562-97.347656zm0 0" fill="#4c241d"/><path d="m328.371094 235.90625c-3.773438 0-6.828125-3.054688-6.828125-6.828125 0-36.136719-29.40625-65.539063-65.542969-65.539063-3.769531 0-6.828125-3.058593-6.828125-6.828124 0-3.769532 3.058594-6.828126 6.828125-6.828126 43.671875 0 79.195312 35.527344 79.195312 79.195313 0 3.773437-3.054687 6.828125-6.824218 6.828125zm0 0" fill="#4c241d"/><path d="m294.554688 229.078125c0 21.296875-17.261719 38.558594-38.554688 38.558594s-38.554688-17.261719-38.554688-38.558594c0-21.292969 17.261719-38.554687 38.554688-38.554687s38.554688 17.261718 38.554688 38.554687zm0 0" fill="#fc8c29"/><g fill="#4c241d"><path d="m256 274.460938c-25.023438 0-45.378906-20.359376-45.378906-45.382813 0-25.019531 20.355468-45.378906 45.378906-45.378906s45.378906 20.359375 45.378906 45.378906c0 25.023437-20.355468 45.382813-45.378906 45.382813zm0-77.109376c-17.492188 0-31.726562 14.234376-31.726562 31.726563 0 17.496094 14.234374 31.730469 31.726562 31.730469s31.726562-14.234375 31.726562-31.730469c0-17.492187-14.234374-31.726563-31.726562-31.726563zm0 0"/><path d="m267.753906 229.078125c0 6.496094-5.261718 11.757813-11.753906 11.757813s-11.753906-5.261719-11.753906-11.757813c0-6.492187 5.261718-11.753906 11.753906-11.753906s11.753906 5.261719 11.753906 11.753906zm0 0"/></g></svg>