<svg height="403pt" viewBox="0 -24 403.14962 403" width="403pt" xmlns="http://www.w3.org/2000/svg"><path d="m42.769531 336.230469c-5.507812 0-10.980469-1.40625-15.890625-4.171875-8.5625-4.820313-14.40625-13.140625-16.039062-22.828125-1.628906-9.6875 1.164062-19.457031 7.671875-26.820313l94.875-107.328125c2.191406-2.484375 5.851562-3.023437 8.664062-1.304687 2.828125 1.71875 4.007813 5.21875 2.808594 8.296875l-51.921875 133.507812c-3.398438 8.753907-10.417969 15.589844-19.257812 18.753907-3.542969 1.265624-7.238282 1.894531-10.910157 1.894531zm55.492188-123.425781-69.527344 78.644531c-3.757813 4.261719-5.378906 9.914062-4.433594 15.515625.945313 5.597656 4.328125 10.414062 9.273438 13.199218 4.734375 2.664063 10.394531 3.132813 15.5 1.3125 5.109375-1.824218 9.167969-5.78125 11.140625-10.839843zm0 0" fill="#4c241d"/><path d="m403.148438 200.984375c0 84.828125-68.769532 153.597656-153.597657 153.597656-84.832031 0-153.601562-68.769531-153.601562-153.597656 0-84.832031 68.769531-153.601563 153.601562-153.601563 84.828125 0 153.597657 68.769532 153.597657 153.601563zm0 0" fill="#ffe8dc"/><path d="m178.046875 129.605469c-61.671875-54.285157-133.664063-73.292969-160.804687-42.457031-27.140626 30.832031.847656 99.832031 62.515624 154.113281 61.671876 54.285156 133.664063 73.292969 160.804688 42.460937 27.140625-30.835937-.847656-99.835937-62.515625-154.117187zm0 0" fill="#ffce56"/><path d="m201.648438 305.402344c-35.832032.007812-83.152344-20.941406-126.394532-59-65.484375-57.644532-93.21875-129.578125-63.132812-163.765625 30.113281-34.167969 104.96875-15.78125 170.453125 41.847656 65.480469 57.652344 93.214843 129.582031 63.125 163.765625-10.222657 11.605469-25.617188 17.152344-44.050781 17.152344zm-145.871094-226.171875c-14.292969 0-25.976563 3.988281-33.402344 12.433593-24.199219 27.484376 4.15625 93.652344 61.90625 144.484376 57.75 50.835937 126.960938 70.570312 151.167969 43.074218 24.195312-27.484375-4.152344-93.652344-61.902344-144.484375-40.003906-35.222656-85.53125-55.507812-117.769531-55.507812zm0 0" fill="#4c241d"/><path d="m138.4375 171.625c-16.433594-14.464844-35.621094-19.53125-42.855469-11.3125-7.230469 8.214844.230469 26.601562 16.664063 41.070312 16.433594 14.464844 35.617187 19.53125 42.851562 11.3125 7.234375-8.214843-.226562-26.601562-16.660156-41.070312zm0 0" fill="#fc8c29"/><path d="m144.742188 223.457031c-10.851563 0-24.457032-5.90625-37-16.941406-19.878907-17.507813-27.304688-39.304687-17.273438-50.707031 10.046875-11.40625 32.605469-6.800782 52.496094 10.699218 19.878906 17.507813 27.304687 39.308594 17.273437 50.707032-3.714843 4.214844-9.136719 6.242187-15.496093 6.242187zm-38.914063-60.246093c-2.398437 0-4.179687.566406-5.113281 1.621093-3.410156 3.878907 1.246094 18.398438 16.054687 31.429688 14.8125 13.050781 29.785157 15.808593 33.21875 11.933593 3.414063-3.878906-1.246093-18.398437-16.050781-31.433593-10.789062-9.496094-21.667969-13.550781-28.109375-13.550781zm0 0" fill="#4c241d"/><path d="m260.679688 52.867188c-67.230469-47.234376-140.875-58.273438-164.492188-24.660157-23.617188 33.617188 11.738281 99.15625 78.96875 146.390625 67.230469 47.230469 140.878906 58.269532 164.492188 24.65625 23.617187-33.613281-11.738282-99.15625-78.96875-146.386718zm0 0" fill="#ffce56"/><path d="m292.476562 225.542969c-6.222656 0-12.816406-.511719-19.753906-1.554688-32.09375-4.804687-68.140625-20.367187-101.507812-43.804687-33.359375-23.441406-60.226563-52.082032-75.632813-80.640625-16.207031-30.046875-17.980469-56.765625-4.992187-75.253907 12.976562-18.480468 38.726562-25.871093 72.488281-20.8125 32.09375 4.8125 68.136719 20.375 101.503906 43.8125 33.363281 23.441407 60.222657 52.074219 75.628907 80.640626 16.203124 30.042968 17.984374 56.761718 5 75.246093-10.320313 14.679688-28.695313 22.367188-52.734376 22.367188zm-149.292968-209.980469c-19.355469 0-33.765625 5.679688-41.421875 16.582031-9.859375 14.027344-7.785157 35.660157 5.839843 60.917969 14.421876 26.734375 39.800782 53.699219 71.46875 75.949219 31.660157 22.246093 65.640626 36.976562 95.679688 41.480469 28.378906 4.246093 49.425781-1.136719 59.285156-15.167969 9.859375-14.027344 7.78125-35.660157-5.839844-60.914063-14.421874-26.734375-39.800781-53.707031-71.46875-75.945312-31.660156-22.246094-65.640624-36.980469-95.679687-41.480469-6.332031-.953125-12.304687-1.421875-17.863281-1.421875zm0 0" fill="#4c241d"/><path d="m260.851562 121.554688c6.292969-8.957032-3.128906-26.421876-21.042968-39.007813-17.914063-12.585937-37.539063-15.527344-43.835938-6.570313-1.898437 2.699219-8.617187 12.265626-10.515625 14.96875-6.292969 8.957032 3.128907 26.421876 21.042969 39.007813 17.917969 12.589844 37.539062 15.527344 43.835938 6.570313 1.898437-2.699219 8.617187-12.265626 10.515624-14.96875zm0 0" fill="#fc8c29"/><path d="m237.773438 148.542969c-1.90625 0-3.910157-.160157-6.011719-.472657-9.304688-1.390624-19.671875-5.839843-29.1875-12.527343-9.511719-6.6875-17.210938-14.933594-21.679688-23.214844-5.265625-9.765625-5.625-18.75-1.019531-25.3125l10.519531-14.964844c4.601563-6.5625 13.175781-9.269531 24.152344-7.621093 9.308594 1.398437 19.671875 5.847656 29.1875 12.53125 9.511719 6.679687 17.214844 14.921874 21.679687 23.207031 5.265626 9.761719 5.632813 18.753906 1.027344 25.316406 0 0 0 0-.007812 0l-10.519532 14.964844c-3.71875 5.308593-10.042968 8.09375-18.140624 8.09375zm-29.21875-70.925781c-3.40625 0-5.953126.800781-6.992188 2.285156l-10.515625 14.960937c-1.417969 2.019531-.703125 6.226563 1.863281 10.988281 3.433594 6.359376 9.8125 13.105469 17.519532 18.519532 7.699218 5.414062 16.214843 9.128906 23.359374 10.203125 5.328126.804687 9.546876.042969 10.960938-1.972657l10.527344-14.96875c1.40625-2.019531.691406-6.226562-1.875-10.980468-3.433594-6.363282-9.8125-13.109375-17.519532-18.515625-7.699218-5.414063-16.214843-9.132813-23.359374-10.199219-1.414063-.214844-2.746094-.320312-3.96875-.320312zm52.300781 43.9375h.066406zm0 0" fill="#4c241d"/><path d="m239.828125 82.542969c-17.914063-12.589844-37.539063-15.53125-43.835937-6.574219-6.292969 8.957031 3.128906 26.425781 21.046874 39.011719 17.917969 12.585937 37.542969 15.53125 43.835938 6.570312 6.292969-8.957031-3.128906-26.421875-21.046875-39.007812zm0 0" fill="#ffce56"/><g fill="#4c241d"><path d="m248.300781 133.570312c-1.910156 0-3.917969-.15625-6.019531-.46875-9.304688-1.398437-19.671875-5.84375-29.1875-12.53125-21.671875-15.226562-31.4375-36.089843-22.707031-48.519531 4.609375-6.554687 13.183593-9.269531 24.160156-7.621093 9.308594 1.398437 19.671875 5.847656 29.1875 12.53125 21.671875 15.234374 31.433594 36.089843 22.707031 48.523437-3.726562 5.300781-10.050781 8.085937-18.140625 8.085937zm-39.746093-55.953124c-3.40625 0-5.953126.800781-6.992188 2.285156-1.414062 2.015625-.699219 6.222656 1.867188 10.972656 3.425781 6.363281 9.8125 13.109375 17.519531 18.523438 7.699219 5.414062 16.214843 9.132812 23.359375 10.199218 5.363281.808594 9.546875.046875 10.960937-1.964844 2.972657-4.226562-3.238281-18.152343-19.386719-29.492187-7.699218-5.414063-16.210937-9.136719-23.359374-10.203125-1.414063-.214844-2.746094-.320312-3.96875-.320312zm0 0"/><path d="m225.65625 108.824219c-2.449219 0-4.773438-1.320313-6-3.570313-1.582031-2.898437-.847656-6.523437 1.734375-8.589844l111.851563-89.488281c7.675781-6.128906 17.5625-8.453125 27.179687-6.335937 9.59375 2.109375 17.613281 8.355468 22.007813 17.140625 4.199218 8.402343 4.546874 18.195312.953124 26.875-3.589843 8.671875-10.765624 15.347656-19.671874 18.320312l-135.890626 45.292969c-.71875.242188-1.445312.355469-2.164062.355469zm127.785156-95.085938c-4.207031 0-8.304687 1.414063-11.671875 4.105469l-81.960937 65.574219 99.582031-33.195313c5.152344-1.71875 9.300781-5.578125 11.378906-10.589844 2.082031-5.019531 1.875-10.683593-.550781-15.542968-2.539062-5.078125-7.179688-8.691406-12.726562-9.914063-1.347657-.292969-2.703126-.4375-4.050782-.4375zm0 0"/></g></svg>