<svg height="368.64pt" viewBox="0 0 368.64 368.64" width="368.64pt" xmlns="http://www.w3.org/2000/svg"><path d="m307.199219 180.90625c0 84.832031-68.769531 153.601562-153.597657 153.601562-84.832031 0-153.601562-68.769531-153.601562-153.601562s68.769531-153.597656 153.601562-153.597656c84.828126 0 153.597657 68.765625 153.597657 153.597656zm0 0" fill="#ffe8dc"/><g fill="#4c241d"><path d="m109.226562 368.640625c-3.769531 0-6.828124-3.058594-6.828124-6.828125v-354.984375c0-3.773437 3.058593-6.828125 6.828124-6.828125 3.769532 0 6.828126 3.054688 6.828126 6.828125v354.984375c0 3.769531-3.058594 6.828125-6.828126 6.828125zm0 0"/><path d="m184.320312 368.640625c-3.769531 0-6.828124-3.058594-6.828124-6.828125v-354.984375c0-3.773437 3.058593-6.828125 6.828124-6.828125 3.769532 0 6.828126 3.054688 6.828126 6.828125v354.984375c0 3.769531-3.058594 6.828125-6.828126 6.828125zm0 0"/><path d="m259.414062 368.640625c-3.769531 0-6.828124-3.058594-6.828124-6.828125v-354.984375c0-3.773437 3.058593-6.828125 6.828124-6.828125 3.769532 0 6.824219 3.054688 6.824219 6.828125v354.984375c0 3.769531-3.054687 6.828125-6.824219 6.828125zm0 0"/><path d="m334.507812 368.640625c-3.769531 0-6.828124-3.058594-6.828124-6.828125v-354.984375c0-3.773437 3.058593-6.828125 6.828124-6.828125 3.769532 0 6.824219 3.054688 6.824219 6.828125v354.984375c0 3.769531-3.054687 6.828125-6.824219 6.828125zm0 0"/></g><path d="m136.535156 252.585938c0 15.082031-12.226562 27.308593-27.308594 27.308593-15.082031 0-27.304687-12.226562-27.304687-27.308593 0-15.082032 12.222656-27.304688 27.304687-27.304688 15.082032 0 27.308594 12.222656 27.308594 27.304688zm0 0" fill="#fc8c29"/><path d="m109.226562 286.71875c-18.820312 0-34.132812-15.3125-34.132812-34.132812 0-18.820313 15.3125-34.132813 34.132812-34.132813 18.820313 0 34.132813 15.3125 34.132813 34.132813 0 18.820312-15.3125 34.132812-34.132813 34.132812zm0-54.613281c-11.292968 0-20.480468 9.1875-20.480468 20.480469 0 11.292968 9.1875 20.480468 20.480468 20.480468 11.292969 0 20.480469-9.1875 20.480469-20.480468 0-11.292969-9.1875-20.480469-20.480469-20.480469zm0 0" fill="#4c241d"/><path d="m361.8125 102.398438c0 15.082031-12.226562 27.308593-27.304688 27.308593-15.082031 0-27.308593-12.226562-27.308593-27.308593 0-15.078126 12.226562-27.304688 27.308593-27.304688 15.078126 0 27.304688 12.226562 27.304688 27.304688zm0 0" fill="#bd53b5"/><path d="m334.507812 136.535156c-18.820312 0-34.132812-15.316406-34.132812-34.136718 0-18.816407 15.3125-34.132813 34.132812-34.132813 18.816407 0 34.132813 15.316406 34.132813 34.132813 0 18.820312-15.316406 34.136718-34.132813 34.136718zm0-54.613281c-11.292968 0-20.480468 9.183594-20.480468 20.476563 0 11.292968 9.1875 20.480468 20.480468 20.480468 11.292969 0 20.480469-9.1875 20.480469-20.480468 0-11.292969-9.1875-20.476563-20.480469-20.476563zm0 0" fill="#4c241d"/><path d="m211.625 136.535156c0 15.078125-12.222656 27.304688-27.304688 27.304688-15.082031 0-27.308593-12.226563-27.308593-27.304688 0-15.082031 12.226562-27.308594 27.308593-27.308594 15.082032 0 27.304688 12.226563 27.304688 27.308594zm0 0" fill="#a9ba5a"/><path d="m184.320312 170.667969c-18.820312 0-34.132812-15.316407-34.132812-34.132813 0-18.820312 15.3125-34.136718 34.132812-34.136718 18.820313 0 34.132813 15.316406 34.132813 34.136718 0 18.816406-15.3125 34.132813-34.132813 34.132813zm0-54.613281c-11.292968 0-20.480468 9.1875-20.480468 20.480468 0 11.292969 9.1875 20.476563 20.480468 20.476563 11.292969 0 20.480469-9.183594 20.480469-20.476563 0-11.292968-9.1875-20.480468-20.480469-20.480468zm0 0" fill="#4c241d"/><path d="m286.71875 300.375c0 15.078125-12.222656 27.304688-27.304688 27.304688-15.082031 0-27.308593-12.226563-27.308593-27.304688 0-15.082031 12.226562-27.308594 27.308593-27.308594 15.082032 0 27.304688 12.226563 27.304688 27.308594zm0 0" fill="#ffce56"/><path d="m259.414062 334.507812c-18.820312 0-34.132812-15.316406-34.132812-34.132812 0-18.820312 15.3125-34.136719 34.132812-34.136719 18.820313 0 34.132813 15.316407 34.132813 34.136719 0 18.816406-15.3125 34.132812-34.132813 34.132812zm0-54.613281c-11.292968 0-20.480468 9.1875-20.480468 20.480469s9.1875 20.476562 20.480468 20.476562c11.292969 0 20.480469-9.183593 20.480469-20.476562s-9.1875-20.480469-20.480469-20.480469zm0 0" fill="#4c241d"/></svg>