<svg height="409pt" viewBox="0 -1 409.60171 409" width="409pt" xmlns="http://www.w3.org/2000/svg"><path d="m307.199219 179.578125c0 84.832031-68.769531 153.597656-153.597657 153.597656-84.832031 0-153.601562-68.765625-153.601562-153.597656s68.769531-153.601563 153.601562-153.601563c84.828126 0 153.597657 68.769532 153.597657 153.601563zm0 0" fill="#ffe8dc"/><path d="m116.054688 234.191406h266.238281v122.878906h-266.238281zm0 0" fill="#fff"/><path d="m382.292969 363.898438h-266.238281c-3.769532 0-6.828126-3.054688-6.828126-6.828126v-122.878906c0-3.773437 3.058594-6.828125 6.828126-6.828125h266.238281c3.769531 0 6.828125 3.054688 6.828125 6.828125v122.878906c0 3.773438-3.058594 6.828126-6.828125 6.828126zm-259.414063-13.652344h252.585938v-109.226563h-252.585938zm0 0" fill="#4c241d"/><path d="m383.757812 237.605469h-269.167968c-10.5 0-19.015625-8.515625-19.015625-19.019531v-9.75c0-10.503907 8.515625-19.019532 19.015625-19.019532h269.167968c10.5 0 19.015626 8.515625 19.015626 19.019532v9.75c0 10.503906-8.515626 19.019531-19.015626 19.019531zm0 0" fill="#bd53b5"/><path d="m383.757812 244.429688h-269.167968c-14.25 0-25.84375-11.59375-25.84375-25.847657v-9.746093c0-14.253907 11.59375-25.847657 25.84375-25.847657h269.167968c14.25 0 25.84375 11.59375 25.84375 25.847657v9.746093c0 14.253907-11.59375 25.847657-25.84375 25.847657zm-269.167968-47.785157c-6.71875 0-12.191406 5.464844-12.191406 12.195313v9.746094c0 6.726562 5.472656 12.195312 12.191406 12.195312h269.167968c6.71875 0 12.191407-5.46875 12.191407-12.195312v-9.746094c0-6.726563-5.472657-12.195313-12.191407-12.195313zm0 0" fill="#4c241d"/><path d="m383.757812 401.445312h-269.167968c-10.5 0-19.015625-8.515624-19.015625-19.019531v-9.75c0-10.503906 8.515625-19.019531 19.015625-19.019531h269.167968c10.5 0 19.015626 8.515625 19.015626 19.019531v9.75c0 10.503907-8.515626 19.019531-19.015626 19.019531zm0 0" fill="#bd53b5"/><g fill="#4c241d"><path d="m383.757812 408.269531h-269.167968c-14.25 0-25.84375-11.59375-25.84375-25.847656v-9.746094c0-14.253906 11.59375-25.847656 25.84375-25.847656h269.167968c14.25 0 25.84375 11.59375 25.84375 25.847656v9.746094c0 14.253906-11.59375 25.847656-25.84375 25.847656zm-269.167968-47.785156c-6.71875 0-12.191406 5.464844-12.191406 12.195313v9.746093c0 6.726563 5.472656 12.195313 12.191406 12.195313h269.167968c6.71875 0 12.191407-5.46875 12.191407-12.195313v-9.746093c0-6.726563-5.472657-12.195313-12.191407-12.195313zm0 0"/><path d="m133.121094 234.191406c0 7.539063-6.113282 13.652344-13.65625 13.652344-7.539063 0-13.652344-6.113281-13.652344-13.652344 0-7.539062 6.113281-13.652344 13.652344-13.652344 7.542968 0 13.65625 6.113282 13.65625 13.652344zm0 0"/><path d="m221.867188 234.191406c0 7.539063-6.113282 13.652344-13.652344 13.652344-7.542969 0-13.65625-6.113281-13.65625-13.652344 0-7.539062 6.113281-13.652344 13.65625-13.652344 7.539062 0 13.652344 6.113282 13.652344 13.652344zm0 0"/><path d="m180.90625 357.070312c0 7.542969-6.113281 13.652344-13.652344 13.652344-7.542968 0-13.652344-6.109375-13.652344-13.652344 0-7.539062 6.109376-13.652343 13.652344-13.652343 7.539063 0 13.652344 6.113281 13.652344 13.652343zm0 0"/><path d="m262.828125 357.070312c0 7.542969-6.113281 13.652344-13.65625 13.652344-7.539063 0-13.652344-6.109375-13.652344-13.652344 0-7.539062 6.113281-13.652343 13.652344-13.652343 7.542969 0 13.65625 6.113281 13.65625 13.652343zm0 0"/><path d="m344.746094 357.070312c0 7.542969-6.113282 13.652344-13.652344 13.652344s-13.652344-6.109375-13.652344-13.652344c0-7.539062 6.113282-13.652343 13.652344-13.652343s13.652344 6.113281 13.652344 13.652343zm0 0"/><path d="m310.613281 234.191406c0 7.539063-6.113281 13.652344-13.652343 13.652344-7.542969 0-13.652344-6.113281-13.652344-13.652344 0-7.539062 6.109375-13.652344 13.652344-13.652344 7.539062 0 13.652343 6.113282 13.652343 13.652344zm0 0"/><path d="m392.535156 234.191406c0 7.539063-6.113281 13.652344-13.65625 13.652344-7.539062 0-13.652344-6.113281-13.652344-13.652344 0-7.539062 6.113282-13.652344 13.652344-13.652344 7.542969 0 13.65625 6.113282 13.65625 13.652344zm0 0"/><path d="m331.097656 363.898438c-.117187 0-.230468 0-.34375-.007813-2.9375-.148437-5.449218-2.160156-6.238281-4.992187l-28.632813-103.09375-40.34375 103.738281c-1.042968 2.679687-3.617187 4.496093-6.53125 4.355469-2.878906-.074219-5.398437-1.941407-6.308593-4.667969l-34.484375-103.453125-34.484375 103.453125c-.910157 2.726562-3.433594 4.59375-6.308594 4.667969-2.808594.183593-5.488281-1.671876-6.53125-4.355469l-47.785156-122.878907c-1.367188-3.515624.375-7.464843 3.886719-8.832031 3.503906-1.394531 7.472656.371094 8.839843 3.882813l40.929688 105.25 34.976562-104.933594c.929688-2.789062 3.535157-4.667969 6.476563-4.667969 2.9375 0 5.546875 1.882813 6.476562 4.667969l34.976563 104.933594 40.929687-105.25c1.066406-2.738282 3.847656-4.5 6.703125-4.34375 2.9375.144531 5.449219 2.160156 6.234375 4.992187l28.636719 103.09375 40.34375-103.742187c1.367187-3.511719 5.324219-5.257813 8.835937-3.882813 3.515626 1.367188 5.257813 5.316407 3.890626 8.832031l-47.785157 122.878907c-1.023437 2.636719-3.558593 4.355469-6.359375 4.355469zm0 0"/></g><path d="m175.730469 127.183594c-8.203125-10.339844-23.230469-12.070313-33.570313-3.867188-10.335937 8.199219-12.066406 23.230469-3.867187 33.566406 8.203125 10.335938 23.230469 12.070313 33.570312 3.867188 10.335938-8.199219 12.066407-23.230469 3.867188-33.566406zm0 0" fill="#ffce56"/><path d="m157.046875 172.738281c-9.0625 0-18.039063-3.980469-24.097656-11.605469-10.523438-13.273437-8.292969-32.632812 4.972656-43.167968 13.265625-10.519532 32.636719-8.300782 43.160156 4.980468v-.007812c5.097657 6.429688 7.390625 14.460938 6.453125 22.613281-.941406 8.152344-5.003906 15.449219-11.425781 20.546875-5.640625 4.472656-12.375 6.640625-19.0625 6.640625zm-.054687-47.765625c-3.714844 0-7.457032 1.207032-10.585938 3.683594-7.371094 5.855469-8.609375 16.613281-2.761719 23.988281 5.847657 7.359375 16.605469 8.59375 23.976563 2.761719 3.574218-2.835938 5.824218-6.886719 6.351562-11.421875.519532-4.523437-.75-8.988281-3.585937-12.550781 0-.007813 0-.007813 0-.007813-3.367188-4.242187-8.359375-6.453125-13.394531-6.453125zm0 0" fill="#4c241d"/><path d="m173.613281 131.339844c-2.007812 0-4.003906-.886719-5.347656-2.589844-2.34375-2.949219-1.851563-7.246094 1.101563-9.585938l145.96875-115.804687c2.953124-2.355469 7.242187-1.847656 9.589843 1.105469 2.34375 2.953125 1.851563 7.246094-1.101562 9.585937l-145.972657 115.804688c-1.253906 1.003906-2.75 1.484375-4.238281 1.484375zm0 0" fill="#4c241d"/><path d="m346.394531 123.316406c-10.335937-8.203125-25.367187-6.46875-33.566406 3.867188-8.203125 10.335937-6.46875 25.367187 3.867187 33.566406 10.339844 8.203125 25.367188 6.46875 33.570313-3.867188 8.199219-10.335937 6.46875-25.367187-3.871094-33.566406zm0 0" fill="#fc8c29"/><path d="m331.515625 172.738281c-6.6875 0-13.421875-2.167969-19.058594-6.640625-6.429687-5.097656-10.484375-12.394531-11.421875-20.546875-.941406-8.152343 1.347656-16.179687 6.449219-22.605469 5.097656-6.433593 12.394531-10.492187 20.550781-11.433593 8.140625-.917969 16.179688 1.347656 22.609375 6.453125 13.265625 10.527344 15.5 29.894531 4.976563 43.160156-6.0625 7.632812-15.039063 11.613281-24.105469 11.613281zm.070313-47.773437c-.660157 0-1.320313.035156-1.988282.113281-4.527344.519531-8.582031 2.773437-11.414062 6.347656-.003906 0-.003906.003907-.003906.003907-2.832032 3.566406-4.105469 8.027343-3.585938 12.554687.523438 4.53125 2.777344 8.585937 6.347656 11.417969 7.363282 5.832031 18.128906 4.601562 23.980469-2.765625 5.847656-7.367188 4.605469-18.128907-2.765625-23.980469-3.046875-2.410156-6.738281-3.691406-10.570312-3.691406zm-18.753907 2.21875h.066407zm0 0" fill="#4c241d"/><path d="m314.949219 131.339844c-1.484375 0-2.984375-.480469-4.238281-1.480469l-147.957032-117.386719c-2.953125-2.339844-3.445312-6.632812-1.101562-9.585937 2.347656-2.9531252 6.640625-3.453125 9.589844-1.105469l147.957031 117.386719c2.953125 2.339843 3.445312 6.632812 1.101562 9.585937-1.347656 1.699219-3.339843 2.585938-5.351562 2.585938zm0 0" fill="#4c241d"/></svg>