<svg height="424pt" viewBox="0 -4 424.07913 424" width="424pt" xmlns="http://www.w3.org/2000/svg"><path d="m307.199219 153.640625c0 84.828125-68.769531 153.597656-153.597657 153.597656-84.832031 0-153.601562-68.769531-153.601562-153.597656 0-84.832031 68.769531-153.6015625 153.601562-153.6015625 84.828126 0 153.597657 68.7695315 153.597657 153.6015625zm0 0" fill="#ffe8dc"/><path d="m384.3125 307.238281h-113.261719c-10.199219 0-18.464843-8.265625-18.464843-18.460937v-44.996094c0-10.195312 8.265624-18.460938 18.464843-18.460938h113.261719c10.195312 0 18.460938 8.265626 18.460938 18.460938v44.996094c0 10.195312-8.265626 18.460937-18.460938 18.460937zm0 0" fill="#fc8c29"/><path d="m384.3125 314.066406h-113.265625c-13.941406 0-25.285156-11.347656-25.285156-25.285156v-45c0-13.941406 11.34375-25.285156 25.285156-25.285156h113.265625c13.941406 0 25.285156 11.34375 25.285156 25.285156v45c.003906 13.9375-11.34375 25.285156-25.285156 25.285156zm-113.265625-81.921875c-6.414063 0-11.632813 5.222657-11.632813 11.632813v45c0 6.414062 5.21875 11.632812 11.632813 11.632812h113.265625c6.414062 0 11.632812-5.21875 11.632812-11.632812v-45c0-6.414063-5.222656-11.632813-11.632812-11.632813zm0 0" fill="#4c241d"/><path d="m334.378906 284.527344c0 60.808594-49.292968 110.101562-110.097656 110.101562-60.808594 0-110.101562-49.292968-110.101562-110.101562s49.292968-110.101563 110.101562-110.101563c60.804688 0 110.097656 49.292969 110.097656 110.101563zm0 0" fill="#bd53b5"/><path d="m224.28125 401.453125c-64.472656 0-116.929688-52.453125-116.929688-116.925781s52.453126-116.925782 116.929688-116.925782c64.472656 0 116.925781 52.453126 116.925781 116.925782s-52.453125 116.925781-116.925781 116.925781zm0-220.199219c-56.949219 0-103.273438 46.328125-103.273438 103.273438 0 56.945312 46.324219 103.273437 103.273438 103.273437 56.945312 0 103.273438-46.328125 103.273438-103.273437 0-56.945313-46.328126-103.273438-103.273438-103.273438zm0 0" fill="#4c241d"/><path d="m302.351562 284.527344c0 43.117187-34.953124 78.070312-78.070312 78.070312s-78.074219-34.953125-78.074219-78.070312c0-43.117188 34.957031-78.070313 78.074219-78.070313s78.070312 34.953125 78.070312 78.070313zm0 0" fill="#fff"/><path d="m224.28125 369.425781c-46.816406 0-84.902344-38.085937-84.902344-84.898437s38.085938-84.898438 84.902344-84.898438c46.8125 0 84.898438 38.085938 84.898438 84.898438s-38.085938 84.898437-84.898438 84.898437zm0-156.144531c-39.289062 0-71.246094 31.960938-71.246094 71.246094s31.957032 71.246094 71.246094 71.246094c39.285156 0 71.246094-31.960938 71.246094-71.246094s-31.960938-71.246094-71.246094-71.246094zm0 0" fill="#4c241d"/><path d="m81.921875 375.507812c-3.773437 0-6.828125-3.054687-6.828125-6.828124v-286.71875c0-3.773438 3.054688-6.828126 6.828125-6.828126s6.824219 3.054688 6.824219 6.828126v286.71875c0 3.773437-3.050782 6.828124-6.824219 6.828124zm0 0" fill="#4c241d"/><path d="m42.375 387.09375c-1.707031 0-3.410156-.632812-4.734375-1.90625-2.714844-2.613281-2.800781-6.933594-.1875-9.652344l38.679687-40.214844c2.613282-2.71875 6.933594-2.792968 9.65625-.183593 2.710938 2.609375 2.800782 6.929687.183594 9.652343l-38.679687 40.210938c-1.339844 1.394531-3.125 2.09375-4.917969 2.09375zm0 0" fill="#4c241d"/><path d="m118.964844 387.09375c-1.792969 0-3.578125-.699219-4.917969-2.09375l-38.679687-40.214844c-2.613282-2.71875-2.527344-7.039062.183593-9.652344 2.722657-2.605468 7.042969-2.53125 9.65625.1875l38.679688 40.210938c2.613281 2.722656 2.523437 7.039062-.1875 9.652344-1.324219 1.277344-3.027344 1.910156-4.734375 1.910156zm0 0" fill="#4c241d"/><path d="m329.59375 387.09375c-1.707031 0-3.40625-.632812-4.734375-1.90625-2.710937-2.613281-2.800781-6.933594-.183594-9.652344l38.679688-40.214844c2.613281-2.71875 6.929687-2.792968 9.652343-.183593 2.714844 2.609375 2.800782 6.929687.1875 9.652343l-38.683593 40.210938c-1.339844 1.394531-3.125 2.09375-4.917969 2.09375zm0 0" fill="#4c241d"/><path d="m406.1875 387.09375c-1.792969 0-3.582031-.699219-4.921875-2.09375l-38.679687-40.214844c-2.613282-2.71875-2.523438-7.039062.1875-9.652344 2.71875-2.605468 7.039062-2.53125 9.652343.1875l38.679688 40.210938c2.613281 2.722656 2.527343 7.039062-.1875 9.652344-1.324219 1.277344-3.023438 1.910156-4.730469 1.910156zm0 0" fill="#4c241d"/><path d="m40.960938 219.097656v32.925782c0 7.875 6.382812 14.257812 14.257812 14.257812h59.664062c3.265626-23.738281 14.214844-45.058594 30.398438-61.441406h-90.066406c-7.871094 0-14.253906 6.382812-14.253906 14.257812zm0 0" fill="#ffce56"/><g fill="#4c241d"><path d="m114.878906 273.105469h-59.667968c-11.625 0-21.078126-9.453125-21.078126-21.078125v-32.933594c0-11.628906 9.453126-21.082031 21.078126-21.082031h90.066406c2.753906 0 5.242187 1.652343 6.300781 4.191406s.492187 5.476563-1.449219 7.433594c-15.632812 15.820312-25.484375 35.726562-28.492187 57.574219-.457031 3.375-3.34375 5.894531-6.757813 5.894531zm-59.667968-61.4375c-4.089844 0-7.425782 3.332031-7.425782 7.425781v32.933594c0 4.09375 3.332032 7.425781 7.425782 7.425781h53.867187c3.320313-17.453125 10.554687-33.679687 21.261719-47.785156zm0 0"/><path d="m417.257812 210.839844c-1.976562 0-3.933593-.851563-5.285156-2.5l-116.878906-142.535156c-2.386719-2.910157-1.96875-7.210938.953125-9.605469 2.90625-2.398438 7.207031-1.960938 9.605469.953125l116.878906 142.535156c2.386719 2.914062 1.96875 7.214844-.953125 9.605469-1.265625 1.039062-2.796875 1.546875-4.320313 1.546875zm0 0"/><path d="m368.640625 375.507812c-3.773437 0-6.828125-3.054687-6.828125-6.828124v-218.453126c0-3.773437 3.054688-6.828124 6.828125-6.828124s6.824219 3.054687 6.824219 6.828124v218.453126c0 3.773437-3.050782 6.828124-6.824219 6.828124zm0 0"/><path d="m310.445312 415.8125c-2.652343 0-5.1875-1.558594-6.285156-4.164062l-16.382812-38.671876c-1.464844-3.46875.15625-7.476562 3.628906-8.949218 3.445312-1.453125 7.472656.140625 8.945312 3.628906l16.378907 38.671875c1.46875 3.464844-.152344 7.472656-3.625 8.945313-.867188.367187-1.765625.539062-2.660157.539062zm0 0"/><path d="m138.113281 415.8125c-.890625 0-1.792969-.171875-2.664062-.539062-3.46875-1.472657-5.085938-5.480469-3.621094-8.953126l16.386719-38.671874c1.480468-3.472657 5.488281-5.074219 8.953125-3.621094 3.46875 1.472656 5.085937 5.480468 3.621093 8.953125l-16.386718 38.675781c-1.109375 2.597656-3.636719 4.15625-6.289063 4.15625zm0 0"/><path d="m122.878906 122.917969h-81.917968c-3.773438 0-6.828126-3.050781-6.828126-6.824219s3.054688-6.828125 6.828126-6.828125h81.917968c3.773438 0 6.828125 3.054687 6.828125 6.828125s-3.054687 6.824219-6.828125 6.824219zm0 0"/><path d="m95.574219 102.441406h-27.308594c-3.773437 0-6.824219-3.054687-6.824219-6.828125 0-3.773437 3.050782-6.828125 6.824219-6.828125h27.308594c3.773437 0 6.824219 3.054688 6.824219 6.828125 0 3.773438-3.050782 6.828125-6.824219 6.828125zm0 0"/><path d="m245.761719 116.09375c-1.746094 0-3.496094-.667969-4.828125-2-2.664063-2.667969-2.664063-6.988281 0-9.652344l102.398437-102.402344c2.667969-2.664062 6.988281-2.664062 9.65625 0 2.664063 2.667969 2.664063 6.988282 0 9.652344l-102.402343 102.402344c-1.332032 1.332031-3.078126 2-4.824219 2zm0 0"/><path d="m87.992188 235.558594c0 5.238281-4.246094 9.484375-9.484376 9.484375-5.238281 0-9.484374-4.246094-9.484374-9.484375 0-5.238282 4.246093-9.484375 9.484374-9.484375 5.238282 0 9.484376 4.246093 9.484376 9.484375zm0 0"/></g></svg>