<svg height="407pt" viewBox="0 -4 407.04099 407" width="407pt" xmlns="http://www.w3.org/2000/svg"><path d="m307.199219 161.164062c0 84.832032-68.769531 153.601563-153.597657 153.601563-84.832031 0-153.601562-68.769531-153.601562-153.601563 0-84.832031 68.769531-153.597656 153.601562-153.597656 84.828126 0 153.597657 68.765625 153.597657 153.597656zm0 0" fill="#ffe8dc"/><path d="m114.421875 388.378906-.203125-.199218c-2.695312-2.660157-4.011719-6.414063-3.566406-10.171876l11.878906-99.878906-101.171875 12.003906c-3.695313.4375-7.394531-.828124-10.046875-3.445312-5.839844-5.761719-4.480469-15.523438 2.71875-19.46875l167.308594-91.667969 22.632812-1.046875 19.957032 19.679688-.984376 23.113281-89.09375 168.09375c-3.84375 7.253906-13.585937 8.75-19.429687 2.988281zm0 0" fill="#fff"/><path d="m122.960938 398.738281c-4.972657 0-9.714844-1.925781-13.332032-5.5-.015625-.011719-.023437-.019531-.035156-.035156l-.199219-.199219c-4.195312-4.132812-6.222656-9.90625-5.519531-15.804687l10.859375-91.273438-92.566406 10.988281c-5.78125.667969-11.484375-1.265624-15.648438-5.355468-4.339843-4.285156-6.339843-10.199219-5.5-16.234375.839844-6.023438 4.386719-11.164063 9.71875-14.09375l167.320313-91.664063c.914062-.5 1.929687-.789062 2.96875-.835937l22.632812-1.042969c1.773438-.089844 3.753906.625 5.105469 1.957031l19.953125 19.679688c1.375 1.355469 2.105469 3.226562 2.027344 5.15625l-.984375 23.113281c-.039063 1.011719-.316407 2.003906-.789063 2.90625l-89.09375 168.089844c-2.84375 5.375-7.929687 8.996094-13.953125 9.921875-.992187.15625-1.984375.226562-2.964843.226562zm-.425782-127.4375c1.800782 0 3.539063.710938 4.824219 2 1.480469 1.476563 2.199219 3.550781 1.953125 5.632813l-11.878906 99.878906c-.199219 1.679688.375 3.320312 1.582031 4.507812l.199219.199219c1.238281 1.214844 2.941406 1.734375 4.632812 1.5 1.714844-.265625 3.160156-1.292969 3.964844-2.820312l88.375-166.730469.792969-18.546875-15.675781-15.453125-18.070313.832031-165.925781 90.90625c-1.515625.832031-2.523438 2.292969-2.761719 4.007813-.238281 1.71875.328125 3.398437 1.5625 4.617187 1.175781 1.160157 2.804687 1.726563 4.445313 1.523438l101.171874-12.007813c.273438-.035156.539063-.046875.808594-.046875zm0 0" fill="#4c241d"/><path d="m315.828125 68.503906 13.707031 13.515625-108.148437 109.664063-13.710938-13.519532zm0 0" fill="#ffce56"/><path d="m221.378906 198.503906c-1.792968 0-3.511718-.707031-4.792968-1.964844l-13.707032-13.519531c-2.683594-2.648437-2.710937-6.96875-.066406-9.652343l108.152344-109.660157c1.273437-1.289062 3.003906-2.023437 4.816406-2.035156h.042969c1.796875 0 3.515625.707031 4.796875 1.96875l13.703125 13.519531c2.6875 2.644532 2.714843 6.964844.066406 9.652344l-108.152344 109.660156c-1.273437 1.285156-3 2.019532-4.8125 2.03125-.011719 0-.03125 0-.046875 0zm-4.050781-20.414062 3.984375 3.933594 98.566406-99.9375-3.984375-3.933594zm0 0" fill="#4c241d"/><path d="m315.425781 68.101562 5.957031-17.492187 63.996094-35.035156c4.945313-2.710938 11.832032.273437 14.132813 6.121093 1.75 4.441407.1875 9.042969-3.699219 10.894532l-14.574219 6.945312-31.234375 39.300782-21.222656 2.4375zm0 0" fill="#bd53b5"/><g fill="#4c241d"><path d="m328.78125 88.097656c-1.789062 0-3.507812-.699218-4.792969-1.964844l-13.359375-13.171874c-1.867187-1.839844-2.515625-4.582032-1.667968-7.0625l5.957031-17.484376c.546875-1.621093 1.6875-2.96875 3.179687-3.789062l64-35.039062c3.878906-2.121094 8.636719-2.425782 13.035156-.828126 4.90625 1.773438 8.8125 5.574219 10.734376 10.425782 3.046874 7.777344-.007813 16.179687-7.113282 19.570312l-13.15625 6.265625-30.246094 38.066407c-1.125 1.421874-2.773437 2.328124-4.566406 2.535156l-21.226562 2.433594c-.257813.03125-.519532.042968-.777344.042968zm-5.515625-21.851562 7.980469 7.871094 15.175781-1.738282 29.472656-37.085937c.648438-.816407 1.472657-1.46875 2.40625-1.914063l14.574219-6.945312c.648438-.308594.632812-1.363282.285156-2.246094-.460937-1.167969-1.484375-2.164062-2.671875-2.589844-.707031-.257812-1.398437-.273437-1.824219-.039062l-61.675781 33.765625zm0 0"/><path d="m381.261719 22.6875c-1.734375 0-3.460938-.65625-4.796875-1.96875l-9.136719-9.011719c-2.6875-2.648437-2.714844-6.96875-.066406-9.652343 2.644531-2.6875 6.964843-2.714844 9.652343-.066407l9.140626 9.011719c2.683593 2.648438 2.710937 6.96875.066406 9.652344-1.335938 1.351562-3.101563 2.035156-4.859375 2.035156zm0 0"/><path d="m358.667969 36.453125c-1.734375 0-3.460938-.65625-4.792969-1.96875l-9.140625-9.003906c-2.6875-2.648438-2.714844-6.96875-.066406-9.652344 2.632812-2.6875 6.953125-2.722656 9.652343-.066406l9.140626 9.003906c2.6875 2.648437 2.714843 6.96875.066406 9.652344-1.332032 1.355469-3.09375 2.035156-4.859375 2.035156zm0 0"/><path d="m333.789062 47.972656c-1.734374 0-3.460937-.65625-4.796874-1.96875l-9.136719-9.011718c-2.6875-2.644532-2.714844-6.964844-.066407-9.652344 2.644532-2.691406 6.964844-2.714844 9.652344-.066406l9.140625 9.011718c2.683594 2.648438 2.710938 6.96875.066407 9.652344-1.335938 1.355469-3.101563 2.035156-4.859376 2.035156zm0 0"/></g><path d="m92.242188 281.105469 29.742187-3.515625-.046875.609375.59375-.070313-1.722656 14.496094-5.007813 42.101562 62.160157-32.558593 30.621093-57.769531-23.769531-69.007813-3.472656.160156-90.988282 49.855469zm0 0" fill="#fc8c29"/><path d="m115.800781 341.550781c-1.359375 0-2.714843-.40625-3.875-1.203125-2.085937-1.433594-3.207031-3.914062-2.90625-6.429687l5.78125-48.605469-21.761719 2.574219c-1.890624.242187-3.800781-.359375-5.246093-1.601563-1.445313-1.246094-2.3125-3.039062-2.371094-4.945312l-1.894531-55.699219c-.09375-2.582031 1.28125-4.980469 3.539062-6.222656l90.992188-49.851563c.914062-.5 1.929687-.789062 2.96875-.835937l3.472656-.160157c3.300781-.191406 5.785156 1.742188 6.765625 4.601563l23.765625 69.007813c.621094 1.785156.46875 3.746093-.417969 5.417968l-30.621093 57.769532c-.644532 1.210937-1.644532 2.207031-2.867188 2.84375l-62.160156 32.5625c-.992188.519531-2.078125.777343-3.164063.777343zm12.339844-66.910156c.859375 1.273437 1.351563 2.773437 1.171875 4.292969l-5.207031 43.734375 48.816406-25.566407 28.238281-53.28125-20.671875-60.011718-83.171875 45.566406 1.5 44.078125 22.371094-2.640625c2.007812-.257812 4.054688.441406 5.527344 1.855469.597656.570312 1.078125 1.246093 1.425781 1.972656zm0 0" fill="#4c241d"/><path d="m141.785156 270.839844-13.320312-13.140625c-3.679688-3.625-3.71875-9.550781-.09375-13.226563 3.628906-3.679687 9.550781-3.71875 13.230468-.09375l13.320313 13.140625c3.675781 3.625 3.71875 9.550781.089844 13.226563-3.625 3.679687-9.550781 3.722656-13.226563.09375zm0 0" fill="#ffce56"/><path d="m148.347656 280.359375c-4.28125 0-8.308594-1.65625-11.355468-4.660156l-13.324219-13.140625c-3.082031-3.039063-4.789063-7.085938-4.8125-11.40625-.035157-4.320313 1.625-8.398438 4.65625-11.472656 6.261719-6.355469 16.515625-6.4375 22.882812-.160157l13.320313 13.136719c3.078125 3.035156 4.785156 7.085938 4.816406 11.410156.027344 4.316406-1.625 8.390625-4.65625 11.472656-3.035156 3.082032-7.085938 4.785157-11.410156 4.820313-.039063 0-.078125 0-.117188 0zm-13.3125-31.847656c-.652344 0-1.308594.253906-1.800781.753906-.640625.652344-.734375 1.398437-.734375 1.792969.007812.390625.105469 1.140625.753906 1.78125l13.328125 13.136718c.636719.632813 1.378907.726563 1.773438.726563h.011719c.394531 0 1.148437-.105469 1.785156-.75.976562-.992187.96875-2.59375-.027344-3.574219l-13.320312-13.140625c-.488282-.484375-1.128907-.726562-1.769532-.726562zm0 0" fill="#4c241d"/><path d="m74.320312 260.152344c0 3.339844-2.710937 6.050781-6.054687 6.050781-3.339844 0-6.050781-2.710937-6.050781-6.050781 0-3.34375 2.710937-6.054688 6.050781-6.054688 3.34375 0 6.054687 2.710938 6.054687 6.054688zm0 0" fill="#4c241d"/><path d="m176.71875 205.539062c0 3.339844-2.710938 6.050782-6.050781 6.050782-3.34375 0-6.054688-2.710938-6.054688-6.050782 0-3.34375 2.710938-6.054687 6.054688-6.054687 3.339843 0 6.050781 2.710937 6.050781 6.054687zm0 0" fill="#4c241d"/><path d="m170.667969 246.5c-1.746094 0-3.496094-.667969-4.828125-2.003906l-13.652344-13.652344c-2.667969-2.664062-2.667969-6.984375 0-9.652344 2.664062-2.664062 6.988281-2.664062 9.652344 0l13.652344 13.652344c2.667968 2.667969 2.667968 6.988281 0 9.652344-1.332032 1.335937-3.078126 2.003906-4.824219 2.003906zm0 0" fill="#4c241d"/></svg>