<svg height="421pt" viewBox="0 -42 421.80437 421" width="421pt" xmlns="http://www.w3.org/2000/svg"><path d="m307.199219 154.003906c0 84.828125-68.769531 153.597656-153.597657 153.597656-84.832031 0-153.601562-68.769531-153.601562-153.597656 0-84.832031 68.769531-153.601562 153.601562-153.601562 84.828126 0 153.597657 68.769531 153.597657 153.601562zm0 0" fill="#ffe8dc"/><path d="m86 75.863281 200.21875 116.234375c7.839844 4.550782 7.839844 15.867188 0 20.417969l-200.21875 116.230469c-7.871094 4.570312-17.734375-1.109375-17.734375-10.210938v-232.460937c0-9.101563 9.863281-14.777344 17.734375-10.210938zm0 0" fill="#ffce56"/><path d="m80.074219 337.199219c-3.191407 0-6.382813-.835938-9.296875-2.515625-5.847656-3.367188-9.335938-9.402344-9.335938-16.148438v-232.464844c0-6.742187 3.488282-12.777343 9.332032-16.140624 5.84375-3.371094 12.816406-3.363282 18.652343.03125l200.222657 116.230468c5.808593 3.375 9.277343 9.398438 9.277343 16.113282 0 6.714843-3.46875 12.738281-9.277343 16.113281l-200.222657 116.230469c-2.925781 1.699218-6.140625 2.550781-9.351562 2.550781zm.023437-256.121094c-1.144531 0-2.054687.417969-2.511718.679687-.75.433594-2.496094 1.71875-2.496094 4.3125v232.464844c0 2.597656 1.746094 3.882813 2.5 4.316406.746094.429688 2.734375 1.296876 4.980468-.011718l200.222657-116.230469c2.234375-1.300781 2.476562-3.441406 2.476562-4.304687 0-.863282-.242187-3.007813-2.476562-4.304688l-200.21875-116.234375c-.882813-.511719-1.730469-.6875-2.476563-.6875zm0 0" fill="#4c241d"/><path d="m208.878906 75.863281 200.222656 116.234375c7.835938 4.550782 7.835938 15.867188 0 20.417969l-200.222656 116.230469c-7.871094 4.570312-17.730468-1.109375-17.730468-10.207032v-232.464843c0-9.101563 9.859374-14.777344 17.730468-10.210938zm0 0" fill="#fff"/><path d="m202.953125 337.199219c-3.191406 0-6.382813-.835938-9.296875-2.515625-5.847656-3.367188-9.335938-9.402344-9.335938-16.148438v-232.464844c0-6.742187 3.488282-12.777343 9.332032-16.140624 5.84375-3.371094 12.820312-3.363282 18.65625.03125l200.21875 116.230468c5.808594 3.375 9.277344 9.398438 9.277344 16.113282 0 6.714843-3.464844 12.738281-9.277344 16.113281l-200.21875 116.230469c-2.929688 1.699218-6.140625 2.550781-9.355469 2.550781zm.027344-256.121094c-1.148438 0-2.058594.417969-2.515625.679687-.75.433594-2.492188 1.71875-2.492188 4.3125v232.464844c0 2.597656 1.746094 3.882813 2.496094 4.316406.75.429688 2.730469 1.296876 4.984375-.011718l200.21875-116.230469c2.238281-1.300781 2.476563-3.441406 2.476563-4.304687 0-.863282-.242188-3.007813-2.476563-4.304688l-200.21875-116.234375c-.882813-.511719-1.730469-.6875-2.472656-.6875zm0 0" fill="#4c241d"/></svg>