<svg height="416pt" viewBox="0 -13 416.42667 416" width="416pt" xmlns="http://www.w3.org/2000/svg"><path d="m307.199219 235.734375c0 84.828125-68.769531 153.597656-153.597657 153.597656-84.832031 0-153.601562-68.769531-153.601562-153.597656 0-84.832031 68.769531-153.601563 153.601562-153.601563 84.828126 0 153.597657 68.769532 153.597657 153.601563zm0 0" fill="#ffe8dc"/><path d="m354.988281 61.652344h-245.761719c-30.160156 0-54.613281-24.449219-54.613281-54.613282h354.988281c0 30.164063-24.453124 54.613282-54.613281 54.613282zm0 0" fill="#fc8c29"/><path d="m354.988281 68.480469h-245.761719c-33.878906 0-61.441406-27.558594-61.441406-61.441407 0-3.773437 3.054688-6.824218 6.828125-6.824218h354.988281c3.773438 0 6.824219 3.050781 6.824219 6.824218 0 33.882813-27.558593 61.441407-61.4375 61.441407zm-293.0625-54.613281c3.320313 23.125 23.269531 40.960937 47.300781 40.960937h245.761719c24.03125 0 43.980469-17.835937 47.296875-40.960937zm0 0" fill="#4c241d"/><path d="m309.9375 116.265625c-.386719 0-.777344-.03125-1.171875-.101563-3.714844-.644531-6.207031-4.175781-5.5625-7.890624l17.746094-102.402344c.640625-3.710938 4.175781-6.171875 7.894531-5.558594 3.714844.648438 6.207031 4.179688 5.558594 7.894531l-17.742188 102.398438c-.574218 3.320312-3.460937 5.660156-6.722656 5.660156zm0 0" fill="#4c241d"/><path d="m154.273438 116.265625c-3.257813 0-6.148438-2.339844-6.71875-5.660156l-17.746094-102.398438c-.648438-3.714843 1.84375-7.246093 5.558594-7.894531 3.714843-.609375 7.253906 1.847656 7.894531 5.5625l17.746093 102.398438c.644532 3.714843-1.847656 7.246093-5.5625 7.894531-.390624.066406-.785156.097656-1.171874.097656zm0 0" fill="#4c241d"/><path d="m382.292969 232.320312c0 79.175782-64.183594 143.359376-143.359375 143.359376-79.175782 0-143.359375-64.183594-143.359375-143.359376 0-79.175781 64.183593-143.359374 143.359375-143.359374 79.175781 0 143.359375 64.183593 143.359375 143.359374zm0 0" fill="#ffce56"/><g fill="#4c241d"><path d="m238.933594 382.507812c-82.8125 0-150.1875-67.375-150.1875-150.1875s67.375-150.1875 150.1875-150.1875 150.1875 67.375 150.1875 150.1875-67.375 150.1875-150.1875 150.1875zm0-286.722656c-75.285156 0-136.535156 61.25-136.535156 136.535156 0 75.285157 61.25 136.53125 136.535156 136.53125s136.53125-61.246093 136.53125-136.53125c0-75.285156-61.246094-136.535156-136.53125-136.535156zm0 0"/><path d="m158.824219 292.839844c-2.265625 0-4.476563-1.125-5.777344-3.1875-10.910156-17.300782-16.335937-37.285156-15.683594-57.792969.113281-3.773437 3.195313-6.898437 7.035157-6.605469 3.773437.113282 6.726562 3.265625 6.605468 7.035156-.558594 17.777344 4.140625 35.097657 13.585938 50.085938 2.015625 3.1875 1.0625 7.40625-2.132813 9.414062-1.125.710938-2.382812 1.050782-3.632812 1.050782zm0 0"/><path d="m238.933594 334.742188c-13.832032 0-27.246094-2.707032-39.867188-8.054688-3.472656-1.46875-5.089844-5.472656-3.625-8.945312 1.464844-3.480469 5.507813-5.085938 8.945313-3.628907 10.933593 4.628907 22.554687 6.972657 34.546875 6.972657 3.773437 0 6.828125 3.054687 6.828125 6.828124 0 3.773438-3.054688 6.828126-6.828125 6.828126zm0 0"/><path d="m334.527344 239.148438c-3.773438 0-6.828125-3.054688-6.828125-6.828126 0-48.949218-39.820313-88.765624-88.765625-88.765624-3.773438 0-6.828125-3.054688-6.828125-6.828126 0-3.773437 3.054687-6.828124 6.828125-6.828124 56.472656 0 102.421875 45.949218 102.421875 102.421874 0 3.773438-3.054688 6.828126-6.828125 6.828126zm0 0"/></g><path d="m274.980469 232.320312c0 19.90625-16.140625 36.046876-36.046875 36.046876s-36.046875-16.140626-36.046875-36.046876c0-19.910156 16.140625-36.046874 36.046875-36.046874s36.046875 16.136718 36.046875 36.046874zm0 0" fill="#fc8c29"/><path d="m238.933594 275.191406c-23.640625 0-42.875-19.230468-42.875-42.871094 0-23.640624 19.234375-42.875 42.875-42.875s42.871094 19.234376 42.871094 42.875c0 23.640626-19.230469 42.871094-42.871094 42.871094zm0-72.089844c-16.113282 0-29.21875 13.105469-29.21875 29.21875 0 16.113282 13.105468 29.21875 29.21875 29.21875 16.113281 0 29.21875-13.105468 29.21875-29.21875 0-16.113281-13.105469-29.21875-29.21875-29.21875zm0 0" fill="#4c241d"/><path d="m15.214844 334.023438c-4.992188-2.65625-6.882813-8.859376-4.222656-13.851563l83.464843-156.644531c2.65625-4.992188 8.859375-6.882813 13.851563-4.222656 4.988281 2.65625 6.882812 8.859374 4.222656 13.851562l-83.464844 156.648438c-2.65625 4.992187-8.859375 6.882812-13.851562 4.21875zm0 0" fill="#fc8c29"/><path d="m20 342.054688c-2.707031 0-5.445312-.648438-7.992188-2-.007812 0-.007812 0-.007812 0-8.300781-4.433594-11.453125-14.789063-7.035156-23.085938l83.460937-156.65625c2.148438-4.019531 5.726563-6.964844 10.085938-8.296875 4.378906-1.328125 8.988281-.875 13 1.265625 4.027343 2.148438 6.972656 5.726562 8.304687 10.085938 1.328125 4.359374.875 8.980468-1.265625 13l-83.457031 156.652343c-3.074219 5.753907-8.988281 9.035157-15.09375 9.035157zm-1.574219-14.054688c1.660157.886719 3.726563.25 4.621094-1.40625l83.453125-156.640625c.886719-1.667969.257812-3.738281-1.398438-4.621094-1.667968-.886719-3.734374-.257812-4.621093 1.402344l-83.460938 156.644531c-.886719 1.667969-.253906 3.742188 1.40625 4.621094zm0 0" fill="#4c241d"/><path d="m124.34375 129.183594c-18.300781-9.75-41.039062-2.820313-50.789062 15.480468-9.75 18.300782-2.820313 41.039063 15.480468 50.789063 18.296875 9.75 41.039063 2.820313 50.789063-15.480469 9.75-18.300781 2.816406-41.039062-15.480469-50.789062zm0 0" fill="#bd53b5"/><path d="m106.644531 206.714844c-7.179687 0-14.292969-1.761719-20.8125-5.234375-10.457031-5.574219-18.117187-14.886719-21.578125-26.21875-3.453125-11.339844-2.289062-23.347657 3.285156-33.808594 11.507813-21.59375 38.445313-29.785156 60.027344-18.300781 21.59375 11.507812 29.800782 38.433594 18.300782 60.027344v.007812c-5.582032 10.460938-14.894532 18.117188-26.226563 21.578125-4.28125 1.300781-8.648437 1.949219-12.996094 1.949219zm.109375-75.117188c-10.992187 0-21.640625 5.910156-27.160156 16.269532-3.859375 7.246093-4.664062 15.558593-2.273438 23.40625 2.386719 7.851562 7.695313 14.300781 14.933594 18.152343 7.238282 3.859375 15.546875 4.679688 23.40625 2.273438 7.847656-2.386719 14.292969-7.691407 18.15625-14.933594 7.964844-14.953125 2.277344-33.59375-12.667968-41.558594-4.589844-2.445312-9.527344-3.609375-14.394532-3.609375zm33.085938 48.375h.066406zm0 0" fill="#4c241d"/></svg>