<svg height="409pt" viewBox="-2 0 409 409.6" width="409pt" xmlns="http://www.w3.org/2000/svg"><path d="m307.5 153.601562c0 84.828126-68.769531 153.597657-153.601562 153.597657-84.828126 0-153.597657-68.769531-153.597657-153.597657 0-84.832031 68.769531-153.601562 153.597657-153.601562 84.832031 0 153.601562 68.769531 153.601562 153.601562zm0 0" fill="#ffe8dc"/><g fill="#4c241d"><path d="m314.328125 238.933594c-3.773437 0-6.828125-3.054688-6.828125-6.828125v-88.746094c0-3.773437 3.054688-6.824219 6.828125-6.824219s6.824219 3.050782 6.824219 6.824219v88.746094c0 3.773437-3.050782 6.828125-6.824219 6.828125zm0 0"/><path d="m273.367188 293.546875c-3.773438 0-6.828126-3.054687-6.828126-6.828125v-163.839844c0-3.773437 3.054688-6.824218 6.828126-6.824218 3.773437 0 6.824218 3.050781 6.824218 6.824218v163.839844c0 3.773438-3.050781 6.828125-6.824218 6.828125zm0 0"/><path d="m348.460938 191.148438c-3.773438 0-6.828126-3.054688-6.828126-6.828126v-47.785156c0-3.773437 3.054688-6.828125 6.828126-6.828125 3.773437 0 6.824218 3.054688 6.824218 6.828125v47.785156c0 3.773438-3.050781 6.828126-6.824218 6.828126zm0 0"/></g><path d="m218.0625 368.640625 157.234375-224.046875c2.820313-4.003906 2.351563-9.449219-1.109375-12.910156-3.585938-3.589844-9.285156-3.941406-13.289062-.828125l-1.53125 1.191406c-17.527344 13.632813-40.925782 17.050781-61.621094 9.003906-24.261719-9.433593-40.238282-32.792969-40.238282-58.820312 0-14.542969-11.792968-27.617188-26.339843-27.617188h-26.816407v-47.785156h28.765626c29.277343 0 53.011718 27.820313 53.011718 57.097656v21.457031c0 14.292969 8.703125 27.144532 21.976563 32.457032 11.6875 4.675781 24.988281 2.703125 34.820312-5.160156l1.59375-1.277344c13.3125-10.652344 32.507813-9.585938 44.5625 2.46875 11.421875 11.417968 13.054688 29.363281 3.886719 42.65625l-147.726562 212.113281zm0 0" fill="#ffce56"/><path d="m245.242188 375.464844h-27.183594c-2.542969 0-4.878906-1.417969-6.058594-3.679688-1.175781-2.257812-.992188-4.984375.472656-7.066406l157.242188-224.046875c.910156-1.296875.757812-3.042969-.355469-4.160156-1.152344-1.144531-2.980469-1.277344-4.273437-.265625l-1.527344 1.1875c-19.3125 15.03125-45.484375 18.851562-68.285156 9.980468-27.089844-10.535156-44.59375-36.113281-44.59375-65.179687 0-11.078125-9.121094-20.792969-19.515626-20.792969h-26.8125c-3.773437 0-6.828124-3.054687-6.828124-6.828125v-47.785156c0-3.773437 3.054687-6.828125 6.828124-6.828125h28.765626c31.878906 0 59.839843 29.875 59.839843 63.925781v21.453125c0 11.574219 6.9375 21.828125 17.679688 26.121094 9.371093 3.746094 20.117187 2.167969 28.019531-4.152344l1.585938-1.269531c16.066406-12.851563 39.132812-11.570313 53.667968 2.96875 13.753906 13.746094 15.71875 35.34375 4.679688 51.351563l-147.753906 212.140624c-1.269532 1.832032-3.363282 2.925782-5.59375 2.925782zm-14.050782-13.652344h10.484375l145.699219-209.183594c7.28125-10.5625 5.972656-24.835937-3.113281-33.929687-9.621094-9.613281-24.867188-10.464844-35.472657-1.964844l-1.589843 1.265625c-11.738281 9.402344-27.691407 11.753906-41.625 6.179688-15.960938-6.378907-26.269531-21.605469-26.269531-38.796876v-21.453124c0-26.78125-21.578126-50.273438-46.183594-50.273438h-21.941406v34.132812h19.988281c17.980469 0 33.167969 15.773438 33.167969 34.445313 0 23.386719 14.085937 43.980469 35.886718 52.460937 18.339844 7.128907 39.414063 4.046876 54.953125-8.035156l1.53125-1.191406c6.71875-5.226562 16.308594-4.621094 22.3125 1.398438 5.8125 5.8125 6.601563 14.921874 1.867188 21.65625zm0 0" fill="#4c241d"/><path d="m183.910156 6.828125h21.191406v354.984375h-21.191406zm0 0" fill="#fc8c29"/><path d="m205.101562 368.640625h-21.195312c-3.773438 0-6.828125-3.054687-6.828125-6.828125v-354.984375c0-3.773437 3.054687-6.828125 6.828125-6.828125h21.195312c3.773438 0 6.824219 3.054688 6.824219 6.828125v354.984375c0 3.773438-3.050781 6.828125-6.824219 6.828125zm-14.367187-13.652344h7.539063v-341.335937h-7.539063zm0 0" fill="#4c241d"/><path d="m268.449219 402.773438h-92.558594c-6.488281 0-11.75-5.261719-11.75-11.746094v-29.214844h116.054687v29.214844c-.003906 6.484375-5.261718 11.746094-11.746093 11.746094zm0 0" fill="#ffce56"/><path d="m268.449219 409.601562h-92.558594c-10.242187 0-18.574219-8.335937-18.574219-18.574218v-29.214844c0-3.773438 3.050782-6.824219 6.824219-6.824219h116.054687c3.773438 0 6.828126 3.050781 6.828126 6.824219v29.214844c-.003907 10.238281-8.335938 18.574218-18.574219 18.574218zm-97.484375-40.960937v22.386719c0 2.710937 2.207031 4.917968 4.921875 4.917968h92.558593c2.714844 0 4.921876-2.207031 4.921876-4.917968v-22.386719zm0 0" fill="#4c241d"/><path d="m232.40625 357.015625c-3.773438 0-6.828125-3.054687-6.828125-6.828125v-295.574219c0-3.773437 3.054687-6.828125 6.828125-6.828125s6.828125 3.054688 6.828125 6.828125v295.574219c0 3.773438-3.054687 6.828125-6.828125 6.828125zm0 0" fill="#4c241d"/><path d="m283.605469 368.640625h-122.878907c-5.65625 0-10.238281-4.585937-10.238281-10.242187s4.582031-10.238282 10.238281-10.238282h122.878907c5.65625 0 10.242187 4.582032 10.242187 10.238282s-4.585937 10.242187-10.242187 10.242187zm0 0" fill="#bd53b5"/><path d="m283.605469 375.464844h-122.878907c-9.414062 0-17.066406-7.652344-17.066406-17.066406 0-9.414063 7.652344-17.066407 17.066406-17.066407h122.878907c9.414062 0 17.066406 7.652344 17.066406 17.066407 0 9.414062-7.652344 17.066406-17.066406 17.066406zm-122.878907-20.476563c-1.878906 0-3.414062 1.53125-3.414062 3.410157 0 1.882812 1.535156 3.414062 3.414062 3.414062h122.878907c1.882812 0 3.414062-1.53125 3.414062-3.414062 0-1.878907-1.53125-3.410157-3.414062-3.410157zm0 0" fill="#4c241d"/></svg>