<svg height="375pt" viewBox="-15 0 375 375.46667" width="375pt" xmlns="http://www.w3.org/2000/svg"><path d="m307.433594 153.601562c0 84.828126-68.769532 153.597657-153.601563 153.597657-84.828125 0-153.597656-68.769531-153.597656-153.597657 0-84.832031 68.769531-153.601562 153.597656-153.601562 84.832031 0 153.601563 68.769531 153.601563 153.601562zm0 0" fill="#ffe8dc"/><path d="m276.820312 19.59375c-1.375-7.398438-7.828124-12.765625-15.351562-12.765625h-58.257812c-7.523438 0-13.976563 5.367187-15.351563 12.765625l-40.683594 219.339844h170.332031zm0 0" fill="#fff"/><g fill="#4c241d"><path d="m317.507812 245.761719h-170.335937c-2.027344 0-3.953125-.90625-5.246094-2.464844-1.300781-1.554687-1.832031-3.613281-1.464843-5.609375l40.6875-219.339844c1.972656-10.632812 11.253906-18.347656 22.066406-18.347656h58.253906c10.8125 0 20.089844 7.714844 22.066406 18.347656l40.6875 219.339844c.367188 1.996094-.167968 4.054688-1.46875 5.609375-1.292968 1.558594-3.21875 2.464844-5.246094 2.464844zm-162.128906-13.65625h153.921875l-39.195312-211.265625c-.773438-4.164063-4.40625-7.1875-8.636719-7.1875h-58.253906c-4.234375 0-7.867188 3.023437-8.640625 7.1875zm0 0"/><path d="m232.339844 129.707031h-27.304688c-3.773437 0-6.828125-3.058593-6.828125-6.828125 0-3.769531 3.054688-6.824218 6.828125-6.824218h27.304688c3.773437 0 6.828125 3.054687 6.828125 6.824218 0 3.769532-3.054688 6.828125-6.828125 6.828125zm0 0"/><path d="m259.648438 157.011719h-27.308594c-3.773438 0-6.828125-3.054688-6.828125-6.824219s3.054687-6.828125 6.828125-6.828125h27.308594c3.773437 0 6.824218 3.058594 6.824218 6.828125s-3.050781 6.824219-6.824218 6.824219zm0 0"/><path d="m232.339844 197.972656h-27.304688c-3.773437 0-6.828125-3.054687-6.828125-6.824218 0-3.773438 3.054688-6.828126 6.828125-6.828126h27.304688c3.773437 0 6.828125 3.054688 6.828125 6.828126 0 3.769531-3.054688 6.824218-6.828125 6.824218zm0 0"/><path d="m231.792969 325.199219c-2.492188 0-4.898438-1.371094-6.097657-3.75l-135.429687-268.105469c-1.699219-3.363281-.34375-7.46875 3.015625-9.171875 3.367188-1.703125 7.472656-.355469 9.171875 3.019531l135.429687 268.105469c1.699219 3.363281.34375 7.472656-3.015624 9.171875-.988282.496094-2.039063.730469-3.074219.730469zm0 0"/></g><path d="m141.546875 126.867188-10.347656 5.226562c-2.335938 1.179688-5.175781.617188-6.882813-1.363281l-19.921875-23.054688c-2.421875-2.804687-1.566406-7.144531 1.746094-8.816406l23.527344-11.882813c3.308593-1.675781 7.308593.210938 8.128906 3.828126l6.738281 29.714843c.578125 2.550781-.65625 5.167969-2.988281 6.347657zm0 0" fill="#fc8c29"/><path d="m128.625 139.535156c-3.546875 0-7.027344-1.511718-9.472656-4.339844l-19.925782-23.054687c-2.539062-2.953125-3.5625-6.824219-2.808593-10.632813.757812-3.804687 3.179687-6.996093 6.648437-8.742187l23.519532-11.882813c3.464843-1.75 7.472656-1.800781 10.992187-.152343 3.511719 1.65625 6.019531 4.777343 6.878906 8.5625l6.734375 29.714843c1.269532 5.613282-1.429687 11.351563-6.570312 13.953126l-10.34375 5.226562c-1.804688.910156-3.738282 1.347656-5.652344 1.347656zm12.921875-12.667968h.066406zm-31.039063-22.5625 18.398438 21.300781 8.773438-4.4375-6.222657-27.449219zm0 0" fill="#4c241d"/><path d="m317.507812 238.933594h-170.335937l-20.636719 111.246094c-1.777344 9.597656 5.589844 18.460937 15.351563 18.460937h180.902343c9.761719 0 17.132813-8.863281 15.351563-18.460937zm0 0" fill="#ffce56"/><path d="m322.792969 375.464844h-180.90625c-6.6875 0-12.972657-2.949219-17.246094-8.085938-4.28125-5.144531-6.03125-11.863281-4.8125-18.441406l20.632813-111.25c.601562-3.234375 3.421874-5.582031 6.714843-5.582031h170.332031c3.296876 0 6.113282 2.347656 6.714844 5.582031l20.632813 111.25c1.222656 6.578125-.53125 13.296875-4.8125 18.441406-4.277344 5.136719-10.5625 8.085938-17.25 8.085938zm-169.9375-129.703125-19.601563 105.660156c-.480468 2.578125.207032 5.210937 1.882813 7.222656 1.671875 2.011719 4.140625 3.167969 6.75 3.167969h180.910156c2.609375 0 5.078125-1.15625 6.75-3.167969 1.675781-2.011719 2.363281-4.644531 1.882813-7.222656l-19.601563-105.660156zm0 0" fill="#4c241d"/><path d="m232.339844 245.265625c-3.773438 0-6.828125-3.054687-6.828125-6.824219v-170.175781c0-3.769531 3.054687-6.824219 6.828125-6.824219 3.773437 0 6.828125 3.054688 6.828125 6.824219v170.175781c0 3.769532-3.054688 6.824219-6.828125 6.824219zm0 0" fill="#4c241d"/></svg>