<svg height="375pt" viewBox="0 -20 375.46667 375" width="375pt" xmlns="http://www.w3.org/2000/svg"><path d="m307.199219 153.832031c0 84.832031-68.769531 153.601563-153.597657 153.601563-84.832031 0-153.601562-68.769532-153.601562-153.601563 0-84.828125 68.769531-153.597656 153.601562-153.597656 84.828126 0 153.597657 68.769531 153.597657 153.597656zm0 0" fill="#ffe8dc"/><path d="m316.765625 216.867188c0-.0625.011719-.121094.011719-.183594 0-61.378906-49.757813-111.136719-111.136719-111.136719-49.824219 0-91.984375 32.789063-106.09375 77.960937-6.144531-1.667968-12.574219-2.632812-19.246094-2.632812-40.578125-.003906-73.472656 32.894531-73.472656 73.472656s32.894531 73.472656 73.472656 73.472656h232.769531c30.691407 0 55.570313-24.878906 55.570313-55.570312 0-29.441406-22.917969-53.472656-51.875-55.382812zm0 0" fill="#fff"/><g fill="#4c241d"><path d="m313.070312 334.648438h-232.769531c-44.277343 0-80.300781-36.023438-80.300781-80.300782s36.023438-80.300781 80.300781-80.300781c4.875 0 9.828125.476563 14.78125 1.425781 17.128907-46.164062 60.789063-76.753906 110.558594-76.753906 63.066406 0 114.738281 49.75 117.816406 112.066406 29.625 4.980469 52.007813 30.859375 52.007813 61.464844 0 34.40625-27.988282 62.398438-62.394532 62.398438zm-232.769531-146.949219c-36.75 0-66.648437 29.898437-66.648437 66.648437s29.898437 66.648438 66.648437 66.648438h232.769531c26.878907 0 48.746094-21.867188 48.746094-48.746094 0-25.554688-19.984375-46.886719-45.496094-48.566406-3.589843-.238282-6.378906-3.21875-6.378906-6.8125 0-.183594.015625-.460938.027344-.648438-.015625-57.054687-46.808594-103.847656-104.324219-103.847656-45.890625 0-85.910156 29.402344-99.578125 73.167969-1.09375 3.5-4.769531 5.511719-8.304687 4.554687-5.863281-1.589844-11.738281-2.398437-17.460938-2.398437zm0 0"/><path d="m354.988281 218.6875c-3.773437 0-6.828125-3.058594-6.828125-6.828125v-116.050781c0-3.773438 3.054688-6.828125 6.828125-6.828125 3.769531 0 6.824219 3.054687 6.824219 6.828125v116.050781c0 3.769531-3.054688 6.828125-6.824219 6.828125zm0 0"/><path d="m245.761719 252.820312c-3.773438 0-6.828125-3.058593-6.828125-6.828124v-116.050782c0-3.769531 3.054687-6.828125 6.828125-6.828125 3.769531 0 6.824219 3.058594 6.824219 6.828125v116.050782c0 3.769531-3.054688 6.828124-6.824219 6.828124zm0 0"/></g><path d="m354.988281 105.546875-109.226562 29.636719v-37.046875l109.226562-29.636719zm0 0" fill="#bd53b5"/><path d="m245.761719 142.011719c-1.484375 0-2.945313-.484375-4.148438-1.402344-1.691406-1.292969-2.679687-3.296875-2.679687-5.425781v-37.046875c0-3.082031 2.0625-5.777344 5.039062-6.589844l109.226563-29.632813c2.050781-.550781 4.242187-.125 5.933593 1.164063 1.691407 1.296875 2.679688 3.296875 2.679688 5.425781v37.046875c0 3.082031-2.0625 5.78125-5.039062 6.589844l-109.226563 29.636719c-.585937.152344-1.191406.234375-1.785156.234375zm6.824219-38.65625v22.902343l95.574218-25.929687v-22.902344zm102.402343 2.191406h.066407zm0 0" fill="#4c241d"/><path d="m354.988281 210.617188c0-11.996094-14.730469-21.722657-32.894531-21.722657-18.167969 0-32.894531 9.726563-32.894531 21.722657 0 11.996093 14.726562 21.722656 32.894531 21.722656 18.164062 0 32.894531-9.726563 32.894531-21.722656zm0 0" fill="#fc8c29"/><path d="m322.089844 239.167969c-22.273438 0-39.71875-12.542969-39.71875-28.550781 0-16.011719 17.449218-28.550782 39.71875-28.550782 22.273437 0 39.722656 12.539063 39.722656 28.550782 0 16.011718-17.449219 28.550781-39.722656 28.550781zm0-43.449219c-15.359375 0-26.066406 7.851562-26.066406 14.898438 0 7.046874 10.707031 14.898437 26.066406 14.898437 15.363281 0 26.070312-7.851563 26.070312-14.898437 0-7.046876-10.707031-14.898438-26.070312-14.898438zm0 0" fill="#4c241d"/><path d="m245.761719 244.75c0-11.996094-14.730469-21.722656-32.894531-21.722656-18.167969 0-32.894532 9.726562-32.894532 21.722656s14.726563 21.722656 32.894532 21.722656c18.164062 0 32.894531-9.726562 32.894531-21.722656zm0 0" fill="#fc8c29"/><path d="m212.863281 273.300781c-22.273437 0-39.71875-12.542969-39.71875-28.550781 0-16.011719 17.449219-28.550781 39.71875-28.550781 22.273438 0 39.722657 12.542969 39.722657 28.550781 0 16.011719-17.449219 28.550781-39.722657 28.550781zm0-43.449219c-15.359375 0-26.066406 7.851563-26.066406 14.898438s10.707031 14.898438 26.066406 14.898438c15.363281 0 26.070313-7.851563 26.070313-14.898438s-10.707032-14.898438-26.070313-14.898438zm0 0" fill="#4c241d"/></svg>