<svg height="416pt" viewBox="0 -22 416.42667 416" width="416pt" xmlns="http://www.w3.org/2000/svg"><path d="m348.160156 153.8125c0 84.832031-68.769531 153.601562-153.601562 153.601562-84.828125 0-153.597656-68.769531-153.597656-153.601562s68.769531-153.597656 153.597656-153.597656c84.832031 0 153.601562 68.765625 153.601562 153.597656zm0 0" fill="#ffe8dc"/><path d="m163.4375 331.308594c0-19.285156-21.214844-34.914063-47.382812-34.914063-26.171876 0-47.386719 15.628907-47.386719 34.914063 0 19.28125 21.214843 34.910156 47.386719 34.910156 26.167968 0 47.382812-15.628906 47.382812-34.910156zm0 0" fill="#bd53b5"/><path d="m116.054688 373.046875c-29.890626 0-54.210938-18.726563-54.210938-41.738281 0-23.011719 24.320312-41.742188 54.210938-41.742188 29.890624 0 54.210937 18.726563 54.210937 41.742188 0 23.011718-24.320313 41.738281-54.210937 41.738281zm0-69.828125c-22.367188 0-40.558594 12.601562-40.558594 28.089844 0 15.484375 18.191406 28.085937 40.558594 28.085937 22.363281 0 40.554687-12.601562 40.554687-28.085937 0-15.488282-18.191406-28.089844-40.554687-28.089844zm0 0" fill="#4c241d"/><path d="m381.890625 228.90625c0-19.28125-21.214844-34.914062-47.382813-34.914062-26.171874 0-47.386718 15.632812-47.386718 34.914062s21.214844 34.914062 47.386718 34.914062c26.167969 0 47.382813-15.632812 47.382813-34.914062zm0 0" fill="#fc8c29"/><g fill="#4c241d"><path d="m334.507812 270.648438c-29.890624 0-54.210937-18.726563-54.210937-41.738282 0-23.015625 24.320313-41.742187 54.210937-41.742187 29.890626 0 54.210938 18.726562 54.210938 41.742187 0 23.011719-24.320312 41.738282-54.210938 41.738282zm0-69.828126c-22.367187 0-40.558593 12.601563-40.558593 28.085938 0 15.488281 18.191406 28.085938 40.558593 28.085938 22.363282 0 40.554688-12.597657 40.554688-28.085938 0-15.484375-18.191406-28.085938-40.554688-28.085938zm0 0"/><path d="m163.839844 334.71875c-3.769532 0-6.828125-3.050781-6.828125-6.824219v-238.933593c0-2.246094 1.109375-4.355469 2.964843-5.628907 1.855469-1.273437 4.214844-1.558593 6.3125-.746093 1.808594.691406 44.335938 17.417968 56.367188 53.90625 6.675781 20.261718 2.605469 42.246093-12.097656 65.359374-2.027344 3.171876-6.238282 4.105469-9.425782 2.09375-3.179687-2.027343-4.117187-6.246093-2.09375-9.425781 12.386719-19.457031 15.972657-37.523437 10.667969-53.691406-6.859375-20.894531-27.035156-34.527344-39.042969-41.035156v228.101562c.003907 3.773438-3.054687 6.824219-6.824218 6.824219zm0 0"/><path d="m409.601562 334.71875h-209.921874c-3.769532 0-6.828126-3.050781-6.828126-6.824219 0-3.773437 3.058594-6.828125 6.828126-6.828125h209.921874c3.769532 0 6.824219 3.054688 6.824219 6.828125 0 3.773438-3.054687 6.824219-6.824219 6.824219zm0 0"/><path d="m34.132812 334.71875h-27.304687c-3.773437 0-6.828125-3.050781-6.828125-6.824219 0-3.773437 3.054688-6.828125 6.828125-6.828125h27.304687c3.769532 0 6.828126 3.054688 6.828126 6.828125 0 3.773438-3.058594 6.824219-6.828126 6.824219zm0 0"/><path d="m408.21875 239.148438h-144.980469c-3.769531 0-6.824219-3.054688-6.824219-6.828126 0-3.773437 3.054688-6.828124 6.824219-6.828124h144.980469c3.769531 0 6.828125 3.054687 6.828125 6.828124 0 3.773438-3.058594 6.828126-6.828125 6.828126zm0 0"/><path d="m120.875 239.148438h-114.046875c-3.773437 0-6.828125-3.054688-6.828125-6.828126 0-3.773437 3.054688-6.828124 6.828125-6.828124h114.046875c3.769531 0 6.828125 3.054687 6.828125 6.828124 0 3.773438-3.058594 6.828126-6.828125 6.828126zm0 0"/><path d="m409.601562 150.398438h-157.703124c-3.769532 0-6.828126-3.050782-6.828126-6.824219 0-3.773438 3.058594-6.828125 6.828126-6.828125h157.703124c3.769532 0 6.824219 3.054687 6.824219 6.828125 0 3.773437-3.054687 6.824219-6.824219 6.824219zm0 0"/><path d="m118.949219 150.398438h-112.121094c-3.773437 0-6.828125-3.050782-6.828125-6.824219 0-3.773438 3.054688-6.828125 6.828125-6.828125h112.121094c3.769531 0 6.828125 3.054687 6.828125 6.828125 0 3.773437-3.058594 6.824219-6.828125 6.824219zm0 0"/><path d="m409.601562 54.828125h-402.773437c-3.773437 0-6.828125-3.054687-6.828125-6.828125s3.054688-6.828125 6.828125-6.828125h402.773437c3.769532 0 6.824219 3.054687 6.824219 6.828125s-3.054687 6.828125-6.824219 6.828125zm0 0"/></g></svg>