<svg height="416pt" viewBox="0 -34 416.42667 416" width="416pt" xmlns="http://www.w3.org/2000/svg"><path d="m307.199219 153.8125c0 84.832031-68.769531 153.601562-153.597657 153.601562-84.832031 0-153.601562-68.769531-153.601562-153.601562s68.769531-153.597656 153.601562-153.597656c84.828126 0 153.597657 68.765625 153.597657 153.597656zm0 0" fill="#ffe8dc"/><path d="m88.746094 252.800781h320.855468v88.746094h-320.855468zm0 0" fill="#fff"/><path d="m409.601562 348.375h-320.855468c-3.773438 0-6.824219-3.054688-6.824219-6.828125v-88.746094c0-3.773437 3.050781-6.828125 6.824219-6.828125h320.855468c3.773438 0 6.824219 3.054688 6.824219 6.828125v88.746094c0 3.773437-3.050781 6.828125-6.824219 6.828125zm-314.027343-13.65625h307.199219v-75.09375h-307.199219zm0 0" fill="#4c241d"/><path d="m129.707031 300.585938c-7.539062 0-13.652343-6.113282-13.652343-13.652344v-34.132813h27.304687v34.132813c0 7.539062-6.113281 13.652344-13.652344 13.652344zm0 0" fill="#bd53b5"/><path d="m129.707031 307.414062c-11.292969 0-20.480469-9.1875-20.480469-20.480468v-34.132813c0-3.773437 3.054688-6.828125 6.828126-6.828125h27.304687c3.773437 0 6.828125 3.054688 6.828125 6.828125v34.132813c0 11.292968-9.1875 20.480468-20.480469 20.480468zm-6.828125-47.789062v27.308594c0 3.765625 3.0625 6.828125 6.828125 6.828125s6.828125-3.0625 6.828125-6.828125v-27.308594zm0 0" fill="#4c241d"/><path d="m177.492188 300.585938c-7.539063 0-13.652344-6.113282-13.652344-13.652344v-34.132813h27.308594v34.132813c0 7.539062-6.113282 13.652344-13.65625 13.652344zm0 0" fill="#bd53b5"/><g fill="#4c241d"><path d="m177.492188 307.414062c-11.292969 0-20.480469-9.1875-20.480469-20.480468v-34.132813c0-3.773437 3.054687-6.828125 6.828125-6.828125h27.308594c3.773437 0 6.824218 3.054688 6.824218 6.828125v34.132813c0 11.292968-9.1875 20.480468-20.480468 20.480468zm-6.824219-47.789062v27.308594c0 3.765625 3.058593 6.828125 6.824219 6.828125 3.769531 0 6.828124-3.0625 6.828124-6.828125v-27.308594zm0 0"/><path d="m177.492188 344.554688c-3.773438 0-6.824219-3.054688-6.824219-6.828126v-34.066406c0-3.773437 3.050781-6.828125 6.824219-6.828125 3.773437 0 6.828124 3.054688 6.828124 6.828125v34.066406c0 3.773438-3.054687 6.828126-6.828124 6.828126zm0 0"/><path d="m129.707031 344.554688c-3.773437 0-6.828125-3.054688-6.828125-6.828126v-34.066406c0-3.773437 3.054688-6.828125 6.828125-6.828125 3.773438 0 6.828125 3.054688 6.828125 6.828125v34.066406c0 3.773438-3.054687 6.828126-6.828125 6.828126zm0 0"/></g><path d="m225.28125 300.585938c-7.542969 0-13.65625-6.113282-13.65625-13.652344v-34.132813h27.308594v34.132813c0 7.539062-6.113282 13.652344-13.652344 13.652344zm0 0" fill="#bd53b5"/><path d="m225.28125 307.414062c-11.292969 0-20.480469-9.1875-20.480469-20.480468v-34.132813c0-3.773437 3.050781-6.828125 6.824219-6.828125h27.308594c3.773437 0 6.828125 3.054688 6.828125 6.828125v34.132813c0 11.292968-9.1875 20.480468-20.480469 20.480468zm-6.828125-47.789062v27.308594c0 3.765625 3.058594 6.828125 6.828125 6.828125 3.765625 0 6.824219-3.0625 6.824219-6.828125v-27.308594zm0 0" fill="#4c241d"/><path d="m273.066406 300.585938c-7.539062 0-13.652344-6.113282-13.652344-13.652344v-34.132813h27.304688v34.132813c0 7.539062-6.113281 13.652344-13.652344 13.652344zm0 0" fill="#bd53b5"/><path d="m273.066406 307.414062c-11.292968 0-20.480468-9.1875-20.480468-20.480468v-34.132813c0-3.773437 3.054687-6.828125 6.828124-6.828125h27.304688c3.773438 0 6.828125 3.054688 6.828125 6.828125v34.132813c0 11.292968-9.1875 20.480468-20.480469 20.480468zm-6.828125-47.789062v27.308594c0 3.765625 3.0625 6.828125 6.828125 6.828125s6.828125-3.0625 6.828125-6.828125v-27.308594zm0 0" fill="#4c241d"/><path d="m273.066406 344.554688c-3.773437 0-6.828125-3.054688-6.828125-6.828126v-34.066406c0-3.773437 3.054688-6.828125 6.828125-6.828125 3.773438 0 6.828125 3.054688 6.828125 6.828125v34.066406c0 3.773438-3.054687 6.828126-6.828125 6.828126zm0 0" fill="#4c241d"/><path d="m225.28125 344.554688c-3.773438 0-6.828125-3.054688-6.828125-6.828126v-34.066406c0-3.773437 3.054687-6.828125 6.828125-6.828125s6.824219 3.054688 6.824219 6.828125v34.066406c0 3.773438-3.050781 6.828126-6.824219 6.828126zm0 0" fill="#4c241d"/><path d="m320.851562 300.585938c-7.539062 0-13.652343-6.113282-13.652343-13.652344v-34.132813h27.308593v34.132813c0 7.539062-6.113281 13.652344-13.65625 13.652344zm0 0" fill="#bd53b5"/><path d="m320.851562 307.414062c-11.292968 0-20.476562-9.1875-20.476562-20.480468v-34.132813c0-3.773437 3.050781-6.828125 6.824219-6.828125h27.308593c3.773438 0 6.824219 3.054688 6.824219 6.828125v34.132813c0 11.292968-9.1875 20.480468-20.480469 20.480468zm-6.824218-47.789062v27.308594c0 3.765625 3.058594 6.828125 6.824218 6.828125 3.769532 0 6.828126-3.0625 6.828126-6.828125v-27.308594zm0 0" fill="#4c241d"/><path d="m368.640625 300.585938c-7.539063 0-13.652344-6.113282-13.652344-13.652344v-34.132813h27.304688v34.132813c0 7.539062-6.113281 13.652344-13.652344 13.652344zm0 0" fill="#bd53b5"/><path d="m368.640625 307.414062c-11.292969 0-20.480469-9.1875-20.480469-20.480468v-34.132813c0-3.773437 3.054688-6.828125 6.828125-6.828125h27.304688c3.773437 0 6.828125 3.054688 6.828125 6.828125v34.132813c0 11.292968-9.1875 20.480468-20.480469 20.480468zm-6.828125-47.789062v27.308594c0 3.765625 3.0625 6.828125 6.828125 6.828125s6.824219-3.0625 6.824219-6.828125v-27.308594zm0 0" fill="#4c241d"/><path d="m368.640625 344.554688c-3.773437 0-6.828125-3.054688-6.828125-6.828126v-34.066406c0-3.773437 3.054688-6.828125 6.828125-6.828125s6.824219 3.054688 6.824219 6.828125v34.066406c0 3.773438-3.050782 6.828126-6.824219 6.828126zm0 0" fill="#4c241d"/><path d="m320.851562 344.554688c-3.773437 0-6.824218-3.054688-6.824218-6.828126v-34.066406c0-3.773437 3.050781-6.828125 6.824218-6.828125 3.773438 0 6.828126 3.054688 6.828126 6.828125v34.066406c0 3.773438-3.054688 6.828126-6.828126 6.828126zm0 0" fill="#4c241d"/><path d="m409.601562 217.601562c0-37.113281-30.089843-67.203124-67.203124-67.203124h-61.140626v-33.449219c0-53.160157-43.09375-96.257813-96.253906-96.257813-53.164062 0-96.257812 43.097656-96.257812 96.257813v101.71875h320.855468zm0 0" fill="#fff"/><path d="m409.601562 225.492188h-320.855468c-3.773438 0-6.824219-3.050782-6.824219-6.824219v-101.722657c0-56.839843 46.238281-103.078124 103.078125-103.078124s103.085938 46.238281 103.085938 103.078124v26.628907h54.3125c40.820312 0 74.027343 33.207031 74.027343 74.027343v1.066407c0 3.773437-3.050781 6.824219-6.824219 6.824219zm-314.027343-13.652344h306.925781c-2.90625-30.601563-28.753906-54.613282-60.101562-54.613282h-61.136719c-3.773438 0-6.828125-3.054687-6.828125-6.828124v-33.453126c0-49.3125-40.121094-89.425781-89.433594-89.425781s-89.425781 40.113281-89.425781 89.425781zm0 0" fill="#4c241d"/><path d="m88.746094 218.667969h320.855468v34.132812h-320.855468zm0 0" fill="#fc8c29"/><path d="m409.601562 259.625h-320.855468c-3.773438 0-6.824219-3.050781-6.824219-6.824219v-34.132812c0-3.773438 3.050781-6.828125 6.824219-6.828125h320.855468c3.773438 0 6.824219 3.054687 6.824219 6.828125v34.132812c0 3.773438-3.050781 6.824219-6.824219 6.824219zm-314.027343-13.652344h307.199219v-20.480468h-307.199219zm0 0" fill="#4c241d"/><path d="m122.886719 100.097656c-1 0-2.019531-.21875-2.980469-.683594-3.386719-1.648437-4.796875-5.734374-3.152344-9.128906 8.785156-18.066406 24.730469-32.074218 43.738282-38.425781 3.605468-1.199219 7.445312.738281 8.640624 4.304687 1.191407 3.582032-.734374 7.445313-4.304687 8.640626-15.554687 5.199218-28.601563 16.660156-35.796875 31.453124-1.179688 2.429688-3.613281 3.839844-6.144531 3.839844zm0 0" fill="#4c241d"/></svg>