<svg height="375pt" viewBox="0 -21 375.46496 375" width="375pt" xmlns="http://www.w3.org/2000/svg"><path d="m307.199219 153.832031c0 84.832031-68.769531 153.601563-153.597657 153.601563-84.832031 0-153.601562-68.769532-153.601562-153.601563s68.769531-153.597656 153.601562-153.597656c84.828126 0 153.597657 68.765625 153.597657 153.597656zm0 0" fill="#ffe8dc"/><path d="m343.929688 325.019531-219.277344-122.886719 219.277344-122.886718c11.0625-6.199219 24.710937 1.796875 24.710937 14.480468v216.816407c0 12.683593-13.648437 20.679687-24.710937 14.476562zm0 0" fill="#fc8c29"/><path d="m352.046875 334c-3.929687 0-7.859375-1.003906-11.453125-3.019531-.007812 0-.007812 0-.007812 0l-219.269532-122.886719c-2.160156-1.210938-3.492187-3.488281-3.492187-5.957031s1.332031-4.746094 3.492187-5.957031l219.269532-122.886719c7.339843-4.105469 16.054687-4.027344 23.300781.226562 7.25 4.25 11.578125 11.804688 11.578125 20.207031v216.816407c0 8.40625-4.328125 15.960937-11.578125 20.210937-3.691407 2.160156-7.765625 3.246094-11.839844 3.246094zm-4.78125-14.933594c3.101563 1.746094 6.65625 1.707032 9.714844-.09375 3.074219-1.796875 4.832031-4.871094 4.832031-8.429687v-216.816407c0-3.558593-1.757812-6.632812-4.824219-8.429687-3.035156-1.773437-6.652343-1.808594-9.726562-.09375l-208.644531 116.929687zm0 0" fill="#4c241d"/><path d="m214.046875 324.519531-187.335937-108.007812c-11.074219-6.386719-11.074219-22.371094 0-28.753907l187.335937-108.007812c11.0625-6.378906 24.886719 1.605469 24.886719 14.378906v216.015625c0 12.769531-13.824219 20.757813-24.886719 14.375zm0 0" fill="#fff"/><path d="m222.339844 333.605469c-4.019532 0-8.039063-1.054688-11.699219-3.167969l-187.339844-108.011719c-7.339843-4.230469-11.722656-11.820312-11.722656-20.289062 0-8.472657 4.382813-16.058594 11.722656-20.292969l187.339844-108.007812c7.320313-4.226563 16.078125-4.230469 23.414063.011718 7.332031 4.230469 11.707031 11.816406 11.707031 20.277344v216.019531c0 8.464844-4.375 16.046875-11.707031 20.28125-3.667969 2.121094-7.695313 3.179688-11.714844 3.179688zm-4.886719-14.996094c3.058594 1.757813 6.699219 1.765625 9.773437-.003906 3.054688-1.765625 4.878907-4.929688 4.878907-8.460938v-216.019531c0-3.53125-1.824219-6.695312-4.878907-8.460938-3.074218-1.769531-6.714843-1.757812-9.773437-.003906l-187.332031 108.007813c-3.0625 1.769531-4.886719 4.933593-4.886719 8.46875 0 3.53125 1.824219 6.695312 4.886719 8.464843zm0 0" fill="#4c241d"/></svg>