<svg height="380pt" viewBox="-2 0 380 380.77389" width="380pt" xmlns="http://www.w3.org/2000/svg"><path d="m314.335938 207.945312c0 84.832032-68.769532 153.601563-153.601563 153.601563s-153.597656-68.769531-153.597656-153.601563c0-84.828124 68.765625-153.597656 153.597656-153.597656s153.601563 68.769532 153.601563 153.597656zm0 0" fill="#ffe8dc"/><path d="m27.355469 100.925781-11.160157-15.957031c-15.722656-22.472656-10.25-53.4375 12.222657-69.160156 22.644531-15.839844 53.863281-10.148438 69.460937 12.664062l173.554688 253.839844c2.277344 3.253906 6.757812 4.046875 10.015625 1.769531 3.503906-2.453125 4.125-7.367187 1.3125-10.59375-15.410157-17.675781-58.03125-72.195312-48.699219-124.996093l117.667969 20.800781s-40.597657 42.464843.921875 88.414062l3.53125 5.046875c22.367187 31.972656 14.582031 76.027344-17.394532 98.394532-33.417968 23.378906-79.636718 13.6875-100.847656-21.148438l-173.78125-285.429688c-3.90625-6.417968-12.417968-8.203124-18.574218-3.894531-5.890626 4.117188-7.328126 12.234375-3.203126 18.121094l10.152344 14.511719zm0 0" fill="#ffce56"/><g fill="#4c241d"><path d="m298.535156 380.773438c-5.359375 0-10.761718-.558594-16.152344-1.6875-21.167968-4.4375-39.019531-17.058594-50.273437-35.53125l-173.777344-285.429688c-.898437-1.476562-2.328125-2.492188-4.019531-2.84375-1.6875-.339844-3.398438-.015625-4.8125.984375-1.355469.949219-2.261719 2.367187-2.546875 4-.289063 1.628906.074219 3.269531 1.019531 4.621094l10.152344 14.515625c2.164062 3.085937 1.410156 7.34375-1.675781 9.503906l-25.179688 17.613281c-1.480469 1.03125-3.3125 1.453125-5.101562 1.125-1.785157-.3125-3.367188-1.324219-4.402344-2.804687l-11.160156-15.960938c-8.648438-12.359375-11.96875-27.355468-9.339844-42.214844 2.621094-14.851562 10.878906-27.800781 23.242187-36.445312 12.453126-8.710938 27.550782-12.007812 42.503907-9.292969 14.957031 2.726563 27.921875 11.140625 36.507812 23.695313l142.480469 208.398437c-13.539062-24.695312-24.050781-55.214843-18.660156-85.714843.65625-3.714844 4.214844-6.199219 7.910156-5.53125l117.667969 20.800781c2.480469.433593 4.515625 2.199219 5.300781 4.589843.78125 2.394532.1875 5.027344-1.554688 6.847657-1.457031 1.539062-35.59375 38.5625 1.050782 79.113281.191406.214844.367187.433594.53125.667969l3.527344 5.046875c24.492187 35.007812 15.933593 83.414062-19.070313 107.898437-13.214844 9.25-28.480469 14.035157-44.167969 14.035157zm-245.46875-339.273438c1.351563 0 2.707032.140625 4.046875.421875 5.347657 1.117187 10.042969 4.4375 12.882813 9.105469l173.773437 285.417968c9.269531 15.222657 23.980469 25.621094 41.417969 29.273438 17.429688 3.667969 35.089844.046875 49.6875-10.164062 28.835938-20.175782 35.886719-60.050782 15.714844-88.886719l-3.292969-4.707031c-32.804687-36.601563-18.050781-71.589844-7.640625-87.867188l-99.765625-17.640625c-4.246094 48.3125 35.308594 97.972656 48.015625 112.546875 2.605469 2.984375 3.828125 6.957031 3.347656 10.886719-.484375 3.933593-2.628906 7.503906-5.894531 9.785156-3.066406 2.140625-6.777344 2.980469-10.476563 2.320313-3.683593-.648438-6.898437-2.699219-9.046874-5.769532l-173.589844-253.894531c-6.507813-9.519531-16.339844-15.898437-27.683594-17.96875s-22.789062.433594-32.230469 7.046875c-9.378906 6.5625-15.636719 16.375-17.628906 27.640625-1.988281 11.265625.523437 22.632813 7.082031 32.007813l7.25 10.367187 13.988282-9.789063-6.238282-8.917968c-3.039062-4.339844-4.207031-9.609375-3.28125-14.828125.921875-5.222657 3.820313-9.769531 8.164063-12.808594 3.355469-2.34375 7.355469-3.578125 11.398437-3.578125zm220.003906 231.113281 4 5.847657 5.691407-4.972657-5.144531 4.484375c-1.390626-1.597656-2.921876-3.386718-4.546876-5.359375zm0 0"/><path d="m122.988281 190.847656c-2.152343 0-4.273437-1.015625-5.597656-2.914062-2.164063-3.089844-1.410156-7.347656 1.679687-9.507813l25.175782-17.613281c3.089844-2.160156 7.351562-1.40625 9.503906 1.679688 2.160156 3.089843 1.410156 7.347656-1.679688 9.507812l-25.175781 17.613281c-1.1875.832031-2.554687 1.234375-3.90625 1.234375zm0 0"/><path d="m153.839844 141.140625c-2.15625 0-4.273438-1.015625-5.601563-2.914063-2.160156-3.089843-1.410156-7.347656 1.679688-9.507812l25.175781-17.613281c3.09375-2.152344 7.351562-1.40625 9.507812 1.679687 2.160157 3.089844 1.410157 7.347656-1.679687 9.507813l-25.175781 17.613281c-1.191406.832031-2.558594 1.234375-3.90625 1.234375zm0 0"/><path d="m136.226562 115.957031c-2.15625 0-4.273437-1.011719-5.601562-2.910156-2.160156-3.089844-1.410156-7.347656 1.679688-9.507813l31.46875-22.011718c3.097656-2.160156 7.351562-1.40625 9.507812 1.679687 2.160156 3.085938 1.410156 7.347657-1.679688 9.503907l-31.46875 22.015624c-1.191406.832032-2.558593 1.230469-3.90625 1.230469zm0 0"/><path d="m138.710938 226.71875c-2.152344 0-4.273438-1.011719-5.597657-2.914062-2.160156-3.085938-1.410156-7.34375 1.679688-9.503907l31.46875-22.019531c3.09375-2.152344 7.355469-1.40625 9.503906 1.679688 2.164063 3.085937 1.410156 7.347656-1.675781 9.503906l-31.472656 22.019531c-1.1875.835937-2.554688 1.234375-3.90625 1.234375zm0 0"/></g><path d="m141.84375 217.699219c-3.648438-5.214844-10.832031-6.484375-16.042969-2.839844-5.214843 3.648437-6.484375 10.832031-2.839843 16.046875 3.648437 5.214844 10.832031 6.484375 16.046874 2.835938 5.214844-3.648438 6.484376-10.832032 2.835938-16.042969zm0 0" fill="#bd53b5"/><path d="m132.433594 242.632812c-5.789063 0-11.492188-2.726562-15.054688-7.820312-2.808594-4.011719-3.890625-8.886719-3.035156-13.710938.851562-4.828124 3.53125-9.035156 7.550781-11.84375 8.292969-5.792968 19.75-3.773437 25.550781 4.515626 2.8125 4.015624 3.886719 8.886718 3.035157 13.710937-.851563 4.828125-3.535157 9.035156-7.554688 11.84375-3.191406 2.230469-6.859375 3.304687-10.492187 3.304687zm-.023438-23.03125c-.933594 0-1.875.269532-2.695312.84375-1.023438.722657-1.707032 1.792969-1.925782 3.027344-.21875 1.238282.058594 2.484375.777344 3.511719 1.484375 2.121094 4.421875 2.648437 6.535156 1.15625 1.03125-.722656 1.714844-1.792969 1.933594-3.027344.21875-1.238281-.054687-2.484375-.777344-3.511719-.910156-1.300781-2.367187-2-3.847656-2zm0 0" fill="#4c241d"/><path d="m177.128906 80.523438c-3.648437-5.214844-10.832031-6.484376-16.046875-2.835938-5.214843 3.648438-6.484375 10.832031-2.835937 16.046875 3.648437 5.210937 10.832031 6.484375 16.042968 2.835937 5.214844-3.648437 6.484376-10.832031 2.839844-16.046874zm0 0" fill="#bd53b5"/><path d="m167.710938 105.460938c-5.792969 0-11.492188-2.730469-15.054688-7.820313-5.800781-8.292969-3.773438-19.753906 4.515625-25.554687 8.28125-5.789063 19.75-3.773438 25.554687 4.515624 5.796876 8.289063 3.773438 19.75-4.515624 25.550782-3.199219 2.234375-6.867188 3.308594-10.5 3.308594zm-.023438-23.035157c-.929688 0-1.871094.273438-2.6875.847657-2.125 1.484374-2.640625 4.417968-1.15625 6.539062 1.480469 2.121094 4.421875 2.632812 6.542969 1.152344 2.121093-1.484375 2.636719-4.417969 1.152343-6.539063-.914062-1.300781-2.375-2-3.851562-2zm0 0" fill="#4c241d"/><path d="m195.023438 213.308594c-2.433594-3.476563-7.222657-4.324219-10.699219-1.890625-3.476563 2.429687-4.324219 7.222656-1.890625 10.699219 2.429687 3.472656 7.21875 4.320312 10.695312 1.890624 3.476563-2.433593 4.324219-7.222656 1.894532-10.699218zm0 0" fill="#4c241d"/><path d="m212.632812 238.484375c-2.429687-3.476563-7.222656-4.320313-10.695312-1.890625-3.476562 2.433594-4.324219 7.222656-1.894531 10.699219 2.433593 3.476562 7.222656 4.320312 10.699219 1.890625 3.476562-2.433594 4.324218-7.222656 1.890624-10.699219zm0 0" fill="#4c241d"/><path d="m230.246094 263.664062c-2.433594-3.476562-7.222656-4.324218-10.699219-1.894531-3.476563 2.433594-4.320313 7.222657-1.890625 10.699219 2.433594 3.476562 7.222656 4.324219 10.699219 1.890625 3.476562-2.429687 4.320312-7.21875 1.890625-10.695313zm0 0" fill="#4c241d"/><path d="m365.5625 153.453125-.597656 3.367187c-1.3125 7.425782-8.394532 12.382813-15.820313 11.070313l-116.066406-20.515625c-7.425781-1.3125-12.382813-8.398438-11.070313-15.820312l.597657-3.371094c1.3125-7.421875 8.394531-12.378906 15.820312-11.066406l116.070313 20.515624c7.425781 1.3125 12.378906 8.394532 11.066406 15.820313zm0 0" fill="#fff"/><path d="m351.570312 174.925781c-1.199218 0-2.40625-.105469-3.613281-.320312l-116.0625-20.515625c-11.121093-1.964844-18.570312-12.605469-16.609375-23.726563l.597656-3.371093c.957032-5.378907 3.945313-10.074219 8.429688-13.214844 4.484375-3.132813 9.90625-4.324219 15.304688-3.378906l116.066406 20.515624c11.125 1.964844 18.570312 12.613282 16.605468 23.726563l-.59375 3.367187c-.953124 5.382813-3.949218 10.085938-8.429687 13.21875-3.484375 2.433594-7.535156 3.699219-11.695313 3.699219zm-115.539062-51.191406c-1.386719 0-2.738281.425781-3.894531 1.230469-1.496094 1.046875-2.492188 2.613281-2.808594 4.410156l-.597656 3.371094c-.652344 3.703125 1.828125 7.246094 5.535156 7.910156l116.066406 20.511719c1.792969.292969 3.609375-.085938 5.105469-1.132813 1.492188-1.039062 2.488281-2.605468 2.808594-4.398437l.59375-3.367188c.65625-3.707031-1.828125-7.253906-5.535156-7.914062l-116.066407-20.515625c-.402343-.066406-.804687-.105469-1.207031-.105469zm0 0" fill="#4c241d"/><path d="m8.480469 120.960938c-2.152344 0-4.273438-1.015626-5.597657-2.914063-2.164062-3.089844-1.410156-7.347656 1.679688-9.507813l44.054688-30.820312c3.09375-2.160156 7.347656-1.40625 9.507812 1.679688 2.15625 3.085937 1.40625 7.347656-1.679688 9.507812l-44.058593 30.820312c-1.1875.832032-2.554688 1.234376-3.90625 1.234376zm0 0" fill="#4c241d"/></svg>