<svg height="403pt" viewBox="0 -10 403.02593 403" width="403pt" xmlns="http://www.w3.org/2000/svg"><path d="m403.027344 153.613281c0 84.832031-68.769532 153.601563-153.601563 153.601563s-153.601562-68.769532-153.601562-153.601563 68.769531-153.6015622 153.601562-153.6015622 153.601563 68.7695312 153.601563 153.6015622zm0 0" fill="#ffe8dc"/><path d="m349.082031 350.722656-179.355469-104.117187c-8.867187-5.148438-8.867187-17.957031 0-23.105469l179.355469-104.117188c8.90625-5.171874 20.066407 1.253907 20.066407 11.550782v208.238281c0 10.296875-11.160157 16.722656-20.066407 11.550781zm0 0" fill="#fc8c29"/><path d="m355.792969 359.390625c-3.488281 0-6.96875-.925781-10.136719-2.765625l-179.359375-104.117188c-6.292969-3.652343-10.054687-10.179687-10.054687-17.457031 0-7.277343 3.761718-13.800781 10.054687-17.457031l179.359375-104.117188c6.300781-3.660156 13.863281-3.6875 20.203125-.039062 6.332031 3.648438 10.113281 10.1875 10.113281 17.492188v208.238281c0 7.308593-3.78125 13.851562-10.113281 17.496093-3.152344 1.816407-6.613281 2.726563-10.066406 2.726563zm-.03125-235.011719c-.980469 0-2.089844.234375-3.246094.90625l-179.363281 104.117188c-2.933594 1.703125-3.253906 4.519531-3.253906 5.652344 0 1.128906.324218 3.945312 3.253906 5.648437l179.363281 104.117187c2.933594 1.699219 5.542969.582032 6.53125.015626.988281-.566407 3.273437-2.253907 3.273437-5.664063v-208.238281c0-3.40625-2.285156-5.09375-3.273437-5.660156-.59375-.34375-1.785156-.894532-3.285156-.894532zm0 0" fill="#4c241d"/><path d="m232.730469 350.597656-197.320313-115.542968 197.320313-115.546876c8.90625-5.214843 20.109375 1.210938 20.109375 11.527344v208.035156c0 10.320313-11.203125 16.742188-20.109375 11.527344zm0 0" fill="#fff"/><path d="m239.480469 359.289062c-3.507813 0-7.007813-.9375-10.203125-2.804687l-197.3125-115.542969c-2.09375-1.222656-3.378906-3.464844-3.378906-5.886718 0-2.425782 1.289062-4.667969 3.378906-5.890626l197.320312-115.542968c6.3125-3.703125 13.878906-3.738282 20.234375-.097656 6.351563 3.644531 10.144531 10.191406 10.144531 17.515624v208.03125c0 7.324219-3.792968 13.871094-10.144531 17.515626-3.148437 1.800781-6.59375 2.703124-10.039062 2.703124zm-190.5625-124.234374 187.261719 109.652343h.007812c2.953125 1.730469 5.554688.597657 6.546875.03125.984375-.5625 3.28125-2.25 3.28125-5.667969v-208.035156c0-3.417968-2.296875-5.101562-3.28125-5.664062-.992187-.570313-3.59375-1.703125-6.546875.027344zm0 0" fill="#4c241d"/><path d="m20.605469 95.585938c7.613281 0 13.78125 6.171874 13.78125 13.78125v252.332031c0 7.609375-6.167969 13.78125-13.78125 13.78125-7.609375 0-13.78125-6.167969-13.78125-13.78125v-252.332031c0-7.609376 6.171875-13.78125 13.78125-13.78125zm0 0" fill="#bd53b5"/><path d="m20.605469 382.304688c-11.359375 0-20.605469-9.242188-20.605469-20.605469v-252.332031c0-11.363282 9.246094-20.609376 20.605469-20.609376s20.605469 9.246094 20.605469 20.609376v252.332031c0 11.363281-9.246094 20.605469-20.605469 20.605469zm0-279.890626c-3.832031 0-6.953125 3.117188-6.953125 6.953126v252.332031c0 3.832031 3.121094 6.953125 6.953125 6.953125 3.835937 0 6.953125-3.121094 6.953125-6.953125v-252.332031c0-3.835938-3.117188-6.953126-6.953125-6.953126zm0 0" fill="#4c241d"/></svg>