<svg height="382pt" viewBox="0 -7 382.29333 382" width="382pt" xmlns="http://www.w3.org/2000/svg"><path d="m307.199219 153.746094c0 84.832031-68.769531 153.601562-153.597657 153.601562-84.832031 0-153.601562-68.769531-153.601562-153.601562 0-84.832032 68.769531-153.597656 153.601562-153.597656 84.828126 0 153.597657 68.765624 153.597657 153.597656zm0 0" fill="#ffe8dc"/><g fill="#4c241d"><path d="m187.734375 368.785156c-24.46875 0-44.375-19.90625-44.375-44.371094v-3.414062c0-3.769531 3.058594-6.828125 6.828125-6.828125s6.824219 3.058594 6.824219 6.828125v3.414062c0 16.941407 13.78125 30.71875 30.722656 30.71875 16.9375 0 30.71875-13.777343 30.71875-30.71875v-43.132812c-4.671875-.042969-9.601563-.46875-14.773437-1.332031-25.4375-4.242188-42.972657-20.386719-48.105469-44.300781-6.109375-28.464844 7.257812-60.988282 31.785156-77.339844 11.351563-7.570313 21.789063-14.527344 31.09375-21.148438v-85.8125c0-16.941406 13.78125-30.722656 30.71875-30.722656 16.941406 0 30.722656 13.78125 30.722656 30.722656v23.890625c0 27.386719-18.714843 47.398438-47.789062 68.859375v26.828125c.242187-.015625.480469-.03125.726562-.039062 16.847657-.90625 33.023438 6.585937 43.28125 19.925781 10.445313 13.5625 12.613281 32.898438 5.660157 50.457031-6.722657 16.960938-23.160157 34.605469-49.667969 38.984375v44.160156c0 24.464844-19.90625 44.371094-44.371094 44.371094zm30.71875-214.976562c-7.386719 5.105468-15.257813 10.355468-23.519531 15.859375-20.054688 13.363281-30.988282 39.914062-26.007813 63.113281 2.289063 10.664062 10.132813 29.222656 36.996094 33.699219 4.40625.730469 8.585937 1.089843 12.53125 1.117187v-78.898437c-10.972656 5.765625-19.039063 16.832031-20.285156 29.460937-.5 5.039063-.027344 10 1.414062 14.75 1.09375 3.609375-.949219 7.421875-4.554687 8.515625-3.625 1.09375-7.421875-.953125-8.511719-4.554687-1.960937-6.476563-2.613281-13.222656-1.933594-20.054688 1.964844-19.929687 15.644531-36.558594 33.871094-43.0625zm13.652344 30.8125v81.667968c19.730469-4.132812 31.929687-17.316406 36.972656-30.046874 5.195313-13.113282 3.742187-27.328126-3.777344-37.105469-7.542969-9.789063-19.394531-15.304688-31.773437-14.617188-.472656.023438-.949219.054688-1.421875.101563zm17.066406-150.339844c-9.414063 0-17.066406 7.65625-17.066406 17.066406v75.65625c21.445312-16.871094 34.132812-32.382812 34.132812-51.765625v-23.890625c0-9.410156-7.652343-17.066406-17.066406-17.066406zm0 0"/><path d="m375.464844 82.066406h-66.160156c-3.773438 0-6.824219-3.054687-6.824219-6.828125 0-3.769531 3.050781-6.824219 6.824219-6.824219h66.160156c3.773437 0 6.828125 3.054688 6.828125 6.824219 0 3.773438-3.054688 6.828125-6.828125 6.828125zm0 0"/><path d="m183.761719 82.066406h-156.453125c-3.773438 0-6.828125-3.054687-6.828125-6.828125 0-3.769531 3.054687-6.824219 6.828125-6.824219h156.453125c3.773437 0 6.824219 3.054688 6.824219 6.824219 0 3.773438-3.050782 6.828125-6.824219 6.828125zm0 0"/><path d="m375.464844 204.945312h-56.71875c-3.773438 0-6.824219-3.054687-6.824219-6.824218 0-3.769532 3.050781-6.828125 6.824219-6.828125h56.71875c3.773437 0 6.828125 3.058593 6.828125 6.828125 0 3.769531-3.054688 6.824218-6.828125 6.824218zm0 0"/><path d="m124.351562 204.945312h-97.042968c-3.773438 0-6.828125-3.054687-6.828125-6.824218 0-3.769532 3.054687-6.828125 6.828125-6.828125h97.042968c3.769532 0 6.828126 3.058593 6.828126 6.828125 0 3.769531-3.058594 6.824218-6.828126 6.824218zm0 0"/><path d="m375.464844 314.171875h-110.726563c-3.773437 0-6.824219-3.054687-6.824219-6.824219 0-3.769531 3.050782-6.828125 6.824219-6.828125h110.726563c3.773437 0 6.828125 3.058594 6.828125 6.828125 0 3.769532-3.054688 6.824219-6.828125 6.824219zm0 0"/><path d="m88.214844 314.171875h-60.90625c-3.773438 0-6.828125-3.054687-6.828125-6.824219 0-3.769531 3.054687-6.828125 6.828125-6.828125h60.90625c3.769531 0 6.828125 3.058594 6.828125 6.828125 0 3.769532-3.058594 6.824219-6.828125 6.824219zm0 0"/></g><path d="m168.179688 314.171875c0 9.9375-8.054688 17.992187-17.992188 17.992187s-17.992188-8.054687-17.992188-17.992187c0-9.933594 8.054688-17.988281 17.992188-17.988281s17.992188 8.054687 17.992188 17.988281zm0 0" fill="#ffce56"/><path d="m150.1875 338.992188c-13.6875 0-24.820312-11.132813-24.820312-24.820313s11.132812-24.820313 24.820312-24.820313 24.820312 11.132813 24.820312 24.820313-11.132812 24.820313-24.820312 24.820313zm0-35.984376c-6.15625 0-11.167969 5.007813-11.167969 11.164063s5.011719 11.167969 11.167969 11.167969 11.164062-5.011719 11.164062-11.167969-5.007812-11.164063-11.164062-11.164063zm0 0" fill="#4c241d"/></svg>