<svg height="395pt" viewBox="-10 0 395 395.94667" width="395pt" xmlns="http://www.w3.org/2000/svg"><path d="m307.671875 174.078125c0 84.832031-68.769531 153.601563-153.597656 153.601563-84.832031 0-153.601563-68.769532-153.601563-153.601563 0-84.828125 68.769532-153.597656 153.601563-153.597656 84.828125 0 153.597656 68.769531 153.597656 153.597656zm0 0" fill="#ffe8dc"/><path d="m254.511719 389.121094h-118.960938c-14.277343 0-25.851562-11.574219-25.851562-25.855469v-330.585937c0-14.277344 11.574219-25.851563 25.855469-25.851563h118.960937c14.277344 0 25.851563 11.574219 25.851563 25.851563v330.585937c0 14.28125-11.574219 25.855469-25.855469 25.855469zm0 0" fill="#fff"/><path d="m254.515625 395.945312h-118.960937c-18.019532 0-32.679688-14.660156-32.679688-32.679687v-330.585937c0-18.019532 14.660156-32.679688 32.675781-32.679688h118.960938c18.019531 0 32.679687 14.660156 32.679687 32.679688v330.585937c0 18.019531-14.660156 32.679687-32.675781 32.679687zm-118.964844-382.292968c-10.492187 0-19.023437 8.539062-19.023437 19.027344v330.585937c0 10.488281 8.53125 19.027344 19.023437 19.027344h118.960938c10.496093 0 19.027343-8.535157 19.027343-19.027344v-330.585937c0-10.488282-8.53125-19.027344-19.023437-19.027344zm0 0" fill="#4c241d"/><path d="m343.257812 389.121094h-118.957031c-14.28125 0-25.855469-11.574219-25.855469-25.855469v-330.585937c0-14.277344 11.574219-25.851563 25.855469-25.851563h118.960938c14.277343 0 25.851562 11.574219 25.851562 25.851563v330.585937c0 14.28125-11.574219 25.855469-25.855469 25.855469zm0 0" fill="#fff"/><path d="m343.261719 395.945312h-118.960938c-18.019531 0-32.679687-14.660156-32.679687-32.679687v-330.585937c0-18.019532 14.660156-32.679688 32.679687-32.679688h118.957031c18.023438 0 32.683594 14.660156 32.683594 32.679688v330.585937c0 18.019531-14.660156 32.679687-32.679687 32.679687zm-118.960938-382.292968c-10.492187 0-19.027343 8.539062-19.027343 19.027344v330.585937c0 10.488281 8.535156 19.027344 19.027343 19.027344h118.957031c10.496094 0 19.027344-8.535157 19.027344-19.027344v-330.585937c0-10.488282-8.53125-19.027344-19.023437-19.027344zm0 0" fill="#4c241d"/><path d="m341.808594 98.988281c0 32.046875-25.980469 58.023438-58.027344 58.023438s-58.027344-25.976563-58.027344-58.023438c0-32.050781 25.980469-58.027343 58.027344-58.027343s58.027344 25.976562 58.027344 58.027343zm0 0" fill="#bd53b5"/><path d="m283.78125 163.839844c-35.761719 0-64.855469-29.09375-64.855469-64.851563 0-35.761719 29.09375-64.855469 64.855469-64.855469 35.757812 0 64.851562 29.09375 64.851562 64.855469 0 35.757813-29.09375 64.851563-64.851562 64.851563zm0-116.054688c-28.234375 0-51.203125 22.96875-51.203125 51.203125 0 28.230469 22.96875 51.199219 51.203125 51.199219 28.230469 0 51.199219-22.96875 51.199219-51.199219 0-28.234375-22.96875-51.203125-51.199219-51.203125zm0 0" fill="#4c241d"/><path d="m321.167969 98.988281c0 20.648438-16.738281 37.386719-37.386719 37.386719s-37.390625-16.738281-37.390625-37.386719c0-20.652343 16.742187-37.390625 37.390625-37.390625s37.386719 16.738282 37.386719 37.390625zm0 0" fill="#ffce56"/><path d="m283.78125 143.199219c-24.382812 0-44.214844-19.832031-44.214844-44.210938 0-24.382812 19.832032-44.214843 44.214844-44.214843 24.378906 0 44.210938 19.832031 44.210938 44.214843 0 24.378907-19.832032 44.210938-44.210938 44.210938zm0-74.773438c-16.855469 0-30.5625 13.710938-30.5625 30.5625 0 16.847657 13.707031 30.558594 30.5625 30.558594 16.851562 0 30.558594-13.710937 30.558594-30.558594 0-16.851562-13.707032-30.5625-30.558594-30.5625zm0 0" fill="#4c241d"/><path d="m341.808594 235.519531c0 32.046875-25.980469 58.027344-58.027344 58.027344s-58.027344-25.980469-58.027344-58.027344 25.980469-58.027343 58.027344-58.027343 58.027344 25.980468 58.027344 58.027343zm0 0" fill="#bd53b5"/><path d="m283.78125 300.375c-35.761719 0-64.855469-29.09375-64.855469-64.855469 0-35.757812 29.09375-64.851562 64.855469-64.851562 35.757812 0 64.851562 29.09375 64.851562 64.851562 0 35.761719-29.09375 64.855469-64.851562 64.855469zm0-116.054688c-28.234375 0-51.203125 22.964844-51.203125 51.199219s22.96875 51.199219 51.203125 51.199219c28.230469 0 51.199219-22.964844 51.199219-51.199219s-22.96875-51.199219-51.199219-51.199219zm0 0" fill="#4c241d"/><path d="m321.167969 235.519531c0 20.648438-16.738281 37.386719-37.386719 37.386719s-37.390625-16.738281-37.390625-37.386719c0-20.648437 16.742187-37.386719 37.390625-37.386719s37.386719 16.738282 37.386719 37.386719zm0 0" fill="#ffce56"/><path d="m283.78125 279.734375c-24.382812 0-44.214844-19.835937-44.214844-44.214844 0-24.378906 19.832032-44.210937 44.214844-44.210937 24.378906 0 44.210938 19.832031 44.210938 44.210937 0 24.378907-19.832032 44.214844-44.210938 44.214844zm0-74.773437c-16.855469 0-30.5625 13.710937-30.5625 30.558593 0 16.851563 13.707031 30.558594 30.5625 30.558594 16.851562 0 30.558594-13.707031 30.558594-30.558594 0-16.847656-13.707032-30.558593-30.558594-30.558593zm0 0" fill="#4c241d"/><path d="m305.398438 344.746094c0 11.941406-9.679688 21.621094-21.617188 21.621094-11.941406 0-21.621094-9.679688-21.621094-21.621094s9.679688-21.621094 21.621094-21.621094c11.9375 0 21.617188 9.679688 21.617188 21.621094zm0 0" fill="#fc8c29"/><g fill="#4c241d"><path d="m283.78125 373.195312c-15.6875 0-28.449219-12.761718-28.449219-28.449218 0-15.683594 12.761719-28.445313 28.449219-28.445313 15.683594 0 28.445312 12.761719 28.445312 28.445313 0 15.6875-12.761718 28.449218-28.445312 28.449218zm0-43.242187c-8.160156 0-14.792969 6.636719-14.792969 14.792969s6.632813 14.792968 14.792969 14.792968 14.792969-6.636718 14.792969-14.792968-6.632813-14.792969-14.792969-14.792969zm0 0"/><path d="m328.152344 314.027344c0 3.769531-3.054688 6.824218-6.824219 6.824218-3.773437 0-6.828125-3.054687-6.828125-6.824218 0-3.769532 3.054688-6.828125 6.828125-6.828125 3.769531 0 6.824219 3.058593 6.824219 6.828125zm0 0"/></g></svg>