<svg height="418pt" viewBox="0 -5 418.34795 418" width="418pt" xmlns="http://www.w3.org/2000/svg"><path d="m307.199219 153.773438c0 84.832031-68.769531 153.601562-153.597657 153.601562-84.832031 0-153.601562-68.769531-153.601562-153.601562 0-84.832032 68.769531-153.597657 153.601562-153.597657 84.828126 0 153.597657 68.765625 153.597657 153.597657zm0 0" fill="#ffe8dc"/><path d="m160.613281 295.082031c-14.015625-19.484375-41.175781-23.910156-60.65625-9.890625-19.480469 14.015625-23.910156 41.175782-9.890625 60.65625 14.019532 19.480469 41.175782 23.910156 60.65625 9.890625 19.484375-14.019531 23.910156-41.175781 9.890625-60.65625zm0 0" fill="#ffce56"/><path d="m125.453125 370.742188c-2.71875 0-5.460937-.222657-8.199219-.667969-13.257812-2.160157-24.878906-9.351563-32.722656-20.261719-16.195312-22.5-11.0625-53.984375 11.441406-70.179688 10.90625-7.847656 24.238282-10.9375 37.460938-8.820312 13.257812 2.167969 24.875 9.359375 32.722656 20.261719 16.195312 22.507812 11.066406 53.992187-11.441406 70.1875-8.648438 6.222656-18.8125 9.480469-29.261719 9.480469zm-.183594-86.9375c-7.617187 0-15.019531 2.375-21.320312 6.910156-16.390625 11.796875-20.132813 34.734375-8.339844 51.125 5.71875 7.945312 14.1875 13.1875 23.84375 14.757812 9.667969 1.574219 19.347656-.703125 27.292969-6.417968 7.9375-5.714844 13.179687-14.179688 14.753906-23.839844s-.707031-19.355469-6.421875-27.292969c-5.71875-7.941406-14.183594-13.183594-23.839844-14.753906-1.992187-.324219-3.992187-.488281-5.96875-.488281zm0 0" fill="#4c241d"/><path d="m141.222656 189.351562c-14.019531-19.480468-41.175781-23.90625-60.65625-9.890624-19.480468 14.019531-23.910156 41.175781-9.890625 60.660156 14.019531 19.480468 41.175781 23.90625 60.65625 9.890625 19.480469-14.019531 23.910157-41.175781 9.890625-60.660157zm0 0" fill="#fc8c29"/><path d="m106.015625 264.988281c-15.640625 0-31.066406-7.253906-40.878906-20.894531-7.847657-10.898438-10.976563-24.207031-8.816407-37.460938 2.160157-13.257812 9.355469-24.878906 20.257813-32.726562 10.90625-7.847656 24.222656-10.972656 37.460937-8.8125 13.257813 2.160156 24.878907 9.351562 32.722657 20.261719 7.847656 10.898437 10.980469 24.207031 8.816406 37.457031-2.160156 13.253906-9.355469 24.875-20.257813 32.722656-8.867187 6.378906-19.132812 9.453125-29.304687 9.453125zm-.144531-86.90625c-7.613282 0-15.015625 2.371094-21.316406 6.90625-7.945313 5.710938-13.183594 14.179688-14.757813 23.839844-1.578125 9.660156.707031 19.351563 6.421875 27.292969 11.800781 16.390625 34.730469 20.121094 51.128906 8.332031 7.941406-5.71875 13.183594-14.179687 14.757813-23.839844 1.574219-9.652343-.707031-19.347656-6.421875-27.285156-5.71875-7.945313-14.183594-13.1875-23.839844-14.757813-1.996094-.328124-3.988281-.488281-5.972656-.488281zm0 0" fill="#4c241d"/><path d="m274.789062 55.351562c-23.6875-3.863281-46.023437 12.210938-49.882812 35.898438-3.863281 23.6875 12.210938 46.023438 35.898438 49.882812 23.6875 3.863282 46.023437-12.210937 49.882812-35.898437 3.863281-23.6875-12.210938-46.023437-35.898438-49.882813zm0 0" fill="#fc8c29"/><path d="m267.90625 148.546875c-2.71875 0-5.464844-.21875-8.207031-.667969-27.359375-4.460937-46-30.351562-41.539063-57.71875 4.460938-27.367187 30.367188-45.953125 57.71875-41.539062 13.261719 2.160156 24.878906 9.351562 32.726563 20.257812 7.847656 10.902344 10.976562 24.207032 8.8125 37.460938-2.160157 13.261718-9.351563 24.878906-20.257813 32.726562-8.644531 6.21875-18.804687 9.480469-29.253906 9.480469zm-.191406-86.933594c-7.613282 0-15.019532 2.375-21.320313 6.90625-7.9375 5.714844-13.179687 14.183594-14.753906 23.839844-3.253906 19.9375 10.328125 38.792969 30.257813 42.042969 9.621093 1.566406 19.335937-.699219 27.289062-6.414063 7.9375-5.722656 13.179688-14.1875 14.753906-23.847656 1.578125-9.652344-.699218-19.347656-6.414062-27.285156-5.722656-7.941407-14.1875-13.179688-23.847656-14.753907-1.992188-.328124-3.984376-.488281-5.964844-.488281zm0 0" fill="#4c241d"/><path d="m368.882812 107.316406c-23.6875-3.863281-46.023437 12.210938-49.886718 35.898438-3.859375 23.6875 12.214844 46.023437 35.902344 49.886718 23.6875 3.859376 46.023437-12.214843 49.882812-35.902343 3.863281-23.6875-12.210938-46.023438-35.898438-49.882813zm0 0" fill="#ffce56"/><path d="m361.996094 200.515625c-2.722656 0-5.46875-.222656-8.210938-.667969-27.359375-4.460937-46-30.355468-41.539062-57.71875 4.472656-27.355468 30.332031-45.933594 57.726562-41.542968 27.359375 4.460937 45.992188 30.355468 41.539063 57.726562-2.160157 13.253906-9.351563 24.875-20.257813 32.722656-8.648437 6.226563-18.804687 9.480469-29.257812 9.480469zm-.128906-86.929687c-17.628907 0-33.214844 12.792968-36.140626 30.742187-3.253906 19.933594 10.328126 38.792969 30.257813 42.039063 9.640625 1.589843 19.355469-.691407 27.292969-6.414063 7.941406-5.710937 13.179687-14.179687 14.753906-23.839844 3.253906-19.933593-10.324219-38.800781-30.257812-42.046875-1.988282-.324218-3.960938-.480468-5.90625-.480468zm0 0" fill="#4c241d"/><path d="m196.179688 99.410156c-14.015626-19.480468-41.175782-23.910156-60.65625-9.890625-19.480469 14.019531-23.910157 41.175781-9.890626 60.65625 14.019532 19.480469 41.175782 23.910157 60.65625 9.890625 19.484376-14.019531 23.910157-41.175781 9.890626-60.65625zm0 0" fill="#ffce56"/><path d="m160.972656 175.046875c-15.644531 0-31.066406-7.253906-40.882812-20.890625-7.847656-10.902344-10.976563-24.210938-8.816406-37.460938 2.160156-13.261718 9.355468-24.878906 20.261718-32.726562 10.902344-7.847656 24.210938-10.96875 37.457032-8.8125 13.257812 2.160156 24.882812 9.351562 32.722656 20.257812 16.191406 22.5 11.066406 53.988282-11.4375 70.179688-8.867188 6.378906-19.132813 9.453125-29.304688 9.453125zm-.148437-86.90625c-7.609375 0-15.011719 2.375-21.316407 6.90625-7.941406 5.714844-13.183593 14.179687-14.753906 23.839844-1.578125 9.660156.703125 19.355469 6.417969 27.292969 11.804687 16.394531 34.738281 20.136718 51.132813 8.335937 16.390624-11.800781 20.125-34.734375 8.332031-51.128906 0 0 0 0-.003907 0-5.714843-7.945313-14.175781-13.1875-23.832031-14.757813-1.996093-.328125-3.992187-.488281-5.976562-.488281zm0 0" fill="#4c241d"/><path d="m146.816406 118.453125c-60.992187 49.925781-77.027344 138.28125-37.269531 206.339844 20.128906 34.464843 51.257813 59.632812 88.769531 72.121093l9.195313 3.058594c16.175781 5.382813 32.675781-7.257812 31.683593-24.273437l-.566406-9.675781c-2.082031-35.730469 13.914063-69.464844 42.796875-90.25 26.078125-18.769532 58.828125-24.285157 89.867188-15.140626l9.300781 2.738282c16.355469 4.820312 32.40625-8.398438 30.816406-25.371094l-.902344-9.652344c-2.6875-28.691406-12.941406-56.128906-29.652343-79.347656-54.105469-75.191406-161.257813-90.121094-234.039063-30.546875zm228.148438 87.023437c3.414062 11.367188-6.222656 22.40625-18.019532 21.0625-31.949218-3.640624-65.28125 4.066407-93.441406 24.335938-31.882812 22.945312-50.628906 57.277344-54.824218 93.441406-1.386719 11.949219-14.496094 18.621094-24.917969 12.617188-18.136719-10.441406-34.09375-25.421875-46.003907-44.753906-34.179687-55.460938-21.714843-129.167969 28.828126-170.265626 59.097656-48.054687 145.527343-35.921874 189.375 25.007813 8.675781 12.054687 14.960937 25.089844 19.003906 38.554687zm0 0" fill="#bd53b5"/><path d="m215.140625 408.039062c-3.28125 0-6.585937-.527343-9.785156-1.585937l-9.195313-3.058594c-39.472656-13.140625-71.460937-39.136719-92.503906-75.15625-41.292969-70.683593-24.59375-163.144531 38.839844-215.066406 36.46875-29.84375 82.226562-42.90625 128.917968-36.792969 46.035157 6.039063 87.945313 31.058594 114.988282 68.632813 17.425781 24.207031 28.113281 52.804687 30.90625 82.699219l.90625 9.648437c.953125 10.230469-3.214844 20.246094-11.148438 26.773437-7.917968 6.527344-18.519531 8.707032-28.398437 5.785157l-9.300781-2.738281c-29-8.546876-59.601563-3.390626-83.953126 14.132812-26.972656 19.414062-41.914062 50.933594-39.964843 84.304688l.558593 9.6875c.601563 10.25-3.914062 20.101562-12.066406 26.347656-5.476562 4.203125-12.09375 6.386718-18.800781 6.386718zm-64-284.304687c-58.285156 47.71875-73.632813 132.671875-35.699219 197.613281 19.347656 33.117188 48.75 57.011719 85.023438 69.085938l9.203125 3.058594c5.539062 1.855468 11.351562.867187 15.972656-2.671876 4.621094-3.546874 7.078125-8.90625 6.738281-14.71875l-.558594-9.6875c-2.226562-38.0625 14.828126-74.019531 45.617188-96.179687 27.808594-20.007813 62.722656-25.894531 95.78125-16.148437l9.308594 2.738281c5.570312 1.636719 11.363281.472656 15.863281-3.234375 4.496094-3.703125 6.769531-9.152344 6.222656-14.957032l-.90625-9.648437c-2.566406-27.480469-12.378906-53.757813-28.386719-76-24.847656-34.523437-63.367187-57.511719-105.6875-63.070313-42.878906-5.628906-84.964843 6.378907-118.492187 33.820313zm40.933594 242.257813c-4.050781 0-8.085938-1.050782-11.71875-3.144532-19.949219-11.496094-36.238281-27.335937-48.410157-47.089844-36.152343-58.664062-23.109374-135.6875 30.335938-179.140624 29.898438-24.320313 67.304688-34.90625 105.386719-29.871094 38.078125 5.058594 71.398437 25.011718 93.832031 56.1875 8.894531 12.34375 15.625 25.996094 20.007812 40.570312v.007813c2.226563 7.425781.566407 15.445312-4.445312 21.445312-5.128906 6.132813-12.890625 9.300781-20.886719 8.359375-31.496093-3.59375-62.996093 4.605469-88.679687 23.09375-28.949219 20.832032-47.914063 53.160156-52.035156 88.691406-.917969 7.921876-5.714844 14.789063-12.828126 18.367188-3.332031 1.683594-6.953124 2.523438-10.558593 2.523438zm57.09375-246.820313c-28.410157 0-55.707031 9.6875-78.273438 28.035156-48.148437 39.152344-59.894531 108.535157-27.324219 161.390625 10.964844 17.800782 25.636719 32.066406 43.597657 42.421875 2.917969 1.671875 6.320312 1.777344 9.324219.257813 3.042968-1.53125 5.015624-4.351563 5.40625-7.746094 4.5625-39.339844 25.5625-75.132812 57.621093-98.199219 28.453125-20.46875 63.355469-29.542969 98.203125-25.574219 3.324219.339844 6.683594-.953124 8.863282-3.558593 2.09375-2.5 2.761718-5.695313 1.839843-8.769531-3.941406-13.113282-10-25.40625-18.007812-36.523438-20.210938-28.085938-50.238281-46.058594-84.550781-50.628906-5.585938-.738282-11.164063-1.105469-16.699219-1.105469zm0 0" fill="#4c241d"/></svg>