<svg height="412pt" viewBox="-13 0 412 412.08521" width="412pt" xmlns="http://www.w3.org/2000/svg"><path d="m321.652344 193.605469c0 84.832031-68.769532 153.601562-153.601563 153.601562s-153.601562-68.769531-153.601562-153.601562 68.769531-153.597657 153.601562-153.597657 153.601563 68.765626 153.601563 153.597657zm0 0" fill="#ffe8dc"/><g fill="#4c241d"><path d="m200.316406 345.578125c-2.132812 0-4.226562-.992187-5.558594-2.859375-2.195312-3.066406-1.488281-7.324219 1.585938-9.519531l27.492188-19.652344c3.066406-2.199219 7.328124-1.480469 9.519531 1.585937 2.195312 3.066407 1.488281 7.328126-1.585938 9.519532l-27.492187 19.65625c-1.199219.855468-2.585938 1.269531-3.960938 1.269531zm0 0"/><path d="m315.402344 373.484375c-2.132813 0-4.226563-.992187-5.558594-2.851563-2.195312-3.074218-1.488281-7.335937 1.578125-9.527343l32.082031-22.933594c3.078125-2.195313 7.332032-1.472656 9.527344 1.578125 2.191406 3.074219 1.484375 7.335938-1.582031 9.527344l-32.082031 22.933594c-1.203126.863281-2.589844 1.273437-3.964844 1.273437zm0 0"/><path d="m301.371094 353.84375c-2.132813 0-4.226563-.992188-5.5625-2.859375-2.191406-3.066406-1.484375-7.328125 1.589844-9.519531l32.078124-22.925782c3.0625-2.203124 7.328126-1.480468 9.519532 1.585938 2.195312 3.066406 1.488281 7.328125-1.585938 9.519531l-32.082031 22.925781c-1.199219.863282-2.582031 1.273438-3.957031 1.273438zm0 0"/><path d="m278.917969 322.433594c-2.132813 0-4.226563-.996094-5.5625-2.863282-2.191407-3.066406-1.484375-7.324218 1.589843-9.519531l32.074219-22.925781c3.058594-2.199219 7.324219-1.480469 9.519531 1.585938 2.191407 3.066406 1.484376 7.328124-1.589843 9.519531l-32.070313 22.929687c-1.203125.859375-2.589844 1.273438-3.960937 1.273438zm0 0"/><path d="m194.84375 286.433594c-2.132812 0-4.226562-.996094-5.558594-2.863282-2.195312-3.066406-1.488281-7.324218 1.585938-9.519531l22.574218-16.132812c3.058594-2.191407 7.324219-1.480469 9.519532 1.585937 2.191406 3.070313 1.484375 7.328125-1.585938 9.523438l-22.574218 16.132812c-1.203126.859375-2.585938 1.273438-3.960938 1.273438zm0 0"/><path d="m178.003906 262.875c-2.132812 0-4.226562-.996094-5.558594-2.863281-2.195312-3.066407-1.488281-7.324219 1.585938-9.519531l22.574219-16.132813c3.066406-2.191406 7.328125-1.480469 9.519531 1.585937 2.191406 3.070313 1.484375 7.328126-1.585938 9.519532l-22.574218 16.136718c-1.199219.859376-2.589844 1.273438-3.960938 1.273438zm0 0"/></g><path d="m251.351562 106.457031-57.277343 40.945313c7.925781 6.460937 15.398437 13.144531 22.671875 19.9375l43.421875-31.039063c-3.140625-9.9375-6.121094-19.902343-8.816407-29.84375zm0 0" fill="#fc8c29"/><path d="m216.75 174.164062c-1.679688 0-3.351562-.617187-4.660156-1.839843-8.21875-7.679688-15.320313-13.917969-22.324219-19.632813-1.65625-1.34375-2.582031-3.386718-2.507813-5.511718.066407-2.125 1.121094-4.097657 2.851563-5.332032l57.28125-40.941406c1.820313-1.300781 4.148437-1.625 6.265625-.875 2.101562.753906 3.707031 2.488281 4.292969 4.648438 2.429687 9 5.289062 18.671874 8.726562 29.558593.894531 2.820313-.132812 5.894531-2.53125 7.613281l-43.417969 31.039063c-1.203124.855469-2.589843 1.273437-3.976562 1.273437zm-11.527344-26.34375c3.867188 3.3125 7.847656 6.839844 12.082032 10.734376l34.871093-24.933594c-1.738281-5.601563-3.316406-10.886719-4.773437-15.941406zm0 0" fill="#4c241d"/><path d="m216.746094 167.339844c31.882812 29.777344 57.945312 62.65625 80.933594 98.289062l56.839843 88.089844c5.71875 8.867188 3.46875 20.667969-5.113281 26.800781-8.882812 6.351563-21.230469 4.296875-27.578125-4.585937l-253.726563-354.957032c-11.402343-15.957031-33.945312-18.882812-49.042968-6.371093-13.652344 11.3125-16.242188 31.246093-5.933594 45.667969l189.425781 265.011718c3.101563 4.335938 9.132813 5.339844 13.46875 2.238282 4.339844-3.101563 5.339844-9.128907 2.242188-13.46875l-185.269531-259.1875c-4.648438-6.507813-3.144532-15.550782 3.363281-20.203126 6.507812-4.648437 15.550781-3.148437 20.199219 3.359376l250.703124 350.734374c13.21875 18.492188 39.296876 21.996094 56.929688 7.648438 15.628906-12.714844 19.148438-35.179688 8.152344-52.066406l-59.464844-91.332032c-22.507812-34.570312-39.605469-75.292968-52.703125-116.703124zm0 0" fill="#ffce56"/><path d="m339.457031 412.085938c-2.085937 0-4.195312-.140626-6.308593-.425782-12.777344-1.722656-23.953126-8.449218-31.445313-18.941406l-250.699219-350.726562c-1.1875-1.660157-2.960937-2.757813-4.972656-3.097657-2.046875-.320312-4.046875.132813-5.707031 1.324219-3.441407 2.453125-4.234375 7.242188-1.78125 10.679688l185.269531 259.1875c5.285156 7.394531 3.566406 17.707031-3.828125 22.988281-3.558594 2.550781-7.921875 3.597656-12.265625 2.851562-4.355469-.710937-8.15625-3.085937-10.722656-6.664062l-189.425782-265.023438c-12.335937-17.25-9.203124-41.363281 7.132813-54.890625 8.644531-7.167968 19.992187-10.480468 31.140625-9 11.140625 1.445313 21.28125 7.511719 27.8125 16.652344l253.71875 354.964844c4.148438 5.800781 12.242188 7.160156 18.0625 3.003906 5.625-4.019531 7.09375-11.726562 3.347656-17.546875l-56.835937-88.097656c-24.5-37.957031-50.625-69.683594-79.859375-97-1.492188-1.390625-2.289063-3.382813-2.152344-5.433594.132812-2.039063 1.175781-3.914063 2.839844-5.105469l43.417968-31.039062c1.78125-1.273438 4.054688-1.628906 6.132813-.921875 2.074219.6875 3.6875 2.332031 4.347656 4.414062 14.417969 45.574219 31.878907 84.28125 51.914063 115.039063l59.464844 91.335937c12.933593 19.867188 8.820312 46.125-9.5625 61.085938-8.355469 6.800781-18.480469 10.386719-29.035157 10.386719zm-294.714843-386.941407c6.648437 0 13.207031 3.09375 17.367187 8.910157l250.703125 350.730468c5.285156 7.394532 13.152344 12.132813 22.160156 13.339844 8.984375 1.199219 17.851563-1.277344 24.90625-7.011719 12.953125-10.546875 15.851563-29.046875 6.738282-43.046875l-59.464844-91.332031c-19.375-29.761719-36.378906-66.546875-50.601563-109.457031l-29.105469 20.808594c27.636719 26.765624 52.550782 57.546874 75.972657 93.839843l56.835937 88.089844c7.710938 11.953125 4.691406 27.792969-6.882812 36.054687-11.9375 8.527344-28.570313 5.753907-37.097656-6.164062l-253.722657-354.964844c-4.402343-6.152344-10.960937-10.082031-18.46875-11.054687-7.484375-.960938-14.835937 1.152343-20.671875 5.972656-10.839844 8.980469-12.917968 24.988281-4.730468 36.445313l189.425781 265.011718c.59375.828125 1.40625 1.066406 1.839843 1.140625.410157.066407 1.273438.09375 2.09375-.484375.839844-.601562 1.085938-1.414062 1.152344-1.839844.074219-.433593.105469-1.28125-.484375-2.113281l-185.269531-259.1875c-6.835938-9.558593-4.613281-22.894531 4.945312-29.71875 3.746094-2.679687 8.074219-3.96875 12.359376-3.96875zm0 0" fill="#4c241d"/></svg>