<svg height="405pt" viewBox="0 -9 405.91266 405" width="405pt" xmlns="http://www.w3.org/2000/svg"><path d="m307.199219 233.675781c0 84.832031-68.769531 153.601563-153.597657 153.601563-84.832031 0-153.601562-68.769532-153.601562-153.601563s68.769531-153.597656 153.601562-153.597656c84.828126 0 153.597657 68.765625 153.597657 153.597656zm0 0" fill="#ffe8dc"/><path d="m299.40625 240.523438c-2.574219 0-5.039062-1.457032-6.191406-3.953126-1.589844-3.417968-.105469-7.472656 3.3125-9.066406l22.921875-10.644531c3.414062-1.59375 7.480469-.105469 9.066406 3.320313 1.589844 3.417968.105469 7.480468-3.3125 9.066406l-22.921875 10.644531c-.929688.433594-1.910156.632813-2.875.632813zm0 0" fill="#4c241d"/><path d="m308.695312 260.523438c-2.570312 0-5.039062-1.457032-6.191406-3.953126-1.589844-3.417968-.105468-7.472656 3.3125-9.066406l22.921875-10.644531c3.414063-1.585937 7.484375-.105469 9.066407 3.320313 1.589843 3.417968.105468 7.480468-3.3125 9.066406l-22.921876 10.644531c-.929687.433594-1.910156.632813-2.875.632813zm0 0" fill="#4c241d"/><path d="m109.222656 243.023438 13.933594 30 144.480469-67.117188c19.613281-9.109375 42.894531-.597656 52.003906 19.011719l18.34375 39.488281 29.996094-13.933594-18.742188-40.347656c-16.585937-35.703125-58.972656-51.199219-94.675781-34.613281zm0 0" fill="#ffce56"/><path d="m123.15625 279.851562c-.792969 0-1.585938-.140624-2.339844-.414062-1.703125-.625-3.089844-1.894531-3.847656-3.539062l-13.933594-30c-1.589844-3.421876-.105468-7.472657 3.3125-9.066407l145.339844-67.515625c18.929688-8.773437 40.136719-9.683594 59.726562-2.519531 19.59375 7.167969 35.226563 21.535156 44.011719 40.453125l18.742188 40.347656c1.59375 3.414063.109375 7.472656-3.3125 9.066406l-29.996094 13.941407c-1.644531.75-3.523437.832031-5.21875.21875-1.699219-.625-3.089844-1.894531-3.847656-3.539063l-18.34375-39.496094c-7.507813-16.160156-26.777344-23.199218-42.9375-15.691406l-144.476563 67.121094c-.910156.417969-1.894531.632812-2.878906.632812zm-4.867188-33.515624 8.183594 17.621093 138.289063-64.25c22.988281-10.671875 50.390625-.664062 61.066406 22.335938l15.472656 33.300781 17.609375-8.1875-15.863281-34.160156c-7.253906-15.609375-20.15625-27.46875-36.324219-33.375-16.15625-5.914063-33.667968-5.179688-49.285156 2.082031zm0 0" fill="#4c241d"/><path d="m102.253906 228.027344 27.871094 59.996094" fill="#ffce56"/><path d="m130.128906 294.851562c-2.574218 0-5.039062-1.460937-6.195312-3.953124l-27.867188-60c-1.59375-3.421876-.105468-7.472657 3.3125-9.066407 3.414063-1.585937 7.480469-.105469 9.0625 3.320313l27.871094 60c1.589844 3.417968.105469 7.472656-3.3125 9.066406-.929688.433594-1.910156.632812-2.871094.632812zm0 0" fill="#4c241d"/><path d="m196.949219 7.765625-174.070313 80.835937c-3.792968 1.761719-3.789062 7.1875.035156 8.875 13.96875 6.164063 27.246094 13.675782 39.714844 22.320313l132.601563-62.65625c1.472656-14.71875 4.277343-29.332031 8.476562-43.613281 1.179688-4.015625-2.960937-7.523438-6.757812-5.761719zm0 0" fill="#fc8c29"/><path d="m62.628906 126.625c-1.367187 0-2.726562-.414062-3.890625-1.222656-12.273437-8.503906-25.253906-15.804688-38.578125-21.679688-4.238281-1.871094-6.898437-5.910156-6.945312-10.550781-.042969-4.675781 2.554687-8.792969 6.789062-10.761719l174.070313-80.839844h.007812c4.238281-1.972656 9.0625-1.289062 12.59375 1.757813 3.515625 3.027344 4.886719 7.675781 3.582031 12.121094-4.019531 13.667969-6.789062 27.921875-8.234374 42.367187-.242188 2.386719-1.710938 4.464844-3.875 5.492188l-132.601563 62.660156c-.929687.441406-1.925781.65625-2.917969.65625zm-33.027344-33.617188c11.5625 5.355469 22.847657 11.707032 33.640626 18.949219l125.609374-59.359375c1.449219-12.519531 3.839844-24.878906 7.125-36.855468zm0 0" fill="#4c241d"/><path d="m388.777344 203.664062-40.367188-86.925781-6.242187-13.4375c-12.589844-27.101562-44.769531-38.871093-71.875-26.277343l-37.640625 17.484374c-17.503906 8.132813-29.351563 24.96875-31.09375 44.1875-7.109375-26.699218-9.058594-54.320312-6.332032-81.554687l-132.601562 62.652344c22.183594 15.382812 41.714844 34.457031 57.3125 56.804687 7.535156 10.800782 14.585938 21.949219 21.121094 33.417969l49.285156 92.496094c27.691406 51.960937 91.164062 73.222656 144.5625 48.425781 55.546875-25.792969 79.664062-91.730469 53.871094-147.273438zm-50.792969 60.742188-15 6.96875c-16.566406 7.695312-36.238281.503906-43.933594-16.066406l-37.160156-79.992188c-7.695313-16.570312-.503906-36.238281 16.0625-43.933594l15-6.96875c16.566406-7.695312 36.234375-.503906 43.933594 16.066407l37.160156 79.992187c7.695313 16.570313.503906 36.238282-16.0625 43.933594zm0 0" fill="#ffce56"/><g fill="#4c241d"><path d="m288.296875 368.097656c-42.230469 0-82.894531-22.808594-103.972656-62.382812l-49.292969-92.484375c-6.304688-11.058594-13.296875-22.125-20.691406-32.726563-14.851563-21.273437-33.554688-39.8125-55.601563-55.09375-2.003906-1.390625-3.113281-3.746094-2.914062-6.171875.199219-2.433593 1.683593-4.574219 3.886719-5.613281l132.597656-62.660156c2.21875-1.058594 4.832031-.832032 6.855468.59375 2.007813 1.417968 3.097657 3.8125 2.855469 6.257812-1.851562 18.46875-1.472656 36.742188 1.109375 54.574219 6.183594-10.351563 15.394532-18.84375 26.648438-24.070313l37.636718-17.488281c14.761719-6.847656 31.308594-7.550781 46.601563-1.964843 15.289063 5.59375 27.484375 16.800781 34.339844 31.566406l46.613281 100.359375c27.335938 58.867187 1.683594 129-57.183594 156.339843-16.003906 7.429688-32.871094 10.964844-49.488281 10.964844zm-212.351563-247.039062c19.328126 14.796875 35.976563 32.125 49.589844 51.632812 7.632813 10.9375 14.855469 22.359375 21.453125 33.945313l49.382813 92.660156c25.976562 48.746094 85.558594 68.714844 135.664062 45.449219 52.039063-24.167969 74.714844-86.167969 50.550782-138.207032l-46.609376-100.355468c-5.320312-11.457032-14.785156-20.15625-26.648437-24.492188-11.851563-4.347656-24.699219-3.800781-36.15625 1.527344l-37.640625 17.488281c-15.242188 7.070313-25.652344 21.863281-27.175781 38.613281-.300781 3.292969-2.921875 5.898438-6.222657 6.179688-3.332031.351562-6.320312-1.847656-7.171874-5.046875-6.207032-23.316406-8.695313-47.523437-7.425782-72.128906zm233.167969 160.21875c-15.058593 0-29.5-8.5625-36.25-23.09375l-37.160156-79.992188c-4.496094-9.660156-4.949219-20.5-1.289063-30.515625 3.660157-10.011719 10.996094-17.992187 20.664063-22.484375l15-6.96875c19.96875-9.265625 43.734375-.578125 52.996094 19.378906l37.164062 80c9.265625 19.949219.574219 43.726563-19.378906 53.003907l-15 6.964843c-5.421875 2.515626-11.125 3.707032-16.746094 3.707032zm-22.238281-153.128906c-3.769531 0-7.523438.828124-11.046875 2.460937l-15 6.964844c-6.359375 2.953125-11.183594 8.210937-13.59375 14.796875-2.40625 6.578125-2.109375 13.710937.84375 20.070312l37.160156 79.996094c6.101563 13.125 21.738281 18.84375 34.867188 12.746094l15-6.96875c13.121093-6.097656 18.84375-21.738282 12.75-34.867188l-37.160157-80c-2.953124-6.351562-8.210937-11.179687-14.792968-13.585937-2.9375-1.078125-5.988282-1.613281-9.027344-1.613281zm51.109375 136.261718h.066406zm0 0"/><path d="m296.285156 316.464844c-19.367187 0-37.9375-11.007813-46.613281-29.695313l-55.578125-119.640625c-1.59375-3.410156-.105469-7.472656 3.3125-9.0625 3.410156-1.597656 7.480469-.109375 9.066406 3.316406l55.578125 119.640626c8.746094 18.828124 31.179688 27.042968 50.015625 18.289062l24.308594-11.292969c9.121094-4.234375 16.042969-11.769531 19.503906-21.222656 1.292969-3.539063 5.222656-5.347656 8.753906-4.066406 3.542969 1.292969 5.363282 5.222656 4.066407 8.761719-4.707031 12.871093-14.144531 23.140624-26.570313 28.910156l-24.304687 11.292968c-6.976563 3.234376-14.316407 4.769532-21.539063 4.769532zm0 0"/><path d="m197.972656 209.785156c0 3.769532-3.054687 6.824219-6.824218 6.824219-3.773438 0-6.828126-3.054687-6.828126-6.824219 0-3.773437 3.054688-6.828125 6.828126-6.828125 3.769531 0 6.824218 3.054688 6.824218 6.828125zm0 0"/><path d="m211.625 243.917969c0 3.769531-3.054688 6.824219-6.824219 6.824219s-6.828125-3.054688-6.828125-6.824219c0-3.773438 3.058594-6.828125 6.828125-6.828125s6.824219 3.054687 6.824219 6.828125zm0 0"/></g></svg>