<svg height="427pt" viewBox="0 -10 427.02679 427" width="427pt" xmlns="http://www.w3.org/2000/svg"><path d="m307.199219 153.617188c0 84.832031-68.769531 153.601562-153.597657 153.601562-84.832031 0-153.601562-68.769531-153.601562-153.601562 0-84.832032 68.769531-153.601563 153.601562-153.601563 84.828126 0 153.597657 68.769531 153.597657 153.601563zm0 0" fill="#ffe8dc"/><path d="m89.210938 36.910156 20.125 18.457032 22.605468-24.648438c-13.621094-8.199219-31.570312-5.976562-42.730468 6.191406zm0 0" fill="#bd53b5"/><path d="m109.335938 62.199219c-1.707032 0-3.355469-.640625-4.613282-1.796875l-20.125-18.457032c-2.777344-2.554687-2.964844-6.867187-.414062-9.648437 13.113281-14.292969 34.679687-17.410156 51.28125-7.425781 1.753906 1.054687 2.941406 2.839844 3.234375 4.871094.292969 2.027343-.339844 4.082031-1.726563 5.585937l-22.605468 24.65625c-1.226563 1.332031-2.929688 2.125-4.738282 2.207031-.097656.007813-.195312.007813-.292968.007813zm-9.835938-25.113281 9.421875 8.636718 11.367187-12.398437c-7.097656-1.558594-14.632812-.226563-20.789062 3.761719zm0 0" fill="#4c241d"/><path d="m289.441406 127.222656c-32.34375-30.542968-83.320312-29.078125-113.863281 3.265625-1.648437 1.746094-2.976563 3.667969-4.441406 5.519531 9.8125 16.121094 8.273437 37.351563-5.3125 51.734376-16.289063 17.25-43.476563 18.03125-60.726563 1.742187-1.777344-1.675781-3.269531-3.53125-4.695312-5.421875-13.363282 5.882812-25.851563 14.308594-36.511719 25.597656-42.757813 45.28125-40.710937 116.648438 4.570313 159.40625 45.28125 42.757813 116.648437 40.710938 159.40625-4.570312 11.363281-12.035156 19.363281-25.960938 24.417968-40.65625-5.21875-1.945313-10.140625-4.945313-14.445312-9.007813-17.25-16.289062-18.03125-43.480469-1.742188-60.726562 13.605469-14.40625 34.746094-17.152344 51.414063-8.234375 1.757812-1.558594 3.550781-3.046875 5.191406-4.785156 30.542969-32.34375 29.082031-83.324219-3.261719-113.863282zm0 0" fill="#fc8c29"/><path d="m145.792969 406.671875c-30.640625 0-59.644531-11.519531-82.015625-32.648437-23.226563-21.925782-36.519532-51.585938-37.4375-83.519532-.914063-31.933594 10.660156-62.308594 32.589844-85.53125 10.84375-11.488281 23.871093-20.621094 38.726562-27.15625 2.902344-1.285156 6.292969-.390625 8.195312 2.128906 1.175782 1.558594 2.464844 3.183594 3.9375 4.578126 7.011719 6.628906 16.164063 10.0625 25.839844 9.847656 9.644532-.277344 18.609375-4.300782 25.234375-11.3125 11.070313-11.726563 12.898438-29.613282 4.445313-43.507813-1.484375-2.433593-1.292969-5.539062.476562-7.777343l1.1875-1.546876c1.152344-1.515624 2.3125-3.015624 3.644532-4.429687 33.085937-35.023437 88.496093-36.597656 123.511718-3.539063 35.027344 33.074219 36.613282 88.480469 3.542969 123.515626-1.425781 1.511718-2.953125 2.859374-4.488281 4.207031l-1.128906.992187c-2.132813 1.914063-5.234376 2.265625-7.757813.917969-14.363281-7.679687-32.140625-4.84375-43.234375 6.902344-13.675781 14.480469-13.015625 37.390625 1.464844 51.078125 3.53125 3.335937 7.617187 5.882812 12.152344 7.582031 3.460937 1.300781 5.265624 5.113281 4.0625 8.613281-5.628907 16.367188-14.347657 30.871094-25.910157 43.121094-21.929687 23.226562-51.59375 36.519531-83.523437 37.433594-1.171875.03125-2.347656.050781-3.515625.050781zm-47.296875-214.179687c-11.25 5.582031-21.203125 12.917968-29.640625 21.851562-19.425781 20.574219-29.679688 47.480469-28.863281 75.769531.808593 28.285157 12.585937 54.566407 33.160156 73.988281 20.574218 19.433594 47.613281 29.738282 75.765625 28.871094 28.285156-.804687 54.566406-12.585937 73.992187-33.160156 8.839844-9.367188 15.804688-20.246094 20.753906-32.40625-3.804687-2.050781-7.320312-4.597656-10.507812-7.613281-19.957031-18.847657-20.859375-50.417969-2.015625-70.371094 14.195313-15.035156 36.3125-19.507813 55.214844-11.648437.472656-.4375.9375-.890626 1.386719-1.367188 27.910156-29.558594 26.570312-76.3125-2.984376-104.210938-29.5625-27.921874-76.308593-26.582031-104.210937 2.976563-.453125.480469-.878906.980469-1.285156 1.488281 8.921875 18.425782 5.714843 40.753906-8.46875 55.773438-9.128907 9.667968-21.480469 15.199218-34.769531 15.585937-13.367188.382813-25.945313-4.441406-35.605469-13.570312-.683594-.644531-1.320313-1.300781-1.921875-1.957031zm0 0" fill="#4c241d"/><path d="m124.632812 340.867188-31.234374-29.496094 40.3125-35.785156 24.339843 22.984374zm0 0" fill="#fff"/><g fill="#4c241d"><path d="m124.632812 347.691406c-1.738281 0-3.417968-.660156-4.6875-1.859375l-31.234374-29.496093c-1.390626-1.316407-2.167969-3.160157-2.136719-5.074219.027343-1.910157.863281-3.726563 2.292969-5l40.3125-35.785157c2.644531-2.347656 6.644531-2.300781 9.21875.144532l24.339843 22.988281c2.574219 2.425781 2.863281 6.421875.671875 9.195313l-33.421875 42.292968c-1.183593 1.5-2.949219 2.433594-4.859375 2.574219-.167968.011719-.332031.019531-.496094.019531zm-21.125-36.167968 20.390626 19.261718 24.925781-31.539062-15.253907-14.40625zm0 0"/><path d="m386.0625 315.957031c-1.644531 0-3.300781-.59375-4.609375-1.792969l-67.09375-61.519531c-2.777344-2.546875-2.964844-6.867187-.414063-9.648437 2.539063-2.773438 6.867188-2.957032 9.640626-.417969l62.0625 56.90625 13.835937-15.085937-65.902344-60.441407c-2.777343-2.554687-2.964843-6.867187-.414062-9.644531 2.542969-2.773438 6.863281-2.96875 9.640625-.421875l70.9375 65.054687c2.78125 2.550782 2.964844 6.863282.414062 9.644532l-23.066406 25.152344c-1.339844 1.46875-3.183594 2.214843-5.03125 2.214843zm0 0"/><path d="m162.203125 110.675781c-1.648437 0-3.300781-.59375-4.609375-1.792969l-52.871094-48.480468c-1.332031-1.226563-2.128906-2.925782-2.207031-4.738282-.078125-1.808593.5625-3.574218 1.789063-4.90625l22.609374-24.652343c2.1875-2.394531 5.765626-2.921875 8.550782-1.234375 2.34375 1.40625 4.558594 3.066406 6.585937 4.921875l58.363281 53.523437c2.78125 2.554688 2.96875 6.867188.417969 9.648438-2.542969 2.777344-6.863281 2.964844-9.644531.417968l-58.359375-53.523437-13.84375 15.09375 47.835937 43.863281c2.78125 2.546875 2.964844 6.867188.414063 9.648438-1.339844 1.464844-3.183594 2.210937-5.03125 2.210937zm0 0"/></g><path d="m409.132812 283.976562-23.066406 25.15625 25.15625 23.066407c12.742188-13.890625 11.804688-35.480469-2.089844-48.222657zm0 0" fill="#bd53b5"/><path d="m411.222656 339.03125c-1.707031 0-3.351562-.640625-4.613281-1.792969l-25.15625-23.074219c-2.78125-2.554687-2.964844-6.867187-.414063-9.648437l23.066407-25.152344c2.539062-2.777343 6.863281-2.964843 9.640625-.417969 8.066406 7.390626 12.765625 17.484376 13.242187 28.417969.472657 10.925781-3.335937 21.394531-10.734375 29.453125-1.222656 1.335938-2.925781 2.128906-4.734375 2.207032-.101562.007812-.199219.007812-.296875.007812zm-15.511718-30.320312 14.464843 13.265624c2.28125-4.261718 3.382813-9.066406 3.171875-14.027343-.214844-4.953125-1.734375-9.644531-4.375-13.699219zm0 0" fill="#4c241d"/><path d="m196.023438 328.222656c-1.683594 0-3.367188-.617187-4.6875-1.859375l-4.695313-4.433593c-7.199219-6.796876-8.839844-17.574219-3.996094-26.207032l6.867188-12.226562c1.777343-3.164063 1.175781-7.105469-1.460938-9.589844l-4.691406-4.441406c-2.742187-2.589844-2.867187-6.90625-.277344-9.648438 2.589844-2.738281 6.921875-2.859375 9.648438-.273437l4.695312 4.4375c7.199219 6.789062 8.84375 17.566406 3.992188 26.203125l-6.863281 12.222656c-1.773438 3.160156-1.175782 7.105469 1.457031 9.589844l4.699219 4.433594c2.738281 2.597656 2.867187 6.914062.273437 9.65625-1.34375 1.417968-3.148437 2.136718-4.960937 2.136718zm0 0" fill="#4c241d"/><path d="m117.761719 248.8125c-5.351563 0-10.664063-1.996094-14.78125-5.878906l-4.695313-4.433594c-2.742187-2.597656-2.867187-6.914062-.277344-9.65625 2.585938-2.734375 6.90625-2.859375 9.648438-.277344l4.695312 4.433594c2.636719 2.5 6.613282 2.867188 9.660157.914062l11.816406-7.5625c8.335937-5.332031 19.195313-4.320312 26.390625 2.492188l4.695312 4.429688c2.738282 2.59375 2.867188 6.914062.277344 9.652343-2.59375 2.738281-6.910156 2.859375-9.652344.28125l-4.695312-4.4375c-2.632812-2.492187-6.605469-2.859375-9.660156-.917969l-11.8125 7.558594c-3.566406 2.28125-7.601563 3.402344-11.609375 3.402344zm0 0" fill="#4c241d"/><path d="m336.71875 53.710938 23.425781 22.121093-117.980469 124.941407-23.425781-22.121094zm0 0" fill="#fff"/><path d="m242.167969 207.578125c-1.679688 0-3.367188-.617187-4.683594-1.859375l-23.429687-22.121094c-1.316407-1.246094-2.085938-2.957031-2.136719-4.773437-.050781-1.808594.617187-3.566407 1.859375-4.878907l117.976562-124.933593c1.242188-1.320313 2.953125-2.085938 4.765625-2.140625 1.898438-.035156 3.566407.621094 4.882813 1.867187l23.421875 22.121094c2.742187 2.585937 2.867187 6.90625.277343 9.644531l-117.96875 124.933594c-1.34375 1.421875-3.152343 2.140625-4.964843 2.140625zm-13.773438-29.226563 13.5 12.746094 108.59375-115.003906-13.496093-12.742188zm0 0" fill="#4c241d"/><path d="m404.382812 28.964844-23.425781-22.121094-47.941406 43.359375 30.824219 29.105469zm0 0" fill="#ffce56"/><path d="m363.839844 86.136719c-1.738282 0-3.417969-.660157-4.6875-1.859375l-30.824219-29.109375c-1.382813-1.3125-2.160156-3.132813-2.140625-5.039063s.835938-3.710937 2.246094-4.984375l47.941406-43.359375c2.644531-2.394531 6.675781-2.363281 9.265625.097656l23.425781 22.121094c2.589844 2.441406 2.863282 6.46875.628906 9.242188l-40.539062 50.34375c-1.195312 1.488281-2.953125 2.402344-4.855469 2.535156-.152343.003906-.308593.011719-.460937.011719zm-20.765625-35.824219 20.082031 18.964844 31.949219-39.679688-14.25-13.460937zm0 0" fill="#4c241d"/><path d="m361.011719 113.003906c-1.679688 0-3.367188-.621094-4.683594-1.859375l-54.660156-51.613281c-2.738281-2.59375-2.867188-6.914062-.277344-9.652344 2.59375-2.742187 6.910156-2.855468 9.648437-.28125l54.660157 51.613282c2.738281 2.59375 2.867187 6.914062.277343 9.652343-1.34375 1.421875-3.152343 2.140625-4.964843 2.140625zm0 0" fill="#4c241d"/><path d="m375.761719 97.390625c-1.683594 0-3.367188-.617187-4.6875-1.859375l-54.660157-51.613281c-2.738281-2.59375-2.867187-6.914063-.277343-9.652344 2.59375-2.738281 6.910156-2.855469 9.652343-.28125l54.65625 51.613281c2.742188 2.59375 2.867188 6.914063.277344 9.652344-1.34375 1.421875-3.152344 2.140625-4.960937 2.140625zm0 0" fill="#4c241d"/></svg>