<svg height="409pt" viewBox="0 -27 409.6 409" width="409pt" xmlns="http://www.w3.org/2000/svg"><path d="m409.601562 167.554688c0 84.828124-68.769531 153.597656-153.601562 153.597656s-153.601562-68.769532-153.601562-153.597656c0-84.832032 68.769531-153.601563 153.601562-153.601563s153.601562 68.769531 153.601562 153.601563zm0 0" fill="#ffe8dc"/><path d="m235.519531 143.660156c0-16.964844 15.28125-30.71875 34.132813-30.71875 18.851562 0 34.132812 13.753906 34.132812 30.71875zm0 0" fill="#ffce56"/><path d="m303.785156 150.488281h-68.265625c-3.773437 0-6.828125-3.058593-6.828125-6.828125 0-20.703125 18.375-37.546875 40.960938-37.546875 22.585937 0 40.960937 16.84375 40.960937 37.546875 0 3.769532-3.054687 6.828125-6.828125 6.828125zm-60.304687-13.65625h52.347656c-3.367187-9.859375-13.828125-17.066406-26.175781-17.066406-12.34375 0-22.804688 7.207031-26.171875 17.066406zm0 0" fill="#4c241d"/><path d="m75.09375 116.351562v27.308594h-40.960938v-27.308594zm0 0" fill="#fc8c29"/><path d="m75.09375 150.488281h-40.960938c-3.773437 0-6.824218-3.058593-6.824218-6.828125v-27.308594c0-3.769531 3.050781-6.824218 6.824218-6.824218h40.960938c3.773438 0 6.828125 3.054687 6.828125 6.824218v27.308594c0 3.769532-3.054687 6.828125-6.828125 6.828125zm-34.132812-13.65625h27.304687v-13.652343h-27.304687zm0 0" fill="#4c241d"/><path d="m116.054688 116.351562v27.308594h-40.960938v-27.308594zm0 0" fill="#fc8c29"/><path d="m116.054688 150.488281h-40.960938c-3.773438 0-6.828125-3.058593-6.828125-6.828125v-27.308594c0-3.769531 3.054687-6.824218 6.828125-6.824218h40.960938c3.773437 0 6.824218 3.054687 6.824218 6.824218v27.308594c0 3.769532-3.050781 6.828125-6.824218 6.828125zm-34.132813-13.65625h27.304687v-13.652343h-27.304687zm0 0" fill="#4c241d"/><path d="m157.015625 116.351562v27.308594h-40.960937v-27.308594zm0 0" fill="#fc8c29"/><path d="m157.011719 150.488281h-40.957031c-3.773438 0-6.828126-3.058593-6.828126-6.828125v-27.308594c0-3.769531 3.054688-6.824218 6.828126-6.824218h40.957031c3.773437 0 6.828125 3.054687 6.828125 6.824218v27.308594c0 3.769532-3.054688 6.828125-6.828125 6.828125zm-34.132813-13.65625h27.308594v-13.652343h-27.308594zm0 0" fill="#4c241d"/><path d="m197.972656 116.351562v27.308594h-40.957031v-27.308594zm0 0" fill="#fc8c29"/><path d="m197.972656 150.488281h-40.960937c-3.773438 0-6.824219-3.058593-6.824219-6.828125v-27.308594c0-3.769531 3.050781-6.824218 6.824219-6.824218h40.960937c3.773438 0 6.828125 3.054687 6.828125 6.824218v27.308594c0 3.769532-3.054687 6.828125-6.828125 6.828125zm-34.132812-13.65625h27.308594v-13.652343h-27.308594zm0 0" fill="#4c241d"/><path d="m6.828125 329.277344v-166.433594c0-10.597656 8.585937-19.183594 19.179687-19.183594h282.488282c10.597656 0 19.183594 8.585938 19.183594 19.183594v166.433594c0 10.59375-8.585938 19.183594-19.183594 19.183594h-282.488282c-10.59375 0-19.179687-8.589844-19.179687-19.183594zm0 0" fill="#fff"/><path d="m308.492188 355.285156h-282.480469c-14.34375 0-26.011719-11.664062-26.011719-26.007812v-166.433594c0-14.34375 11.667969-26.011719 26.011719-26.011719h282.480469c14.347656 0 26.015624 11.667969 26.015624 26.011719v166.433594c0 14.34375-11.667968 26.007812-26.015624 26.007812zm-282.480469-204.796875c-6.8125 0-12.359375 5.542969-12.359375 12.355469v166.433594c0 6.8125 5.546875 12.355468 12.359375 12.355468h282.480469c6.816406 0 12.359374-5.542968 12.359374-12.355468v-166.433594c0-6.8125-5.542968-12.355469-12.359374-12.355469zm0 0" fill="#4c241d"/><path d="m279.894531 211.925781v102.402344h-225.28125v-102.402344zm0 0" fill="#ffce56"/><path d="m279.894531 321.152344h-225.28125c-3.773437 0-6.828125-3.054688-6.828125-6.824219v-102.402344c0-3.769531 3.054688-6.824219 6.828125-6.824219h225.28125c3.773438 0 6.824219 3.054688 6.824219 6.824219v102.402344c0 3.769531-3.050781 6.824219-6.824219 6.824219zm-218.453125-13.652344h211.625v-88.746094h-211.625zm0 0" fill="#4c241d"/><path d="m279.894531 211.925781v102.402344h-37.546875c-28.277344 0-51.199218-22.925781-51.199218-51.203125s22.921874-51.199219 51.199218-51.199219zm0 0" fill="#bd53b5"/><path d="m279.894531 321.152344h-37.546875c-31.996094 0-58.027344-26.027344-58.027344-58.027344 0-31.996094 26.03125-58.023438 58.027344-58.023438h37.546875c3.773438 0 6.824219 3.054688 6.824219 6.824219v102.402344c0 3.769531-3.050781 6.824219-6.824219 6.824219zm-37.546875-102.398438c-24.46875 0-44.375 19.90625-44.375 44.371094 0 24.46875 19.90625 44.375 44.375 44.375h30.71875v-88.746094zm0 0" fill="#4c241d"/><path d="m54.613281 314.328125v-102.402344h37.546875c28.277344 0 51.199219 22.921875 51.199219 51.199219s-22.921875 51.203125-51.199219 51.203125zm0 0" fill="#bd53b5"/><path d="m92.160156 321.152344h-37.546875c-3.773437 0-6.828125-3.054688-6.828125-6.824219v-102.402344c0-3.769531 3.054688-6.824219 6.828125-6.824219h37.546875c31.992188 0 58.027344 26.027344 58.027344 58.023438 0 32-26.035156 58.027344-58.027344 58.027344zm-30.71875-13.652344h30.71875c24.464844 0 44.375-19.90625 44.375-44.375 0-24.464844-19.910156-44.371094-44.375-44.371094h-30.71875zm0 0" fill="#4c241d"/><path d="m256 266.539062c0 9.425782-7.640625 17.066407-17.066406 17.066407-9.425782 0-17.066406-7.640625-17.066406-17.066407 0-9.425781 7.640624-17.066406 17.066406-17.066406 9.425781 0 17.066406 7.640625 17.066406 17.066406zm0 0" fill="#ffce56"/><path d="m238.933594 290.433594c-13.175782 0-23.894532-10.71875-23.894532-23.894532 0-13.171874 10.71875-23.894531 23.894532-23.894531 13.171875 0 23.894531 10.722657 23.894531 23.894531 0 13.175782-10.722656 23.894532-23.894531 23.894532zm0-34.132813c-5.648438 0-10.242188 4.589844-10.242188 10.238281 0 5.648438 4.59375 10.242188 10.242188 10.242188 5.648437 0 10.238281-4.59375 10.238281-10.242188 0-5.648437-4.589844-10.238281-10.238281-10.238281zm0 0" fill="#4c241d"/><path d="m112.640625 266.539062c0 9.425782-7.640625 17.066407-17.066406 17.066407s-17.066407-7.640625-17.066407-17.066407c0-9.425781 7.640626-17.066406 17.066407-17.066406s17.066406 7.640625 17.066406 17.066406zm0 0" fill="#ffce56"/><g fill="#4c241d"><path d="m95.574219 290.433594c-13.175781 0-23.894531-10.71875-23.894531-23.894532 0-13.171874 10.71875-23.894531 23.894531-23.894531 13.171875 0 23.890625 10.722657 23.890625 23.894531 0 13.175782-10.71875 23.894532-23.890625 23.894532zm0-34.132813c-5.648438 0-10.242188 4.589844-10.242188 10.238281 0 5.648438 4.59375 10.242188 10.242188 10.242188 5.644531 0 10.238281-4.59375 10.238281-10.242188 0-5.648437-4.59375-10.238281-10.238281-10.238281zm0 0"/><path d="m332.566406 261.523438c-3.773437 0-6.828125-3.054688-6.828125-6.828126 0-3.769531 3.054688-6.824218 6.828125-6.824218 23.652344 0 42.898438-19.246094 42.898438-42.90625v-72.53125c0-18.867188-12.097656-35.324219-30.105469-40.949219l-12.851563-4.019531c-16.863281-5.265625-30.042968-17.785156-36.175781-34.34375-6.132812-16.558594-4.277343-34.640625 5.082031-49.613282 1.992188-3.195312 6.199219-4.167968 9.40625-2.171874 3.195313 2 4.167969 6.210937 2.167969 9.410156-7.097656 11.359375-8.5 25.074218-3.851562 37.636718 4.652343 12.558594 14.652343 22.054688 27.4375 26.054688l12.855469 4.015625c23.738281 7.417969 39.691406 29.109375 39.691406 53.980469v72.53125c0 31.1875-25.367188 56.558594-56.554688 56.558594zm0 0"/></g></svg>