<svg height="423pt" viewBox="0 -3 423.25333 423" width="423pt" xmlns="http://www.w3.org/2000/svg"><path d="m307.199219 153.726562c0 84.832032-68.769531 153.601563-153.597657 153.601563-84.832031 0-153.601562-68.769531-153.601562-153.601563 0-84.832031 68.769531-153.601562 153.601562-153.601562 84.828126 0 153.597657 68.769531 153.597657 153.601562zm0 0" fill="#ffe8dc"/><path d="m177.492188 396.074219h-93.84375c-12.257813 0-22.195313-9.9375-22.195313-22.195313v-283.289062c0-12.261719 9.9375-22.195313 22.195313-22.195313h93.84375zm0 0" fill="#fff"/><path d="m177.492188 402.898438h-93.839844c-16.003906 0-29.023438-13.019532-29.023438-29.019532v-283.292968c0-16 13.019532-29.019532 29.023438-29.019532h93.839844c3.769531 0 6.828124 3.054688 6.828124 6.828125v327.679688c0 3.773437-3.058593 6.824219-6.828124 6.824219zm-93.839844-327.679688c-8.480469 0-15.371094 6.894531-15.371094 15.367188v283.292968c0 8.472656 6.890625 15.367188 15.371094 15.367188h87.015625v-314.027344zm0 0" fill="#4c241d"/><path d="m391.46875 396.074219h-100.546875v-320.855469h100.546875c13.785156 0 24.957031 11.175781 24.957031 24.957031v270.941407c0 13.78125-11.171875 24.957031-24.957031 24.957031zm0 0" fill="#fc8c29"/><g fill="#4c241d"><path d="m391.46875 402.898438h-100.546875c-3.769531 0-6.824219-3.050782-6.824219-6.824219v-320.855469c0-3.773438 3.054688-6.824219 6.824219-6.824219h100.546875c17.527344 0 31.785156 14.257813 31.785156 31.785157v270.933593c0 17.527344-14.257812 31.785157-31.785156 31.785157zm-93.71875-13.652344h93.71875c9.996094 0 18.132812-8.132813 18.132812-18.132813v-270.933593c0-10-8.136718-18.132813-18.132812-18.132813h-93.71875zm0 0"/><path d="m355.019531 116.957031c0 4.808594-3.898437 8.707031-8.707031 8.707031-4.8125 0-8.710938-3.898437-8.710938-8.707031 0-4.808593 3.898438-8.710937 8.710938-8.710937 4.808594 0 8.707031 3.902344 8.707031 8.710937zm0 0"/><path d="m355.019531 164.433594c0 4.808594-3.898437 8.707031-8.707031 8.707031-4.8125 0-8.710938-3.898437-8.710938-8.707031 0-4.8125 3.898438-8.710938 8.710938-8.710938 4.808594 0 8.707031 3.898438 8.707031 8.710938zm0 0"/><path d="m394.585938 140.695312c0 4.808594-3.902344 8.707032-8.710938 8.707032s-8.707031-3.898438-8.707031-8.707032c0-4.8125 3.898437-8.710937 8.707031-8.710937s8.710938 3.898437 8.710938 8.710937zm0 0"/><path d="m394.585938 188.171875c0 4.808594-3.902344 8.707031-8.710938 8.707031s-8.707031-3.898437-8.707031-8.707031c0-4.8125 3.898437-8.710937 8.707031-8.710937s8.710938 3.898437 8.710938 8.710937zm0 0"/><path d="m394.585938 235.648438c0 4.808593-3.902344 8.707031-8.710938 8.707031s-8.707031-3.898438-8.707031-8.707031c0-4.8125 3.898437-8.710938 8.707031-8.710938s8.710938 3.898438 8.710938 8.710938zm0 0"/><path d="m394.585938 283.121094c0 4.8125-3.902344 8.710937-8.710938 8.710937s-8.707031-3.898437-8.707031-8.710937c0-4.808594 3.898437-8.707032 8.707031-8.707032s8.710938 3.898438 8.710938 8.707032zm0 0"/><path d="m394.585938 330.597656c0 4.8125-3.902344 8.710938-8.710938 8.710938s-8.707031-3.898438-8.707031-8.710938c0-4.808594 3.898437-8.707031 8.707031-8.707031s8.710938 3.898437 8.710938 8.707031zm0 0"/><path d="m355.019531 211.910156c0 4.808594-3.898437 8.707032-8.707031 8.707032-4.8125 0-8.710938-3.898438-8.710938-8.707032 0-4.8125 3.898438-8.710937 8.710938-8.710937 4.808594 0 8.707031 3.898437 8.707031 8.710937zm0 0"/><path d="m355.019531 259.382812c0 4.8125-3.898437 8.710938-8.707031 8.710938-4.8125 0-8.710938-3.898438-8.710938-8.710938 0-4.808593 3.898438-8.707031 8.710938-8.707031 4.808594 0 8.707031 3.898438 8.707031 8.707031zm0 0"/><path d="m355.019531 306.859375c0 4.8125-3.898437 8.710937-8.707031 8.710937-4.8125 0-8.710938-3.898437-8.710938-8.710937 0-4.808594 3.898438-8.707031 8.710938-8.707031 4.808594 0 8.707031 3.898437 8.707031 8.707031zm0 0"/><path d="m355.019531 354.335938c0 4.8125-3.898437 8.710937-8.707031 8.710937-4.8125 0-8.710938-3.898437-8.710938-8.710937 0-4.808594 3.898438-8.707032 8.710938-8.707032 4.808594 0 8.707031 3.898438 8.707031 8.707032zm0 0"/></g><path d="m122.878906 95.699219h47.789063v27.308593h-47.789063zm0 0" fill="#bd53b5"/><path d="m170.667969 129.832031h-47.789063c-3.769531 0-6.824218-3.050781-6.824218-6.824219v-27.308593c0-3.773438 3.054687-6.824219 6.824218-6.824219h47.789063c3.769531 0 6.824219 3.050781 6.824219 6.824219v27.308593c0 3.773438-3.054688 6.824219-6.824219 6.824219zm-40.960938-13.652343h34.132813v-13.652344h-34.132813zm0 0" fill="#4c241d"/><path d="m122.878906 116.179688h-61.4375c-3.769531 0-6.828125-3.054688-6.828125-6.828126 0-3.773437 3.058594-6.824218 6.828125-6.824218h61.4375c3.769532 0 6.828125 3.050781 6.828125 6.824218 0 3.773438-3.058593 6.828126-6.828125 6.828126zm0 0" fill="#4c241d"/><path d="m122.878906 150.3125h47.789063v27.308594h-47.789063zm0 0" fill="#bd53b5"/><path d="m170.667969 184.445312h-47.789063c-3.769531 0-6.824218-3.050781-6.824218-6.824218v-27.308594c0-3.773438 3.054687-6.824219 6.824218-6.824219h47.789063c3.769531 0 6.824219 3.050781 6.824219 6.824219v27.308594c0 3.773437-3.054688 6.824218-6.824219 6.824218zm-40.960938-13.652343h34.132813v-13.652344h-34.132813zm0 0" fill="#4c241d"/><path d="m122.878906 170.792969h-61.4375c-3.769531 0-6.828125-3.054688-6.828125-6.828125 0-3.773438 3.058594-6.824219 6.828125-6.824219h61.4375c3.769532 0 6.828125 3.050781 6.828125 6.824219 0 3.773437-3.058593 6.828125-6.828125 6.828125zm0 0" fill="#4c241d"/><path d="m122.878906 232.234375h47.789063v27.304687h-47.789063zm0 0" fill="#bd53b5"/><path d="m170.667969 266.367188h-47.789063c-3.769531 0-6.824218-3.054688-6.824218-6.828126v-27.304687c0-3.773437 3.054687-6.828125 6.824218-6.828125h47.789063c3.769531 0 6.824219 3.054688 6.824219 6.828125v27.304687c0 3.773438-3.054688 6.828126-6.824219 6.828126zm-40.960938-13.652344h34.132813v-13.65625h-34.132813zm0 0" fill="#4c241d"/><path d="m122.878906 252.714844h-61.4375c-3.769531 0-6.828125-3.054688-6.828125-6.828125 0-3.773438 3.058594-6.828125 6.828125-6.828125h61.4375c3.769532 0 6.828125 3.054687 6.828125 6.828125 0 3.773437-3.058593 6.828125-6.828125 6.828125zm0 0" fill="#4c241d"/><path d="m122.878906 286.847656h47.789063v27.304688h-47.789063zm0 0" fill="#bd53b5"/><path d="m170.667969 320.980469h-47.789063c-3.769531 0-6.824218-3.054688-6.824218-6.828125v-27.304688c0-3.773437 3.054687-6.828125 6.824218-6.828125h47.789063c3.769531 0 6.824219 3.054688 6.824219 6.828125v27.304688c0 3.773437-3.054688 6.828125-6.824219 6.828125zm-40.960938-13.652344h34.132813v-13.65625h-34.132813zm0 0" fill="#4c241d"/><path d="m122.878906 307.328125h-61.4375c-3.769531 0-6.828125-3.054687-6.828125-6.828125s3.058594-6.828125 6.828125-6.828125h61.4375c3.769532 0 6.828125 3.054687 6.828125 6.828125s-3.058593 6.828125-6.828125 6.828125zm0 0" fill="#4c241d"/><path d="m122.878906 341.460938h47.789063v27.304687h-47.789063zm0 0" fill="#bd53b5"/><path d="m170.667969 375.59375h-47.789063c-3.769531 0-6.824218-3.054688-6.824218-6.828125v-27.304687c0-3.773438 3.054687-6.828126 6.824218-6.828126h47.789063c3.769531 0 6.824219 3.054688 6.824219 6.828126v27.304687c0 3.773437-3.054688 6.828125-6.824219 6.828125zm-40.960938-13.652344h34.132813v-13.65625h-34.132813zm0 0" fill="#4c241d"/><path d="m122.878906 361.941406h-61.4375c-3.769531 0-6.828125-3.054687-6.828125-6.828125 0-3.773437 3.058594-6.828125 6.828125-6.828125h61.4375c3.769532 0 6.828125 3.054688 6.828125 6.828125 0 3.773438-3.058593 6.828125-6.828125 6.828125zm0 0" fill="#4c241d"/><path d="m170.667969 211.753906h-109.226563c-3.769531 0-6.828125-3.054687-6.828125-6.828125 0-3.773437 3.058594-6.824219 6.828125-6.824219h109.226563c3.769531 0 6.824219 3.050782 6.824219 6.824219 0 3.773438-3.054688 6.828125-6.824219 6.828125zm0 0" fill="#4c241d"/><path d="m218.453125 393.589844-24.777344 16.136718-23.007812-16.136718v-322.714844l23.460937-16.136719 24.324219 16.136719zm0 0" fill="#ffce56"/><path d="m193.675781 416.554688c-1.375 0-2.742187-.414063-3.921875-1.242188l-23.007812-16.132812c-1.820313-1.273438-2.90625-3.359376-2.90625-5.585938v-322.71875c0-2.246094 1.105468-4.355469 2.960937-5.628906l23.460938-16.132813c2.296875-1.574219 5.324219-1.601562 7.640625-.058593l24.324218 16.132812c1.90625 1.257812 3.054688 3.398438 3.054688 5.6875v322.71875c0 2.308594-1.167969 4.460938-3.101562 5.71875l-24.777344 16.136719c-1.136719.738281-2.429688 1.105469-3.726563 1.105469zm-16.183593-26.515626 16.324218 11.449219 17.808594-11.59375v-315.355469l-17.425781-11.558593-16.707031 11.488281zm40.960937 3.554688h.066406zm0 0" fill="#4c241d"/><path d="m266.238281 393.589844-24.777343 16.136718-23.007813-16.136718v-322.714844l23.464844-16.136719 24.320312 16.136719zm0 0" fill="#ffce56"/><path d="m241.460938 416.554688c-1.371094 0-2.742188-.414063-3.917969-1.242188l-23.011719-16.132812c-1.816406-1.273438-2.90625-3.359376-2.90625-5.585938v-322.71875c0-2.246094 1.109375-4.355469 2.960938-5.628906l23.464843-16.132813c2.296875-1.574219 5.320313-1.601562 7.640625-.058593l24.320313 16.132812c1.90625 1.257812 3.054687 3.398438 3.054687 5.6875v322.71875c0 2.308594-1.167968 4.460938-3.097656 5.71875l-24.777344 16.136719c-1.136718.738281-2.433594 1.105469-3.730468 1.105469zm-16.179688-26.515626 16.320312 11.449219 17.8125-11.59375v-315.355469l-17.425781-11.558593-16.707031 11.488281zm40.957031 3.554688h.066407zm0 0" fill="#4c241d"/><path d="m314.027344 393.589844-24.78125 16.136718-23.007813-16.136718v-322.714844l23.464844-16.136719 24.324219 16.136719zm0 0" fill="#ffce56"/><path d="m289.25 416.554688c-1.375 0-2.742188-.414063-3.921875-1.242188l-23.007813-16.132812c-1.820312-1.273438-2.90625-3.359376-2.90625-5.585938v-322.71875c0-2.246094 1.105469-4.355469 2.957032-5.628906l23.464844-16.132813c2.296874-1.574219 5.324218-1.601562 7.640624-.058593l24.324219 16.132812c1.90625 1.257812 3.050781 3.398438 3.050781 5.6875v322.71875c0 2.308594-1.164062 4.460938-3.097656 5.71875l-24.777344 16.136719c-1.136718.738281-2.429687 1.105469-3.726562 1.105469zm-16.183594-26.515626 16.324219 11.449219 17.808594-11.59375v-315.355469l-17.425781-11.558593-16.707032 11.488281zm40.960938 3.554688h.066406zm0 0" fill="#4c241d"/></svg>