<svg height="407pt" viewBox="-2 0 407 407.05336" width="407pt" xmlns="http://www.w3.org/2000/svg"><path d="m307.226562 177.945312c0 84.832032-68.769531 153.601563-153.601562 153.601563-84.828125 0-153.5976562-68.769531-153.5976562-153.601563 0-84.828124 68.7695312-153.597656 153.5976562-153.597656 84.832031 0 153.601562 68.769532 153.601562 153.597656zm0 0" fill="#ffe8dc"/><path d="m189.523438 368.828125c-36.398438 39.578125-97.992188 42.148437-137.566407 5.746094-39.578125-36.398438-42.148437-97.992188-5.746093-137.566407 36.398437-39.578124 115.1875-60.84375 154.761718-24.441406 39.574219 36.402344 24.953125 116.6875-11.449218 156.261719zm0 0" fill="#fc8c29"/><path d="m117.824219 407.054688c-25.222657 0-50.511719-9.074219-70.492188-27.453126-20.488281-18.839843-32.398437-44.535156-33.558593-72.335937-1.167969-27.804687 8.570312-54.398437 27.410156-74.878906 19.074218-20.734375 48.941406-36.726563 79.90625-42.785157 34.546875-6.78125 64.566406-.394531 84.5 17.9375 19.933594 18.339844 28.789062 47.714844 24.933594 82.714844-3.457032 31.359375-16.90625 62.460938-35.972657 83.195313-20.511719 22.296875-48.578125 33.605469-76.726562 33.605469zm26.976562-206.15625c-31.59375 0-68.113281 13.0625-93.558593 40.726562-16.375 17.800781-24.84375 40.910156-23.828126 65.066406 1.007813 24.160156 11.367188 46.488282 29.160157 62.855469 17.800781 16.378906 40.988281 24.824219 65.074219 23.824219 24.160156-1.003906 46.476562-11.363282 62.851562-29.164063 17.171875-18.675781 29.308594-46.875 32.453125-75.449219 3.375-30.570312-3.945313-55.847656-20.597656-71.164062-11.941407-10.980469-30.667969-16.695312-51.554688-16.695312zm44.726563 167.925781h.066406zm0 0" fill="#4c241d"/><path d="m302.886719 70.507812 31.15625 28.65625-163.351563 177.585938-31.15625-28.65625zm0 0" fill="#fff"/><path d="m170.699219 283.574219c-1.707031 0-3.359375-.640625-4.617188-1.800781l-31.15625-28.660157c-2.773437-2.554687-2.957031-6.875-.40625-9.648437l163.339844-177.585938c2.5625-2.78125 6.875-2.953125 9.648437-.40625l31.160157 28.660156c1.332031 1.226563 2.125 2.933594 2.199219 4.738282.074218 1.8125-.566407 3.574218-1.792969 4.90625l-163.347657 177.589844c-1.226562 1.332031-2.933593 2.125-4.738281 2.199218-.101562.007813-.195312.007813-.289062.007813zm-21.507813-35.886719 21.109375 19.414062 154.097657-167.542968-21.113282-19.414063zm0 0" fill="#4c241d"/><path d="m113.886719 357.847656c-1.652344 0-3.308594-.59375-4.621094-1.800781l-43.621094-40.121094c-2.773437-2.554687-2.957031-6.871093-.40625-9.644531 2.5625-2.78125 6.875-2.953125 9.648438-.40625l43.621093 40.117188c2.773438 2.554687 2.957032 6.875.40625 9.648437-1.347656 1.464844-3.1875 2.207031-5.027343 2.207031zm0 0" fill="#4c241d"/><path d="m166.589844 249.960938c-12.046875-11.078126-30.792969-10.296876-41.871094 1.746093-11.078125 12.046875-10.296875 30.789063 1.75 41.871094 12.042969 11.078125 30.789062 10.296875 41.867188-1.75 11.078124-12.042969 10.296874-30.789063-1.746094-41.867187zm0 0" fill="#bd53b5"/><g fill="#4c241d"><path d="m146.480469 308.21875c-9.160157 0-17.855469-3.378906-24.636719-9.625-14.800781-13.609375-15.765625-36.714844-2.160156-51.507812 13.613281-14.800782 36.726562-15.753907 51.523437-2.160157 7.164063 6.597657 11.339844 15.585938 11.746094 25.3125.40625 9.734375-3 19.039063-9.59375 26.199219-6.59375 7.167969-15.585937 11.34375-25.3125 11.75-.519531.027344-1.046875.03125-1.566406.03125zm.058593-59.253906c-6.164062 0-12.3125 2.480468-16.800781 7.359375-8.511719 9.253906-7.90625 23.707031 1.347657 32.222656 4.480468 4.125 10.367187 6.230469 16.386718 6 6.085938-.253906 11.714844-2.867187 15.835938-7.347656h.003906c4.121094-4.480469 6.253906-10.300781 5.996094-16.386719-.253906-6.085938-2.863282-11.714844-7.339844-15.839844-4.375-4.019531-9.910156-6.007812-15.429688-6.007812zm0 0"/><path d="m304.210938 136.492188c-1.652344 0-3.3125-.59375-4.617188-1.800782l-29.761719-27.378906c-2.777343-2.550781-2.949219-6.871094-.40625-9.644531 2.5625-2.78125 6.886719-2.953125 9.648438-.40625l29.761719 27.378906c2.777343 2.554687 2.949218 6.875.40625 9.644531-1.347657 1.46875-3.191407 2.207032-5.03125 2.207032zm0 0"/><path d="m281.292969 161.417969c-1.652344 0-3.304688-.59375-4.617188-1.800781l-29.769531-27.378907c-2.773438-2.550781-2.957031-6.871093-.40625-9.644531 2.5625-2.789062 6.875-2.953125 9.648438-.40625l29.765624 27.378906c2.773438 2.554688 2.960938 6.875.40625 9.648438-1.347656 1.464844-3.1875 2.203125-5.027343 2.203125zm0 0"/><path d="m258.367188 186.339844c-1.65625 0-3.308594-.59375-4.621094-1.800782l-29.765625-27.371093c-2.773438-2.554688-2.960938-6.875-.40625-9.648438 2.558593-2.777343 6.878906-2.953125 9.644531-.40625l29.769531 27.375c2.773438 2.550781 2.957031 6.871094.40625 9.644531-1.347656 1.46875-3.1875 2.207032-5.027343 2.207032zm0 0"/><path d="m235.4375 211.265625c-1.652344 0-3.304688-.59375-4.617188-1.800781l-29.765624-27.378906c-2.773438-2.554688-2.960938-6.871094-.40625-9.644532 2.558593-2.78125 6.878906-2.953125 9.644531-.40625l29.765625 27.378906c2.773437 2.550782 2.960937 6.871094.40625 9.644532-1.34375 1.46875-3.183594 2.207031-5.027344 2.207031zm0 0"/><path d="m336.539062 27.765625c-1.652343 0-3.3125-.59375-4.617187-1.800781l-15.339844-14.113282c-2.78125-2.550781-2.953125-6.871093-.40625-9.644531 2.558594-2.78125 6.890625-2.953125 9.644531-.40625l15.339844 14.113281c2.78125 2.554688 2.953125 6.875.40625 9.644532-1.347656 1.46875-3.1875 2.207031-5.027344 2.207031zm0 0"/><path d="m319.347656 46.460938c-1.65625 0-3.316406-.59375-4.621094-1.800782l-15.339843-14.113281c-2.78125-2.554687-2.953125-6.875-.40625-9.648437 2.558593-2.777344 6.886719-2.953126 9.644531-.40625l15.339844 14.117187c2.78125 2.550781 2.953125 6.871094.40625 9.644531-1.34375 1.464844-3.183594 2.207032-5.023438 2.207032zm0 0"/><path d="m308.386719 70.878906c-1.652344 0-3.308594-.59375-4.621094-1.800781l-15.34375-14.113281c-2.773437-2.554688-2.960937-6.871094-.40625-9.644532 2.558594-2.78125 6.871094-2.949218 9.644531-.40625l15.347656 14.113282c2.773438 2.550781 2.957032 6.871094.40625 9.644531-1.347656 1.46875-3.1875 2.207031-5.027343 2.207031zm0 0"/><path d="m395.972656 82.425781c-1.652344 0-3.308594-.59375-4.621094-1.800781l-15.335937-14.105469c-2.773437-2.554687-2.960937-6.875-.40625-9.648437 2.558594-2.777344 6.871094-2.949219 9.644531-.40625l15.339844 14.109375c2.773438 2.554687 2.957031 6.871093.40625 9.644531-1.347656 1.46875-3.1875 2.207031-5.027344 2.207031zm0 0"/><path d="m378.78125 101.121094c-1.65625 0-3.3125-.59375-4.621094-1.800782l-15.339844-14.117187c-2.78125-2.550781-2.953124-6.871094-.40625-9.644531 2.5625-2.785156 6.886719-2.953125 9.648438-.40625l15.335938 14.113281c2.78125 2.554687 2.953124 6.875.40625 9.648437-1.34375 1.464844-3.183594 2.207032-5.023438 2.207032zm0 0"/><path d="m355.351562 114.085938c-1.652343 0-3.3125-.59375-4.617187-1.800782l-15.339844-14.113281c-2.78125-2.554687-2.953125-6.871094-.40625-9.644531 2.558594-2.78125 6.890625-2.953125 9.644531-.40625l15.339844 14.113281c2.78125 2.554687 2.953125 6.871094.40625 9.644531-1.347656 1.46875-3.1875 2.207032-5.027344 2.207032zm0 0"/></g><path d="m328.265625 105.347656-31.058594-28.570312 44.203125-58.972656c3.65625-4.878907 10.726563-5.53125 15.210938-1.402344l26.855468 24.699218c4.488282 4.125 4.425782 11.226563-.128906 15.277344zm0 0" fill="#ffce56"/><path d="m328.265625 112.171875c-1.660156 0-3.3125-.597656-4.617187-1.796875l-31.0625-28.566406c-2.578126-2.375-2.945313-6.316406-.839844-9.121094l44.207031-58.976562c2.894531-3.867188 7.3125-6.339844 12.121094-6.785157 4.800781-.414062 9.605469 1.171875 13.167969 4.445313l26.859374 24.699218c3.550782 3.269532 5.566407 7.914063 5.523438 12.742188-.03125 4.832031-2.125 9.453125-5.738281 12.667969l-55.085938 48.964843c-1.296875 1.15625-2.914062 1.726563-4.535156 1.726563zm-21.890625-36.238281 21.972656 20.207031 50.464844-44.859375c1-.894531 1.160156-2 1.167969-2.574219 0-.582031-.140625-1.679687-1.121094-2.582031l-26.859375-24.699219c-.984375-.90625-2.078125-.972656-2.664062-.898437-.574219.042968-1.65625.296875-2.453126 1.371094zm0 0" fill="#4c241d"/></svg>