<svg height="409pt" viewBox="-3 0 409 409.6" width="409pt" xmlns="http://www.w3.org/2000/svg"><path d="m307.5 153.601562c0 84.828126-68.769531 153.597657-153.601562 153.597657-84.828126 0-153.597657-68.769531-153.597657-153.597657 0-84.832031 68.769531-153.601562 153.597657-153.601562 84.832031 0 153.601562 68.769531 153.601562 153.601562zm0 0" fill="#ffe8dc"/><path d="m396.246094 402.773438h-341.332032v-197.972657h142.21875l37.628907-34.132812h161.484375zm0 0" fill="#fff"/><path d="m396.246094 409.601562h-341.332032c-3.773437 0-6.828124-3.058593-6.828124-6.828124v-197.972657c0-3.769531 3.054687-6.828125 6.828124-6.828125h139.585938l35.671875-32.363281c1.253906-1.140625 2.894531-1.769531 4.589844-1.769531h161.484375c3.773437 0 6.828125 3.058594 6.828125 6.828125v232.105469c0 3.769531-3.054688 6.828124-6.828125 6.828124zm-334.507813-13.65625h327.683594v-218.453124h-152.027344l-35.671875 32.363281c-1.253906 1.140625-2.894531 1.769531-4.589844 1.769531h-135.394531zm0 0" fill="#4c241d"/><path d="m102.699219 177.492188v27.308593h-40.960938v-27.308593zm0 0" fill="#fc8c29"/><path d="m102.699219 211.625h-40.960938c-3.773437 0-6.824219-3.054688-6.824219-6.824219v-27.308593c0-3.769532 3.050782-6.824219 6.824219-6.824219h40.960938c3.773437 0 6.828125 3.054687 6.828125 6.824219v27.308593c0 3.769531-3.054688 6.824219-6.828125 6.824219zm-34.132813-13.652344h27.308594v-13.652344h-27.308594zm0 0" fill="#4c241d"/><path d="m143.660156 177.492188v27.308593h-40.960937v-27.308593zm0 0" fill="#fc8c29"/><path d="m143.660156 211.625h-40.960937c-3.773438 0-6.824219-3.054688-6.824219-6.824219v-27.308593c0-3.769532 3.050781-6.824219 6.824219-6.824219h40.960937c3.773438 0 6.828125 3.054687 6.828125 6.824219v27.308593c0 3.769531-3.054687 6.824219-6.828125 6.824219zm-34.132812-13.652344h27.304687v-13.652344h-27.304687zm0 0" fill="#4c241d"/><path d="m184.621094 177.492188v27.308593h-40.960938v-27.308593zm0 0" fill="#fc8c29"/><path d="m184.621094 211.625h-40.960938c-3.773437 0-6.828125-3.054688-6.828125-6.824219v-27.308593c0-3.769532 3.054688-6.824219 6.828125-6.824219h40.960938c3.773437 0 6.824218 3.054687 6.824218 6.824219v27.308593c0 3.769531-3.050781 6.824219-6.824218 6.824219zm-34.132813-13.652344h27.304688v-13.652344h-27.304688zm0 0" fill="#4c241d"/><path d="m211.925781 382.292969h-136.53125v-122.878907h70.636719l34.328125-13.652343h31.566406zm0 0" fill="#bd53b5"/><path d="m211.925781 389.121094h-136.53125c-3.773437 0-6.828125-3.058594-6.828125-6.828125v-122.878907c0-3.769531 3.054688-6.828124 6.828125-6.828124h69.324219l33.121094-13.167969c.800781-.324219 1.652344-.484375 2.519531-.484375h31.566406c3.773438 0 6.828125 3.054687 6.828125 6.828125v136.53125c0 3.769531-3.054687 6.828125-6.828125 6.828125zm-129.707031-13.65625h122.882812v-122.878906h-23.433593l-33.121094 13.171874c-.800781.320313-1.652344.480469-2.519531.480469h-63.808594zm0 0" fill="#4c241d"/><path d="m75.394531 307.199219h136.53125v47.789062h-136.53125zm0 0" fill="#ffce56"/><path d="m211.925781 361.8125h-136.53125c-3.773437 0-6.828125-3.054688-6.828125-6.824219v-47.789062c0-3.769531 3.054688-6.824219 6.828125-6.824219h136.53125c3.773438 0 6.828125 3.054688 6.828125 6.824219v47.789062c0 3.769531-3.054687 6.824219-6.828125 6.824219zm-129.707031-13.652344h122.882812v-34.132812h-122.882812zm0 0" fill="#4c241d"/><path d="m106.113281 354.988281h-30.71875v-47.789062h30.71875c13.195313 0 23.894531 10.699219 23.894531 23.894531s-10.699218 23.894531-23.894531 23.894531zm0 0" fill="#fc8c29"/><path d="m106.113281 361.8125h-30.71875c-3.773437 0-6.828125-3.054688-6.828125-6.824219v-47.789062c0-3.769531 3.054688-6.824219 6.828125-6.824219h30.71875c16.941407 0 30.71875 13.777344 30.71875 30.71875s-13.777343 30.71875-30.71875 30.71875zm-23.894531-13.652344h23.894531c9.414063 0 17.066407-7.65625 17.066407-17.066406s-7.652344-17.066406-17.066407-17.066406h-23.894531zm0 0" fill="#4c241d"/><path d="m181.207031 307.199219h30.71875v47.789062h-30.71875c-13.195312 0-23.894531-10.699219-23.894531-23.894531s10.699219-23.894531 23.894531-23.894531zm0 0" fill="#fc8c29"/><path d="m211.925781 361.8125h-30.71875c-16.941406 0-30.71875-13.777344-30.71875-30.71875s13.777344-30.71875 30.71875-30.71875h30.71875c3.773438 0 6.828125 3.054688 6.828125 6.824219v47.789062c0 3.769531-3.054687 6.824219-6.828125 6.824219zm-30.71875-47.785156c-9.414062 0-17.066406 7.65625-17.066406 17.066406s7.652344 17.066406 17.066406 17.066406h23.894531v-34.132812zm0 0" fill="#4c241d"/><path d="m113.789062 331.09375c0 4.238281-3.4375 7.675781-7.675781 7.675781s-7.675781-3.4375-7.675781-7.675781 3.4375-7.675781 7.675781-7.675781 7.675781 3.4375 7.675781 7.675781zm0 0" fill="#4c241d"/><path d="m188.882812 331.09375c0 4.238281-3.4375 7.675781-7.675781 7.675781s-7.675781-3.4375-7.675781-7.675781 3.4375-7.675781 7.675781-7.675781 7.675781 3.4375 7.675781 7.675781zm0 0" fill="#4c241d"/><path d="m287.019531 170.667969h-27.304687v-20.480469c0-7.539062 6.113281-13.652344 13.652344-13.652344 7.539062 0 13.652343 6.113282 13.652343 13.652344zm0 0" fill="#bd53b5"/><path d="m287.019531 177.492188h-27.304687c-3.773438 0-6.828125-3.054688-6.828125-6.824219v-20.480469c0-11.292969 9.1875-20.480469 20.480469-20.480469 11.292968 0 20.480468 9.1875 20.480468 20.480469v20.480469c0 3.769531-3.054687 6.824219-6.828125 6.824219zm-20.480469-13.652344h13.652344v-13.652344c0-3.765625-3.058594-6.828125-6.824218-6.828125-3.765626 0-6.828126 3.0625-6.828126 6.828125zm0 0" fill="#4c241d"/><path d="m334.808594 170.667969h-27.308594v-20.480469c0-7.539062 6.113281-13.652344 13.652344-13.652344 7.542968 0 13.65625 6.113282 13.65625 13.652344zm0 0" fill="#bd53b5"/><path d="m334.808594 177.492188h-27.308594c-3.773438 0-6.828125-3.054688-6.828125-6.824219v-20.480469c0-11.292969 9.1875-20.480469 20.480469-20.480469 11.292968 0 20.480468 9.1875 20.480468 20.480469v20.480469c0 3.769531-3.050781 6.824219-6.824218 6.824219zm-20.480469-13.652344h13.652344v-13.652344c0-3.765625-3.058594-6.828125-6.828125-6.828125-3.765625 0-6.824219 3.0625-6.824219 6.828125zm0 0" fill="#4c241d"/><path d="m362.113281 177.492188c-3.773437 0-6.828125-3.054688-6.828125-6.824219v-34.132813c0-3.773437 3.054688-6.828125 6.828125-6.828125 3.773438 0 6.828125 3.054688 6.828125 6.828125v34.132813c0 3.769531-3.054687 6.824219-6.828125 6.824219zm0 0" fill="#4c241d"/><path d="m246.058594 191.148438h129.707031v40.957031h-129.707031zm0 0" fill="#ffce56"/><g fill="#4c241d"><path d="m375.765625 238.933594h-129.707031c-3.773438 0-6.824219-3.058594-6.824219-6.828125v-40.957031c0-3.773438 3.050781-6.828126 6.824219-6.828126h129.707031c3.773437 0 6.828125 3.054688 6.828125 6.828126v40.957031c0 3.769531-3.054688 6.828125-6.828125 6.828125zm-122.878906-13.652344h116.054687v-27.308594h-116.054687zm0 0"/><path d="m266.539062 266.238281h-20.480468c-3.773438 0-6.824219-3.054687-6.824219-6.824219 0-3.769531 3.050781-6.828124 6.824219-6.828124h20.480468c3.773438 0 6.828126 3.058593 6.828126 6.828124 0 3.769532-3.054688 6.824219-6.828126 6.824219zm0 0"/><path d="m266.539062 293.546875h-20.480468c-3.773438 0-6.824219-3.058594-6.824219-6.828125s3.050781-6.824219 6.824219-6.824219h20.480468c3.773438 0 6.828126 3.054688 6.828126 6.824219s-3.054688 6.828125-6.828126 6.828125zm0 0"/><path d="m266.539062 320.851562h-20.480468c-3.773438 0-6.824219-3.054687-6.824219-6.824218 0-3.769532 3.050781-6.828125 6.824219-6.828125h20.480468c3.773438 0 6.828126 3.058593 6.828126 6.828125 0 3.769531-3.054688 6.824218-6.828126 6.824218zm0 0"/><path d="m266.539062 348.160156h-20.480468c-3.773438 0-6.824219-3.058594-6.824219-6.828125s3.050781-6.824219 6.824219-6.824219h20.480468c3.773438 0 6.828126 3.054688 6.828126 6.824219s-3.054688 6.828125-6.828126 6.828125zm0 0"/><path d="m266.539062 375.464844h-20.480468c-3.773438 0-6.824219-3.054688-6.824219-6.824219s3.050781-6.828125 6.824219-6.828125h20.480468c3.773438 0 6.828126 3.058594 6.828126 6.828125s-3.054688 6.824219-6.828126 6.824219zm0 0"/><path d="m321.152344 266.238281h-20.480469c-3.773437 0-6.824219-3.054687-6.824219-6.824219 0-3.769531 3.050782-6.828124 6.824219-6.828124h20.480469c3.773437 0 6.828125 3.058593 6.828125 6.828124 0 3.769532-3.054688 6.824219-6.828125 6.824219zm0 0"/><path d="m321.152344 293.546875h-20.480469c-3.773437 0-6.824219-3.058594-6.824219-6.828125s3.050782-6.824219 6.824219-6.824219h20.480469c3.773437 0 6.828125 3.054688 6.828125 6.824219s-3.054688 6.828125-6.828125 6.828125zm0 0"/><path d="m321.152344 320.851562h-20.480469c-3.773437 0-6.824219-3.054687-6.824219-6.824218 0-3.769532 3.050782-6.828125 6.824219-6.828125h20.480469c3.773437 0 6.828125 3.058593 6.828125 6.828125 0 3.769531-3.054688 6.824218-6.828125 6.824218zm0 0"/><path d="m321.152344 348.160156h-20.480469c-3.773437 0-6.824219-3.058594-6.824219-6.828125s3.050782-6.824219 6.824219-6.824219h20.480469c3.773437 0 6.828125 3.054688 6.828125 6.824219s-3.054688 6.828125-6.828125 6.828125zm0 0"/><path d="m321.152344 375.464844h-20.480469c-3.773437 0-6.824219-3.054688-6.824219-6.824219s3.050782-6.828125 6.824219-6.828125h20.480469c3.773437 0 6.828125 3.058594 6.828125 6.828125s-3.054688 6.824219-6.828125 6.824219zm0 0"/><path d="m375.765625 266.238281h-20.480469c-3.773437 0-6.824218-3.054687-6.824218-6.824219 0-3.769531 3.050781-6.828124 6.824218-6.828124h20.480469c3.773437 0 6.828125 3.058593 6.828125 6.828124 0 3.769532-3.054688 6.824219-6.828125 6.824219zm0 0"/><path d="m375.765625 293.546875h-20.480469c-3.773437 0-6.824218-3.058594-6.824218-6.828125s3.050781-6.824219 6.824218-6.824219h20.480469c3.773437 0 6.828125 3.054688 6.828125 6.824219s-3.054688 6.828125-6.828125 6.828125zm0 0"/><path d="m375.765625 320.851562h-20.480469c-3.773437 0-6.824218-3.054687-6.824218-6.824218 0-3.769532 3.050781-6.828125 6.824218-6.828125h20.480469c3.773437 0 6.828125 3.058593 6.828125 6.828125 0 3.769531-3.054688 6.824218-6.828125 6.824218zm0 0"/><path d="m375.765625 348.160156h-20.480469c-3.773437 0-6.824218-3.058594-6.824218-6.828125s3.050781-6.824219 6.824218-6.824219h20.480469c3.773437 0 6.828125 3.054688 6.828125 6.824219s-3.054688 6.828125-6.828125 6.828125zm0 0"/><path d="m375.765625 375.464844h-20.480469c-3.773437 0-6.824218-3.054688-6.824218-6.824219s3.050781-6.828125 6.824218-6.828125h20.480469c3.773437 0 6.828125 3.058594 6.828125 6.828125s-3.054688 6.824219-6.828125 6.824219zm0 0"/><path d="m54.914062 214.050781c-3.773437 0-6.828124-3.058593-6.828124-6.828125v-97.996094c0-3.769531 3.054687-6.828124 6.828124-6.828124h341.332032c3.773437 0 6.828125 3.058593 6.828125 6.828124v71.371094c0 3.769532-3.054688 6.824219-6.828125 6.824219-3.773438 0-6.824219-3.054687-6.824219-6.824219v-64.542968h-327.683594v91.167968c0 3.769532-3.050781 6.828125-6.824219 6.828125zm0 0"/></g><path d="m396.246094 109.226562h-341.332032v-12.226562c0-12.101562 9.804688-21.90625 21.90625-21.90625h297.523438c12.097656 0 21.902344 9.804688 21.902344 21.90625zm0 0" fill="#ffce56"/><path d="m396.246094 116.054688h-341.332032c-3.773437 0-6.828124-3.058594-6.828124-6.828126v-12.230468c0-15.84375 12.886718-28.730469 28.734374-28.730469h297.519532c15.847656 0 28.734375 12.886719 28.734375 28.730469v12.230468c0 3.769532-3.054688 6.828126-6.828125 6.828126zm-334.507813-13.65625h327.683594v-5.402344c0-8.3125-6.769531-15.074219-15.082031-15.074219h-297.519532c-8.3125 0-15.082031 6.761719-15.082031 15.074219zm0 0" fill="#4c241d"/></svg>