<svg height="414pt" viewBox="-21 0 414 414.66387" width="414pt" xmlns="http://www.w3.org/2000/svg"><path d="m307.53125 185.96875c0 84.832031-68.769531 153.601562-153.597656 153.601562-84.832032 0-153.601563-68.769531-153.601563-153.601562 0-84.828125 68.769531-153.597656 153.601563-153.597656 84.828125 0 153.597656 68.769531 153.597656 153.597656zm0 0" fill="#ffe8dc"/><path d="m285.949219 227.371094c-8.863281-12.890625-7.941407-29.46875.898437-41.359375l-19.808594-24.292969c-15.066406-18.476562-41.789062-22.304688-61.441406-8.800781l-36.699218 25.226562c-19.648438 13.503907-25.648438 39.824219-13.796876 60.511719l15.585938 27.199219c14.265625-3.996094 30.070312 1.085937 38.933594 13.976562 9.851562 14.332031 7.746094 33.296875-4.066406 45.207031l17.046874 28.171876c23.011719 38.039062 73.292969 48.875 109.929688 23.691406 36.640625-25.183594 44.539062-76.007813 17.269531-111.125l-20.191406-26.003906c-15.355469 6.757812-33.8125 1.929687-43.660156-12.402344zm0 0" fill="#fc8c29"/><g fill="#4c241d"><path d="m289 397.371094c-5.96875 0-11.988281-.640625-17.988281-1.933594-22.871094-4.925781-42.136719-18.671875-54.253907-38.691406l-17.042968-28.175782c-1.621094-2.679687-1.214844-6.113281.992187-8.339843 9.71875-9.800781 11.101563-25.167969 3.285157-36.53125-6.917969-10.066407-19.550782-14.589844-31.464844-11.269531-3 .855468-6.207032-.464844-7.761719-3.179688l-15.585937-27.199219c-13.515626-23.59375-6.546876-54.132812 15.851562-69.535156l36.699219-25.226563c22.414062-15.40625 53.421875-10.953124 70.601562 10.117188l19.804688 24.289062c1.972656 2.421876 2.054687 5.882813.1875 8.386719-7.375 9.914063-7.671875 23.347657-.753907 33.421875 7.8125 11.367188 22.648438 15.566406 35.292969 10.019532 2.855469-1.273438 6.214844-.414063 8.140625 2.058593l20.1875 26.007813c14.355469 18.480468 20.28125 41.394531 16.6875 64.519531-3.59375 23.128906-16.195312 43.160156-35.480468 56.414063-14.234376 9.78125-30.605469 14.847656-47.398438 14.847656zm-75.035156-71.613282 14.472656 23.921876c10.148438 16.773437 26.285156 28.277343 45.453125 32.414062 19.15625 4.117188 38.609375.285156 54.773437-10.820312 16.15625-11.101563 26.714844-27.886719 29.722657-47.261719 3.011719-19.367188-1.957031-38.566407-13.980469-54.046875l-17.140625-22.078125c-17.378906 5.113281-36.453125-1.386719-46.945313-16.648438-9.203124-13.394531-9.789062-30.773437-1.902343-44.761719l-16.671875-20.445312c-12.726563-15.605469-35.699219-18.898438-52.28125-7.488281l-36.699219 25.226562c-16.585937 11.410157-21.746094 34.027344-11.742187 51.496094l13.117187 22.890625c15.9375-2.417969 31.898437 4.421875 41.105469 17.808594 10.488281 15.257812 9.746094 35.398437-1.28125 49.792968zm0 0"/><path d="m312.511719 282.871094c-.027344 0-.046875 0-.066407-.007813-3.738281-.011719-7.246093-1.484375-9.878906-4.140625l-11.800781-11.910156c-.046875 1.691406-.71875 3.378906-2.019531 4.664062-2.695313 2.660157-7.007813 2.636719-9.652344-.039062l-5.046875-5.089844c-4.347656-4.394531-4.3125-11.507812.070313-15.855468 2.640624-2.613282 6.136718-4.054688 9.847656-4.054688h.066406c3.734375.023438 7.242188 1.488281 9.875 4.140625l11.800781 11.914063c.042969-1.691407.71875-3.375 2.019531-4.660157 2.660157-2.652343 6.992188-2.644531 9.652344.039063l5.046875 5.085937c4.359375 4.40625 4.320313 11.519531-.074219 15.859375-2.632812 2.613282-6.132812 4.046875-9.839843 4.054688zm0 0"/><path d="m240.457031 330.804688c-1.339843 0-2.683593-.238282-3.980469-.734376-2.792968-1.050781-5.011718-3.140624-6.246093-5.859374l-2.945313-6.554688c-1.546875-3.441406-.015625-7.480469 3.425782-9.027344 1.566406-.710937 3.265624-.773437 4.792968-.300781l-6.613281-15.199219c-3.164063-7.03125-.027344-15.332031 7.007813-18.5 2.738281-1.234375 5.785156-1.3125 8.570312-.265625 2.800781 1.058594 5.019531 3.148438 6.253906 5.878907l2.941406 6.527343c1.554688 3.441407.027344 7.480469-3.414062 9.027344-1.585938.710937-3.285156.773437-4.8125.304687l6.628906 15.203126c1.53125 3.40625 1.652344 7.207031.324219 10.703124-1.320313 3.496094-3.925781 6.261719-7.332031 7.792969-1.46875.667969-3.035156 1.003907-4.601563 1.003907zm0 0"/><path d="m293.886719 325.917969c-2.167969 0-4.296875-1.027344-5.621094-2.941407l-61.441406-88.746093c-2.144531-3.101563-1.371094-7.355469 1.726562-9.5 3.109375-2.148438 7.355469-1.375 9.5 1.726562l61.441407 88.746094c2.148437 3.101563 1.375 7.355469-1.726563 9.5-1.1875.820313-2.539063 1.214844-3.878906 1.214844zm0 0"/><path d="m110.800781 79.765625c-2.175781 0-4.308593-1.035156-5.636719-2.960937-2.132812-3.105469-1.34375-7.359376 1.761719-9.492188l17.511719-12.035156c3.109375-2.132813 7.355469-1.34375 9.492188 1.761718 2.136718 3.105469 1.347656 7.359376-1.757813 9.492188l-17.515625 12.035156c-1.175781.8125-2.523438 1.199219-3.855469 1.199219zm0 0"/><path d="m71.132812 66.296875c-2.171874 0-4.304687-1.03125-5.632812-2.957031-2.132812-3.109375-1.347656-7.355469 1.757812-9.496094l19.496094-13.398438c3.105469-2.132812 7.359375-1.347656 9.492188 1.757813 2.132812 3.105469 1.34375 7.355469-1.761719 9.492187l-19.492187 13.402344c-1.179688.8125-2.527344 1.199219-3.859376 1.199219zm0 0"/><path d="m83.238281 83.917969c-2.171875 0-4.304687-1.035157-5.632812-2.960938-2.132813-3.105469-1.347657-7.351562 1.757812-9.492187l19.496094-13.402344c3.105469-2.136719 7.351563-1.34375 9.492187 1.761719 2.132813 3.105469 1.34375 7.355469-1.761718 9.492187l-19.492188 13.402344c-1.179687.8125-2.523437 1.199219-3.859375 1.199219zm0 0"/><path d="m112.234375 38.050781c-2.175781 0-4.308594-1.03125-5.636719-2.960937-2.132812-3.105469-1.34375-7.351563 1.761719-9.492188l19.492187-13.398437c3.105469-2.140625 7.359376-1.347657 9.492188 1.757812s1.347656 7.355469-1.757812 9.492188l-19.496094 13.402343c-1.175782.8125-2.523438 1.199219-3.855469 1.199219zm0 0"/><path d="m124.339844 55.664062c-2.175782 0-4.308594-1.03125-5.636719-2.957031-2.132813-3.109375-1.34375-7.355469 1.761719-9.492187l19.492187-13.402344c3.105469-2.132812 7.355469-1.347656 9.496094 1.757812 2.132813 3.109376 1.34375 7.355469-1.761719 9.492188l-19.492187 13.402344c-1.179688.8125-2.527344 1.199218-3.859375 1.199218zm0 0"/></g><path d="m73.511719 18.933594 17.613281-12.105469 12.109375 17.613281-17.617187 12.105469zm0 0" fill="#bd53b5"/><path d="m85.625 43.371094c-2.171875 0-4.304688-1.03125-5.632812-2.957032l-12.105469-17.613281c-1.027344-1.496093-1.414063-3.335937-1.089844-5.113281.332031-1.78125 1.355469-3.355469 2.847656-4.378906l17.621094-12.109375c3.113281-2.132813 7.351563-1.347657 9.492187 1.761719l12.105469 17.613281c1.027344 1.492187 1.414063 3.332031 1.085938 5.109375-.332031 1.78125-1.351563 3.355468-2.84375 4.382812l-17.621094 12.105469c-1.179687.8125-2.527344 1.199219-3.859375 1.199219zm-2.617188-22.679688 4.371094 6.359375 6.367188-4.371093-4.375-6.359376zm0 0" fill="#4c241d"/><path d="m355.324219 414.664062c-2.097657 0-4.164063-.960937-5.507813-2.78125l-22.785156-30.9375c-2.234375-3.035156-1.585938-7.308593 1.453125-9.550781 3.039063-2.226562 7.304687-1.585937 9.546875 1.457031l22.789062 30.9375c2.234376 3.035157 1.585938 7.308594-1.457031 9.546876-1.21875.894531-2.632812 1.328124-4.039062 1.328124zm0 0" fill="#4c241d"/><path d="m103.1875 24.46875-17.515625 12.039062 135.328125 209.566407 29.355469-20.175781zm0 0" fill="#ffce56"/><path d="m221 252.902344c-.449219 0-.894531-.042969-1.339844-.132813-1.808594-.359375-3.394531-1.4375-4.394531-2.992187l-135.328125-209.566406c-2.003906-3.097657-1.175781-7.234376 1.867188-9.328126l17.515624-12.039062c3.046876-2.09375 7.207032-1.386719 9.378907 1.601562l147.167969 201.425782c1.085937 1.484375 1.527343 3.351562 1.210937 5.171875-.304687 1.820312-1.339844 3.433593-2.859375 4.480469l-29.351562 20.179687c-1.148438.789063-2.496094 1.199219-3.867188 1.199219zm-125.996094-214.523438 127.914063 198.09375 17.773437-12.222656-139.105468-190.394531zm0 0" fill="#4c241d"/><path d="m339.347656 372.21875-13.628906 9.363281-29.21875-35.449219-24.875-13.820312 41.101562-28.25 3.988282 28.171875zm0 0" fill="#ffce56"/><path d="m325.726562 388.410156c-1.980468 0-3.933593-.851562-5.273437-2.484375l-28.402344-34.453125-23.738281-13.195312c-2.066406-1.144532-3.394531-3.277344-3.507812-5.640625-.113282-2.359375 1.007812-4.613281 2.953124-5.953125l41.097657-28.246094c1.949219-1.332031 4.460937-1.558594 6.613281-.617188 2.167969.945313 3.679688 2.949219 4.015625 5.292969l3.804687 26.886719 21.996094 38.859375c1.746094 3.082031.84375 6.980469-2.074218 8.988281l-13.628907 9.367188c-1.175781.804687-2.523437 1.195312-3.855469 1.195312zm-41.15625-56.710937 15.242188 8.464843c.746094.414063 1.414062.964844 1.953125 1.625l25.242187 30.628907 3.316407-2.28125-19.550781-34.539063c-.421876-.742187-.699219-1.558594-.820313-2.40625l-2.441406-17.261718zm0 0" fill="#4c241d"/><path d="m266.570312 305.4375 27.308594-20.480469" fill="#ffce56"/><path d="m266.578125 312.265625c-2.078125 0-4.125-.941406-5.464844-2.734375-2.265625-3.015625-1.65625-7.292969 1.367188-9.554688l27.304687-20.480468c3.015625-2.265625 7.292969-1.660156 9.554688 1.367187 2.265625 3.011719 1.652344 7.292969-1.367188 9.554688l-27.304687 20.480469c-1.230469.921874-2.664063 1.367187-4.089844 1.367187zm0 0" fill="#4c241d"/></svg>