<svg height="423pt" viewBox="-1 0 423 423.25333" width="423pt" xmlns="http://www.w3.org/2000/svg"><path d="m307.328125 153.601562c0 84.828126-68.769531 153.597657-153.601563 153.597657-84.832031 0-153.601562-68.769531-153.601562-153.597657 0-84.832031 68.769531-153.601562 153.601562-153.601562 84.832032 0 153.601563 68.769531 153.601563 153.601562zm0 0" fill="#ffe8dc"/><path d="m174.988281 300.699219c1.222657-4.636719 2.378907-9.289063 3.464844-13.949219 14.113281-60.605469 14.019531-123.472656 1.792969-184.351562h-127.035156c-12.226563 60.878906-12.320313 123.746093 1.792968 184.351562 1.085938 4.660156 2.238282 9.3125 3.464844 13.949219l14.351562 54.289062h87.816407zm0 0" fill="#fff"/><path d="m160.636719 361.8125h-87.816407c-3.101562 0-5.808593-2.085938-6.601562-5.078125l-14.347656-54.289063c-1.246094-4.707031-2.414063-9.421874-3.519532-14.152343-14.050781-60.339844-14.671874-123.335938-1.835937-187.242188.640625-3.183593 3.441406-5.476562 6.695313-5.476562h127.035156c3.253906 0 6.054687 2.292969 6.695312 5.480469 12.832032 63.90625 12.214844 126.898437-1.835937 187.238281-1.105469 4.734375-2.273438 9.445312-3.519531 14.152343l-14.347657 54.289063c-.796875 2.992187-3.503906 5.078125-6.601562 5.078125zm-82.5625-13.652344h77.304687l13.007813-49.207031c1.207031-4.574219 2.34375-9.152344 3.414062-13.753906 13.207031-56.707031 14.15625-115.878907 2.816407-175.972657h-115.78125c-11.335938 60.09375-10.390626 119.265626 2.816406 175.972657 1.070312 4.597656 2.207031 9.179687 3.417968 13.753906zm0 0" fill="#4c241d"/><path d="m72.820312 354.988281 5.410157 20.476563h76.992187l5.414063-20.476563zm0 0" fill="#ffce56"/><path d="m155.222656 382.292969h-76.992187c-3.097657 0-5.804688-2.085938-6.597657-5.082031l-5.414062-20.476563c-.539062-2.054687-.101562-4.234375 1.191406-5.914063 1.292969-1.679687 3.292969-2.660156 5.410156-2.660156h87.816407c2.113281 0 4.113281.976563 5.410156 2.660156 1.289063 1.679688 1.730469 3.859376 1.1875 5.914063l-5.414063 20.476563c-.789062 2.996093-3.496093 5.082031-6.597656 5.082031zm-71.734375-13.652344h66.476563l1.804687-6.828125h-70.082031zm0 0" fill="#4c241d"/><path d="m157.140625 157.011719c0 7.542969-6.113281 13.65625-13.652344 13.65625-7.542969 0-13.65625-6.113281-13.65625-13.65625 0-7.539063 6.113281-13.652344 13.65625-13.652344 7.539063 0 13.652344 6.113281 13.652344 13.652344zm0 0" fill="#bd53b5"/><path d="m143.488281 177.492188c-11.292969 0-20.480469-9.1875-20.480469-20.480469s9.1875-20.476563 20.480469-20.476563 20.476563 9.183594 20.476563 20.476563-9.183594 20.480469-20.476563 20.480469zm0-27.304688c-3.765625 0-6.828125 3.058594-6.828125 6.824219 0 3.769531 3.0625 6.828125 6.828125 6.828125 3.761719 0 6.824219-3.058594 6.824219-6.828125 0-3.765625-3.0625-6.824219-6.824219-6.824219zm0 0" fill="#4c241d"/><path d="m102.527344 157.011719c0 7.542969-6.113282 13.65625-13.652344 13.65625-7.542969 0-13.65625-6.113281-13.65625-13.65625 0-7.539063 6.113281-13.652344 13.65625-13.652344 7.539062 0 13.652344 6.113281 13.652344 13.652344zm0 0" fill="#bd53b5"/><g fill="#4c241d"><path d="m88.875 177.492188c-11.292969 0-20.480469-9.1875-20.480469-20.480469s9.1875-20.476563 20.480469-20.476563 20.476562 9.183594 20.476562 20.476563-9.183593 20.480469-20.476562 20.480469zm0-27.304688c-3.765625 0-6.828125 3.058594-6.828125 6.824219 0 3.769531 3.0625 6.828125 6.828125 6.828125 3.761719 0 6.824219-3.058594 6.824219-6.828125 0-3.765625-3.0625-6.824219-6.824219-6.824219zm0 0"/><path d="m143.488281 150.1875c-3.773437 0-6.828125-3.054688-6.828125-6.828125v-43.695313c0-3.773437 3.054688-6.824218 6.828125-6.824218 3.769531 0 6.824219 3.050781 6.824219 6.824218v43.695313c0 3.773437-3.054688 6.828125-6.824219 6.828125zm0 0"/><path d="m88.875 150.1875c-3.773438 0-6.828125-3.054688-6.828125-6.828125v-43.695313c0-3.773437 3.054687-6.824218 6.828125-6.824218 3.769531 0 6.824219 3.050781 6.824219 6.824218v43.695313c0 3.773437-3.054688 6.828125-6.824219 6.828125zm0 0"/></g><path d="m173.929688 75.09375h-114.402344c-2.382813 9.046875-4.480469 18.15625-6.316406 27.304688h127.035156c-1.839844-9.148438-3.9375-18.257813-6.316406-27.304688zm0 0" fill="#fc8c29"/><path d="m180.246094 109.226562h-127.035156c-2.046876 0-3.984376-.917968-5.28125-2.5-1.296876-1.585937-1.816407-3.667968-1.414063-5.671874 1.890625-9.402344 4.046875-18.722657 6.40625-27.699219.789063-2.996094 3.503906-5.085938 6.605469-5.085938h114.402344c3.097656 0 5.8125 2.09375 6.601562 5.085938 2.359375 8.980469 4.515625 18.300781 6.40625 27.699219.402344 2.003906-.113281 4.085937-1.414062 5.671874-1.292969 1.582032-3.230469 2.5-5.277344 2.5zm-118.625-13.652343h110.214844c-1.007813-4.605469-2.078126-9.167969-3.203126-13.652344h-103.808593c-1.128907 4.484375-2.199219 9.046875-3.203125 13.652344zm0 0" fill="#4c241d"/><path d="m274.898438 136.535156h-88.746094c-3.769532 0-6.824219-3.054687-6.824219-6.828125 0-3.773437 3.054687-6.828125 6.824219-6.828125h88.746094c3.773437 0 6.828124 3.054688 6.828124 6.828125 0 3.773438-3.054687 6.828125-6.828124 6.828125zm0 0" fill="#4c241d"/><path d="m400.265625 300.699219c1.226563-4.636719 2.382813-9.289063 3.46875-13.949219 14.109375-60.605469 14.019531-123.472656 1.789063-184.351562h-127.035157c-12.226562 60.878906-12.320312 123.746093 1.792969 184.351562 1.085938 4.660156 2.242188 9.3125 3.464844 13.949219l14.351562 54.289062h87.816406zm0 0" fill="#fff"/><path d="m385.914062 361.8125h-87.816406c-3.097656 0-5.804687-2.085938-6.597656-5.078125l-14.351562-54.289063c-1.242188-4.707031-2.414063-9.421874-3.515626-14.152343-14.054687-60.339844-14.671874-123.335938-1.835937-187.242188.640625-3.183593 3.4375-5.480469 6.691406-5.480469h127.039063c3.253906 0 6.054687 2.296876 6.691406 5.480469 12.835938 63.90625 12.21875 126.898438-1.835938 187.242188-1.101562 4.730469-2.273437 9.445312-3.515624 14.152343l-14.351563 54.289063c-.792969 2.992187-3.5 5.078125-6.601563 5.078125zm-82.558593-13.652344h77.304687l13.003906-49.207031c1.210938-4.574219 2.347657-9.152344 3.417969-13.753906 13.207031-56.707031 14.152344-115.878907 2.816407-175.972657h-115.785157c-11.335937 60.09375-10.390625 119.265626 2.816407 175.972657 1.070312 4.597656 2.207031 9.179687 3.417968 13.753906zm0 0" fill="#4c241d"/><path d="m298.097656 354.988281 5.414063 20.476563h76.988281l5.414062-20.476563zm0 0" fill="#ffce56"/><path d="m380.503906 382.292969h-76.988281c-3.101563 0-5.808594-2.085938-6.601563-5.082031l-5.414062-20.476563c-.539062-2.054687-.101562-4.234375 1.191406-5.914063 1.292969-1.679687 3.292969-2.660156 5.410156-2.660156h87.816407c2.117187 0 4.117187.976563 5.410156 2.660156 1.289063 1.679688 1.730469 3.859376 1.1875 5.914063l-5.414063 20.476563c-.792968 2.996093-3.5 5.082031-6.597656 5.082031zm-71.734375-13.652344h66.476563l1.804687-6.828125h-70.085937zm0 0" fill="#4c241d"/><path d="m382.421875 157.011719c0 7.542969-6.113281 13.65625-13.65625 13.65625-7.539063 0-13.652344-6.113281-13.652344-13.65625 0-7.539063 6.113281-13.652344 13.652344-13.652344 7.542969 0 13.65625 6.113281 13.65625 13.652344zm0 0" fill="#bd53b5"/><path d="m368.765625 177.492188c-11.292969 0-20.480469-9.1875-20.480469-20.480469s9.1875-20.476563 20.480469-20.476563 20.480469 9.183594 20.480469 20.476563-9.1875 20.480469-20.480469 20.480469zm0-27.304688c-3.761719 0-6.824219 3.058594-6.824219 6.824219 0 3.769531 3.0625 6.828125 6.824219 6.828125 3.765625 0 6.828125-3.058594 6.828125-6.828125 0-3.765625-3.0625-6.824219-6.828125-6.824219zm0 0" fill="#4c241d"/><path d="m327.808594 157.011719c0 7.542969-6.113282 13.65625-13.65625 13.65625-7.539063 0-13.652344-6.113281-13.652344-13.65625 0-7.539063 6.113281-13.652344 13.652344-13.652344 7.542968 0 13.65625 6.113281 13.65625 13.652344zm0 0" fill="#bd53b5"/><path d="m314.152344 177.492188c-11.292969 0-20.480469-9.1875-20.480469-20.480469s9.1875-20.476563 20.480469-20.476563c11.292968 0 20.480468 9.183594 20.480468 20.476563s-9.1875 20.480469-20.480468 20.480469zm0-27.304688c-3.761719 0-6.824219 3.058594-6.824219 6.824219 0 3.769531 3.0625 6.828125 6.824219 6.828125 3.765625 0 6.828125-3.058594 6.828125-6.828125 0-3.765625-3.0625-6.824219-6.828125-6.824219zm0 0" fill="#4c241d"/><path d="m368.765625 150.1875c-3.769531 0-6.824219-3.054688-6.824219-6.828125v-43.695313c0-3.773437 3.054688-6.824218 6.824219-6.824218s6.828125 3.050781 6.828125 6.824218v43.695313c0 3.773437-3.058594 6.828125-6.828125 6.828125zm0 0" fill="#4c241d"/><path d="m314.152344 150.1875c-3.769532 0-6.824219-3.054688-6.824219-6.828125v-43.695313c0-3.773437 3.054687-6.824218 6.824219-6.824218 3.769531 0 6.828125 3.050781 6.828125 6.824218v43.695313c0 3.773437-3.058594 6.828125-6.828125 6.828125zm0 0" fill="#4c241d"/><path d="m399.210938 75.09375h-114.40625c-2.378907 9.046875-4.476563 18.15625-6.3125 27.304688h127.035156c-1.839844-9.148438-3.9375-18.257813-6.316406-27.304688zm0 0" fill="#fc8c29"/><path d="m405.527344 109.226562h-127.039063c-2.046875 0-3.984375-.917968-5.28125-2.5-1.296875-1.585937-1.8125-3.667968-1.410156-5.671874 1.886719-9.402344 4.046875-18.722657 6.40625-27.699219.789063-2.996094 3.503906-5.085938 6.601563-5.085938h114.402343c3.101563 0 5.8125 2.09375 6.605469 5.085938 2.359375 8.980469 4.515625 18.300781 6.40625 27.699219.402344 2.003906-.117188 4.085937-1.414062 5.671874-1.292969 1.582032-3.230469 2.5-5.277344 2.5zm-118.628906-13.652343h110.21875c-1.007813-4.605469-2.078126-9.167969-3.203126-13.652344h-103.8125c-1.125 4.484375-2.195312 9.046875-3.203124 13.652344zm0 0" fill="#4c241d"/><path d="m239.117188 337.601562 61.382812 78.824219" fill="#fc8c29"/><path d="m300.503906 423.253906c-2.03125 0-4.042968-.90625-5.390625-2.632812l-61.382812-78.828125c-2.316407-2.972657-1.785157-7.261719 1.191406-9.578125 2.972656-2.328125 7.257813-1.78125 9.582031 1.191406l61.382813 78.828125c2.316406 2.972656 1.78125 7.257813-1.195313 9.578125-1.246094.976562-2.722656 1.441406-4.1875 1.441406zm0 0" fill="#4c241d"/><path d="m218.523438 337.601562-61.382813 78.824219" fill="#fc8c29"/><path d="m157.136719 423.253906c-1.464844 0-2.945313-.464844-4.191407-1.441406-2.976562-2.320312-3.507812-6.605469-1.191406-9.578125l61.382813-78.828125c2.320312-2.972656 6.617187-3.507812 9.582031-1.191406 2.976562 2.316406 3.507812 6.605468 1.191406 9.578125l-61.382812 78.828125c-1.347656 1.726562-3.363282 2.632812-5.390625 2.632812zm0 0" fill="#4c241d"/><path d="m228.820312 416.425781c-5.65625 0-10.242187-4.582031-10.242187-10.238281v-334.507812c0-5.65625 4.585937-10.238282 10.242187-10.238282s10.238282 4.582032 10.238282 10.238282v334.507812c0 5.65625-4.585938 10.238281-10.238282 10.238281zm0 0" fill="#bd53b5"/><path d="m228.820312 423.253906c-9.410156 0-17.066406-7.652344-17.066406-17.066406v-334.507812c0-9.414063 7.65625-17.066407 17.066406-17.066407 9.410157 0 17.066407 7.652344 17.066407 17.066407v334.507812c0 9.414062-7.65625 17.066406-17.066407 17.066406zm0-354.988281c-1.882812 0-3.414062 1.535156-3.414062 3.414063v334.507812c0 1.878906 1.53125 3.414062 3.414062 3.414062 1.882813 0 3.414063-1.535156 3.414063-3.414062v-334.507812c0-1.878907-1.53125-3.414063-3.414063-3.414063zm0 0" fill="#4c241d"/></svg>