<svg height="402pt" viewBox="0 -13 402.77333 402" width="402pt" xmlns="http://www.w3.org/2000/svg"><path d="m307.199219 160.8125c0 84.832031-68.769531 153.601562-153.597657 153.601562-84.832031 0-153.601562-68.769531-153.601562-153.601562s68.769531-153.597656 153.601562-153.597656c84.828126 0 153.597657 68.765625 153.597657 153.597656zm0 0" fill="#ffe8dc"/><path d="m133.796875 293.933594h-69.621094c-5.28125 0-9.5625-4.28125-9.5625-9.5625v-21.835938c0-5.28125 4.28125-9.5625 9.5625-9.5625h69.625c5.277344 0 9.5625 4.277344 9.5625 9.5625v21.835938c-.003906 5.28125-4.285156 9.5625-9.566406 9.5625zm0 0" fill="#fff"/><path d="m133.796875 300.761719h-69.621094c-9.035156 0-16.390625-7.355469-16.390625-16.390625v-21.835938c0-9.035156 7.355469-16.390625 16.390625-16.390625h69.621094c9.039063 0 16.390625 7.355469 16.390625 16.390625v21.835938c0 9.035156-7.355469 16.390625-16.390625 16.390625zm-69.621094-40.960938c-1.507812 0-2.734375 1.226563-2.734375 2.738281v21.832032c0 1.511718 1.226563 2.738281 2.734375 2.738281h69.621094c1.511719 0 2.738281-1.226563 2.738281-2.738281v-21.832032c0-1.511718-1.226562-2.738281-2.738281-2.738281zm0 0" fill="#4c241d"/><path d="m133.796875 232.492188h-69.621094c-5.28125 0-9.5625-4.277344-9.5625-9.5625v-21.835938c0-5.28125 4.28125-9.5625 9.5625-9.5625h69.625c5.277344 0 9.5625 4.28125 9.5625 9.5625v21.835938c-.003906 5.285156-4.285156 9.5625-9.566406 9.5625zm0 0" fill="#a9ba5a"/><path d="m133.796875 239.320312h-69.621094c-9.035156 0-16.390625-7.355468-16.390625-16.390624v-21.832032c0-9.039062 7.355469-16.394531 16.390625-16.394531h69.621094c9.039063 0 16.390625 7.355469 16.390625 16.394531v21.832032c0 9.035156-7.355469 16.390624-16.390625 16.390624zm-69.621094-40.960937c-1.507812 0-2.734375 1.226563-2.734375 2.738281v21.832032c0 1.511718 1.226563 2.738281 2.734375 2.738281h69.621094c1.511719 0 2.738281-1.226563 2.738281-2.738281v-21.832032c0-1.511718-1.226562-2.738281-2.738281-2.738281zm0 0" fill="#4c241d"/><path d="m256.675781 293.933594h-69.621093c-5.28125 0-9.5625-4.28125-9.5625-9.5625v-21.835938c0-5.28125 4.28125-9.5625 9.5625-9.5625h69.621093c5.28125 0 9.5625 4.277344 9.5625 9.5625v21.835938c0 5.28125-4.277343 9.5625-9.5625 9.5625zm0 0" fill="#ffce56"/><path d="m256.675781 300.761719h-69.621093c-9.035157 0-16.390626-7.355469-16.390626-16.390625v-21.835938c0-9.035156 7.355469-16.390625 16.390626-16.390625h69.621093c9.035157 0 16.390625 7.355469 16.390625 16.390625v21.835938c0 9.035156-7.355468 16.390625-16.390625 16.390625zm-69.617187-40.960938c-1.511719 0-2.738282 1.226563-2.738282 2.738281v21.832032c0 1.511718 1.226563 2.738281 2.738282 2.738281h69.617187c1.511719 0 2.738281-1.226563 2.738281-2.738281v-21.832032c0-1.511718-1.226562-2.738281-2.738281-2.738281zm0 0" fill="#4c241d"/><path d="m256.675781 232.492188h-69.621093c-5.28125 0-9.5625-4.277344-9.5625-9.5625v-21.835938c0-5.28125 4.28125-9.5625 9.5625-9.5625h69.621093c5.28125 0 9.5625 4.28125 9.5625 9.5625v21.835938c0 5.285156-4.277343 9.5625-9.5625 9.5625zm0 0" fill="#ffce56"/><path d="m256.675781 239.320312h-69.621093c-9.035157 0-16.390626-7.355468-16.390626-16.390624v-21.832032c0-9.039062 7.355469-16.394531 16.390626-16.394531h69.621093c9.035157 0 16.390625 7.355469 16.390625 16.394531v21.832032c0 9.035156-7.355468 16.390624-16.390625 16.390624zm-69.617187-40.960937c-1.511719 0-2.738282 1.226563-2.738282 2.738281v21.832032c0 1.511718 1.226563 2.738281 2.738282 2.738281h69.617187c1.511719 0 2.738281-1.226563 2.738281-2.738281v-21.832032c0-1.511718-1.226562-2.738281-2.738281-2.738281zm0 0" fill="#4c241d"/><path d="m256.675781 171.054688h-69.621093c-5.28125 0-9.5625-4.28125-9.5625-9.5625v-21.839844c0-5.277344 4.28125-9.5625 9.5625-9.5625h69.621093c5.28125 0 9.5625 4.28125 9.5625 9.5625v21.839844c0 5.28125-4.277343 9.5625-9.5625 9.5625zm0 0" fill="#fc8c29"/><path d="m256.675781 177.878906h-69.621093c-9.035157 0-16.390626-7.351562-16.390626-16.390625v-21.832031c0-9.039062 7.355469-16.390625 16.390626-16.390625h69.621093c9.035157 0 16.390625 7.351563 16.390625 16.390625v21.832031c0 9.039063-7.355468 16.390625-16.390625 16.390625zm-69.617187-40.957031c-1.511719 0-2.738282 1.226563-2.738282 2.734375v21.835938c0 1.507812 1.226563 2.734374 2.738282 2.734374h69.617187c1.511719 0 2.738281-1.226562 2.738281-2.734374v-21.835938c0-1.507812-1.226562-2.734375-2.738281-2.734375zm0 0" fill="#4c241d"/><path d="m256.675781 109.613281h-69.621093c-5.28125 0-9.5625-4.28125-9.5625-9.5625v-21.835937c0-5.28125 4.28125-9.5625 9.5625-9.5625h69.621093c5.28125 0 9.5625 4.28125 9.5625 9.5625v21.835937c0 5.28125-4.277343 9.5625-9.5625 9.5625zm0 0" fill="#fc8c29"/><path d="m256.675781 116.441406h-69.621093c-9.035157 0-16.390626-7.355468-16.390626-16.390625v-21.832031c0-9.039062 7.355469-16.390625 16.390626-16.390625h69.621093c9.035157 0 16.390625 7.351563 16.390625 16.390625v21.832031c0 9.035157-7.355468 16.390625-16.390625 16.390625zm-69.617187-40.960937c-1.511719 0-2.738282 1.226562-2.738282 2.738281v21.832031c0 1.511719 1.226563 2.738281 2.738282 2.738281h69.617187c1.511719 0 2.738281-1.226562 2.738281-2.738281v-21.832031c0-1.511719-1.226562-2.738281-2.738281-2.738281zm0 0" fill="#4c241d"/><path d="m379.558594 293.933594h-69.625c-5.28125 0-9.5625-4.28125-9.5625-9.5625v-21.835938c0-5.28125 4.28125-9.5625 9.5625-9.5625h69.625c5.28125 0 9.5625 4.277344 9.5625 9.5625v21.835938c0 5.28125-4.28125 9.5625-9.5625 9.5625zm0 0" fill="#fc8c29"/><path d="m379.554688 300.761719h-69.617188c-9.039062 0-16.390625-7.355469-16.390625-16.390625v-21.835938c0-9.035156 7.351563-16.390625 16.390625-16.390625h69.617188c9.039062 0 16.390624 7.355469 16.390624 16.390625v21.835938c0 9.035156-7.351562 16.390625-16.390624 16.390625zm-69.617188-40.960938c-1.511719 0-2.738281 1.226563-2.738281 2.738281v21.832032c0 1.511718 1.226562 2.738281 2.738281 2.738281h69.621094c1.507812 0 2.738281-1.226563 2.738281-2.738281v-21.832032c0-1.511718-1.230469-2.738281-2.738281-2.738281zm0 0" fill="#4c241d"/><path d="m379.558594 232.492188h-69.625c-5.28125 0-9.5625-4.277344-9.5625-9.5625v-21.835938c0-5.28125 4.28125-9.5625 9.5625-9.5625h69.625c5.28125 0 9.5625 4.28125 9.5625 9.5625v21.835938c0 5.285156-4.28125 9.5625-9.5625 9.5625zm0 0" fill="#a9ba5a"/><path d="m379.554688 239.320312h-69.617188c-9.039062 0-16.390625-7.355468-16.390625-16.390624v-21.832032c0-9.039062 7.351563-16.394531 16.390625-16.394531h69.617188c9.039062 0 16.390624 7.355469 16.390624 16.394531v21.832032c0 9.035156-7.351562 16.390624-16.390624 16.390624zm-69.617188-40.960937c-1.511719 0-2.738281 1.226563-2.738281 2.738281v21.832032c0 1.511718 1.226562 2.738281 2.738281 2.738281h69.621094c1.507812 0 2.738281-1.226563 2.738281-2.738281v-21.832032c0-1.511718-1.230469-2.738281-2.738281-2.738281zm0 0" fill="#4c241d"/><path d="m379.558594 171.054688h-69.625c-5.28125 0-9.5625-4.28125-9.5625-9.5625v-21.839844c0-5.277344 4.28125-9.5625 9.5625-9.5625h69.625c5.28125 0 9.5625 4.28125 9.5625 9.5625v21.839844c0 5.28125-4.28125 9.5625-9.5625 9.5625zm0 0" fill="#fff"/><path d="m379.554688 177.878906h-69.617188c-9.039062 0-16.390625-7.351562-16.390625-16.390625v-21.832031c0-9.039062 7.351563-16.390625 16.390625-16.390625h69.617188c9.039062 0 16.390624 7.351563 16.390624 16.390625v21.832031c0 9.039063-7.351562 16.390625-16.390624 16.390625zm-69.617188-40.957031c-1.511719 0-2.738281 1.226563-2.738281 2.734375v21.835938c0 1.507812 1.226562 2.734374 2.738281 2.734374h69.621094c1.507812 0 2.738281-1.226562 2.738281-2.734374v-21.835938c0-1.507812-1.230469-2.734375-2.738281-2.734375zm0 0" fill="#4c241d"/><path d="m379.558594 109.613281h-69.625c-5.28125 0-9.5625-4.28125-9.5625-9.5625v-21.835937c0-5.28125 4.28125-9.5625 9.5625-9.5625h69.625c5.28125 0 9.5625 4.28125 9.5625 9.5625v21.835937c0 5.28125-4.28125 9.5625-9.5625 9.5625zm0 0" fill="#fc8c29"/><path d="m379.554688 116.441406h-69.617188c-9.039062 0-16.390625-7.355468-16.390625-16.390625v-21.832031c0-9.039062 7.351563-16.390625 16.390625-16.390625h69.617188c9.039062 0 16.390624 7.351563 16.390624 16.390625v21.832031c0 9.035157-7.351562 16.390625-16.390624 16.390625zm-69.617188-40.960937c-1.511719 0-2.738281 1.226562-2.738281 2.738281v21.832031c0 1.511719 1.226562 2.738281 2.738281 2.738281h69.621094c1.507812 0 2.738281-1.226562 2.738281-2.738281v-21.832031c0-1.511719-1.230469-2.738281-2.738281-2.738281zm0 0" fill="#4c241d"/><path d="m256.675781 48.171875h-69.621093c-5.28125 0-9.5625-4.277344-9.5625-9.5625v-21.832031c0-5.28125 4.28125-9.5625 9.5625-9.5625h69.621093c5.28125 0 9.5625 4.277344 9.5625 9.5625v21.835937c0 5.28125-4.277343 9.558594-9.5625 9.558594zm0 0" fill="#fff"/><path d="m256.675781 55h-69.621093c-9.035157 0-16.390626-7.355469-16.390626-16.390625v-21.832031c0-9.035156 7.355469-16.390625 16.390626-16.390625h69.621093c9.035157 0 16.390625 7.355469 16.390625 16.390625v21.832031c0 9.035156-7.355468 16.390625-16.390625 16.390625zm-69.617187-40.960938c-1.511719 0-2.738282 1.226563-2.738282 2.738282v21.832031c0 1.511719 1.226563 2.738281 2.738282 2.738281h69.617187c1.511719 0 2.738281-1.226562 2.738281-2.738281v-21.832031c0-1.511719-1.226562-2.738282-2.738281-2.738282zm0 0" fill="#4c241d"/><path d="m383.484375 369.027344h-316.410156c-6.882813 0-12.460938-5.578125-12.460938-12.460938v-16.039062c0-6.882813 5.578125-12.460938 12.460938-12.460938h316.410156c6.882813 0 12.460937 5.578125 12.460937 12.460938v16.039062c0 6.882813-5.578124 12.460938-12.460937 12.460938zm0 0" fill="#bd53b5"/><path d="m383.484375 375.851562h-316.410156c-10.632813 0-19.289063-8.652343-19.289063-19.285156v-16.039062c0-10.632813 8.65625-19.289063 19.289063-19.289063h316.410156c10.632813 0 19.289063 8.65625 19.289063 19.289063v16.039062c0 10.632813-8.652344 19.285156-19.289063 19.285156zm-316.410156-40.957031c-3.105469 0-5.632813 2.523438-5.632813 5.632813v16.039062c0 3.105469 2.523438 5.632813 5.632813 5.632813h316.410156c3.109375 0 5.636719-2.523438 5.636719-5.632813v-16.039062c0-3.105469-2.527344-5.632813-5.636719-5.632813zm0 0" fill="#4c241d"/></svg>