<svg height="421pt" viewBox="0 -6 421.80096 421" width="421pt" xmlns="http://www.w3.org/2000/svg"><path d="m307.199219 161.015625c0 84.832031-68.769531 153.601563-153.597657 153.601563-84.832031 0-153.601562-68.769532-153.601562-153.601563 0-84.828125 68.769531-153.597656 153.601562-153.597656 84.828126 0 153.597657 68.769531 153.597657 153.597656zm0 0" fill="#ffe8dc"/><g fill="#4c241d"><path d="m153.707031 248.828125c-1.746093 0-3.496093-.664063-4.828125-2l-31.785156-31.785156c-2.667969-2.664063-2.667969-6.988281 0-9.652344 2.664062-2.667969 6.984375-2.667969 9.652344 0l31.785156 31.785156c2.667969 2.667969 2.667969 6.988281 0 9.652344-1.332031 1.335937-3.078125 2-4.824219 2zm0 0"/><path d="m190.792969 211.742188c-1.746094 0-3.492188-.667969-4.824219-2l-31.789062-31.785157c-2.664063-2.667969-2.664063-6.988281 0-9.65625 2.667968-2.664062 6.988281-2.664062 9.652343 0l31.789063 31.789063c2.664062 2.664062 2.664062 6.984375 0 9.652344-1.335938 1.335937-3.082032 2-4.828125 2zm0 0"/><path d="m116.621094 285.914062c-1.746094 0-3.496094-.664062-4.828125-2l-31.785157-31.785156c-2.667968-2.667968-2.667968-6.988281 0-9.652344 2.664063-2.667968 6.984376-2.667968 9.652344 0l31.785156 31.785157c2.667969 2.667969 2.667969 6.988281 0 9.652343-1.332031 1.335938-3.078124 2-4.824218 2zm0 0"/><path d="m79.53125 323.003906c-1.746094 0-3.492188-.667968-4.824219-2l-31.789062-31.789062c-2.664063-2.664063-2.664063-6.984375 0-9.652344 2.667969-2.664062 6.988281-2.664062 9.652343 0l31.789063 31.789062c2.664063 2.664063 2.664063 6.984376 0 9.652344-1.332031 1.332032-3.078125 2-4.828125 2zm0 0"/><path d="m21.253906 307.109375c-1.746094 0-3.496094-.667969-4.828125-2-2.664062-2.667969-2.664062-6.988281 0-9.652344l158.949219-158.941406c2.664062-2.664063 6.984375-2.664063 9.652344 0 2.664062 2.664063 2.664062 6.988281 0 9.652344l-158.949219 158.941406c-1.332031 1.335937-3.078125 2-4.824219 2zm0 0"/></g><path d="m408.675781 20.144531-6.621093-6.617187c-8.410157-8.414063-22.054688-8.414063-30.464844 0l-85.390625 85.386718 37.085937 37.085938 85.390625-85.386719c8.414063-8.414062 8.414063-22.054687 0-30.46875zm0 0" fill="#fff"/><path d="m323.285156 142.832031c-1.742187 0-3.492187-.667969-4.824218-2l-37.085938-37.085937c-2.667969-2.667969-2.667969-6.988282 0-9.65625l85.386719-85.382813c11.058593-11.066406 29.050781-11.082031 40.125 0l6.613281 6.613281c11.066406 11.058594 11.066406 29.0625 0 40.125l-85.386719 85.386719c-1.335937 1.332031-3.082031 2-4.828125 2zm-27.433594-43.914062 27.433594 27.429687 80.558594-80.558594c5.742188-5.738281 5.742188-15.078124 0-20.820312l-6.613281-6.613281c-5.738281-5.726563-15.066407-5.738281-20.816407 0zm0 0" fill="#4c241d"/><path d="m25.890625 389.691406 6.621094 6.617188c8.414062 8.414062 22.054687 8.414062 30.464843 0l233.820313-233.816406-37.085937-37.085938-233.820313 233.816406c-8.414063 8.414063-8.414063 22.054688 0 30.46875zm0 0" fill="#fff"/><path d="m47.746094 409.429688c-7.265625 0-14.527344-2.761719-20.0625-8.292969l-6.617188-6.621094c-11.058594-11.058594-11.058594-29.058594 0-40.121094l233.820313-233.820312c2.664062-2.664063 6.984375-2.664063 9.652343 0l37.085938 37.085937c2.664062 2.667969 2.664062 6.988282 0 9.652344l-233.820312 233.824219c-5.53125 5.53125-12.792969 8.292969-20.058594 8.292969zm211.96875-274.375-228.996094 228.996093c-5.738281 5.738281-5.738281 15.074219 0 20.8125l6.621094 6.621094c5.734375 5.730469 15.082031 5.730469 20.8125 0l228.996094-228.996094zm0 0" fill="#4c241d"/><path d="m259.707031 125.40625 26.488281-26.488281 37.089844 37.085937-26.492187 26.492188zm0 0" fill="#fc8c29"/><path d="m296.800781 169.316406c-1.746093 0-3.496093-.667968-4.828125-2l-37.085937-37.085937c-2.664063-2.667969-2.664063-6.988281 0-9.652344l26.488281-26.488281c2.664062-2.664063 6.988281-2.664063 9.652344 0l37.085937 37.085937c2.667969 2.664063 2.667969 6.988281 0 9.652344l-26.488281 26.488281c-1.332031 1.332032-3.078125 2-4.824219 2zm-27.433593-43.914062 27.433593 27.433594 16.832031-16.832032-27.433593-27.433594zm0 0" fill="#4c241d"/><path d="m322.027344 81.847656-9.378906-9.382812 47.683593-47.679688 9.378907 9.378906c6.527343 6.523438 6.527343 17.101563 0 23.625l-24.054688 24.058594c-6.527344 6.523438-17.101562 6.523438-23.628906 0zm0 0" fill="#bd53b5"/><path d="m333.839844 93.554688c-6.027344 0-12.046875-2.292969-16.640625-6.878907l-9.378907-9.378906c-2.667968-2.667969-2.667968-6.988281 0-9.652344l47.683594-47.6875c2.667969-2.664062 6.988282-2.664062 9.65625 0l9.378906 9.378907c9.164063 9.175781 9.164063 24.109374 0 33.28125l-24.058593 24.058593c-4.585938 4.585938-10.613281 6.878907-16.640625 6.878907zm-6.988282-16.53125c3.859376 3.851562 10.128907 3.851562 13.976563 0l24.058594-24.0625c3.847656-3.851563 3.847656-10.117188 0-13.972657l-4.554688-4.554687-38.03125 38.035156zm0 0" fill="#4c241d"/><path d="m95.882812 310.421875c-6.105468-6.105469-16.003906-6.105469-22.109374 0-6.105469 6.105469-6.105469 16.003906 0 22.109375 6.105468 6.101562 16.003906 6.101562 22.109374 0 6.105469-6.105469 6.105469-16.003906 0-22.109375zm0 0" fill="#ffce56"/><path d="m84.832031 343.933594c-6.007812 0-11.636719-2.339844-15.878906-6.578125-4.246094-4.238281-6.578125-9.878907-6.578125-15.878907s2.332031-11.640624 6.578125-15.882812c8.464844-8.480469 23.265625-8.496094 31.757813 0 4.246093 4.242188 6.582031 9.882812 6.582031 15.882812s-2.335938 11.636719-6.582031 15.878907c-4.238282 4.246093-9.878907 6.578125-15.878907 6.578125zm0-31.265625c-2.351562 0-4.558593.914062-6.226562 2.582031-3.433594 3.433594-3.433594 9.019531 0 12.453125 3.335937 3.332031 9.121093 3.332031 12.457031 0 3.433594-3.433594 3.433594-9.019531 0-12.453125-1.667969-1.667969-3.875-2.582031-6.230469-2.582031zm0 0" fill="#4c241d"/><path d="m132.96875 273.335938c-6.105469-6.105469-16.003906-6.105469-22.109375 0-6.105469 6.105468-6.105469 16.003906 0 22.105468 6.105469 6.105469 16.003906 6.105469 22.109375 0 6.105469-6.101562 6.105469-16 0-22.105468zm0 0" fill="#ffce56"/><path d="m121.917969 306.847656c-6.007813 0-11.636719-2.339844-15.878907-6.578125-4.246093-4.238281-6.578124-9.878906-6.578124-15.878906s2.332031-11.640625 6.578124-15.882813c8.472657-8.480468 23.265626-8.496093 31.757813 0 4.246094 4.242188 6.582031 9.882813 6.582031 15.882813s-2.335937 11.636719-6.582031 15.878906c-4.238281 4.246094-9.878906 6.578125-15.878906 6.578125zm0-31.265625c-2.351563 0-4.558594.914063-6.226563 2.582031-3.433594 3.433594-3.433594 9.019532 0 12.453126 3.335938 3.332031 9.121094 3.332031 12.457032 0 3.433593-3.433594 3.433593-9.019532 0-12.453126-1.667969-1.667968-3.875-2.582031-6.230469-2.582031zm0 0" fill="#4c241d"/><path d="m170.054688 236.25c-6.105469-6.105469-16-6.105469-22.105469 0s-6.105469 16.003906 0 22.105469c6.105469 6.105469 16 6.105469 22.105469 0 6.105468-6.101563 6.105468-16 0-22.105469zm0 0" fill="#ffce56"/><path d="m159.007812 269.765625c-6.007812 0-11.640624-2.339844-15.882812-6.582031-4.246094-4.238282-6.578125-9.878906-6.578125-15.878906s2.332031-11.640626 6.578125-15.882813c8.476562-8.472656 23.273438-8.496094 31.761719 0 4.246093 4.242187 6.578125 9.882813 6.578125 15.882813s-2.332032 11.640624-6.578125 15.878906c-4.242188 4.246094-9.882813 6.582031-15.878907 6.582031zm0-31.269531c-2.355468 0-4.5625.914062-6.226562 2.582031-3.433594 3.433594-3.433594 9.019531 0 12.453125 3.332031 3.332031 9.121094 3.332031 12.453125 0 3.433594-3.433594 3.433594-9.019531 0-12.453125-1.667969-1.667969-3.875-2.582031-6.226563-2.582031zm0 0" fill="#4c241d"/><path d="m207.140625 199.164062c-6.105469-6.105468-16.003906-6.105468-22.109375 0-6.101562 6.105469-6.101562 16 0 22.105469 6.105469 6.105469 16.003906 6.105469 22.109375 0s6.105469-16 0-22.105469zm0 0" fill="#ffce56"/><path d="m196.09375 232.675781c-6.007812 0-11.640625-2.339843-15.882812-6.578125-4.246094-4.238281-6.578126-9.878906-6.578126-15.882812 0-6 2.332032-11.636719 6.578126-15.878906 8.476562-8.472657 23.273437-8.5 31.761718 0 4.246094 4.238281 6.578125 9.878906 6.578125 15.878906 0 6.003906-2.332031 11.640625-6.578125 15.882812-4.238281 4.246094-9.878906 6.578125-15.878906 6.578125zm0-31.265625c-2.355469 0-4.5625.914063-6.226562 2.582032-3.433594 3.433593-3.433594 9.019531 0 12.453124 3.332031 3.332032 9.121093 3.332032 12.453124 0 3.433594-3.433593 3.433594-9.019531 0-12.453124-1.667968-1.667969-3.875-2.582032-6.226562-2.582032zm0 0" fill="#4c241d"/><path d="m348.160156 55.203125c0 3.769531-3.054687 6.828125-6.828125 6.828125-3.769531 0-6.824219-3.058594-6.824219-6.828125s3.054688-6.828125 6.824219-6.828125c3.773438 0 6.828125 3.058594 6.828125 6.828125zm0 0" fill="#4c241d"/></svg>