<svg height="416pt" viewBox="0 -48 416.42837 416" width="416pt" xmlns="http://www.w3.org/2000/svg"><path d="m307.199219 153.8125c0 84.832031-68.769531 153.601562-153.597657 153.601562-84.832031 0-153.601562-68.769531-153.601562-153.601562 0-84.828125 68.769531-153.597656 153.601562-153.597656 84.828126 0 153.597657 68.769531 153.597657 153.597656zm0 0" fill="#ffe8dc"/><path d="m385.539062 314.242188h-327.34375c-13.289062 0-24.0625-10.773438-24.0625-24.0625v-102.066407c0-13.285156 10.773438-24.058593 24.0625-24.058593h327.34375c13.289063 0 24.0625 10.773437 24.0625 24.058593v102.066407c0 13.289062-10.773437 24.0625-24.0625 24.0625zm0 0" fill="#fff"/><g fill="#4c241d"><path d="m385.539062 321.066406h-327.34375c-17.03125 0-30.886718-13.851562-30.886718-30.886718v-102.066407c0-17.03125 13.855468-30.886719 30.886718-30.886719h327.347657c17.027343 0 30.886719 13.855469 30.886719 30.886719v102.070313c-.003907 17.03125-13.859376 30.882812-30.890626 30.882812zm-327.34375-150.1875c-9.503906 0-17.234374 7.734375-17.234374 17.234375v102.070313c0 9.496094 7.730468 17.230468 17.234374 17.230468h327.347657c9.5 0 17.230469-7.734374 17.230469-17.234374v-102.066407c0-9.5-7.726563-17.234375-17.230469-17.234375zm0 0"/><path d="m75.09375 300.585938c-3.769531 0-6.828125-3.050782-6.828125-6.824219v-27.308594c0-3.773437 3.058594-6.824219 6.828125-6.824219s6.828125 3.050782 6.828125 6.824219v27.308594c0 3.773437-3.058594 6.824219-6.828125 6.824219zm0 0"/><path d="m122.878906 300.585938c-3.769531 0-6.824218-3.050782-6.824218-6.824219v-27.308594c0-3.773437 3.054687-6.824219 6.824218-6.824219 3.769532 0 6.828125 3.050782 6.828125 6.824219v27.308594c0 3.773437-3.058593 6.824219-6.828125 6.824219zm0 0"/><path d="m327.679688 300.585938c-3.769532 0-6.828126-3.050782-6.828126-6.824219v-27.308594c0-3.773437 3.058594-6.824219 6.828126-6.824219 3.769531 0 6.828124 3.050782 6.828124 6.824219v27.308594c0 3.773437-3.058593 6.824219-6.828124 6.824219zm0 0"/><path d="m368.640625 300.585938c-3.769531 0-6.828125-3.050782-6.828125-6.824219v-27.308594c0-3.773437 3.058594-6.824219 6.828125-6.824219s6.824219 3.050782 6.824219 6.824219v27.308594c0 3.773437-3.054688 6.824219-6.824219 6.824219zm0 0"/><path d="m245.761719 300.585938c-3.773438 0-6.828125-3.050782-6.828125-6.824219v-27.308594c0-3.773437 3.054687-6.824219 6.828125-6.824219 3.769531 0 6.824219 3.050782 6.824219 6.824219v27.308594c0 3.773437-3.054688 6.824219-6.824219 6.824219zm0 0"/><path d="m286.71875 300.585938c-3.769531 0-6.824219-3.050782-6.824219-6.824219v-27.308594c0-3.773437 3.054688-6.824219 6.824219-6.824219s6.828125 3.050782 6.828125 6.824219v27.308594c0 3.773437-3.058594 6.824219-6.828125 6.824219zm0 0"/><path d="m163.839844 300.585938c-3.769532 0-6.828125-3.050782-6.828125-6.824219v-27.308594c0-3.773437 3.058593-6.824219 6.828125-6.824219 3.769531 0 6.828125 3.050782 6.828125 6.824219v27.308594c0 3.773437-3.058594 6.824219-6.828125 6.824219zm0 0"/><path d="m204.800781 300.585938c-3.769531 0-6.828125-3.050782-6.828125-6.824219v-27.308594c0-3.773437 3.058594-6.824219 6.828125-6.824219s6.824219 3.050782 6.824219 6.824219v27.308594c0 3.773437-3.054688 6.824219-6.824219 6.824219zm0 0"/></g><path d="m385.246094 266.453125h-326.761719c-13.449219 0-24.351563-10.902344-24.351563-24.351563v-101.484374c0-13.449219 10.902344-24.351563 24.351563-24.351563h326.765625c13.449219 0 24.351562 10.902344 24.351562 24.355469v101.480468c0 13.449219-10.902343 24.351563-24.355468 24.351563zm0 0" fill="#fc8c29"/><path d="m385.246094 273.28125h-326.757813c-17.195312 0-31.179687-13.988281-31.179687-31.179688v-101.480468c0-17.195313 13.984375-31.179688 31.179687-31.179688h326.757813c17.191406 0 31.179687 13.984375 31.179687 31.179688v101.480468c0 17.191407-13.984375 31.179688-31.179687 31.179688zm-326.757813-150.1875c-9.664062 0-17.527343 7.859375-17.527343 17.527344v101.480468c0 9.667969 7.863281 17.527344 17.527343 17.527344h326.757813c9.664062 0 17.527344-7.859375 17.527344-17.527344v-101.480468c0-9.664063-7.863282-17.527344-17.527344-17.527344zm0 0" fill="#4c241d"/><path d="m372.054688 239.148438c-5.65625 0-10.242188-4.585938-10.242188-10.242188v-75.09375c0-5.652344 4.585938-10.238281 10.242188-10.238281s10.238281 4.585937 10.238281 10.238281v75.09375c0 5.65625-4.582031 10.242188-10.238281 10.242188zm0 0" fill="#bd53b5"/><path d="m372.054688 245.972656c-9.410157 0-17.066407-7.652344-17.066407-17.066406v-75.09375c0-9.414062 7.65625-17.066406 17.066407-17.066406 9.410156 0 17.066406 7.652344 17.066406 17.066406v75.09375c0 9.414062-7.65625 17.066406-17.066406 17.066406zm0-95.570312c-1.886719 0-3.414063 1.53125-3.414063 3.410156v75.09375c0 1.882812 1.527344 3.414062 3.414063 3.414062 1.882812 0 3.410156-1.53125 3.410156-3.414062v-75.09375c0-1.878906-1.527344-3.410156-3.410156-3.410156zm0 0" fill="#4c241d"/><path d="m71.679688 239.148438c-5.65625 0-10.238282-4.585938-10.238282-10.242188v-75.09375c0-5.652344 4.582032-10.238281 10.238282-10.238281s10.242187 4.585937 10.242187 10.238281v75.09375c0 5.65625-4.585937 10.242188-10.242187 10.242188zm0 0" fill="#bd53b5"/><path d="m71.679688 245.972656c-9.410157 0-17.066407-7.652344-17.066407-17.066406v-75.09375c0-9.414062 7.65625-17.066406 17.066407-17.066406 9.410156 0 17.066406 7.652344 17.066406 17.066406v75.09375c0 9.414062-7.65625 17.066406-17.066406 17.066406zm0-95.570312c-1.882813 0-3.414063 1.53125-3.414063 3.410156v75.09375c0 1.882812 1.53125 3.414062 3.414063 3.414062 1.882812 0 3.414062-1.53125 3.414062-3.414062v-75.09375c0-1.878906-1.53125-3.410156-3.414062-3.410156zm0 0" fill="#4c241d"/><path d="m293.546875 170.878906h-7.140625c-1.527344-11.539062-11.300781-20.476562-23.261719-20.476562h-75.730469c-11.960937 0-21.734374 8.9375-23.261718 20.476562h-7.140625c-11.308594 0-20.476563 9.171875-20.476563 20.480469 0 11.3125 9.167969 20.480469 20.476563 20.480469h7.140625c1.527344 11.542968 11.304687 20.480468 23.261718 20.480468h75.730469c11.960938 0 21.734375-8.9375 23.265625-20.480468h7.136719c11.308594 0 20.480469-9.167969 20.480469-20.480469 0-11.308594-9.171875-20.480469-20.480469-20.480469zm0 0" fill="#ffce56"/><path d="m263.144531 239.148438h-75.726562c-13.066407 0-24.480469-8.46875-28.628907-20.480469h-1.777343c-15.054688 0-27.304688-12.246094-27.304688-27.308594 0-15.058594 12.25-27.304687 27.304688-27.304687h1.773437c4.152344-12.015626 15.566406-20.480469 28.628906-20.480469h75.726563c13.066406 0 24.480469 8.464843 28.632813 20.480469h1.773437c15.054687 0 27.304687 12.246093 27.304687 27.304687 0 15.0625-12.25 27.308594-27.304687 27.308594h-1.773437c-4.152344 12.011719-15.5625 20.480469-28.628907 20.480469zm-106.132812-61.441407c-7.527344 0-13.652344 6.128907-13.652344 13.652344 0 7.527344 6.125 13.65625 13.652344 13.65625h7.140625c3.425781 0 6.320312 2.539063 6.769531 5.933594 1.097656 8.292969 8.1875 14.546875 16.496094 14.546875h75.726562c8.304688 0 15.398438-6.253906 16.496094-14.546875.449219-3.394531 3.34375-5.933594 6.765625-5.933594h7.140625c7.53125 0 13.652344-6.128906 13.652344-13.65625 0-7.523437-6.121094-13.652344-13.652344-13.652344h-7.140625c-3.425781 0-6.320312-2.539062-6.765625-5.933593-1.097656-8.292969-8.191406-14.546876-16.5-14.546876h-75.726563c-8.304687 0-15.398437 6.253907-16.496093 14.546876-.445313 3.394531-3.34375 5.933593-6.765625 5.933593zm0 0" fill="#4c241d"/></svg>