<svg height="423pt" viewBox="0 -24 423.25333 423" width="423pt" xmlns="http://www.w3.org/2000/svg"><path d="m307.199219 153.726562c0 84.832032-68.769531 153.601563-153.597657 153.601563-84.832031 0-153.601562-68.769531-153.601562-153.601563 0-84.832031 68.769531-153.601562 153.601562-153.601562 84.828126 0 153.597657 68.769531 153.597657 153.601562zm0 0" fill="#ffe8dc"/><path d="m150.1875 307.328125v-97.734375c0-55.210938 44.316406-99.96875 98.984375-99.96875s98.988281 44.757812 98.988281 99.96875v97.734375h26.671875v-98.378906c0-70.085938-56.261719-126.902344-125.660156-126.902344s-125.65625 56.816406-125.65625 126.902344v98.378906zm0 0" fill="#fff"/><path d="m374.832031 314.152344h-26.671875c-3.769531 0-6.828125-3.054688-6.828125-6.824219v-97.734375c0-51.363281-41.34375-93.144531-92.160156-93.144531s-92.160156 41.78125-92.160156 93.144531v97.734375c0 3.769531-3.054688 6.824219-6.824219 6.824219h-26.671875c-3.769531 0-6.824219-3.054688-6.824219-6.824219v-98.378906c0-73.738281 59.429688-133.730469 132.480469-133.730469s132.484375 59.992188 132.484375 133.730469v98.378906c0 3.769531-3.054688 6.824219-6.824219 6.824219zm-19.84375-13.652344h13.015625v-91.550781c0-66.210938-53.304687-120.074219-118.832031-120.074219-65.523437 0-118.828125 53.863281-118.828125 120.074219v91.550781h13.015625v-90.90625c0-58.886719 47.464844-106.796875 105.8125-106.796875s105.816406 47.910156 105.816406 106.796875zm0 0" fill="#4c241d"/><path d="m348.160156 239.058594c37.703125 0 68.265625 29.035156 68.265625 64.855468 0 35.816407-30.5625 64.851563-68.265625 64.851563zm0 0" fill="#bd53b5"/><path d="m348.160156 375.59375c-3.769531 0-6.828125-3.058594-6.828125-6.828125v-129.707031c0-3.769532 3.058594-6.824219 6.828125-6.824219 41.40625 0 75.09375 32.15625 75.09375 71.679687 0 39.523438-33.6875 71.679688-75.09375 71.679688zm6.828125-129.351562v115.339843c30.675781-3.214843 54.613281-27.851562 54.613281-57.667969 0-29.816406-23.9375-54.453124-54.613281-57.671874zm0 0" fill="#4c241d"/><path d="m330.792969 368.765625h17.367187v-129.707031h-17.367187c-9.261719 0-16.765625 7.507812-16.765625 16.769531v96.171875c0 9.261719 7.503906 16.765625 16.765625 16.765625zm0 0" fill="#ffce56"/><path d="m348.160156 375.59375h-17.367187c-13.011719 0-23.59375-10.582031-23.59375-23.59375v-96.171875c0-13.011719 10.582031-23.59375 23.59375-23.59375h17.367187c3.769532 0 6.828125 3.054687 6.828125 6.824219v129.707031c0 3.769531-3.058593 6.828125-6.828125 6.828125zm-17.367187-129.707031c-5.480469 0-9.941407 4.460937-9.941407 9.941406v96.171875c0 5.480469 4.460938 9.941406 9.941407 9.941406h10.539062v-116.054687zm0 0" fill="#4c241d"/><path d="m150.1875 239.058594c-37.703125 0-68.265625 29.035156-68.265625 64.855468 0 35.816407 30.5625 64.851563 68.265625 64.851563zm0 0" fill="#bd53b5"/><path d="m150.1875 375.59375c-41.40625 0-75.09375-32.15625-75.09375-71.679688 0-39.523437 33.6875-71.679687 75.09375-71.679687 3.769531 0 6.824219 3.054687 6.824219 6.824219v129.707031c0 3.769531-3.054688 6.828125-6.824219 6.828125zm-6.828125-129.351562c-30.675781 3.21875-54.613281 27.855468-54.613281 57.671874 0 29.816407 23.9375 54.453126 54.613281 57.667969zm0 0" fill="#4c241d"/><path d="m167.554688 368.765625h-17.367188v-129.707031h17.367188c9.257812 0 16.765624 7.507812 16.765624 16.769531v96.171875c0 9.261719-7.507812 16.765625-16.765624 16.765625zm0 0" fill="#ffce56"/><g fill="#4c241d"><path d="m167.554688 375.59375h-17.367188c-3.769531 0-6.828125-3.058594-6.828125-6.828125v-129.707031c0-3.769532 3.058594-6.824219 6.828125-6.824219h17.367188c13.007812 0 23.59375 10.582031 23.59375 23.59375v96.171875c0 13.011719-10.585938 23.59375-23.59375 23.59375zm-10.542969-13.652344h10.542969c5.480468 0 9.9375-4.460937 9.9375-9.941406v-96.171875c0-5.480469-4.457032-9.941406-9.9375-9.941406h-10.542969zm0 0"/><path d="m245.894531 355.113281c-2.914062 0-5.539062-1.863281-6.476562-4.664062l-8.789063-26.390625-11.914062 21.066406c-1.230469 2.171875-3.558594 3.457031-6.042969 3.464844-2.492187-.035156-4.773437-1.433594-5.9375-3.640625l-27.175781-51.488281c-1.761719-3.335938-.484375-7.464844 2.851562-9.222657 3.335938-1.765625 7.460938-.480469 9.222656 2.847657l21.34375 40.445312 13.324219-23.566406c1.328125-2.347656 3.960938-3.707032 6.597657-3.433594 2.6875.257812 4.964843 2.078125 5.820312 4.636719l4.648438 13.949219 16.257812-108.378907c.488281-3.25 3.222656-5.691406 6.511719-5.808593 3.308593-.101563 6.191406 2.132812 6.902343 5.34375l23.421876 105.402343 10.464843-18.71875c1.839844-3.292969 5.996094-4.464843 9.289063-2.628906 3.292968 1.839844 4.46875 6 2.628906 9.289063l-19.203125 34.347656c-1.386719 2.472656-4.164063 3.839844-6.949219 3.421875-2.804687-.410157-5.058594-2.507813-5.671875-5.273438l-19.339843-87.027343-15.035157 100.214843c-.464843 3.121094-3.015625 5.515625-6.160156 5.785157-.195313.019531-.394531.027343-.589844.027343zm0 0"/></g></svg>