<svg height="415pt" viewBox="0 -29 415.64979 415" width="415pt" xmlns="http://www.w3.org/2000/svg"><path d="m307.199219 153.925781c0 84.828125-68.769531 153.597657-153.597657 153.597657-84.832031 0-153.601562-68.769532-153.601562-153.597657 0-84.832031 68.769531-153.601562 153.601562-153.601562 84.828126 0 153.597657 68.769531 153.597657 153.601562zm0 0" fill="#ffe8dc"/><path d="m140.5625 282.773438-31.378906 31.378906c-6.664063 6.664062-6.664063 17.46875 0 24.136718 6.664062 6.664063 17.472656 6.664063 24.136718 0l31.375-31.378906zm0 0" fill="#ffce56"/><path d="m121.253906 350.113281c-6.382812 0-12.382812-2.488281-16.894531-7-9.316406-9.3125-9.316406-24.472656 0-33.789062l31.378906-31.378907c1.28125-1.28125 3.015625-2 4.828125-2 1.808594 0 3.542969.71875 4.824219 2l24.132813 24.140626c2.667968 2.664062 2.667968 6.988281 0 9.652343l-31.375 31.375c-4.511719 4.511719-10.511719 7-16.894532 7zm19.308594-57.6875-26.550781 26.554688c-3.988281 3.992187-3.988281 10.488281 0 14.480469 3.867187 3.867187 10.617187 3.867187 14.476562 0l26.554688-26.546876zm0 0" fill="#4c241d"/><path d="m140.558594 282.773438 111.023437-111.023438 24.136719 24.136719-111.023438 111.023437zm0 0" fill="#fc8c29"/><path d="m164.695312 313.738281c-1.808593 0-3.546874-.71875-4.824218-2l-24.136719-24.140625c-2.664063-2.664062-2.664063-6.988281 0-9.652344l111.027344-111.019531c2.664062-2.667969 6.984375-2.667969 9.652343 0l24.136719 24.132813c1.28125 1.28125 2 3.015625 2 4.828125s-.71875 3.542969-2 4.824219l-111.027343 111.027343c-1.28125 1.28125-3.019532 2-4.828126 2zm-14.480468-30.964843 14.480468 14.484374 101.371094-101.371093-14.480468-14.480469zm0 0" fill="#4c241d"/><path d="m346.839844 195.535156c1.417968-9.949218-7.105469-18.476562-17.054688-17.054687l-2.929687.417969c-9.949219 1.421874-18.472657-7.105469-17.054688-17.054688l.804688-5.621094c1.296875-9.078125-5.75-17.203125-14.921875-17.203125h-14.066406c-9.171876 0-16.21875-8.121093-14.917969-17.203125l1.1875-8.3125c1.296875-9.082031-5.75-17.203125-14.921875-17.203125h-6.292969c-18.503906 33.820313-16.792969 73.050781 7.324219 97.167969 23.269531 23.273438 60.613281 25.71875 93.589844 9.25-.785157-2.203125-1.113282-4.628906-.746094-7.183594zm0 0" fill="#fff"/><path d="m304.464844 220.226562c-21.164063 0-40.796875-7.433593-55.292969-21.929687-25.546875-25.546875-28.957031-67.851563-8.484375-105.265625 1.195312-2.1875 3.488281-3.554688 5.980469-3.554688l6.292969-.003906c6.363281.003906 12.394531 2.757813 16.550781 7.558594 4.160156 4.800781 6.03125 11.152344 5.132812 17.441406l-1.1875 8.3125c-.339843 2.398438.34375 4.734375 1.933594 6.566406 1.589844 1.835938 3.804687 2.847657 6.234375 2.847657l14.058594-.007813c6.355468 0 12.382812 2.753906 16.542968 7.554688 4.164063 4.800781 6.035157 11.152344 5.136719 17.445312l-.804687 5.621094c-.371094 2.59375.480468 5.140625 2.332031 6.996094 1.863281 1.859375 4.414063 2.726562 7.003906 2.332031l2.921875-.421875c6.898438-.945312 13.667969 1.28125 18.585938 6.203125 4.921875 4.917969 7.179687 11.6875 6.195312 18.578125-.1875 1.308594-.046875 2.621094.417969 3.914062 1.167969 3.253907-.28125 6.867188-3.375 8.414063-15.304687 7.644531-31.128906 11.398437-46.175781 11.398437zm-53.652344-117.101562c-15.472656 31.113281-12.425781 65.082031 8.015625 85.519531 19.558594 19.5625 50.941406 23.347657 81.066406 10.148438-.078125-1.40625-.015625-2.8125.1875-4.230469.367188-2.59375-.484375-5.140625-2.332031-6.992188-1.855469-1.859374-4.390625-2.699218-7-2.332031l-2.925781.417969c-6.886719.953125-13.667969-1.273438-18.585938-6.199219-4.921875-4.921875-7.175781-11.695312-6.195312-18.582031l.804687-5.617188c.34375-2.402343-.347656-4.734374-1.9375-6.574218-1.589844-1.835938-3.800781-2.839844-6.226562-2.839844l-14.0625.003906c-6.359375-.003906-12.390625-2.757812-16.546875-7.558594-4.160157-4.800781-6.03125-11.152343-5.132813-17.441406l1.1875-8.3125c.339844-2.398437-.34375-4.734375-1.933594-6.566406-1.589843-1.835938-3.804687-2.847656-6.234374-2.847656h-2.148438zm96.027344 92.40625h.066406zm0 0" fill="#4c241d"/><path d="m304.503906 76.890625-1.1875 8.3125c-1.296875 9.078125 5.746094 17.203125 14.921875 17.203125h14.0625c9.175781 0 16.21875 8.125 14.921875 17.203125l-.804687 5.621094c-1.417969 9.945312 7.105469 18.472656 17.054687 17.054687l2.929688-.417968c9.945312-1.421876 18.472656 7.101562 17.054687 17.050781-.628906 4.402343.734375 8.417969 3.210938 11.492187-1.375 1.773438-2.804688 3.519532-4.28125 5.242188 32.417969-37.042969 35.898437-88.210938 6.773437-117.339844-27.414062-27.414062-74.339844-25.914062-110.660156 1.375h11.082031c9.171875-.003906 16.21875 8.121094 14.921875 17.203125zm0 0" fill="#ffce56"/><path d="m382.382812 182.480469c-1.582031 0-3.171874-.546875-4.460937-1.667969-2.839844-2.453125-3.164063-6.742188-.722656-9.601562.390625-.453126.78125-.914063 1.164062-1.378907-1.660156-3.699219-2.25-7.773437-1.667969-11.875.375-2.597656-.472656-5.148437-2.328124-7-1.851563-1.859375-4.40625-2.714843-7-2.332031l-2.925782.417969c-6.898437.960937-13.664062-1.273438-18.585937-6.199219-4.917969-4.921875-7.175781-11.695312-6.191407-18.582031l.800782-5.625c.339844-2.398438-.339844-4.734375-1.933594-6.566407-1.589844-1.835937-3.800781-2.839843-6.226562-2.839843h-14.066407c-6.351562 0-12.382812-2.753907-16.539062-7.554688-4.164063-4.800781-6.039063-11.152343-5.136719-17.449219l1.183594-8.3125c.339844-2.398437-.34375-4.730468-1.933594-6.566406-1.589844-1.835937-3.804688-2.839844-6.230469-2.839844h-11.078125c-2.9375 0-5.546875-1.878906-6.476562-4.667968-.929688-2.785156.027344-5.851563 2.378906-7.617188 39.804688-29.914062 90.097656-30.222656 119.582031-.742187 31.214844 31.214843 28.375 86.847656-6.464843 126.660156-1.351563 1.550781-3.238282 2.339844-5.140626 2.339844zm-13.785156-47.601563c5.769532 0 11.257813 2.257813 15.421875 6.425782 3.234375 3.234374 5.320313 7.269531 6.085938 11.609374 17.484375-31.480468 15.992187-68.007812-5.773438-89.773437-20.832031-20.835937-54.636719-23.449219-85.335937-8.15625 2.695312 1.28125 5.128906 3.113281 7.128906 5.421875 4.160156 4.800781 6.03125 11.160156 5.132812 17.449219l-1.183593 8.3125c-.34375 2.398437.34375 4.730469 1.933593 6.574219 1.59375 1.832031 3.800782 2.839843 6.226563 2.839843h14.066406c6.355469 0 12.382813 2.75 16.542969 7.546875s6.035156 11.160156 5.132812 17.445313l-.800781 5.628906c-.371093 2.59375.476563 5.140625 2.332031 6.992187 1.859376 1.859376 4.417969 2.738282 7 2.332032l2.921876-.417969c1.0625-.152344 2.125-.230469 3.167968-.230469zm0 0" fill="#4c241d"/><path d="m362.851562 193.503906c.398438-.285156.773438-.617187 1.167969-.910156 2.050781-1.511719 4.089844-3.0625 6.066407-4.742188 2.394531-2.035156 4.734374-4.175781 7.007812-6.449218 1.863281-1.863282 3.589844-3.800782 5.292969-5.75 1.476562-1.722656 2.90625-3.472656 4.28125-5.242188-2.472657-3.078125-3.839844-7.09375-3.210938-11.492187 1.421875-9.949219-7.105469-18.472657-17.054687-17.054688l-2.929688.417969c-9.945312 1.421875-18.472656-7.105469-17.050781-17.050781l.804687-5.625c1.296876-9.078125-5.75-17.203125-14.921874-17.203125h-14.066407c-9.171875 0-16.21875-8.121094-14.921875-17.203125l1.1875-8.3125c1.296875-9.078125-5.746094-17.203125-14.921875-17.203125h-11.078125l-.003906.003906c-2.105469 1.582031-4.179688 3.234375-6.214844 4.96875-2.113281 1.828125-4.203125 3.707031-6.21875 5.722656-2.121094 2.121094-4.109375 4.316406-6.023437 6.542969-1.097657 1.289063-2.121094 2.613281-3.148438 3.933594-.675781.859375-1.363281 1.710937-2.007812 2.582031-1.324219 1.800781-2.582031 3.628906-3.78125 5.476562-.210938.324219-.425781.648438-.632813.972657-1.339844 2.113281-2.613281 4.25-3.796875 6.414062l6.289063-.003906c9.171875 0 16.21875 8.125 14.921875 17.207031l-1.1875 8.308594c-1.296875 9.082031 5.746093 17.203125 14.921875 17.207031l14.066406-.003906c9.171875 0 16.21875 8.125 14.921875 17.207031l-.804687 5.621094c-1.421876 9.949219 7.105468 18.476562 17.050781 17.054688l2.933593-.417969c9.945313-1.421875 18.472657 7.101562 17.050782 17.050781-.363282 2.554688-.039063 4.984375.75 7.1875.003906 0 .007812-.003906.007812-.003906 5.214844-2.605469 10.328125-5.675782 15.253906-9.210938zm0 0" fill="#bd53b5"/><g fill="#4c241d"><path d="m347.597656 209.546875c-.859375 0-1.71875-.164063-2.535156-.488281-1.804688-.71875-3.222656-2.1875-3.882812-4.015625-1.234376-3.410157-1.605469-6.9375-1.09375-10.480469.367187-2.59375-.480469-5.140625-2.335938-6.992188-1.851562-1.859374-4.386719-2.699218-7-2.332031l-2.921875.417969c-6.886719.953125-13.667969-1.273438-18.589844-6.199219-4.917969-4.921875-7.175781-11.6875-6.191406-18.582031l.804687-5.617188c.339844-2.402343-.347656-4.734374-1.9375-6.574218-1.59375-1.835938-3.800781-2.839844-6.226562-2.839844l-14.0625.003906c-6.363281-.003906-12.390625-2.757812-16.550781-7.558594-4.160157-4.800781-6.03125-11.152343-5.128907-17.441406l1.183594-8.3125c.339844-2.398437-.339844-4.734375-1.933594-6.566406-1.589843-1.835938-3.804687-2.847656-6.230468-2.847656l-6.28125.007812c-.003906 0-.003906 0-.007813 0-2.410156 0-4.640625-1.265625-5.867187-3.339844-1.230469-2.074218-1.277344-4.640624-.121094-6.761718 1.253906-2.292969 2.597656-4.554688 4.019531-6.792969l.691407-1.066406c1.246093-1.925781 2.585937-3.859375 3.980468-5.773438.570313-.765625 1.148438-1.492187 1.726563-2.226562l.425781-.539063c1.1875-1.527344 2.21875-2.855468 3.320312-4.140625 2.042969-2.382812 4.144532-4.699219 6.394532-6.945312 2.125-2.128907 4.339844-4.121094 6.578125-6.054688 2.175781-1.851562 4.359375-3.605469 6.578125-5.265625 1.183594-.890625 2.621094-1.367187 4.097656-1.367187h11.082031c6.355469 0 12.382813 2.75 16.542969 7.546875s6.03125 11.160156 5.132812 17.445312l-1.183593 8.3125c-.34375 2.402344.34375 4.734375 1.933593 6.574219 1.59375 1.835937 3.800782 2.839844 6.226563 2.839844h14.066406c6.355469 0 12.382813 2.753906 16.542969 7.546875 4.160156 4.800781 6.035156 11.160156 5.132812 17.449218l-.800781 5.625c-.371093 2.59375.476563 5.140626 2.332031 6.996094 1.859376 1.859375 4.417969 2.738282 7 2.332032l2.921876-.417969c6.910156-.960938 13.671874 1.277343 18.589843 6.199219 4.917969 4.917968 7.175781 11.695312 6.191407 18.578124-.402344 2.839844.746093 4.96875 1.777343 6.253907 1.980469 2.46875 2.007813 5.96875.066407 8.460937-1.4375 1.855469-2.9375 3.679688-4.484376 5.492188-1.847656 2.113281-3.679687 4.164062-5.648437 6.136718-2.40625 2.40625-4.886719 4.679688-7.417969 6.824219-2.101562 1.789063-4.257812 3.433594-6.4375 5.035157-.597656.484374-.914062.734374-1.238281.964843-5.152344 3.691407-10.59375 6.980469-16.183594 9.773438-.957031.480469-2 .722656-3.046875.722656zm-15.613281-38.054687c5.765625 0 11.253906 2.257812 15.417969 6.425781 3.699218 3.695312 5.894531 8.441406 6.335937 13.5 1.742188-1.101563 3.453125-2.257813 5.132813-3.457031l.335937-.269532c.070313-.050781.664063-.519531.730469-.570312 1.960938-1.449219 3.878906-2.90625 5.738281-4.480469 2.246094-1.90625 4.453125-3.929687 6.59375-6.066406 1.75-1.746094 3.371094-3.582031 4.980469-5.414063.367188-.441406.742188-.882812 1.109375-1.320312-1.660156-3.707032-2.246094-7.78125-1.664063-11.878906.371094-2.601563-.476562-5.148438-2.332031-7.003907-1.851562-1.859375-4.40625-2.710937-7-2.332031l-2.921875.421875c-6.902344.957031-13.667968-1.273437-18.589844-6.203125-4.917968-4.917969-7.175781-11.6875-6.191406-18.578125l.804688-5.628906c.335937-2.398438-.34375-4.730469-1.9375-6.566407-1.589844-1.835937-3.800782-2.839843-6.226563-2.839843h-14.066406c-6.351563 0-12.382813-2.753907-16.539063-7.554688-4.164062-4.796875-6.039062-11.152343-5.136718-17.445312l1.183594-8.3125c.339843-2.402344-.34375-4.734375-1.933594-6.570313-1.589844-1.832031-3.804688-2.839844-6.226563-2.839844h-8.773437c-1.382813 1.082032-2.75 2.195313-4.09375 3.339844-1.957032 1.695313-3.925782 3.460938-5.820313 5.355469-2 2-3.871093 4.066406-5.671875 6.167969-.957031 1.117187-1.855468 2.277344-2.753906 3.433594l-.65625.832031c-.488281.617187-.976562 1.234375-1.441406 1.859375-.648438.882812-1.28125 1.773437-1.898438 2.679687 4.25 1.105469 8.109375 3.472657 11.039063 6.855469 4.160156 4.796875 6.03125 11.152344 5.128906 17.4375l-1.183594 8.316406c-.339843 2.398438.34375 4.730469 1.933594 6.566406 1.589844 1.832032 3.804687 2.847657 6.230469 2.847657l14.0625-.007813c6.351562 0 12.382812 2.75 16.539062 7.554688 4.164063 4.796875 6.039063 11.152344 5.140625 17.445312l-.804687 5.621094c-.371094 2.59375.480468 5.140625 2.332031 6.992188 1.859375 1.859374 4.414063 2.726562 7 2.332031l2.925781-.417969c1.058594-.148438 2.121094-.226562 3.167969-.226562zm0 0"/><path d="m391.570312 108.996094c-2.664062-2.664063-6.988281-2.664063-9.652343 0-2.667969 2.667968-2.667969 6.988281 0 9.65625 2.664062 2.664062 6.988281 2.664062 9.652343 0 2.667969-2.667969 2.667969-6.988282 0-9.65625zm0 0"/><path d="m367.433594 84.863281c-2.664063-2.667969-6.988282-2.667969-9.652344 0-2.664062 2.664063-2.664062 6.988281 0 9.652344 2.664062 2.667969 6.988281 2.667969 9.652344 0 2.667968-2.664063 2.667968-6.988281 0-9.652344zm0 0"/><path d="m343.300781 60.726562c-2.667969-2.667968-6.988281-2.667968-9.65625 0-2.664062 2.664063-2.664062 6.988282 0 9.652344 2.667969 2.667969 6.988281 2.667969 9.65625 0 2.664063-2.664062 2.664063-6.988281 0-9.652344zm0 0"/></g><path d="m277.066406 289.601562 31.375 31.378907c6.664063 6.664062 6.664063 17.46875 0 24.132812-6.664062 6.664063-17.46875 6.664063-24.132812 0l-31.378906-31.375zm0 0" fill="#ffce56"/><path d="m296.371094 356.941406c-6.382813 0-12.382813-2.488281-16.894532-7.003906l-31.375-31.371094c-2.664062-2.667968-2.664062-6.988281 0-9.652344l24.140626-24.140624c2.558593-2.5625 7.089843-2.5625 9.652343 0l31.375 31.378906c9.3125 9.3125 9.3125 24.472656.003907 33.785156-4.515626 4.515625-10.519532 7.003906-16.902344 7.003906zm-33.789063-43.203125 26.550781 26.546875c3.871094 3.867188 10.613282 3.867188 14.484376 0 3.988281-3.992187 3.988281-10.488281-.003907-14.476562l-26.546875-26.554688zm0 0" fill="#4c241d"/><path d="m141.902344 202.710938 24.132812-24.132813 111.027344 111.023437-24.136719 24.132813zm0 0" fill="#fc8c29"/><path d="m252.929688 320.566406c-1.8125 0-3.546876-.722656-4.828126-2l-111.027343-111.027344c-1.277344-1.28125-2-3.015624-2-4.828124s.722656-3.546876 2-4.824219l24.140625-24.136719c2.664062-2.664062 6.984375-2.664062 9.652344 0l111.027343 111.023438c2.664063 2.664062 2.664063 6.984374 0 9.652343l-24.136719 24.140625c-1.28125 1.277344-3.015624 2-4.828124 2zm-101.371094-117.855468 101.371094 101.375 14.484374-14.488282-101.375-101.367187zm0 0" fill="#4c241d"/><path d="m70.789062 202.359375c-1.421874-9.945313 7.101563-18.472656 17.050782-17.050781l2.929687.417968c9.949219 1.421876 18.476563-7.105468 17.054688-17.054687l-.804688-5.621094c-1.296875-9.082031 5.75-17.207031 14.921875-17.207031l14.066406.003906c9.171876 0 16.21875-8.125 14.921876-17.207031l-1.1875-8.308594c-1.296876-9.082031 5.746093-17.203125 14.921874-17.207031l6.289063.003906c18.503906 33.820313 16.796875 73.046875-7.324219 97.167969-23.269531 23.269531-60.613281 25.71875-93.585937 9.25.785156-2.203125 1.109375-4.628906.746093-7.1875zm0 0" fill="#fff"/><path d="m113.160156 227.050781c-15.046875 0-30.867187-3.75-46.171875-11.398437-3.09375-1.546875-4.542969-5.160156-3.378906-8.414063.464844-1.292969.605469-2.605469.417969-3.914062-.980469-6.894531 1.273437-13.660157 6.195312-18.582031 4.921875-4.925782 11.714844-7.152344 18.582032-6.199219l2.933593.421875c2.574219.386718 5.140625-.480469 6.996094-2.335938 1.851563-1.851562 2.703125-4.398437 2.332031-6.992187l-.804687-5.621094c-.898438-6.292969.972656-12.644531 5.136719-17.445313 4.164062-4.800781 10.191406-7.554687 16.542968-7.554687l14.066406.007813c2.425782 0 4.636719-1.015626 6.226563-2.847657s2.273437-4.167969 1.933594-6.566406l-1.183594-8.3125c-.902344-6.289063.96875-12.640625 5.128906-17.441406 4.160157-4.800781 10.191407-7.554688 16.542969-7.5625l6.300781.007812c2.492188 0 4.785157 1.367188 5.980469 3.554688 20.472656 37.414062 17.0625 79.71875-8.484375 105.265625-14.492187 14.5-34.128906 21.929687-55.292969 21.929687zm-35.425781-21.433593c30.117187 13.199218 61.503906 9.414062 81.066406-10.144532 20.441407-20.441406 23.488281-54.40625 8.011719-85.519531h-2.160156c-2.417969 0-4.632813 1.011719-6.222656 2.847656-1.589844 1.832031-2.273438 4.164063-1.933594 6.566407l1.1875 8.3125c.898437 6.289062-.96875 12.640624-5.132813 17.441406-4.160156 4.800781-10.1875 7.554687-16.542969 7.558594l-14.070312-.003907c-2.425781 0-4.636719 1.003907-6.222656 2.839844-1.589844 1.839844-2.28125 4.171875-1.9375 6.570313l.804687 5.621093c.980469 6.894531-1.273437 13.660157-6.195312 18.589844-4.921875 4.917969-11.695313 7.152344-18.582031 6.191406l-2.933594-.417969c-2.597656-.394531-5.140625.472657-6.996094 2.332032-1.847656 1.851562-2.699219 4.398437-2.332031 6.992187.203125 1.410157.265625 2.816407.191406 4.222657zm0 0" fill="#4c241d"/><path d="m113.121094 83.714844 1.191406 8.3125c1.296875 9.082031-5.75 17.207031-14.921875 17.207031h-14.066406c-9.171875 0-16.21875 8.121094-14.921875 17.203125l.804687 5.621094c1.421875 9.945312-7.105469 18.472656-17.054687 17.050781l-2.929688-.417969c-9.945312-1.421875-18.472656 7.105469-17.050781 17.054688.628906 4.398437-.738281 8.414062-3.214844 11.492187 1.378907 1.769531 2.804688 3.519531 4.285157 5.242188-32.421876-37.046875-35.902344-88.214844-6.777344-117.339844 27.414062-27.414063 74.34375-25.917969 110.660156 1.371094h-11.082031c-9.171875 0-16.21875 8.125-14.921875 17.203125zm0 0" fill="#ffce56"/><path d="m35.242188 189.304688c-1.898438 0-3.789063-.785157-5.140626-2.332032-34.839843-39.804687-37.679687-95.445312-6.460937-126.660156 29.476563-29.492188 79.773437-29.171875 119.585937.742188 2.347657 1.765624 3.304688 4.832031 2.375 7.617187-.929687 2.789063-3.539062 4.667969-6.476562 4.667969h-11.082031c-2.425781 0-4.640625 1.007812-6.230469 2.839844-1.589844 1.832031-2.273438 4.164062-1.933594 6.566406l1.1875 8.3125c.898438 6.296875-.972656 12.65625-5.136718 17.457031-4.160157 4.792969-10.191407 7.546875-16.539063 7.546875h-14.066406c-2.429688 0-4.640625 1.003906-6.230469 2.839844-1.589844 1.832031-2.273438 4.164062-1.933594 6.566406l.804688 5.625c.980468 6.886719-1.273438 13.660156-6.195313 18.582031-4.921875 4.925781-11.714843 7.152344-18.578125 6.199219l-2.9375-.417969c-2.582031-.386719-5.140625.472657-6.996094 2.332031-1.851562 1.851563-2.703124 4.398438-2.332031 6.992188.589844 4.101562 0 8.179688-1.664062 11.886719.382812.460937.773437.921875 1.164062 1.375 2.445313 2.859375 2.121094 7.148437-.71875 9.601562-1.289062 1.113281-2.878906 1.660157-4.464843 1.660157zm43.757812-137.257813c-17.488281 0-33.742188 5.953125-45.707031 17.917969-21.765625 21.765625-23.257813 58.292968-5.773438 89.773437.765625-4.339843 2.855469-8.371093 6.085938-11.605469 4.925781-4.925781 11.714843-7.160156 18.582031-6.199218l2.9375.417968c2.585938.375 5.136719-.472656 6.992188-2.332031 1.855468-1.855469 2.703124-4.398437 2.332031-6.996093l-.800781-5.625c-.902344-6.289063.972656-12.648438 5.132812-17.441407 4.160156-4.796875 10.191406-7.554687 16.542969-7.554687h14.066406c2.425781 0 4.636719-1.003906 6.226563-2.839844 1.585937-1.832031 2.277343-4.171875 1.933593-6.574219l-1.183593-8.3125c-.898438-6.285156.972656-12.644531 5.132812-17.445312 2-2.308594 4.433594-4.140625 7.128906-5.421875-13.0625-6.496094-26.683594-9.761719-39.628906-9.761719zm0 0" fill="#4c241d"/><path d="m54.777344 200.328125c-.398438-.285156-.777344-.613281-1.171875-.90625-2.050781-1.511719-4.085938-3.066406-6.066407-4.742187-2.394531-2.035157-4.734374-4.175782-7.003906-6.449219-1.867187-1.863281-3.589844-3.804688-5.296875-5.75-1.476562-1.726563-2.90625-3.472657-4.28125-5.246094 2.476563-3.074219 3.839844-7.089844 3.210938-11.492187-1.417969-9.945313 7.105469-18.472657 17.054687-17.050782l2.929688.417969c9.945312 1.417969 18.472656-7.105469 17.054687-17.054687l-.804687-5.621094c-1.296875-9.078125 5.75-17.203125 14.921875-17.203125h14.0625c9.171875 0 16.21875-8.125 14.921875-17.203125l-1.1875-8.3125c-1.296875-9.078125 5.75-17.203125 14.921875-17.203125h11.082031l.003906.003906c2.101563 1.578125 4.175782 3.234375 6.210938 4.96875 2.113281 1.828125 4.203125 3.707031 6.21875 5.722656 2.121094 2.121094 4.109375 4.3125 6.023437 6.542969 1.101563 1.289062 2.121094 2.613281 3.148438 3.929688.675781.859374 1.367187 1.714843 2.011719 2.585937 1.320312 1.800781 2.578124 3.628906 3.777343 5.476563.210938.324218.425781.644531.636719.972656 1.335938 2.113281 2.613281 4.25 3.796875 6.410156h-6.292969c-9.171875 0-16.21875 8.121094-14.921875 17.203125l1.1875 8.3125c1.296875 9.082031-5.746093 17.203125-14.917969 17.203125h-14.066406c-9.171875 0-16.21875 8.125-14.921875 17.203125l.800781 5.625c1.421876 9.945313-7.101562 18.472656-17.050781 17.050781l-2.929687-.417968c-9.949219-1.421876-18.472656 7.105468-17.054688 17.054687.367188 2.554687.039063 4.984375-.75 7.1875-.003906-.003906-.003906-.003906-.007812-.007813-5.214844-2.601562-10.324219-5.671874-15.25-9.210937zm0 0" fill="#bd53b5"/><path d="m70.035156 216.371094c-1.042968 0-2.089844-.238282-3.046875-.71875-5.585937-2.789063-11.035156-6.074219-16.191406-9.773438-.007813-.007812-.011719-.007812-.019531-.015625l-.917969-.707031c-2.480469-1.851562-4.636719-3.5-6.726563-5.265625-2.542968-2.160156-5.019531-4.433594-7.421874-6.828125-1.976563-1.976562-3.800782-4.023438-5.605469-6.085938-1.597657-1.871093-3.097657-3.699218-4.535157-5.550781-1.941406-2.496093-1.914062-5.996093.066407-8.460937 1.035156-1.289063 2.179687-3.421875 1.777343-6.253906-.984374-6.886719 1.273438-13.660157 6.195313-18.582032 4.921875-4.925781 11.714844-7.15625 18.578125-6.199218l2.9375.421874c2.585938.371094 5.136719-.472656 6.996094-2.335937 1.851562-1.851563 2.703125-4.398437 2.332031-6.992187l-.804687-5.628907c-.898438-6.285156.972656-12.644531 5.132812-17.4375 4.164062-4.800781 10.191406-7.554687 16.542969-7.554687h14.066406c2.425781 0 4.636719-1.007813 6.226563-2.839844 1.589843-1.832031 2.28125-4.171875 1.9375-6.574219l-1.1875-8.3125c-.898438-6.289062.972656-12.648437 5.132812-17.449219 4.164062-4.792968 10.191406-7.546874 16.542969-7.546874h11.085937c1.476563 0 2.910156.480468 4.09375 1.367187 2.21875 1.660156 4.402344 3.40625 6.542969 5.234375 2.277344 1.972656 4.484375 3.957031 6.617187 6.085938 2.246094 2.253906 4.355469 4.574218 6.378907 6.933593 1.113281 1.300781 2.144531 2.625 3.175781 3.945313l.585938.746094c.578124.734374 1.152343 1.460937 1.703124 2.207031 1.417969 1.925781 2.75 3.867187 4.023438 5.828125l.671875 1.039062c1.414063 2.226563 2.761719 4.484375 4.015625 6.773438 1.160156 2.113281 1.117188 4.6875-.113281 6.757812-1.230469 2.074219-3.460938 3.347656-5.871094 3.347656h-6.292969c-2.421875 0-4.640625 1.015626-6.230468 2.847657-1.585938 1.832031-2.269532 4.164062-1.933594 6.566406l1.1875 8.3125c.898437 6.289063-.96875 12.640625-5.128906 17.441406-4.160157 4.800781-10.191407 7.554688-16.542969 7.5625l-14.074219-.007812c-2.421875 0-4.632812 1.007812-6.222656 2.839843-1.589844 1.839844-2.28125 4.171876-1.9375 6.574219l.804687 5.617188c.984375 6.894531-1.273437 13.660156-6.191406 18.589843-4.925781 4.917969-11.695313 7.152344-18.582031 6.191407l-2.9375-.417969c-2.59375-.394531-5.136719.472656-6.992188 2.332031-1.855468 1.855469-2.707031 4.398438-2.335937 6.996094.507812 3.53125.144531 7.050781-1.082031 10.457031-.65625 1.835938-2.070313 3.300782-3.878907 4.027344-.820312.339844-1.683593.496094-2.546875.496094zm-30.773437-39.703125c.386719.460937.773437.917969 1.164062 1.371093 1.558594 1.773438 3.179688 3.605469 4.9375 5.375 2.136719 2.125 4.339844 4.144532 6.597657 6.066407 1.851562 1.566406 3.773437 3.023437 5.699218 4.445312.078125.058594.6875.53125.761719.59375l-3.644531 5.8125 3.980468-5.546875c1.675782 1.199219 3.390626 2.359375 5.128907 3.460938.445312-5.0625 2.636719-9.808594 6.335937-13.5 4.925782-4.925782 11.71875-7.152344 18.582032-6.199219l2.9375.417969c2.574218.386718 5.136718-.480469 6.992187-2.332032 1.855469-1.855468 2.703125-4.402343 2.335937-6.996093l-.804687-5.617188c-.898437-6.296875.972656-12.648437 5.136719-17.449219 4.160156-4.796874 10.191406-7.554687 16.539062-7.554687l14.070313.007813c2.421875 0 4.636719-1.011719 6.226562-2.847657 1.585938-1.832031 2.273438-4.164062 1.933594-6.566406l-1.1875-8.3125c-.898437-6.289063.96875-12.640625 5.128906-17.441406 2.933594-3.378907 6.792969-5.753907 11.042969-6.851563-.636719-.929687-1.265625-1.8125-1.914062-2.695312-.449219-.613282-.941407-1.226563-1.425782-1.847656l-.453125-.566407c-1.105469-1.417969-2.003906-2.578125-2.96875-3.710937-1.796875-2.09375-3.660156-4.160156-5.660156-6.152344-1.894531-1.894531-3.871094-3.667969-5.855469-5.386719-1.320312-1.121093-2.679687-2.226562-4.0625-3.308593h-8.773437c-2.425781 0-4.640625 1.007812-6.226563 2.839843-1.589844 1.832031-2.273437 4.167969-1.933594 6.566407l1.183594 8.3125c.902344 6.296874-.972656 12.65625-5.136718 17.457031-4.160157 4.792969-10.191407 7.546875-16.539063 7.546875h-14.066406c-2.425781 0-4.640625 1.003906-6.230469 2.839844-1.585938 1.832031-2.273438 4.164062-1.933594 6.566406l.804688 5.625c.984375 6.894531-1.273438 13.660156-6.191406 18.582031-4.925782 4.925781-11.71875 7.152344-18.582032 6.199219l-2.9375-.417969c-2.578125-.386719-5.140625.472656-6.992187 2.332031-1.855469 1.855469-2.703125 4.398438-2.335938 6.996094.589844 4.097656 0 8.179688-1.664062 11.886719zm0 0" fill="#4c241d"/><path d="m35.703125 115.820312c-2.664063-2.664062-6.988281-2.664062-9.652344 0-2.667969 2.667969-2.667969 6.988282 0 9.65625 2.664063 2.664063 6.988281 2.664063 9.652344 0 2.667969-2.667968 2.667969-6.988281 0-9.65625zm0 0" fill="#4c241d"/><path d="m59.839844 91.6875c-2.664063-2.667969-6.988282-2.667969-9.652344 0-2.667969 2.664062-2.667969 6.988281 0 9.652344 2.664062 2.667968 6.988281 2.667968 9.652344 0 2.667968-2.664063 2.667968-6.988282 0-9.652344zm0 0" fill="#4c241d"/><path d="m83.976562 67.550781c-2.667968-2.664062-6.988281-2.664062-9.65625 0-2.664062 2.667969-2.664062 6.988281 0 9.65625 2.667969 2.664063 6.988282 2.664063 9.65625 0 2.664063-2.667969 2.664063-6.988281 0-9.65625zm0 0" fill="#4c241d"/></svg>