<svg height="389pt" viewBox="-17 0 389 389.12" width="389pt" xmlns="http://www.w3.org/2000/svg"><path d="m355.046875 174.078125c0 84.832031-68.769531 153.601563-153.601563 153.601563-84.828124 0-153.597656-68.769532-153.597656-153.601563 0-84.828125 68.769532-153.597656 153.597656-153.597656 84.832032 0 153.601563 68.769531 153.601563 153.597656zm0 0" fill="#ffe8dc"/><path d="m112.699219 320.851562c-62.105469 0-112.6406252-50.527343-112.6406252-112.636718 0-3.773438 3.0546872-6.828125 6.8281252-6.828125 3.773437 0 6.828125 3.054687 6.828125 6.828125 0 54.578125 44.40625 98.984375 98.984375 98.984375s98.988281-44.40625 98.988281-98.984375c0-3.773438 3.050781-6.828125 6.824219-6.828125 3.773437 0 6.828125 3.054687 6.828125 6.828125 0 62.109375-50.53125 112.636718-112.640625 112.636718zm0 0" fill="#4c241d"/><path d="m184.378906 78.507812c0-39.589843-32.089844-71.679687-71.679687-71.679687-39.585938 0-71.679688 32.089844-71.679688 71.679687v71.679688h143.359375zm0 0" fill="#fff"/><path d="m184.378906 157.011719h-143.359375c-3.773437 0-6.828125-3.054688-6.828125-6.824219v-71.679688c0-43.289062 35.222656-78.507812 78.507813-78.507812 43.285156 0 78.507812 35.21875 78.507812 78.507812v71.679688c0 3.769531-3.054687 6.824219-6.828125 6.824219zm-136.53125-13.652344h129.707032v-64.851563c0-35.761718-29.09375-64.855468-64.855469-64.855468-35.757813 0-64.851563 29.09375-64.851563 64.855468zm0 0" fill="#4c241d"/><path d="m41.019531 150.1875v58.027344c0 39.585937 32.09375 71.679687 71.679688 71.679687 39.589843 0 71.679687-32.09375 71.679687-71.679687v-58.027344zm0 0" fill="#ffce56"/><g fill="#4c241d"><path d="m112.699219 286.71875c-43.285157 0-78.507813-35.214844-78.507813-78.503906v-58.027344c0-3.769531 3.054688-6.828125 6.828125-6.828125h143.359375c3.773438 0 6.828125 3.058594 6.828125 6.828125v58.027344c0 43.289062-35.222656 78.503906-78.507812 78.503906zm-64.851563-129.707031v51.203125c0 35.757812 29.09375 64.851562 64.851563 64.851562 35.761719 0 64.855469-29.09375 64.855469-64.851562v-51.203125zm0 0"/><path d="m116.113281 382.292969c-3.773437 0-6.828125-3.054688-6.828125-6.828125v-61.4375c0-3.769532 3.054688-6.828125 6.828125-6.828125 3.773438 0 6.828125 3.058593 6.828125 6.828125v61.4375c0 3.773437-3.054687 6.828125-6.828125 6.828125zm0 0"/><path d="m163.898438 389.121094h-95.570313c-3.773437 0-6.828125-3.058594-6.828125-6.828125s3.054688-6.828125 6.828125-6.828125h95.570313c3.773437 0 6.828124 3.058594 6.828124 6.828125s-3.054687 6.828125-6.828124 6.828125zm0 0"/><path d="m122.941406 78.507812c0 5.652344-4.585937 10.238282-10.242187 10.238282s-10.238281-4.585938-10.238281-10.238282c0-5.65625 4.582031-10.242187 10.238281-10.242187s10.242187 4.585937 10.242187 10.242187zm0 0"/><path d="m122.941406 37.546875c0 5.65625-4.585937 10.238281-10.242187 10.238281s-10.238281-4.582031-10.238281-10.238281 4.582031-10.238281 10.238281-10.238281 10.242187 4.582031 10.242187 10.238281zm0 0"/><path d="m81.980469 78.507812c0 5.652344-4.585938 10.238282-10.242188 10.238282-5.652343 0-10.238281-4.585938-10.238281-10.238282 0-5.65625 4.585938-10.242187 10.238281-10.242187 5.65625 0 10.242188 4.585937 10.242188 10.242187zm0 0"/><path d="m163.898438 78.507812c0 5.652344-4.582032 10.238282-10.238282 10.238282s-10.238281-4.585938-10.238281-10.238282c0-5.65625 4.582031-10.242187 10.238281-10.242187s10.238282 4.585937 10.238282 10.242187zm0 0"/><path d="m122.941406 119.464844c0 5.65625-4.585937 10.242187-10.242187 10.242187s-10.238281-4.585937-10.238281-10.242187c0-5.652344 4.582031-10.238282 10.238281-10.238282s10.242187 4.585938 10.242187 10.238282zm0 0"/><path d="m81.980469 119.464844c0 5.65625-4.585938 10.242187-10.242188 10.242187-5.652343 0-10.238281-4.585937-10.238281-10.242187 0-5.652344 4.585938-10.238282 10.238281-10.238282 5.65625 0 10.242188 4.585938 10.242188 10.238282zm0 0"/><path d="m163.898438 119.464844c0 5.65625-4.582032 10.242187-10.238282 10.242187s-10.238281-4.585937-10.238281-10.242187c0-5.652344 4.582031-10.238282 10.238281-10.238282s10.238282 4.585938 10.238282 10.238282zm0 0"/></g></svg>