<svg height="395pt" viewBox="0 -3 395.94782 395" width="395pt" xmlns="http://www.w3.org/2000/svg"><path d="m307.199219 208.691406c0 84.832032-68.769531 153.601563-153.597657 153.601563-84.832031 0-153.601562-68.769531-153.601562-153.601563 0-84.832031 68.769531-153.601562 153.601562-153.601562 84.828126 0 153.597657 68.769531 153.597657 153.601562zm0 0" fill="#ffe8dc"/><path d="m320.851562 7.304688h-181.464843c-9.117188 0-16.507813 7.390624-16.507813 16.507812v342.449219c0 9.117187 7.390625 16.507812 16.507813 16.507812h233.226562c9.113281 0 16.503907-7.390625 16.503907-16.507812v-290.691407zm0 0" fill="#fff"/><path d="m372.613281 389.597656h-233.226562c-12.867188 0-23.335938-10.46875-23.335938-23.332031v-342.453125c0-12.867188 10.46875-23.335938 23.335938-23.335938h181.464843c1.8125 0 3.546876.722657 4.828126 2l68.265624 68.269532c1.28125 1.277344 2 3.011718 2 4.824218v290.695313c0 12.863281-10.464843 23.332031-23.332031 23.332031zm-233.226562-375.464844c-5.339844 0-9.683594 4.339844-9.683594 9.679688v342.453125c0 5.339844 4.34375 9.679687 9.683594 9.679687h233.226562c5.339844 0 9.679688-4.339843 9.679688-9.679687v-287.867187l-64.269531-64.265626zm0 0" fill="#4c241d"/><path d="m389.121094 82.398438h-68.269532c-3.773437 0-6.824218-3.054688-6.824218-6.828126v-68.265624c0-2.761719 1.660156-5.253907 4.214844-6.304688 2.550781-1.0703125 5.484374-.472656 7.4375 1.476562l68.265624 68.269532c1.957032 1.953125 2.539063 4.882812 1.480469 7.4375-1.050781 2.554687-3.546875 4.214844-6.304687 4.214844zm-61.441406-13.652344h44.960937l-44.960937-44.960938zm0 0" fill="#4c241d"/><path d="m320.773438 328.15625h-225.125c-7.582032 0-13.730469-6.144531-13.730469-13.730469v-102.246093c0-7.582032 6.148437-13.730469 13.730469-13.730469h225.125c7.585937 0 13.734374 6.148437 13.734374 13.730469v102.246093c0 7.585938-6.148437 13.730469-13.734374 13.730469zm0 0" fill="#bd53b5"/><g fill="#4c241d"><path d="m320.773438 334.984375h-225.125c-11.335938 0-20.558594-9.21875-20.558594-20.558594v-102.242187c0-11.339844 9.222656-20.558594 20.558594-20.558594h225.121093c11.34375 0 20.5625 9.21875 20.5625 20.558594v102.242187c0 11.339844-9.21875 20.558594-20.558593 20.558594zm-225.125-129.707031c-3.804688 0-6.902344 3.101562-6.902344 6.90625v102.242187c0 3.804688 3.09375 6.90625 6.902344 6.90625h225.121093c3.808594 0 6.910157-3.101562 6.910157-6.90625v-102.242187c0-3.804688-3.101563-6.90625-6.910157-6.90625zm0 0"/><path d="m170.667969 307.675781c-3.769531 0-6.828125-3.050781-6.828125-6.824219v-47.789062l-8.195313 10.921875c-2.570312 3.441406-8.34375 3.441406-10.917969 0l-8.191406-10.921875v47.789062c0 3.773438-3.058594 6.824219-6.828125 6.824219s-6.828125-3.050781-6.828125-6.824219v-68.265624c0-2.941407 1.882813-5.546876 4.667969-6.476563 2.785156-.9375 5.859375.035156 7.621094 2.382813l15.019531 20.019531 15.019531-20.019531c1.757813-2.347657 4.835938-3.3125 7.621094-2.382813s4.664063 3.535156 4.664063 6.476563v68.265624c0 3.773438-3.054688 6.824219-6.824219 6.824219zm0 0"/><path d="m197.972656 307.675781c-3.773437 0-6.824218-3.050781-6.824218-6.824219v-68.265624c0-3.773438 3.050781-6.828126 6.824218-6.828126 3.773438 0 6.828125 3.054688 6.828125 6.828126v68.265624c0 3.773438-3.054687 6.824219-6.828125 6.824219zm0 0"/><path d="m259.414062 307.675781c-3.773437 0-6.828124-3.050781-6.828124-6.824219 0-3.773437 3.054687-6.828124 6.828124-6.828124 11.71875 0 20.480469-5.40625 20.480469-10.238282 0-3.488281-5.242187-8.054687-14.015625-9.667968-3.574218-.660157-6.164062-3.765626-6.164062-7.398438s2.59375-6.742188 6.160156-7.402344c8.777344-1.613281 14.019531-6.179687 14.019531-9.664062 0-4.835938-8.761719-10.242188-20.480469-10.242188-3.773437 0-6.828124-3.050781-6.828124-6.824218 0-3.773438 3.054687-6.828126 6.828124-6.828126 19.140626 0 34.132813 10.492188 34.132813 23.894532 0 6.683594-3.714844 12.726562-9.980469 17.066406 6.265625 4.339844 9.980469 10.378906 9.980469 17.066406 0 13.398438-14.996094 23.890625-34.132813 23.890625zm0 0"/><path d="m211.625 280.371094h-13.652344c-3.773437 0-6.824218-3.054688-6.824218-6.828125 0-3.773438 3.050781-6.824219 6.824218-6.824219h13.652344c7.527344 0 13.65625-6.128906 13.65625-13.65625 0-7.523438-6.128906-13.652344-13.65625-13.652344h-13.652344c-3.773437 0-6.824218-3.050781-6.824218-6.824218 0-3.773438 3.050781-6.828126 6.824218-6.828126h13.652344c15.0625 0 27.308594 12.246094 27.308594 27.304688 0 15.0625-12.246094 27.308594-27.308594 27.308594zm0 0"/><path d="m225.28125 82.398438h-47.789062c-3.769532 0-6.824219-3.054688-6.824219-6.828126 0-3.773437 3.054687-6.824218 6.824219-6.824218h47.789062c3.773438 0 6.824219 3.050781 6.824219 6.824218 0 3.773438-3.054688 6.828126-6.824219 6.828126zm0 0"/><path d="m341.332031 123.359375h-163.839843c-3.769532 0-6.824219-3.054687-6.824219-6.828125s3.054687-6.828125 6.824219-6.828125h163.839843c3.773438 0 6.828125 3.054687 6.828125 6.828125s-3.054687 6.828125-6.828125 6.828125zm0 0"/></g></svg>