<svg height="402pt" viewBox="0 -6 402.77333 402" width="402pt" xmlns="http://www.w3.org/2000/svg"><path d="m307.199219 153.988281c0 84.828125-68.769531 153.597657-153.597657 153.597657-84.832031 0-153.601562-68.769532-153.601562-153.597657 0-84.832031 68.769531-153.601562 153.601562-153.601562 84.828126 0 153.597657 68.769531 153.597657 153.601562zm0 0" fill="#ffe8dc"/><path d="m163.839844 102.785156h-78.375c-9.5 0-17.199219 7.699219-17.199219 17.199219v245.5c0 9.496094 7.699219 17.195313 17.199219 17.195313h293.285156c9.496094 0 17.199219-7.699219 17.199219-17.199219v-204.535157c0-9.5-7.699219-17.199218-17.199219-17.199218h-173.949219c0-22.621094-18.339843-40.960938-40.960937-40.960938zm0 0" fill="#fff"/><path d="m378.746094 389.507812h-293.28125c-13.246094 0-24.023438-10.777343-24.023438-24.023437v-245.5c0-13.25 10.777344-24.023437 24.023438-24.023437h78.375c24.035156 0 43.980468 17.832031 47.300781 40.960937h167.605469c13.246094 0 24.027344 10.773437 24.027344 24.019531v204.542969c0 13.246094-10.78125 24.023437-24.027344 24.023437zm-293.28125-279.894531c-5.71875 0-10.371094 4.652344-10.371094 10.371094v245.5c0 5.714844 4.652344 10.367187 10.371094 10.367187h293.28125c5.722656 0 10.375-4.652343 10.375-10.367187v-204.542969c0-5.714844-4.65625-10.367187-10.375-10.367187h-173.945313c-3.773437 0-6.828125-3.058594-6.828125-6.828125 0-18.820313-15.3125-34.132813-34.132812-34.132813zm126.160156 34.132813h.066406zm0 0" fill="#4c241d"/><path d="m204.800781 317.828125c0-13.199219-15.28125-23.894531-34.132812-23.894531-18.851563 0-34.132813 10.695312-34.132813 23.894531 0 13.195313 15.28125 23.890625 34.132813 23.890625 18.851562 0 34.132812-10.695312 34.132812-23.890625zm0 0" fill="#fc8c29"/><path d="m170.667969 348.546875c-22.96875 0-40.960938-13.492187-40.960938-30.71875 0-17.230469 17.992188-30.722656 40.960938-30.722656 22.964843 0 40.957031 13.492187 40.957031 30.722656 0 17.226563-17.992188 30.71875-40.957031 30.71875zm0-47.785156c-14.800781 0-27.308594 7.816406-27.308594 17.066406s12.507813 17.066406 27.308594 17.066406 27.304687-7.816406 27.304687-17.066406-12.503906-17.066406-27.304687-17.066406zm0 0" fill="#4c241d"/><path d="m307.199219 290.519531c0-13.195312-15.28125-23.894531-34.132813-23.894531-18.851562 0-34.132812 10.699219-34.132812 23.894531 0 13.195313 15.28125 23.894531 34.132812 23.894531 18.851563 0 34.132813-10.699218 34.132813-23.894531zm0 0" fill="#fc8c29"/><g fill="#4c241d"><path d="m273.066406 321.238281c-22.964844 0-40.960937-13.492187-40.960937-30.71875 0-17.226562 17.996093-30.71875 40.960937-30.71875 22.96875 0 40.960938 13.492188 40.960938 30.71875 0 17.226563-17.992188 30.71875-40.960938 30.71875zm0-47.785156c-14.800781 0-27.304687 7.816406-27.304687 17.066406s12.503906 17.066407 27.304687 17.066407c14.800782 0 27.308594-7.816407 27.308594-17.066407s-12.507812-17.066406-27.308594-17.066406zm0 0"/><path d="m204.800781 321.238281c-3.773437 0-6.828125-3.054687-6.828125-6.824219v-102.402343c0-3.089844 2.082032-5.796875 5.066406-6.59375l102.402344-27.308594c2.058594-.53125 4.238282-.105469 5.917969 1.183594 1.679687 1.292969 2.667969 3.292969 2.667969 5.414062v102.398438c0 3.769531-3.054688 6.828125-6.828125 6.828125-3.773438 0-6.824219-3.058594-6.824219-6.828125v-93.511719l-88.75 23.664062v97.15625c0 3.769532-3.050781 6.824219-6.824219 6.824219zm0 0"/><path d="m204.792969 252.976562c-3.015625 0-5.773438-2.015624-6.585938-5.070312-.972656-3.644531 1.191407-7.382812 4.832031-8.355469l102.402344-27.308593c3.640625-.960938 7.386719 1.195312 8.351563 4.839843.972656 3.640625-1.191407 7.382813-4.832031 8.355469l-102.398438 27.304688c-.59375.15625-1.183594.234374-1.769531.234374zm0 0"/><path d="m211.625 150.574219h-102.398438c-3.773437 0-6.828124-3.058594-6.828124-6.828125 0-3.769532 3.054687-6.824219 6.828124-6.824219h102.398438c3.773438 0 6.828125 3.054687 6.828125 6.824219 0 3.769531-3.054687 6.828125-6.828125 6.828125zm0 0"/></g></svg>