<svg height="395pt" viewBox="-6 0 395 395.94667" width="395pt" xmlns="http://www.w3.org/2000/svg"><path d="m307.671875 194.558594c0 84.832031-68.769531 153.601562-153.597656 153.601562-84.832031 0-153.601563-68.769531-153.601563-153.601562 0-84.828125 68.769532-153.597656 153.601563-153.597656 84.828125 0 153.597656 68.769531 153.597656 153.597656zm0 0" fill="#ffe8dc"/><path d="m157.488281 6.828125-68.269531 68.265625v296.390625c0 9.738281 7.898438 17.636719 17.636719 17.636719h251.449219c9.738281 0 17.636718-7.898438 17.636718-17.636719v-347.019531c0-9.742188-7.898437-17.636719-17.636718-17.636719zm0 0" fill="#fff"/><path d="m358.300781 395.945312h-251.441406c-13.492187 0-24.464844-10.972656-24.464844-24.460937v-296.390625c0-1.8125.71875-3.546875 2-4.828125l68.265625-68.265625c1.28125-1.28125 3.015625-2 4.828125-2h200.8125c13.492188 0 24.464844 10.972656 24.464844 24.464844v347.019531c0 13.488281-10.972656 24.460937-24.464844 24.460937zm-262.253906-318.027343v293.566406c0 5.957031 4.855469 10.808594 10.8125 10.808594h251.441406c5.957031 0 10.8125-4.851563 10.8125-10.808594v-347.019531c0-5.960938-4.855469-10.8125-10.8125-10.8125h-197.988281zm0 0" fill="#4c241d"/><path d="m205.273438 269.652344c0-13.195313-15.28125-23.890625-34.132813-23.890625s-34.132813 10.695312-34.132813 23.890625c0 13.195312 15.28125 23.894531 34.132813 23.894531s34.132813-10.699219 34.132813-23.894531zm0 0" fill="#fc8c29"/><path d="m171.140625 300.375c-22.96875 0-40.960937-13.496094-40.960937-30.722656 0-17.226563 17.992187-30.71875 40.960937-30.71875 22.964844 0 40.960937 13.492187 40.960937 30.71875 0 17.226562-17.996093 30.722656-40.960937 30.722656zm0-47.789062c-14.800781 0-27.308594 7.816406-27.308594 17.066406s12.507813 17.066406 27.308594 17.066406 27.304687-7.816406 27.304687-17.066406-12.503906-17.066406-27.304687-17.066406zm0 0" fill="#4c241d"/><path d="m307.671875 256c0-13.195312-15.28125-23.894531-34.132813-23.894531-18.851562 0-34.132812 10.699219-34.132812 23.894531s15.28125 23.894531 34.132812 23.894531c18.851563 0 34.132813-10.699219 34.132813-23.894531zm0 0" fill="#fc8c29"/><g fill="#4c241d"><path d="m273.539062 286.71875c-22.964843 0-40.960937-13.492188-40.960937-30.71875s17.996094-30.71875 40.960937-30.71875c22.96875 0 40.960938 13.492188 40.960938 30.71875s-17.992188 30.71875-40.960938 30.71875zm0-47.785156c-14.800781 0-27.304687 7.816406-27.304687 17.066406s12.503906 17.066406 27.304687 17.066406c14.800782 0 27.308594-7.816406 27.308594-17.066406s-12.507812-17.066406-27.308594-17.066406zm0 0"/><path d="m205.273438 273.066406c-3.773438 0-6.828126-3.054687-6.828126-6.828125v-102.398437c0-3.09375 2.082032-5.800782 5.070313-6.597656l102.398437-27.304688c2.054688-.539062 4.238282-.105469 5.921876 1.183594 1.675781 1.292968 2.664062 3.292968 2.664062 5.414062v116.050782c0 3.769531-3.054688 6.828124-6.828125 6.828124s-6.824219-3.058593-6.824219-6.828124v-107.164063l-88.746094 23.660156v97.15625c0 3.773438-3.054687 6.828125-6.828124 6.828125zm0 0"/><path d="m205.265625 204.804688c-3.011719 0-5.773437-2.019532-6.585937-5.070313-.972657-3.644531 1.195312-7.382813 4.835937-8.355469l102.398437-27.308594c3.648438-.960937 7.378907 1.191407 8.355469 4.835938.972657 3.644531-1.195312 7.382812-4.835937 8.355469l-102.398438 27.308593c-.59375.15625-1.179687.234376-1.769531.234376zm0 0"/><path d="m139.847656 81.921875h-50.628906c-2.757812 0-5.25-1.664063-6.304688-4.214844-1.058593-2.554687-.472656-5.488281 1.480469-7.441406l68.265625-68.265625c1.953125-1.9570312 4.894532-2.53125 7.4375-1.480469 2.554688 1.058594 4.214844 3.546875 4.214844 6.308594v50.628906c0 13.488281-10.972656 24.464844-24.464844 24.464844zm-34.148437-13.65625h34.148437c5.957032 0 10.8125-4.847656 10.8125-10.808594v-34.152343zm0 0"/></g></svg>