<svg height="416pt" viewBox="0 -18 416.42667 416" width="416pt" xmlns="http://www.w3.org/2000/svg"><path d="m307.199219 153.8125c0 84.832031-68.769531 153.601562-153.597657 153.601562-84.832031 0-153.601562-68.769531-153.601562-153.601562s68.769531-153.597656 153.601562-153.597656c84.828126 0 153.597657 68.765625 153.597657 153.597656zm0 0" fill="#ffe8dc"/><path d="m183.917969 338.132812c0-19.28125-21.214844-34.914062-47.382813-34.914062-26.171875 0-47.386718 15.632812-47.386718 34.914062s21.214843 34.914063 47.386718 34.914063c26.167969 0 47.382813-15.632813 47.382813-34.914063zm0 0" fill="#fc8c29"/><path d="m136.535156 379.875c-29.890625 0-54.210937-18.726562-54.210937-41.738281 0-23.015625 24.320312-41.742188 54.210937-41.742188s54.207032 18.726563 54.207032 41.742188c0 23.011719-24.316407 41.738281-54.207032 41.738281zm0-69.828125c-22.367187 0-40.558594 12.601563-40.558594 28.085937 0 15.488282 18.191407 28.085938 40.558594 28.085938 22.363282 0 40.554688-12.597656 40.554688-28.085938 0-15.484374-18.191406-28.085937-40.554688-28.085937zm0 0" fill="#4c241d"/><path d="m361.410156 242.558594c0-19.28125-21.214844-34.910156-47.382812-34.910156-26.171875 0-47.382813 15.628906-47.382813 34.910156 0 19.285156 21.210938 34.914062 47.382813 34.914062 26.167968 0 47.382812-15.628906 47.382812-34.914062zm0 0" fill="#fc8c29"/><g fill="#4c241d"><path d="m314.027344 284.300781c-29.890625 0-54.210938-18.726562-54.210938-41.738281s24.320313-41.742188 54.210938-41.742188 54.210937 18.730469 54.210937 41.742188-24.320312 41.738281-54.210937 41.738281zm0-69.828125c-22.363282 0-40.558594 12.601563-40.558594 28.085938 0 15.488281 18.195312 28.089844 40.558594 28.089844 22.363281 0 40.554687-12.601563 40.554687-28.089844 0-15.484375-18.191406-28.085938-40.554687-28.085938zm0 0"/><path d="m184.320312 341.546875c-3.769531 0-6.828124-3.054687-6.828124-6.828125v-238.933594c0-3.773437 3.058593-6.824218 6.828124-6.824218 3.769532 0 6.828126 3.050781 6.828126 6.824218v238.933594c0 3.773438-3.058594 6.828125-6.828126 6.828125zm0 0"/><path d="m361.8125 245.972656c-3.769531 0-6.824219-3.050781-6.824219-6.824218v-143.363282h-163.839843v47.789063h88.746093c3.769531 0 6.824219 3.050781 6.824219 6.824219 0 3.773437-3.054688 6.828124-6.824219 6.828124h-95.574219c-3.769531 0-6.828124-3.054687-6.828124-6.828124v-61.4375c0-3.773438 3.058593-6.828126 6.828124-6.828126h177.492188c3.769531 0 6.828125 3.054688 6.828125 6.828126v150.1875c0 3.773437-3.058594 6.824218-6.828125 6.824218zm0 0"/><path d="m409.601562 341.546875h-189.441406c-3.769531 0-6.828125-3.054687-6.828125-6.828125s3.058594-6.824219 6.828125-6.824219h189.441406c3.769532 0 6.824219 3.050781 6.824219 6.824219s-3.054687 6.828125-6.824219 6.828125zm0 0"/><path d="m54.613281 341.546875h-47.785156c-3.773437 0-6.828125-3.054687-6.828125-6.828125s3.054688-6.824219 6.828125-6.824219h47.785156c3.769531 0 6.828125 3.050781 6.828125 6.824219s-3.058594 6.828125-6.828125 6.828125zm0 0"/><path d="m146.300781 245.972656h-139.472656c-3.773437 0-6.828125-3.050781-6.828125-6.824218 0-3.773438 3.054688-6.828126 6.828125-6.828126h139.472656c3.769531 0 6.828125 3.054688 6.828125 6.828126 0 3.773437-3.058594 6.824218-6.828125 6.824218zm0 0"/><path d="m146.773438 157.226562h-139.945313c-3.773437 0-6.828125-3.054687-6.828125-6.828124 0-3.773438 3.054688-6.824219 6.828125-6.824219h139.945313c3.769531 0 6.828124 3.050781 6.828124 6.824219 0 3.773437-3.058593 6.828124-6.828124 6.828124zm0 0"/></g></svg>