<svg height="423pt" viewBox="0 -3 423.25333 423" width="423pt" xmlns="http://www.w3.org/2000/svg"><path d="m307.199219 153.726562c0 84.832032-68.769531 153.601563-153.597657 153.601563-84.832031 0-153.601562-68.769531-153.601562-153.601563 0-84.832031 68.769531-153.601562 153.601562-153.601562 84.828126 0 153.597657 68.769531 153.597657 153.601562zm0 0" fill="#ffe8dc"/><path d="m119.464844 409.726562c-13.195313 0-23.890625-10.699218-23.890625-23.894531v-314.425781c0-9.203125 7.460937-16.667969 16.667969-16.667969h14.449218c9.207032 0 16.667969 7.464844 16.667969 16.667969v314.425781c0 13.195313-10.695313 23.894531-23.894531 23.894531zm0 0" fill="#ffce56"/><path d="m119.464844 416.554688c-16.9375 0-30.71875-13.78125-30.71875-30.722657v-314.425781c0-12.953125 10.539062-23.492188 23.496094-23.492188h14.453124c12.949219 0 23.492188 10.539063 23.492188 23.492188v314.425781c0 16.941407-13.78125 30.722657-30.722656 30.722657zm-7.222656-354.988282c-5.429688 0-9.84375 4.414063-9.84375 9.839844v314.425781c0 9.414063 7.652343 17.066407 17.066406 17.066407 9.414062 0 17.070312-7.652344 17.070312-17.066407v-314.425781c0-5.425781-4.414062-9.839844-9.84375-9.839844zm0 0" fill="#4c241d"/><path d="m167.253906 375.59375c-13.195312 0-23.894531-10.699219-23.894531-23.894531v-280.292969c0-9.203125 7.460937-16.667969 16.667969-16.667969h14.453125c9.203125 0 16.667969 7.464844 16.667969 16.667969v280.292969c0 13.195312-10.699219 23.894531-23.894532 23.894531zm0 0" fill="#fff"/><path d="m167.253906 382.421875c-16.941406 0-30.71875-13.78125-30.71875-30.722656v-280.292969c0-12.953125 10.539063-23.492188 23.492188-23.492188h14.453125c12.953125 0 23.492187 10.539063 23.492187 23.492188v280.292969c0 16.941406-13.777344 30.722656-30.71875 30.722656zm-7.226562-320.855469c-5.425782 0-9.839844 4.414063-9.839844 9.839844v280.292969c0 9.414062 7.652344 17.066406 17.066406 17.066406 9.414063 0 17.066406-7.652344 17.066406-17.066406v-280.292969c0-5.425781-4.414062-9.839844-9.839843-9.839844zm0 0" fill="#4c241d"/><path d="m215.039062 334.632812c-13.195312 0-23.890624-10.695312-23.890624-23.894531v-239.332031c0-9.203125 7.460937-16.667969 16.664062-16.667969h14.453125c9.207031 0 16.667969 7.464844 16.667969 16.667969v239.332031c0 13.199219-10.699219 23.894531-23.894532 23.894531zm0 0" fill="#fc8c29"/><path d="m215.039062 341.460938c-16.9375 0-30.71875-13.78125-30.71875-30.722657v-239.332031c0-12.953125 10.539063-23.492188 23.492188-23.492188h14.457031c12.949219 0 23.492188 10.539063 23.492188 23.492188v239.332031c0 16.941407-13.78125 30.722657-30.722657 30.722657zm-7.226562-279.894532c-5.425781 0-9.839844 4.414063-9.839844 9.839844v239.332031c0 9.414063 7.652344 17.070313 17.066406 17.070313 9.414063 0 17.066407-7.65625 17.066407-17.070313v-239.332031c0-5.425781-4.414063-9.839844-9.839844-9.839844zm0 0" fill="#4c241d"/><path d="m262.828125 293.671875c-13.199219 0-23.894531-10.695313-23.894531-23.890625v-198.375c0-9.203125 7.460937-16.667969 16.667968-16.667969h14.449219c9.207031 0 16.667969 7.464844 16.667969 16.667969v198.375c0 13.195312-10.695312 23.890625-23.890625 23.890625zm0 0" fill="#ffce56"/><path d="m262.828125 300.5c-16.941406 0-30.722656-13.78125-30.722656-30.71875v-198.375c0-12.953125 10.542969-23.492188 23.496093-23.492188h14.453126c12.953124 0 23.492187 10.539063 23.492187 23.492188v198.375c0 16.9375-13.78125 30.71875-30.71875 30.71875zm-7.226563-238.933594c-5.429687 0-9.839843 4.414063-9.839843 9.839844v198.375c0 9.414062 7.652343 17.066406 17.066406 17.066406s17.066406-7.652344 17.066406-17.066406v-198.375c0-5.425781-4.414062-9.839844-9.84375-9.839844zm0 0" fill="#4c241d"/><path d="m310.613281 252.714844c-13.195312 0-23.894531-10.699219-23.894531-23.894532v-157.414062c0-9.203125 7.460938-16.667969 16.667969-16.667969h14.453125c9.207031 0 16.667968 7.464844 16.667968 16.667969v157.414062c0 13.195313-10.699218 23.894532-23.894531 23.894532zm0 0" fill="#fff"/><path d="m310.613281 259.539062c-16.941406 0-30.71875-13.777343-30.71875-30.71875v-157.414062c0-12.953125 10.539063-23.492188 23.492188-23.492188h14.453125c12.953125 0 23.492187 10.539063 23.492187 23.492188v157.414062c0 16.941407-13.777343 30.71875-30.71875 30.71875zm-7.226562-197.972656c-5.425781 0-9.839844 4.414063-9.839844 9.839844v157.414062c0 9.414063 7.652344 17.066407 17.066406 17.066407 9.414063 0 17.066407-7.652344 17.066407-17.066407v-157.414062c0-5.425781-4.414063-9.839844-9.839844-9.839844zm0 0" fill="#4c241d"/><path d="m358.398438 218.578125c-13.195313 0-23.890626-10.695313-23.890626-23.890625v-123.28125c0-9.203125 7.460938-16.667969 16.667969-16.667969h14.449219c9.207031 0 16.667969 7.464844 16.667969 16.667969v123.28125c0 13.195312-10.695313 23.890625-23.894531 23.890625zm0 0" fill="#ffce56"/><path d="m358.398438 225.40625c-16.9375 0-30.71875-13.777344-30.71875-30.71875v-123.28125c0-12.953125 10.539062-23.492188 23.496093-23.492188h14.453125c12.949219 0 23.492188 10.539063 23.492188 23.492188v123.28125c0 16.941406-13.78125 30.71875-30.722656 30.71875zm-7.222657-163.839844c-5.429687 0-9.84375 4.414063-9.84375 9.839844v123.28125c0 9.414062 7.652344 17.066406 17.066407 17.066406 9.414062 0 17.066406-7.652344 17.066406-17.066406v-123.28125c0-5.425781-4.410156-9.839844-9.839844-9.839844zm0 0" fill="#4c241d"/><path d="m399.359375 136.660156h-320.851563c-9.425781 0-17.066406-7.640625-17.066406-17.066406s7.640625-17.066406 17.066406-17.066406h320.851563c9.425781 0 17.066406 7.640625 17.066406 17.066406s-7.640625 17.066406-17.066406 17.066406zm0 0" fill="#bd53b5"/><path d="m399.359375 143.488281h-320.851563c-13.175781 0-23.894531-10.722656-23.894531-23.894531 0-13.175781 10.71875-23.894531 23.894531-23.894531h320.851563c13.175781 0 23.894531 10.71875 23.894531 23.894531 0 13.171875-10.71875 23.894531-23.894531 23.894531zm-320.851563-34.136719c-5.648437 0-10.242187 4.59375-10.242187 10.242188s4.59375 10.238281 10.242187 10.238281h320.851563c5.648437 0 10.242187-4.589843 10.242187-10.238281s-4.59375-10.242188-10.242187-10.242188zm0 0" fill="#4c241d"/></svg>