<svg height="400pt" viewBox="0 0 400 400.72021" width="400pt" xmlns="http://www.w3.org/2000/svg"><path d="m307.558594 199.332031c0 84.832031-68.765625 153.601563-153.597656 153.601563-84.832032 0-153.601563-68.769532-153.601563-153.601563 0-84.828125 68.769531-153.597656 153.601563-153.597656 84.832031 0 153.597656 68.769531 153.597656 153.597656zm0 0" fill="#ffe8dc"/><path d="m367.304688 393.894531h-283.328126c-8.480468 0-15.351562-6.871093-15.351562-15.347656v-180.929687c0-8.476563 6.871094-15.347657 15.351562-15.347657h283.328126c8.476562 0 15.347656 6.871094 15.347656 15.347657v180.929687c0 8.476563-6.871094 15.347656-15.347656 15.347656zm0 0" fill="#fff"/><path d="m367.308594 400.71875h-283.335938c-12.226562 0-22.171875-9.945312-22.171875-22.171875v-180.933594c0-12.226562 9.945313-22.171875 22.171875-22.171875h283.335938c12.226562 0 22.171875 9.945313 22.171875 22.171875v180.9375c0 12.222657-9.945313 22.167969-22.171875 22.167969zm-283.335938-211.625c-4.699218 0-8.519531 3.820312-8.519531 8.519531v180.933594c0 4.699219 3.820313 8.519531 8.519531 8.519531h283.335938c4.699218 0 8.519531-3.820312 8.519531-8.519531v-180.933594c0-4.699219-3.820313-8.519531-8.519531-8.519531zm0 0" fill="#4c241d"/><path d="m307.558594 154.960938h40.960937v27.304687h-40.960937zm0 0" fill="#bd53b5"/><path d="m348.519531 189.09375h-40.960937c-3.773438 0-6.824219-3.054688-6.824219-6.828125v-27.304687c0-3.773438 3.050781-6.828126 6.824219-6.828126h40.960937c3.773438 0 6.828125 3.054688 6.828125 6.828126v27.304687c0 3.773437-3.054687 6.828125-6.828125 6.828125zm-34.132812-13.652344h27.308593v-13.65625h-27.308593zm0 0" fill="#4c241d"/><path d="m328.644531 161.71875c-3.773437 0-6.824219-3.050781-6.824219-6.824219v-47.722656c0-3.773437 3.050782-6.824219 6.824219-6.824219 3.773438 0 6.828125 3.050782 6.828125 6.824219v47.722656c0 3.773438-3.054687 6.824219-6.828125 6.824219zm0 0" fill="#4c241d"/><path d="m344.035156 100.347656c0 8.832032-7.164062 15.992188-15.996094 15.992188-8.832031 0-15.992187-7.160156-15.992187-15.992188 0-8.832031 7.160156-15.992187 15.992187-15.992187 8.832032 0 15.996094 7.160156 15.996094 15.992187zm0 0" fill="#ffce56"/><path d="m328.039062 123.167969c-12.578124 0-22.820312-10.238281-22.820312-22.820313 0-12.578125 10.242188-22.820312 22.820312-22.820312 12.582032 0 22.820313 10.242187 22.820313 22.820312 0 12.582032-10.238281 22.820313-22.820313 22.820313zm0-31.988281c-5.050781 0-9.164062 4.113281-9.164062 9.167968 0 5.050782 4.113281 9.164063 9.164062 9.164063 5.054688 0 9.167969-4.113281 9.167969-9.164063 0-5.054687-4.113281-9.167968-9.167969-9.167968zm0 0" fill="#4c241d"/><path d="m394.171875 41.039062c-1.746094 0-3.492187-.667968-4.824219-2-16.382812-16.371093-38.152344-25.386718-61.308594-25.386718-23.152343 0-44.925781 9.015625-61.304687 25.386718-2.667969 2.667969-6.988281 2.667969-9.652344 0-2.667969-2.664062-2.667969-6.984374 0-9.652343 18.957031-18.953125 44.160157-29.386719 70.957031-29.386719 26.800782 0 52 10.433594 70.960938 29.386719 2.664062 2.667969 2.664062 6.988281 0 9.652343-1.332031 1.335938-3.082031 2-4.828125 2zm0 0" fill="#4c241d"/><path d="m375.347656 59.867188c-1.746094 0-3.492187-.667969-4.828125-2-11.34375-11.34375-26.429687-17.59375-42.480469-17.59375-16.046874 0-31.132812 6.246093-42.480468 17.59375-2.664063 2.667968-6.984375 2.667968-9.652344 0-2.664062-2.664063-2.664062-6.988282 0-9.652344 13.925781-13.925782 32.441406-21.59375 52.132812-21.59375 19.695313 0 38.207032 7.667968 52.132813 21.59375 2.667969 2.664062 2.667969 6.988281 0 9.652344-1.332031 1.332031-3.078125 2-4.824219 2zm0 0" fill="#4c241d"/><path d="m356.085938 79.128906c-1.746094 0-3.492188-.667968-4.824219-2-6.207031-6.203125-14.453125-9.613281-23.21875-9.613281s-17.015625 3.410156-23.21875 9.613281c-2.667969 2.664063-6.988281 2.664063-9.65625 0-2.664063-2.667968-2.664063-6.996094 0-9.652344 8.789062-8.78125 20.460937-13.617187 32.875-13.617187 12.414062 0 24.085937 4.835937 32.875 13.617187 2.664062 2.660157 2.664062 6.984376 0 9.652344-1.339844 1.332032-3.085938 2-4.832031 2zm0 0" fill="#4c241d"/><path d="m348.519531 332.453125c0 18.851563-15.28125 34.132813-34.132812 34.132813-18.851563 0-34.132813-15.28125-34.132813-34.132813s15.28125-34.132813 34.132813-34.132813c18.851562 0 34.132812 15.28125 34.132812 34.132813zm0 0" fill="#bd53b5"/><g fill="#4c241d"><path d="m314.386719 373.414062c-22.585938 0-40.960938-18.375-40.960938-40.960937s18.375-40.960937 40.960938-40.960937c22.585937 0 40.960937 18.375 40.960937 40.960937s-18.375 40.960937-40.960937 40.960937zm0-68.265624c-15.058594 0-27.304688 12.246093-27.304688 27.304687s12.246094 27.308594 27.304688 27.308594c15.058593 0 27.308593-12.25 27.308593-27.308594s-12.25-27.304687-27.308593-27.304687zm0 0"/><path d="m314.386719 332.453125c-3.773438 0-6.828125-3.054687-6.828125-6.828125v-27.304688c0-3.773437 3.054687-6.828124 6.828125-6.828124 3.773437 0 6.828125 3.054687 6.828125 6.828124v27.304688c0 3.773438-3.054688 6.828125-6.828125 6.828125zm0 0"/><path d="m102.761719 257.359375c-3.773438 0-6.828125-3.050781-6.828125-6.824219v-34.136718c0-3.773438 3.054687-6.824219 6.828125-6.824219 3.773437 0 6.824219 3.050781 6.824219 6.824219v34.136718c0 3.773438-3.050782 6.824219-6.824219 6.824219zm0 0"/><path d="m177.851562 257.359375c-3.773437 0-6.824218-3.050781-6.824218-6.824219v-34.136718c0-3.773438 3.050781-6.824219 6.824218-6.824219 3.773438 0 6.828126 3.050781 6.828126 6.824219v34.136718c0 3.773438-3.054688 6.824219-6.828126 6.824219zm0 0"/><path d="m136.894531 284.667969c-3.773437 0-6.828125-3.054688-6.828125-6.828125v-61.441406c0-3.773438 3.054688-6.824219 6.828125-6.824219 3.773438 0 6.824219 3.050781 6.824219 6.824219v61.441406c0 3.773437-3.050781 6.828125-6.824219 6.828125zm0 0"/><path d="m218.8125 284.667969c-3.773438 0-6.824219-3.054688-6.824219-6.828125v-61.441406c0-3.773438 3.050781-6.824219 6.824219-6.824219s6.828125 3.050781 6.828125 6.824219v61.441406c0 3.773437-3.054687 6.828125-6.828125 6.828125zm0 0"/></g><path d="m280.253906 230.054688c0 7.539062-6.113281 13.652343-13.652344 13.652343-7.542968 0-13.65625-6.113281-13.65625-13.652343 0-7.542969 6.113282-13.65625 13.65625-13.65625 7.539063 0 13.652344 6.113281 13.652344 13.65625zm0 0" fill="#fc8c29"/><path d="m266.601562 250.535156c-11.292968 0-20.480468-9.1875-20.480468-20.480468 0-11.292969 9.1875-20.480469 20.480468-20.480469 11.292969 0 20.480469 9.1875 20.480469 20.480469 0 11.292968-9.1875 20.480468-20.480469 20.480468zm0-27.308594c-3.769531 0-6.828124 3.058594-6.828124 6.828126 0 3.765624 3.058593 6.824218 6.828124 6.824218 3.765626 0 6.824219-3.058594 6.824219-6.824218 0-3.769532-3.058593-6.828126-6.824219-6.828126zm0 0" fill="#4c241d"/><path d="m348.519531 230.054688c0 7.539062-6.113281 13.652343-13.652343 13.652343-7.539063 0-13.652344-6.113281-13.652344-13.652343 0-7.542969 6.113281-13.65625 13.652344-13.65625 7.539062 0 13.652343 6.113281 13.652343 13.65625zm0 0" fill="#a9ba5a"/><path d="m334.867188 250.535156c-11.292969 0-20.480469-9.1875-20.480469-20.480468 0-11.292969 9.1875-20.480469 20.480469-20.480469 11.292968 0 20.480468 9.1875 20.480468 20.480469 0 11.292968-9.1875 20.480468-20.480468 20.480468zm0-27.308594c-3.765626 0-6.828126 3.058594-6.828126 6.828126 0 3.765624 3.0625 6.824218 6.828126 6.824218 3.765624 0 6.828124-3.058594 6.828124-6.824218 0-3.769532-3.0625-6.828126-6.828124-6.828126zm0 0" fill="#4c241d"/><path d="m242.707031 325.625h-136.535156c-5.65625 0-10.238281-4.582031-10.238281-10.238281s4.582031-10.238281 10.238281-10.238281h136.535156c5.65625 0 10.238281 4.582031 10.238281 10.238281s-4.582031 10.238281-10.238281 10.238281zm0 0" fill="#ffce56"/><path d="m242.707031 332.453125h-136.535156c-9.414063 0-17.066406-7.652344-17.066406-17.066406 0-9.414063 7.652343-17.066407 17.066406-17.066407h136.535156c9.414063 0 17.066407 7.652344 17.066407 17.066407 0 9.414062-7.652344 17.066406-17.066407 17.066406zm-136.535156-20.480469c-1.878906 0-3.410156 1.535156-3.410156 3.414063 0 1.882812 1.53125 3.414062 3.410156 3.414062h136.535156c1.878907 0 3.414063-1.53125 3.414063-3.414062 0-1.878907-1.535156-3.414063-3.414063-3.414063zm0 0" fill="#4c241d"/><path d="m242.707031 366.585938h-136.535156c-5.65625 0-10.238281-4.582032-10.238281-10.238282s4.582031-10.242187 10.238281-10.242187h136.535156c5.65625 0 10.238281 4.585937 10.238281 10.242187s-4.582031 10.238282-10.238281 10.238282zm0 0" fill="#fc8c29"/><path d="m242.707031 373.414062h-136.535156c-9.414063 0-17.066406-7.652343-17.066406-17.066406 0-9.414062 7.652343-17.066406 17.066406-17.066406h136.535156c9.414063 0 17.066407 7.652344 17.066407 17.066406 0 9.414063-7.652344 17.066406-17.066407 17.066406zm-136.535156-20.480468c-1.878906 0-3.410156 1.53125-3.410156 3.414062 0 1.878906 1.53125 3.414063 3.410156 3.414063h136.535156c1.878907 0 3.414063-1.535157 3.414063-3.414063 0-1.882812-1.535156-3.414062-3.414063-3.414062zm0 0" fill="#4c241d"/></svg>