<svg height="423pt" viewBox="0 -45 423.25333 423" width="423pt" xmlns="http://www.w3.org/2000/svg"><path d="m307.199219 153.726562c0 84.832032-68.769531 153.601563-153.597657 153.601563-84.832031 0-153.601562-68.769531-153.601562-153.601563 0-84.832031 68.769531-153.601562 153.601562-153.601562 84.828126 0 153.597657 68.769531 153.597657 153.601562zm0 0" fill="#ffe8dc"/><path d="m400.78125 327.171875h-330.523438c-8.640624 0-15.644531-7.007813-15.644531-15.648437v-240.503907c0-8.640625 7.003907-15.644531 15.644531-15.644531h330.523438c8.640625 0 15.644531 7.003906 15.644531 15.644531v240.503907c0 8.640624-7.003906 15.648437-15.644531 15.648437zm0 0" fill="#fff"/><path d="m400.78125 333.996094h-330.519531c-12.394531 0-22.476563-10.082032-22.476563-22.472656v-240.503907c0-12.390625 10.082032-22.46875 22.476563-22.46875h330.519531c12.390625 0 22.472656 10.078125 22.472656 22.46875v240.507813c0 12.386718-10.082031 22.46875-22.472656 22.46875zm-330.519531-271.792969c-4.863281 0-8.820313 3.957031-8.820313 8.816406v240.507813c0 4.859375 3.957032 8.816406 8.820313 8.816406h330.519531c4.859375 0 8.820312-3.957031 8.820312-8.816406v-240.507813c0-4.859375-3.960937-8.816406-8.820312-8.816406zm0 0" fill="#4c241d"/><path d="m311.8125 193.65625c0 63.203125-51.234375 114.441406-114.441406 114.441406-63.203125 0-114.4375-51.238281-114.4375-114.441406s51.234375-114.441406 114.4375-114.441406c63.207031 0 114.441406 51.238281 114.441406 114.441406zm0 0" fill="#bd53b5"/><path d="m197.371094 314.921875c-66.867188 0-121.265625-54.398437-121.265625-121.265625s54.398437-121.269531 121.265625-121.269531c66.867187 0 121.269531 54.402343 121.269531 121.269531s-54.402344 121.265625-121.269531 121.265625zm0-228.878906c-59.339844 0-107.613282 48.277343-107.613282 107.613281s48.273438 107.613281 107.613282 107.613281c59.34375 0 107.617187-48.277343 107.617187-107.613281s-48.273437-107.613281-107.617187-107.613281zm0 0" fill="#4c241d"/><path d="m197.972656 288.503906c-3.746094 0-6.796875-3.027344-6.824218-6.78125-.027344-3.769531 3.011718-6.847656 6.777343-6.875 44.480469-.300781 80.667969-36.722656 80.667969-81.191406 0-3.769531 3.054688-6.828125 6.828125-6.828125s6.824219 3.058594 6.824219 6.828125c0 51.945312-42.273438 94.496094-94.226563 94.847656-.011719 0-.03125 0-.046875 0zm0 0" fill="#4c241d"/><path d="m197.972656 258.84375c-3.738281 0-6.785156-3.011719-6.824218-6.757812-.042969-3.769532 2.984374-6.859376 6.757812-6.898438 28.132812-.285156 51.027344-23.40625 51.027344-51.53125 0-3.769531 3.050781-6.828125 6.824218-6.828125 3.773438 0 6.828126 3.058594 6.828126 6.828125 0 35.582031-28.953126 64.820312-64.546876 65.1875-.019531 0-.046874 0-.066406 0zm0 0" fill="#4c241d"/><path d="m265.039062 163.804688c-2.417968 0-4.765624-1.289063-6.007812-3.566407-5.367188-9.875-13.132812-18.429687-22.457031-24.730469-3.128907-2.109374-3.945313-6.351562-1.839844-9.476562s6.351563-3.945312 9.480469-1.835938c11.132812 7.519532 20.40625 17.730469 26.820312 29.523438 1.800782 3.3125.574219 7.457031-2.742187 9.257812-1.03125.5625-2.152344.828126-3.253907.828126zm0 0" fill="#4c241d"/><path d="m120.425781 200.484375c-3.773437 0-6.828125-3.058594-6.828125-6.828125 0-46.191406 37.582032-83.769531 83.773438-83.769531 3.773437 0 6.828125 3.054687 6.828125 6.824219 0 3.773437-3.054688 6.828124-6.828125 6.828124-38.664063 0-70.117188 31.453126-70.117188 70.117188 0 3.769531-3.054687 6.828125-6.828125 6.828125zm0 0" fill="#4c241d"/><path d="m229.707031 193.65625c0 17.859375-14.476562 32.335938-32.335937 32.335938-17.855469 0-32.332032-14.476563-32.332032-32.335938s14.476563-32.335938 32.332032-32.335938c17.859375 0 32.335937 14.476563 32.335937 32.335938zm0 0" fill="#fc8c29"/><path d="m197.371094 232.816406c-21.589844 0-39.15625-17.566406-39.15625-39.160156s17.566406-39.160156 39.15625-39.160156c21.59375 0 39.160156 17.566406 39.160156 39.160156s-17.5625 39.160156-39.160156 39.160156zm0-64.667968c-14.066406 0-25.503906 11.445312-25.503906 25.507812s11.4375 25.503906 25.503906 25.503906 25.507812-11.441406 25.507812-25.503906-11.4375-25.507812-25.507812-25.507812zm0 0" fill="#4c241d"/><path d="m205.660156 193.65625c0 4.578125-3.710937 8.289062-8.289062 8.289062s-8.289063-3.710937-8.289063-8.289062 3.710938-8.289062 8.289063-8.289062 8.289062 3.710937 8.289062 8.289062zm0 0" fill="#4c241d"/><path d="m354.730469 98.289062c0 7.902344-6.40625 14.308594-14.308594 14.308594-7.898437 0-14.304687-6.40625-14.304687-14.308594 0-7.898437 6.40625-14.304687 14.304687-14.304687 7.902344 0 14.308594 6.40625 14.308594 14.304687zm0 0" fill="#ffce56"/><path d="m340.425781 119.421875c-11.652343 0-21.132812-9.480469-21.132812-21.132813 0-11.648437 9.480469-21.128906 21.132812-21.128906 11.648438 0 21.128907 9.480469 21.128907 21.128906 0 11.652344-9.480469 21.132813-21.128907 21.132813zm0-28.609375c-4.125 0-7.480469 3.351562-7.480469 7.476562s3.355469 7.480469 7.480469 7.480469c4.121094 0 7.476563-3.355469 7.476563-7.480469s-3.355469-7.476562-7.476563-7.476562zm0 0" fill="#4c241d"/><path d="m311.804688 310.15625c-1.050782 0-2.117188-.242188-3.117188-.757812-3.355469-1.730469-4.667969-5.847657-2.941406-9.199219l28.761718-55.746094v-131.855469c0-3.773437 3.050782-6.828125 6.824219-6.828125 3.773438 0 6.828125 3.054688 6.828125 6.828125v133.511719c0 1.089844-.257812 2.164063-.757812 3.128906l-29.523438 57.21875c-1.210937 2.351563-3.601562 3.699219-6.074218 3.699219zm0 0" fill="#4c241d"/><path d="m329.421875 266.957031-15.601563-8.171875-16.3125 32.621094 15.753907 6.859375zm0 0" fill="#fc8c29"/><path d="m313.253906 305.089844c-.90625 0-1.832031-.183594-2.722656-.566406l-15.75-6.855469c-1.714844-.746094-3.054688-2.167969-3.6875-3.929688-.640625-1.757812-.53125-3.707031.308594-5.382812l16.3125-32.625c.820312-1.640625 2.265625-2.882813 4.007812-3.445313 1.753906-.554687 3.648438-.394531 5.265625.449219l15.601563 8.175781c3.328125 1.742188 4.621094 5.84375 2.898437 9.175782l-16.160156 31.308593c-1.207031 2.335938-3.589844 3.695313-6.074219 3.695313zm-6.421875-17.066406 3.292969 1.429687 10.117188-19.601563-3.429688-1.792968zm0 0" fill="#4c241d"/><path d="m383.339844 289.023438c0 7.898437-6.40625 14.304687-14.304688 14.304687-7.902344 0-14.304687-6.40625-14.304687-14.304687 0-7.902344 6.402343-14.304688 14.304687-14.304688 7.898438 0 14.304688 6.402344 14.304688 14.304688zm0 0" fill="#ffce56"/><g fill="#4c241d"><path d="m369.03125 310.15625c-11.652344 0-21.132812-9.480469-21.132812-21.132812 0-11.652344 9.480468-21.132813 21.132812-21.132813 11.65625 0 21.136719 9.480469 21.136719 21.132813 0 11.652343-9.480469 21.132812-21.136719 21.132812zm0-28.609375c-4.125 0-7.480469 3.351563-7.480469 7.476563 0 4.121093 3.355469 7.480468 7.480469 7.480468 4.128906 0 7.480469-3.359375 7.480469-7.480468 0-4.125-3.351563-7.476563-7.480469-7.476563zm0 0"/><path d="m99.296875 83.984375c0 5.269531-4.269531 9.539063-9.535156 9.539063-5.269531 0-9.539063-4.269532-9.539063-9.539063 0-5.265625 4.269532-9.535156 9.539063-9.535156 5.265625 0 9.535156 4.269531 9.535156 9.535156zm0 0"/><path d="m89.472656 298.558594c0 3.613281-2.929687 6.539062-6.539062 6.539062s-6.539063-2.925781-6.539063-6.539062c0-3.609375 2.929688-6.539063 6.539063-6.539063s6.539062 2.929688 6.539062 6.539063zm0 0"/><path d="m111.253906 298.558594c0 3.613281-2.925781 6.539062-6.539062 6.539062-3.609375 0-6.539063-2.925781-6.539063-6.539062 0-3.609375 2.929688-6.539063 6.539063-6.539063 3.613281 0 6.539062 2.929688 6.539062 6.539063zm0 0"/><path d="m389.121094 136.660156h-20.480469c-3.773437 0-6.828125-3.058594-6.828125-6.828125s3.054688-6.824219 6.828125-6.824219h20.480469c3.773437 0 6.824218 3.054688 6.824218 6.824219s-3.050781 6.828125-6.824218 6.828125zm0 0"/><path d="m389.121094 157.140625h-20.480469c-3.773437 0-6.828125-3.058594-6.828125-6.828125s3.054688-6.824219 6.828125-6.824219h20.480469c3.773437 0 6.824218 3.054688 6.824218 6.824219s-3.050781 6.828125-6.824218 6.828125zm0 0"/><path d="m389.121094 177.621094h-20.480469c-3.773437 0-6.828125-3.058594-6.828125-6.828125s3.054688-6.828125 6.828125-6.828125h20.480469c3.773437 0 6.824218 3.058594 6.824218 6.828125s-3.050781 6.828125-6.824218 6.828125zm0 0"/></g></svg>