<svg height="404pt" viewBox="0 -32 404.28544 404" width="404pt" xmlns="http://www.w3.org/2000/svg"><path d="m307.199219 153.742188c0 84.832031-68.769531 153.601562-153.597657 153.601562-84.832031 0-153.601562-68.769531-153.601562-153.601562 0-84.832032 68.769531-153.597657 153.601562-153.597657 84.828126 0 153.597657 68.765625 153.597657 153.597657zm0 0" fill="#ffe8dc"/><g fill="#4c241d"><path d="m46.046875 148.59375c-3.773437 0-6.828125-3.058594-6.828125-6.828125 0-29.15625 23.71875-52.875 52.878906-52.875h249.234375c3.773438 0 6.828125 3.058594 6.828125 6.828125s-3.054687 6.824219-6.828125 6.824219h-249.234375c-21.625 0-39.226562 17.597656-39.226562 39.222656 0 3.769531-3.050782 6.828125-6.824219 6.828125zm0 0"/><path d="m341.332031 129.847656h-180.96875c-3.773437 0-6.824219-3.054687-6.824219-6.824218 0-3.769532 3.050782-6.828126 6.824219-6.828126h180.96875c3.773438 0 6.828125 3.058594 6.828125 6.828126 0 3.769531-3.054687 6.824218-6.828125 6.824218zm0 0"/><path d="m273.066406 259.554688h-180.96875c-3.773437 0-6.824218-3.054688-6.824218-6.824219s3.050781-6.828125 6.824218-6.828125h180.96875c3.773438 0 6.824219 3.058594 6.824219 6.828125s-3.050781 6.824219-6.824219 6.824219zm0 0"/><path d="m343.074219 286.863281h-249.242188c-3.773437 0-6.824219-3.058593-6.824219-6.828125 0-3.769531 3.050782-6.824218 6.824219-6.824218h249.242188c21.625 0 39.21875-17.597657 39.21875-39.222657 0-3.773437 3.050781-6.828125 6.824219-6.828125 3.773437 0 6.828124 3.054688 6.828124 6.828125 0 29.15625-23.71875 52.875-52.871093 52.875zm0 0"/></g><path d="m321.425781 47.683594 68.632813 48.1875c9.867187 6.929687 9.867187 21.550781 0 28.480468l-68.632813 48.1875c-11.527343 8.09375-27.394531-.152343-27.394531-14.242187v-96.375c0-14.085937 15.867188-22.335937 27.394531-14.238281zm0 0" fill="#ffce56"/><path d="m311.4375 182.539062c-3.8125 0-7.644531-.90625-11.179688-2.742187-8.050781-4.183594-13.058593-12.425781-13.058593-21.5v-96.371094c0-9.078125 5-17.316406 13.058593-21.5 8.042969-4.183593 17.660157-3.546875 25.09375 1.671875l68.628907 48.1875c6.453125 4.527344 10.304687 11.941406 10.304687 19.824219s-3.851562 15.296875-10.300781 19.828125l-68.640625 48.183594c-4.164062 2.929687-9.019531 4.417968-13.90625 4.417968zm.015625-131.21875c-1.660156 0-3.332031.40625-4.898437 1.21875-3.570313 1.859376-5.703126 5.367188-5.703126 9.386719v96.371094c0 4.019531 2.132813 7.527344 5.703126 9.382813 3.550781 1.84375 7.65625 1.578124 10.945312-.730469l68.640625-48.183594c2.851563-2.007813 4.492187-5.160156 4.492187-8.652344 0-3.496093-1.640624-6.648437-4.5-8.652343l-68.625-48.1875h-.007812c-1.839844-1.296876-3.933594-1.953126-6.046875-1.953126zm0 0" fill="#4c241d"/><path d="m115.960938 329.550781-68.628907-48.1875c-9.867187-6.929687-9.867187-21.550781 0-28.480469l68.628907-48.1875c11.53125-8.09375 27.398437.152344 27.398437 14.242188v96.371094c0 14.089844-15.867187 22.335937-27.398437 14.242187zm0 0" fill="#fc8c29"/><path d="m125.945312 339.550781c-4.878906 0-9.738281-1.488281-13.90625-4.414062l-68.625-48.183594c-6.460937-4.53125-10.3125-11.945313-10.3125-19.828125s3.851563-15.296875 10.3125-19.828125l68.625-48.183594c7.429688-5.210937 17.042969-5.859375 25.09375-1.671875 8.054688 4.183594 13.054688 12.421875 13.054688 21.496094v96.375c0 9.074219-5 17.3125-13.054688 21.496094-3.535156 1.835937-7.367187 2.742187-11.1875 2.742187zm-6.066406-15.585937c3.292969 2.304687 7.386719 2.582031 10.953125.726562 3.574219-1.855468 5.703125-5.359375 5.703125-9.378906v-96.375c0-4.019531-2.128906-7.53125-5.695312-9.382812-3.582032-1.855469-7.667969-1.585938-10.960938.730468l-68.625 48.183594c-2.863281 2.011719-4.5 5.164062-4.5 8.65625 0 3.488281 1.636719 6.640625 4.5 8.652344zm0 0" fill="#4c241d"/></svg>