<svg height="417pt" viewBox="0 -22 417.45579 417" width="417pt" xmlns="http://www.w3.org/2000/svg"><path d="m307.199219 153.828125c0 84.832031-68.769531 153.601563-153.597657 153.601563-84.832031 0-153.601562-68.769532-153.601562-153.601563s68.769531-153.601563 153.601562-153.601563c84.828126 0 153.597657 68.769532 153.597657 153.601563zm0 0" fill="#ffe8dc"/><g fill="#4c241d"><path d="m348.160156 307.429688h-28.105468c-40.089844 0-78.511719-19.058594-102.773438-50.976563l-56.320312-74.109375c-21.6875-28.542969-56.046876-45.582031-91.898438-45.582031h-48.582031c-3.769531 0-6.828125-3.058594-6.828125-6.828125 0-3.769532 3.058594-6.824219 6.828125-6.824219h48.582031c40.09375 0 78.515625 19.054687 102.773438 50.976563l56.320312 74.105468c21.691406 28.542969 56.046875 45.582032 91.902344 45.582032h28.101562c3.773438 0 6.828125 3.058593 6.828125 6.828124 0 3.769532-3.058593 6.828126-6.828125 6.828126zm0 0"/><path d="m223.710938 308.964844c-1.566407 0-3.136719-.535156-4.425782-1.628906-7.035156-5.992188-13.453125-12.777344-19.066406-20.164063l-56.324219-74.105469c-16.164062-21.269531-39.386719-36.363281-65.386719-42.5-3.671874-.867187-5.945312-4.542968-5.078124-8.210937.863281-3.671875 4.539062-5.953125 8.210937-5.078125 29.078125 6.863281 55.050781 23.742187 73.125 47.527344l56.324219 74.109374c5.019531 6.601563 10.757812 12.667969 17.050781 18.027344 2.871094 2.445313 3.21875 6.753906.769531 9.625-1.351562 1.582032-3.269531 2.398438-5.199218 2.398438zm0 0"/><path d="m48.582031 293.773438h-28.101562c-3.769531 0-6.828125-3.054688-6.828125-6.824219s3.058594-6.828125 6.828125-6.828125h28.101562c35.855469 0 70.210938-17.039063 91.902344-45.582032l56.320313-74.109374c24.261718-31.917969 62.679687-50.976563 102.773437-50.976563h48.582031c3.773438 0 6.828125 3.058594 6.828125 6.828125s-3.054687 6.828125-6.828125 6.828125h-48.582031c-35.855469 0-70.210937 17.039063-91.902344 45.582031l-56.316406 74.105469c-24.261719 31.921875-62.683594 50.976563-102.777344 50.976563zm0 0"/><path d="m218.445312 198.203125c-1.175781 0-2.371093-.304687-3.457031-.949219-3.246093-1.914062-4.332031-6.097656-2.414062-9.347656 28.34375-48.078125 71.964843-54.558594 110.898437-54.558594h48.582032c3.769531 0 6.828124 3.054688 6.828124 6.824219s-3.058593 6.828125-6.828124 6.828125h-48.582032c-36.839844 0-74.347656 5.796875-99.136718 47.839844-1.277344 2.160156-3.554688 3.363281-5.890626 3.363281zm0 0"/></g><path d="m334.597656 238.914062 68.632813 48.1875c9.867187 6.929688 9.867187 21.554688 0 28.480469l-68.632813 48.1875c-11.527344 8.09375-27.394531-.152343-27.394531-14.238281v-96.375c-.003906-14.089844 15.867187-22.335938 27.394531-14.242188zm0 0" fill="#ffce56"/><path d="m324.609375 373.769531c-3.816406 0-7.648437-.90625-11.183594-2.742187-8.050781-4.183594-13.050781-12.421875-13.050781-21.496094v-96.375c0-9.078125 5.003906-17.316406 13.050781-21.496094 8.0625-4.191406 17.667969-3.542968 25.09375 1.667969l68.632813 48.1875c6.453125 4.53125 10.304687 11.941406 10.304687 19.828125 0 7.882812-3.851562 15.296875-10.304687 19.824219l-68.632813 48.1875c-4.167969 2.925781-9.023437 4.414062-13.910156 4.414062zm.015625-131.21875c-1.664062 0-3.332031.40625-4.902344 1.222657-3.566406 1.851562-5.695312 5.363281-5.695312 9.382812v96.375c0 4.019531 2.128906 7.523438 5.695312 9.382812 3.5625 1.84375 7.652344 1.574219 10.949219-.730468l68.636719-48.1875c2.855468-2.007813 4.496094-5.160156 4.496094-8.652344s-1.640626-6.648438-4.496094-8.652344l-68.636719-48.1875c-1.839844-1.292968-3.933594-1.953125-6.046875-1.953125zm0 0" fill="#4c241d"/><path d="m334.597656 68.25 68.632813 48.1875c9.867187 6.929688 9.867187 21.550781 0 28.476562l-68.632813 48.1875c-11.527344 8.097657-27.394531-.148437-27.394531-14.238281v-96.375c-.003906-14.085937 15.867187-22.335937 27.394531-14.238281zm0 0" fill="#fc8c29"/><path d="m324.609375 203.101562c-3.816406 0-7.648437-.90625-11.183594-2.742187-8.050781-4.183594-13.050781-12.421875-13.050781-21.496094v-96.375c0-9.074219 5.003906-17.3125 13.050781-21.496093 8.0625-4.1875 17.667969-3.546876 25.09375 1.671874l68.632813 48.183594c6.453125 4.53125 10.304687 11.945313 10.304687 19.828125 0 7.882813-3.851562 15.296875-10.304687 19.824219l-68.632813 48.1875c-4.167969 2.925781-9.023437 4.414062-13.910156 4.414062zm.015625-131.214843c-1.664062 0-3.332031.40625-4.902344 1.21875-3.566406 1.855469-5.695312 5.363281-5.695312 9.382812v96.375c0 4.019531 2.128906 7.527344 5.695312 9.382813 3.5625 1.839844 7.652344 1.582031 10.949219-.730469l68.636719-48.1875c2.855468-2.003906 4.496094-5.15625 4.496094-8.652344 0-3.492187-1.640626-6.644531-4.496094-8.652343l-68.636719-48.183594c-1.839844-1.296875-3.933594-1.953125-6.046875-1.953125zm0 0" fill="#4c241d"/></svg>