<svg height="416pt" viewBox="0 -34 416.67925 416" width="416pt" xmlns="http://www.w3.org/2000/svg"><path d="m307.199219 153.941406c0 84.828125-68.769531 153.597656-153.597657 153.597656-84.832031 0-153.601562-68.769531-153.601562-153.597656 0-84.832031 68.769531-153.601562 153.601562-153.601562 84.828126 0 153.597657 68.769531 153.597657 153.601562zm0 0" fill="#ffe8dc"/><path d="m65.390625 85.253906 183.75 106.671875c7.894531 4.582031 7.894531 15.980469 0 20.5625l-183.75 106.671875c-7.925781 4.601563-17.859375-1.121094-17.859375-10.28125v-213.34375c0-9.164062 9.933594-14.882812 17.859375-10.28125zm0 0" fill="#ffce56"/><path d="m59.417969 327.625c-3.199219 0-6.40625-.839844-9.332031-2.527344-5.871094-3.378906-9.378907-9.441406-9.378907-16.21875v-213.34375c0-6.777344 3.507813-12.839844 9.378907-16.21875 5.867187-3.378906 12.871093-3.375 18.726562.035156l183.753906 106.671876c5.832032 3.382812 9.320313 9.433593 9.320313 16.179687 0 6.75-3.480469 12.800781-9.320313 16.1875l-183.753906 106.671875c-2.941406 1.707031-6.164062 2.5625-9.394531 2.5625zm.027343-237.167969c-1.160156 0-2.085937.425781-2.546874.691407-.765626.4375-2.539063 1.746093-2.539063 4.386718v213.339844c0 2.644531 1.773437 3.949219 2.539063 4.390625.761718.4375 2.773437 1.324219 5.0625-.011719l183.753906-106.667968c2.273437-1.324219 2.519531-3.503907 2.519531-4.378907s-.246094-3.058593-2.519531-4.378906l-183.757813-106.671875c-.898437-.519531-1.75-.699219-2.511719-.699219zm0 0" fill="#4c241d"/><path d="m181.734375 85.367188 182.015625 106.578124c7.839844 4.59375 7.839844 15.929688 0 20.519532l-182.015625 106.578125c-7.925781 4.640625-17.894531-1.074219-17.894531-10.257813v-213.160156c0-9.183594 9.96875-14.898438 17.894531-10.257812zm0 0" fill="#fff"/><path d="m175.734375 327.535156c-3.195313 0-6.386719-.839844-9.308594-2.511718-5.890625-3.378907-9.414062-9.445313-9.414062-16.238282v-213.160156c0-6.789062 3.519531-12.859375 9.414062-16.234375 5.882813-3.375 12.902344-3.347656 18.753907.085937l182.011718 106.578126c5.800782 3.394531 9.269532 9.433593 9.269532 16.152343 0 6.714844-3.46875 12.757813-9.269532 16.148438l-182.011718 106.582031c-2.945313 1.730469-6.199219 2.597656-9.445313 2.597656zm.023437-236.988281c-1.164062 0-2.085937.421875-2.542968.683594-.769532.441406-2.546875 1.746093-2.546875 4.394531v213.160156c0 2.648438 1.777343 3.953125 2.546875 4.394532.757812.433593 2.792968 1.3125 5.066406-.023438l182.019531-106.582031c2.257813-1.324219 2.503907-3.496094 2.503907-4.371094 0-.871094-.246094-3.042969-2.503907-4.371094l-182.015625-106.578125h-.003906c-.902344-.527344-1.761719-.707031-2.523438-.707031zm0 0" fill="#4c241d"/><path d="m396.074219 341.671875c-7.613281 0-13.78125-6.167969-13.78125-13.78125v-252.328125c0-7.613281 6.167969-13.78125 13.78125-13.78125 7.609375 0 13.78125 6.167969 13.78125 13.78125v252.332031c0 7.609375-6.171875 13.777344-13.78125 13.777344zm0 0" fill="#bd53b5"/><path d="m396.074219 348.5c-11.359375 0-20.609375-9.242188-20.609375-20.605469v-252.335937c0-11.363282 9.25-20.605469 20.609375-20.605469s20.605469 9.242187 20.605469 20.605469v252.335937c0 11.363281-9.246094 20.605469-20.605469 20.605469zm0-279.894531c-3.835938 0-6.953125 3.121093-6.953125 6.953125v252.335937c0 3.832031 3.117187 6.953125 6.953125 6.953125 3.832031 0 6.953125-3.121094 6.953125-6.953125v-252.335937c0-3.832032-3.121094-6.953125-6.953125-6.953125zm0 0" fill="#4c241d"/></svg>