<svg height="409pt" viewBox="0 -27 409.6 409" width="409pt" xmlns="http://www.w3.org/2000/svg"><path d="m307.199219 153.898438c0 84.832031-68.769531 153.601562-153.597657 153.601562-84.832031 0-153.601562-68.769531-153.601562-153.601562 0-84.828126 68.769531-153.597657 153.601562-153.597657 84.828126 0 153.597657 68.769531 153.597657 153.597657zm0 0" fill="#ffe8dc"/><path d="m371.699219 41.261719h-238.222657c-17.164062 0-31.078124 13.910156-31.078124 31.074219v64.496093h300.375v-64.496093c0-17.164063-13.914063-31.074219-31.074219-31.074219zm0 0" fill="#fc8c29"/><path d="m402.773438 143.660156h-300.375c-3.769532 0-6.824219-3.054687-6.824219-6.828125v-64.5c0-20.898437 17.003906-37.898437 37.902343-37.898437h238.21875c20.902344 0 37.90625 17 37.90625 37.898437v64.5c0 3.773438-3.058593 6.828125-6.828124 6.828125zm-293.546876-13.652344h286.71875v-57.675781c0-13.367187-10.878906-24.246093-24.25-24.246093h-238.21875c-13.371093 0-24.25 10.878906-24.25 24.246093zm0 0" fill="#4c241d"/><path d="m102.398438 136.832031v180.554688c0 17.160156 13.914062 31.074219 31.078124 31.074219h238.21875c17.164063 0 31.078126-13.914063 31.078126-31.074219v-180.554688zm0 0" fill="#fff"/><path d="m371.695312 355.285156h-238.21875c-20.898437 0-37.902343-17-37.902343-37.898437v-180.554688c0-3.773437 3.054687-6.824219 6.824219-6.824219h300.375c3.769531 0 6.828124 3.050782 6.828124 6.824219v180.554688c0 20.898437-17.003906 37.898437-37.90625 37.898437zm-262.46875-211.625v173.726563c0 13.367187 10.878907 24.246093 24.25 24.246093h238.21875c13.371094 0 24.25-10.878906 24.25-24.246093v-173.726563zm0 0" fill="#4c241d"/><path d="m163.839844 321.152344c-3.769532 0-6.828125-3.050782-6.828125-6.824219v-136.535156c0-3.773438 3.058593-6.828125 6.828125-6.828125 3.769531 0 6.828125 3.054687 6.828125 6.828125v136.535156c0 3.773437-3.058594 6.824219-6.828125 6.824219zm0 0" fill="#4c241d"/><path d="m174.078125 232.40625h-20.476563c-9.425781 0-17.066406-7.640625-17.066406-17.066406 0-9.425782 7.640625-17.066406 17.066406-17.066406h20.476563c9.429687 0 17.070313 7.640624 17.070313 17.066406 0 9.425781-7.640626 17.066406-17.070313 17.066406zm0 0" fill="#fc8c29"/><path d="m174.078125 239.234375h-20.476563c-13.175781 0-23.894531-10.71875-23.894531-23.894531 0-13.171875 10.71875-23.894532 23.894531-23.894532h20.476563c13.175781 0 23.894531 10.722657 23.894531 23.894532 0 13.175781-10.71875 23.894531-23.894531 23.894531zm-20.476563-34.132813c-5.648437 0-10.242187 4.589844-10.242187 10.238282 0 5.648437 4.59375 10.238281 10.242187 10.238281h20.476563c5.648437 0 10.242187-4.589844 10.242187-10.238281 0-5.648438-4.59375-10.238282-10.242187-10.238282zm0 0" fill="#4c241d"/><path d="m252.585938 321.152344c-3.769532 0-6.824219-3.050782-6.824219-6.824219v-136.535156c0-3.773438 3.054687-6.828125 6.824219-6.828125 3.769531 0 6.828124 3.054687 6.828124 6.828125v136.535156c0 3.773437-3.058593 6.824219-6.828124 6.824219zm0 0" fill="#4c241d"/><path d="m262.828125 287.019531h-20.480469c-9.425781 0-17.066406-7.640625-17.066406-17.066406s7.640625-17.066406 17.066406-17.066406h20.480469c9.425781 0 17.066406 7.640625 17.066406 17.066406s-7.640625 17.066406-17.066406 17.066406zm0 0" fill="#ffce56"/><path d="m262.828125 293.847656h-20.480469c-13.175781 0-23.894531-10.71875-23.894531-23.894531 0-13.171875 10.71875-23.894531 23.894531-23.894531h20.480469c13.171875 0 23.890625 10.722656 23.890625 23.894531 0 13.175781-10.71875 23.894531-23.890625 23.894531zm-20.480469-34.132812c-5.648437 0-10.242187 4.589844-10.242187 10.238281s4.59375 10.238281 10.242187 10.238281h20.480469c5.644531 0 10.238281-4.589844 10.238281-10.238281s-4.59375-10.238281-10.238281-10.238281zm0 0" fill="#4c241d"/><path d="m341.332031 321.152344c-3.769531 0-6.824219-3.050782-6.824219-6.824219v-136.535156c0-3.773438 3.054688-6.828125 6.824219-6.828125s6.828125 3.054687 6.828125 6.828125v136.535156c0 3.773437-3.058594 6.824219-6.828125 6.824219zm0 0" fill="#4c241d"/><path d="m351.574219 232.40625h-20.480469c-9.425781 0-17.066406-7.640625-17.066406-17.066406 0-9.425782 7.640625-17.066406 17.066406-17.066406h20.480469c9.425781 0 17.066406 7.640624 17.066406 17.066406 0 9.425781-7.640625 17.066406-17.066406 17.066406zm0 0" fill="#bd53b5"/><path d="m351.574219 239.234375h-20.480469c-13.175781 0-23.894531-10.71875-23.894531-23.894531 0-13.171875 10.71875-23.894532 23.894531-23.894532h20.480469c13.171875 0 23.890625 10.722657 23.890625 23.894532 0 13.175781-10.71875 23.894531-23.890625 23.894531zm-20.480469-34.132813c-5.648438 0-10.242188 4.589844-10.242188 10.238282 0 5.648437 4.59375 10.238281 10.242188 10.238281h20.480469c5.644531 0 10.238281-4.589844 10.238281-10.238281 0-5.648438-4.59375-10.238282-10.238281-10.238282zm0 0" fill="#4c241d"/><path d="m365.527344 90.601562c0 6.683594-5.417969 12.097657-12.097656 12.097657-6.679688 0-12.097657-5.414063-12.097657-12.097657 0-6.679687 5.417969-12.09375 12.097657-12.09375 6.679687 0 12.097656 5.414063 12.097656 12.09375zm0 0" fill="#a9ba5a"/><path d="m353.429688 109.527344c-10.433594 0-18.921876-8.496094-18.921876-18.925782 0-10.433593 8.488282-18.921874 18.921876-18.921874 10.433593 0 18.925781 8.488281 18.925781 18.921874 0 10.429688-8.492188 18.925782-18.925781 18.925782zm0-24.195313c-2.90625 0-5.269532 2.359375-5.269532 5.269531 0 2.90625 2.363282 5.273438 5.269532 5.273438s5.269531-2.367188 5.269531-5.273438c0-2.910156-2.363281-5.269531-5.269531-5.269531zm0 0" fill="#4c241d"/><path d="m297.261719 90.601562c0 6.683594-5.417969 12.097657-12.097657 12.097657-6.679687 0-12.097656-5.414063-12.097656-12.097657 0-6.679687 5.417969-12.09375 12.097656-12.09375 6.679688 0 12.097657 5.414063 12.097657 12.09375zm0 0" fill="#ffce56"/><path d="m285.164062 109.527344c-10.433593 0-18.925781-8.496094-18.925781-18.925782 0-10.433593 8.492188-18.921874 18.925781-18.921874 10.433594 0 18.921876 8.488281 18.921876 18.921874 0 10.429688-8.488282 18.925782-18.921876 18.925782zm0-24.195313c-2.90625 0-5.269531 2.359375-5.269531 5.269531 0 2.90625 2.363281 5.273438 5.269531 5.273438s5.269532-2.367188 5.269532-5.273438c0-2.910156-2.363282-5.269531-5.269532-5.269531zm0 0" fill="#4c241d"/><path d="m235.820312 90.601562c0 6.683594-5.414062 12.097657-12.097656 12.097657-6.679687 0-12.097656-5.414063-12.097656-12.097657 0-6.679687 5.417969-12.09375 12.097656-12.09375 6.683594 0 12.097656 5.414063 12.097656 12.09375zm0 0" fill="#a9ba5a"/><path d="m223.722656 109.527344c-10.433594 0-18.921875-8.496094-18.921875-18.925782 0-10.433593 8.488281-18.921874 18.921875-18.921874s18.925782 8.488281 18.925782 18.921874c0 10.429688-8.492188 18.925782-18.925782 18.925782zm0-24.195313c-2.90625 0-5.269531 2.359375-5.269531 5.269531 0 2.90625 2.363281 5.273438 5.269531 5.273438s5.269532-2.367188 5.269532-5.273438c0-2.910156-2.363282-5.269531-5.269532-5.269531zm0 0" fill="#4c241d"/><path d="m167.554688 90.601562c0 6.683594-5.417969 12.097657-12.097657 12.097657-6.679687 0-12.097656-5.414063-12.097656-12.097657 0-6.679687 5.417969-12.09375 12.097656-12.09375 6.679688 0 12.097657 5.414063 12.097657 12.09375zm0 0" fill="#ffce56"/><path d="m155.457031 109.527344c-10.433593 0-18.921875-8.496094-18.921875-18.925782 0-10.433593 8.488282-18.921874 18.921875-18.921874 10.433594 0 18.921875 8.488281 18.921875 18.921874 0 10.429688-8.488281 18.925782-18.921875 18.925782zm0-24.195313c-2.90625 0-5.269531 2.359375-5.269531 5.269531 0 2.90625 2.363281 5.273438 5.269531 5.273438s5.269531-2.367188 5.269531-5.273438c0-2.910156-2.363281-5.269531-5.269531-5.269531zm0 0" fill="#4c241d"/></svg>