<svg height="416pt" viewBox="0 -3 416.42667 416" width="416pt" xmlns="http://www.w3.org/2000/svg"><path d="m307.199219 256.214844c0 84.828125-68.769531 153.597656-153.597657 153.597656-84.832031 0-153.601562-68.769531-153.601562-153.597656 0-84.832032 68.769531-153.601563 153.601562-153.601563 84.828126 0 153.597657 68.769531 153.597657 153.601563zm0 0" fill="#ffe8dc"/><path d="m304.699219 132.082031c0 69.058594-55.984375 125.042969-125.042969 125.042969s-125.042969-55.984375-125.042969-125.042969c0-69.058593 55.984375-125.042969 125.042969-125.042969s125.042969 55.984376 125.042969 125.042969zm0 0" fill="#fc8c29"/><path d="m179.652344 263.949219c-72.710938 0-131.867188-59.15625-131.867188-131.863281 0-72.714844 59.15625-131.871094 131.867188-131.871094 72.714844 0 131.875 59.15625 131.875 131.871094 0 72.707031-59.160156 131.863281-131.875 131.863281zm0-250.082031c-65.179688 0-118.210938 53.03125-118.210938 118.21875 0 65.183593 53.03125 118.210937 118.210938 118.210937 65.1875 0 118.222656-53.027344 118.222656-118.210937 0-65.1875-53.035156-118.21875-118.222656-118.21875zm0 0" fill="#4c241d"/><path d="m387.117188 362.027344h-200.796876c-12.414062 0-22.480468-10.066406-22.480468-22.484375v-207.621094c0-12.414063 10.066406-22.480469 22.480468-22.480469h200.796876c12.417968 0 22.484374 10.066406 22.484374 22.480469v207.621094c0 12.417969-10.066406 22.484375-22.484374 22.484375zm0 0" fill="#fff"/><path d="m387.121094 368.851562h-200.800782c-16.160156 0-29.308593-13.148437-29.308593-29.308593v-207.621094c0-16.160156 13.148437-29.308594 29.308593-29.308594h200.800782c16.160156 0 29.304687 13.148438 29.304687 29.308594v207.621094c0 16.160156-13.144531 29.308593-29.304687 29.308593zm-200.800782-252.585937c-8.632812 0-15.652343 7.023437-15.652343 15.65625v207.621094c0 8.632812 7.019531 15.65625 15.652343 15.65625h200.800782c8.632812 0 15.652344-7.023438 15.652344-15.65625v-207.621094c0-8.632813-7.019532-15.65625-15.652344-15.65625zm0 0" fill="#4c241d"/></svg>