<svg height="397pt" viewBox="0 -18 397.99029 397" width="397pt" xmlns="http://www.w3.org/2000/svg"><path d="m307.199219 160.6875c0 84.832031-68.769531 153.601562-153.597657 153.601562-84.832031 0-153.601562-68.769531-153.601562-153.601562s68.769531-153.601562 153.601562-153.601562c84.828126 0 153.597657 68.769531 153.597657 153.601562zm0 0" fill="#ffe8dc"/><path d="m324.90625 327.941406h-241.4375c-14.226562 0-23.035156-15.5-15.753906-27.722656l114.871094-192.824219c3.871093-6.496093 13.277343-6.511719 17.167968-.027343l106.242188 176.992187c6.0625 10.097656 16.972656 16.273437 28.746094 16.273437h17.914062l-137.085938-235.367187c-10.902343-18.71875-37.945312-18.71875-48.847656 0l-139.222656 239.039063c-13.160156 22.589843 3.136719 50.941406 29.28125 50.941406h309.507812c4.660157 0 6.195313-6.253906 2.0625-8.410156l-29.773437-15.542969c-4.21875-2.203125-8.910156-3.351563-13.671875-3.351563zm0 0" fill="#bd53b5"/><path d="m366.292969 362.074219h-309.503907c-14.753906 0-27.953124-7.640625-35.308593-20.425781-7.347657-12.792969-7.300781-28.035157.117187-40.78125l139.222656-239.035157c6.363282-10.917969 17.699219-17.433593 30.328126-17.433593 12.628906 0 23.964843 6.515624 30.328124 17.433593l137.078126 235.367188c1.226562 2.105469 1.234374 4.722656.019531 6.835937-1.21875 2.117188-3.472657 3.425782-5.917969 3.425782h-17.914062c-14.085938 0-27.347657-7.507813-34.597657-19.585938l-106.242187-176.996094c-.808594-1.339844-2.046875-1.539062-2.71875-1.539062-.675782 0-1.929688.207031-2.726563 1.554687l-114.875 192.816407c-2.148437 3.601562-2.195312 7.933593-.121093 11.574218 2.074218 3.648438 5.8125 5.828125 10.007812 5.828125h241.441406c5.832032 0 11.652344 1.425781 16.824219 4.125l29.78125 15.546875c4.683594 2.445313 7 7.546875 5.738281 12.6875-1.261718 5.148438-5.667968 8.601563-10.960937 8.601563zm-1.09375-9.179688h.066406zm-174.050781-294.839843c-7.714844 0-14.640626 3.980468-18.527344 10.644531l-139.222656 239.042969c-4.933594 8.472656-4.964844 18.597656-.078126 27.097656 4.886719 8.507812 13.660157 13.582031 23.464844 13.582031h299.847656l-21.214843-11.074219c-3.234375-1.6875-6.871094-2.582031-10.511719-2.582031h-241.441406c-9.164063 0-17.34375-4.757813-21.878906-12.730469-4.523438-7.96875-4.433594-17.433594.261718-25.308594l114.871094-192.820312c3.0625-5.140625 8.460938-8.210938 14.433594-8.21875h.035156c5.960938 0 11.347656 3.054688 14.417969 8.167969l106.242187 176.992187c4.796875 7.996094 13.574219 12.960938 22.894532 12.960938h6.039062l-131.105469-225.105469c-3.890625-6.667969-10.816406-10.648437-18.527343-10.648437zm0 0" fill="#4c241d"/><path d="m191.148438 112.902344c-6.773438 0-12.347657-5.164063-12.65625-11.714844l-3.613282-77.050781c-.433594-9.285157 6.972656-17.050781 16.269532-17.050781 9.292968 0 16.703124 7.765624 16.265624 17.050781l-3.613281 77.050781c-.304687 6.550781-5.878906 11.714844-12.652343 11.714844zm0 0" fill="#fff"/><path d="m191.148438 119.726562c-10.441407 0-18.996094-8.003906-19.476563-18.21875l-3.609375-77.054687c-.300781-6.371094 1.964844-12.425781 6.363281-17.039063 8.8125-9.226562 24.628907-9.226562 33.441407 0 4.398437 4.613282 6.664062 10.667969 6.367187 17.039063l-3.613281 77.054687c-.480469 10.210938-9.035156 18.21875-19.472656 18.21875zm0-105.8125c-2.609376 0-5.042969 1.039063-6.84375 2.925782-1.800782 1.894531-2.726563 4.367187-2.605469 6.972656l3.613281 77.054688c.132812 2.917968 2.699219 5.207031 5.835938 5.207031 3.132812 0 5.699218-2.289063 5.832031-5.207031l3.613281-77.054688c.117188-2.605469-.808594-5.078125-2.605469-6.972656-1.800781-1.886719-4.234375-2.925782-6.839843-2.925782zm0 0" fill="#4c241d"/><path d="m217.453125 240.191406c-6.5625-6.5625-6.289063-17.28125.605469-23.5l62.238281-56.148437c8.316406-7.503907 16.25-15.425781 23.769531-23.734375l58.820313-64.984375c6.230469-6.882813 16.953125-7.148438 23.519531-.582031 6.566406 6.5625 6.300781 17.289062-.585938 23.519531l-64.980468 58.816406c-8.308594 7.519531-16.230469 15.453125-23.734375 23.769531l-56.148438 62.242188c-6.21875 6.890625-16.941406 7.164062-23.503906.601562zm0 0" fill="#ffce56"/><path d="m228.894531 251.765625c-6.148437 0-11.902343-2.378906-16.269531-6.746094-4.511719-4.511719-6.90625-10.503906-6.738281-16.886719.167969-6.382812 2.867187-12.238281 7.601562-16.511718l62.230469-56.144532c8.117188-7.324218 15.957031-15.144531 23.289062-23.246093l58.820313-64.984375c4.273437-4.726563 10.140625-7.421875 16.519531-7.578125 6.253906-.242188 12.375 2.230469 16.886719 6.746093 4.515625 4.511719 6.910156 10.511719 6.75 16.886719-.160156 6.378907-2.855469 12.246094-7.582031 16.527344l-64.984375 58.8125c-8.101563 7.332031-15.921875 15.175781-23.246094 23.289063l-56.148437 62.230468c-4.265626 4.734375-10.125 7.433594-16.503907 7.601563-.214843.003906-.421875.003906-.625.003906zm146.039063-178.460937c-.078125 0-.167969.007812-.246094.007812-2.601562.066406-4.996094 1.160156-6.734375 3.09375l-58.828125 64.984375c-7.640625 8.445313-15.804688 16.59375-24.257812 24.21875l-62.234376 56.148437c-1.933593 1.738282-3.027343 4.125-3.097656 6.726563-.066406 2.597656.910156 5.039063 2.746094 6.878906 1.839844 1.839844 4.171875 2.765625 6.878906 2.746094 2.597656-.074219 4.984375-1.167969 6.71875-3.101563l56.152344-62.230468c7.628906-8.453125 15.773438-16.621094 24.222656-24.261719l64.984375-58.820313c1.933594-1.746093 3.027344-4.140624 3.09375-6.738281.066407-2.609375-.914062-5.054687-2.753906-6.894531-1.785156-1.773438-4.132813-2.757812-6.644531-2.757812zm0 0" fill="#4c241d"/><path d="m245.761719 235.78125c0 13.195312-10.699219 23.890625-23.894531 23.890625-13.195313 0-23.894532-10.695313-23.894532-23.890625s10.699219-23.894531 23.894532-23.894531c13.195312 0 23.894531 10.699219 23.894531 23.894531zm0 0" fill="#fc8c29"/><path d="m221.867188 266.5c-16.941407 0-30.71875-13.777344-30.71875-30.71875s13.777343-30.722656 30.71875-30.722656c16.941406 0 30.71875 13.78125 30.71875 30.722656s-13.777344 30.71875-30.71875 30.71875zm0-47.785156c-9.414063 0-17.066407 7.652344-17.066407 17.066406s7.652344 17.066406 17.066407 17.066406c9.414062 0 17.066406-7.652344 17.066406-17.066406s-7.652344-17.066406-17.066406-17.066406zm0 0" fill="#4c241d"/></svg>