<svg height="419pt" viewBox="-3 0 419 419.71904" width="419pt" xmlns="http://www.w3.org/2000/svg"><path d="m327.164062 254.878906c0 84.832032-68.769531 153.601563-153.597656 153.601563-84.832031 0-153.601562-68.769531-153.601562-153.601563 0-84.832031 68.769531-153.601562 153.601562-153.601562 84.828125 0 153.597656 68.769531 153.597656 153.601562zm0 0" fill="#ffe8dc"/><path d="m400.339844 160.660156c7.660156-7.660156 7.660156-20.078125 0-27.734375l-120.605469-120.609375c-7.660156-7.65625-20.078125-7.65625-27.734375 0-7.65625 7.660156-7.65625 20.078125 0 27.734375l120.609375 120.609375c7.65625 7.660156 20.074219 7.660156 27.730469 0zm0 0" fill="#fff"/><path d="m386.472656 173.230469c-7.0625 0-13.699218-2.75-18.695312-7.746094l-120.605469-120.605469c-10.300781-10.308594-10.300781-27.078125 0-37.386718 9.992187-9.992188 27.417969-9.988282 37.386719 0l120.605468 120.605468c10.308594 10.308594 10.308594 27.082032 0 37.386719-4.984374 4.996094-11.625 7.746094-18.691406 7.746094zm-120.609375-159.832031c-3.410156 0-6.625 1.332031-9.039062 3.746093-4.980469 4.984375-4.980469 13.09375 0 18.078125l120.605469 120.609375c4.835937 4.832031 13.261718 4.820313 18.082031 0 4.988281-4.988281 4.988281-13.09375 0-18.082031l-120.605469-120.605469c-2.414062-2.414062-5.621094-3.746093-9.042969-3.746093zm0 0" fill="#4c241d"/><path d="m235.824219 296.585938c3.828125-3.832032 3.828125-10.039063 0-13.867188l-80.890625-80.890625-13.867188 13.867187 80.890625 80.890626c3.828125 3.828124 10.035157 3.828124 13.867188 0zm0 0" fill="#fc8c29"/><path d="m228.890625 306.273438c-4.257813 0-8.519531-1.621094-11.757813-4.863282l-80.890624-80.886718c-1.28125-1.28125-2-3.015626-2-4.824219 0-1.8125.71875-3.546875 2-4.828125l13.867187-13.867188c2.664063-2.664062 6.984375-2.664062 9.652344 0l80.890625 80.886719c3.136718 3.140625 4.871094 7.3125 4.871094 11.761719 0 4.449218-1.734376 8.621094-4.871094 11.761718 0 0 0 0-.007813.003907-3.238281 3.234375-7.5 4.855469-11.753906 4.855469zm6.933594-9.6875h.066406zm-85.101563-80.886719 76.0625 76.058593c1.144532 1.152344 3.046875 1.160157 4.210938 0 1.160156-1.167968 1.160156-3.054687 0-4.214843l-76.0625-76.058594zm0 0" fill="#4c241d"/><path d="m198.84375 333.5625c3.828125-3.828125 3.828125-10.035156 0-13.867188l-80.890625-80.886718-13.863281 13.867187 80.886718 80.886719c3.832032 3.832031 10.039063 3.832031 13.867188 0zm0 0" fill="#fc8c29"/><path d="m191.910156 343.265625c-4.445312 0-8.617187-1.734375-11.757812-4.871094l-80.890625-80.894531c-2.664063-2.664062-2.664063-6.988281 0-9.652344l13.867187-13.867187c1.28125-1.28125 3.015625-2 4.824219-2 1.8125 0 3.546875.71875 4.828125 2l80.890625 80.894531c6.480469 6.480469 6.480469 17.027344.003906 23.511719-.003906.007812-.003906.007812-.003906.007812-3.140625 3.136719-7.316406 4.871094-11.761719 4.871094zm6.933594-9.699219h.066406zm-85.101562-80.894531 76.0625 76.066406c1.160156 1.160157 3.039062 1.160157 4.210937 0 1.164063-1.160156 1.164063-3.054687 0-4.214843l-76.0625-76.066407zm0 0" fill="#4c241d"/><path d="m272.800781 259.609375c3.828125-3.832031 3.828125-10.039063 0-13.867187l-80.890625-80.890626-13.867187 13.867188 80.890625 80.890625c3.828125 3.828125 10.039062 3.828125 13.867187 0zm0 0" fill="#fc8c29"/><path d="m265.863281 269.304688c-4.4375 0-8.617187-1.726563-11.757812-4.871094l-80.890625-80.886719c-2.664063-2.667969-2.664063-6.988281 0-9.65625l13.867187-13.863281c2.667969-2.667969 6.988281-2.667969 9.652344 0l80.890625 80.886718c3.144531 3.140626 4.871094 7.320313 4.871094 11.761719 0 4.445313-1.726563 8.617188-4.871094 11.757813-3.140625 3.144531-7.3125 4.871094-11.761719 4.871094zm-78.164062-90.585938 76.058593 76.058594c.757813.761718 1.644532.875 2.105469.875.457031 0 1.347657-.113282 2.097657-.867188.007812-.007812.007812-.007812.015624-.015625.753907-.75.867188-1.636719.867188-2.097656 0-.457031-.113281-1.347656-.875-2.105469l-76.058594-76.058594zm0 0" fill="#4c241d"/><path d="m48.625 391.339844 188.589844-187.804688c24.820312-24.714844 57.394531-40.132812 92.242187-43.65625l38.476563-3.894531-103.839844-103.839844-5.207031 38.578125c-4.46875 33.09375-19.675781 63.808594-43.289063 87.421875l-190.085937 190.085938zm0 0" fill="#ffce56"/><path d="m48.621094 398.164062c-1.746094 0-3.492188-.664062-4.824219-2l-23.113281-23.105468c-1.277344-1.28125-2-3.015625-2-4.828125s.722656-3.542969 2-4.824219l190.089844-190.085938c22.417968-22.421874 37.105468-52.082031 41.347656-83.507812l5.207031-38.578125c.34375-2.574219 2.125-4.730469 4.578125-5.554687 2.46875-.828126 5.179688-.195313 7.011719 1.640624l103.84375 103.839844c1.867187 1.867188 2.484375 4.632813 1.605469 7.121094-.886719 2.476562-3.121094 4.230469-5.746094 4.5l-38.476563 3.890625c-33.175781 3.355469-64.464843 18.160156-88.105469 41.703125l-188.601562 187.804688c-1.328125 1.324218-3.074219 1.984374-4.816406 1.984374zm-13.457032-29.933593 13.46875 13.460937 183.765626-183c25.859374-25.738281 60.085937-41.9375 96.375-45.605468l24.160156-2.449219-83.921875-83.917969-3.359375 24.917969c-4.640625 34.375-20.699219 66.808593-45.226563 91.335937zm0 0" fill="#4c241d"/><path d="m51.6875 412.890625c12.761719-12.761719 13.148438-33.070313.859375-45.359375s-32.597656-11.90625-45.363281.859375zm0 0" fill="#fc8c29"/><g fill="#4c241d"><path d="m51.683594 419.71875c-1.746094 0-3.492188-.667969-4.824219-2l-44.5-44.5c-2.667969-2.664062-2.667969-6.988281 0-9.652344 7.425781-7.425781 17.214844-11.625 27.554687-11.828125 10.402344.046875 20.191407 3.699219 27.457032 10.96875 7.269531 7.265625 11.164062 17.019531 10.96875 27.460938-.199219 10.339843-4.398438 20.125-11.828125 27.550781-1.332031 1.332031-3.082031 2-4.828125 2zm-34.234375-50.71875 33.625 33.632812c2.273437-3.863281 3.527343-8.21875 3.609375-12.726562.125-6.695312-2.347656-12.925781-6.964844-17.546875-4.621094-4.621094-10.894531-7.035156-17.546875-6.96875-4.507813.085937-8.863281 1.339844-12.722656 3.609375zm0 0"/><path d="m94.84375 351.945312c-1.746094 0-3.492188-.667968-4.824219-2l-23.109375-23.113281c-2.667968-2.664062-2.667968-6.988281 0-9.652343 2.664063-2.667969 6.984375-2.667969 9.652344 0l23.109375 23.113281c2.664063 2.664062 2.664063 6.988281 0 9.652343-1.332031 1.332032-3.082031 2-4.828125 2zm0 0"/><path d="m80.976562 365.8125c-1.746093 0-3.492187-.667969-4.824218-2l-23.109375-23.113281c-2.667969-2.667969-2.667969-6.988281 0-9.652344 2.664062-2.667969 6.984375-2.667969 9.652343 0l23.109376 23.113281c2.664062 2.664063 2.664062 6.984375 0 9.652344-1.332032 1.332031-3.082032 2-4.828126 2zm0 0"/><path d="m191.910156 373.210938c-14.300781 0-28.605468-5.445313-39.492187-16.332032-21.777344-21.773437-21.777344-57.210937 0-78.984375l64.714843-64.714843c21.773438-21.773438 57.210938-21.773438 78.984376 0 21.78125 21.773437 21.78125 57.210937 0 78.988281l-64.714844 64.710937c-10.882813 10.886719-25.191406 16.332032-39.492188 16.332032zm64.714844-162.71875c-10.808594 0-21.613281 4.113281-29.839844 12.339843l-64.714844 64.710938c-16.453124 16.457031-16.453124 43.226562 0 59.683593 16.457032 16.453126 43.226563 16.453126 59.683594 0l64.710938-64.714843c16.457031-16.453125 16.457031-43.226563 0-59.679688-8.226563-8.226562-19.035156-12.339843-29.839844-12.339843zm0 0"/></g><path d="m178.042969 178.71875 13.867187-13.867188c5.109375-5.105468 5.109375-13.382812 0-18.488281-5.105468-5.105469-13.382812-5.105469-18.488281 0l-13.867187 13.867188c-5.105469 5.105469-5.105469 13.382812 0 18.488281 5.105468 5.105469 13.382812 5.105469 18.488281 0zm0 0" fill="#bd53b5"/><path d="m168.796875 189.378906c-5.3125 0-10.308594-2.074218-14.070313-5.832031-7.75-7.761719-7.75-20.378906 0-28.140625l13.867188-13.867188c7.761719-7.761718 20.382812-7.761718 28.144531 0 7.761719 7.761719 7.761719 20.378907 0 28.140626l-13.867187 13.867187c-3.757813 3.757813-8.757813 5.832031-14.074219 5.832031zm13.867187-40.015625c-1.667968 0-3.234374.648438-4.417968 1.828125l-13.863282 13.867188c-2.433593 2.433594-2.433593 6.398437 0 8.832031 2.359376 2.367187 6.476563 2.355469 8.835938 0l13.867188-13.867187c1.179687-1.179688 1.824218-2.746094 1.824218-4.414063 0-1.671875-.644531-3.238281-1.824218-4.417969-1.179688-1.183594-2.75-1.828125-4.421876-1.828125zm0 0" fill="#4c241d"/><path d="m141.066406 215.695312 13.867188-13.867187c5.105468-5.105469 5.105468-13.382813 0-18.488281-5.105469-5.105469-13.382813-5.105469-18.488282 0l-13.867187 13.867187c-5.105469 5.105469-5.105469 13.382813 0 18.488281 5.105469 5.105469 13.382813 5.105469 18.488281 0zm0 0" fill="#bd53b5"/><path d="m131.820312 226.34375c-5.089843 0-10.1875-1.9375-14.070312-5.816406-7.757812-7.761719-7.757812-20.386719 0-28.148438l13.867188-13.867187c7.761718-7.746094 20.386718-7.753907 28.140624-.007813 7.761719 7.769532 7.761719 20.394532.007813 28.15625l-13.871094 13.867188c-3.878906 3.878906-8.976562 5.816406-14.074219 5.816406zm13.871094-40c-1.601562 0-3.203125.605469-4.421875 1.828125l-13.863281 13.859375c-1.179688 1.179688-1.832031 2.75-1.832031 4.417969s.652343 3.242187 1.832031 4.421875c2.359375 2.359375 6.480469 2.367187 8.835938 0l13.867187-13.867188c2.433594-2.441406 2.433594-6.398437-.003906-8.839844-1.214844-1.210937-2.816407-1.820312-4.414063-1.820312zm0 0" fill="#4c241d"/><path d="m104.089844 252.675781 13.867187-13.867187c5.105469-5.109375 5.105469-13.386719 0-18.488282-5.105469-5.109374-13.382812-5.109374-18.488281 0l-13.867188 13.867188c-5.105468 5.105469-5.105468 13.382812 0 18.488281 5.105469 5.105469 13.382813 5.105469 18.488282 0zm0 0" fill="#bd53b5"/><path d="m94.84375 263.324219c-5.316406 0-10.3125-2.066407-14.070312-5.824219-3.757813-3.753906-5.828126-8.746094-5.828126-14.066406 0-5.320313 2.070313-10.316406 5.828126-14.074219l13.867187-13.867187c7.515625-7.519532 20.625-7.519532 28.144531 0 3.757813 3.761718 5.824219 8.753906 5.824219 14.074218 0 5.320313-2.066406 10.3125-5.832031 14.074219l-13.863282 13.859375c-3.753906 3.757812-8.753906 5.824219-14.070312 5.824219zm13.867188-40.011719c-1.667969 0-3.234376.652344-4.414063 1.832031l-13.867187 13.867188c-1.179688 1.179687-1.832032 2.753906-1.832032 4.421875 0 1.667968.652344 3.234375 1.828125 4.40625 2.367188 2.375 6.480469 2.367187 8.832031.007812h.003907l13.867187-13.867187c1.179688-1.179688 1.828125-2.746094 1.828125-4.414063 0-1.667968-.648437-3.238281-1.828125-4.421875-1.179687-1.179687-2.75-1.832031-4.417968-1.832031zm0 0" fill="#4c241d"/></svg>