<svg height="428pt" viewBox="0 -43 428.6208 428" width="428pt" xmlns="http://www.w3.org/2000/svg"><path d="m307.199219 153.910156c0 84.832032-68.769531 153.601563-153.597657 153.601563-84.832031 0-153.601562-68.769531-153.601562-153.601563 0-84.832031 68.769531-153.601562 153.601562-153.601562 84.828126 0 153.597657 68.769531 153.597657 153.601562zm0 0" fill="#ffe8dc"/><path d="m314.027344 109.253906c59.519531 0 107.765625 47.5 107.765625 106.097656 0 58.59375-48.246094 106.09375-107.765625 106.09375zm0 0" fill="#bd53b5"/><path d="m314.027344 328.273438c-3.773438 0-6.828125-3.054688-6.828125-6.828126v-212.191406c0-3.769531 3.054687-6.828125 6.828125-6.828125 63.183594 0 114.59375 50.660157 114.59375 112.925781 0 62.265626-51.410156 112.921876-114.59375 112.921876zm6.824218-211.96875v198.09375c52.488282-3.464844 94.117188-46.566407 94.117188-99.046876 0-52.484374-41.628906-95.585937-94.117188-99.046874zm0 0" fill="#4c241d"/><path d="m314.027344 171.332031c24.695312 0 44.710937 19.707031 44.710937 44.019531 0 24.308594-20.019531 44.019532-44.710937 44.019532zm0 0" fill="#fc8c29"/><path d="m314.027344 266.195312c-3.773438 0-6.828125-3.054687-6.828125-6.824218v-88.039063c0-3.773437 3.054687-6.828125 6.828125-6.828125 28.417968 0 51.539062 22.808594 51.539062 50.847656 0 28.035157-23.121094 50.84375-51.539062 50.84375zm6.824218-87.433593v73.179687c17.648438-3.164062 31.0625-18.371094 31.0625-36.589844s-13.414062-33.425781-31.0625-36.589843zm0 0" fill="#4c241d"/><path d="m294.648438 334.816406h-200.175782c-10.703125 0-19.378906-8.675781-19.378906-19.375v-200.179687c0-10.703125 8.675781-19.378907 19.378906-19.378907h200.175782c10.703124 0 19.378906 8.675782 19.378906 19.378907v200.179687c0 10.699219-8.675782 19.375-19.378906 19.375zm0 0" fill="#fff"/><path d="m294.644531 341.644531h-200.171875c-14.453125 0-26.207031-11.753906-26.207031-26.203125v-200.179687c0-14.449219 11.753906-26.203125 26.207031-26.203125h200.171875c14.453125 0 26.207031 11.753906 26.207031 26.203125v200.179687c0 14.449219-11.753906 26.203125-26.207031 26.203125zm-200.171875-238.933593c-6.921875 0-12.550781 5.628906-12.550781 12.550781v200.179687c0 6.921875 5.632813 12.550782 12.550781 12.550782h200.171875c6.921875 0 12.554688-5.628907 12.554688-12.550782v-200.179687c0-6.921875-5.632813-12.550781-12.554688-12.550781zm0 0" fill="#4c241d"/><path d="m197.800781 245.582031c0-11.6875-13.535156-21.164062-30.230469-21.164062-16.695312 0-30.230468 9.476562-30.230468 21.164062 0 11.683594 13.535156 21.160157 30.230468 21.160157 16.695313 0 30.230469-9.476563 30.230469-21.160157zm0 0" fill="#fc8c29"/><path d="m167.574219 273.566406c-20.78125 0-37.0625-12.292968-37.0625-27.984375 0-15.695312 16.28125-27.988281 37.0625-27.988281 20.777343 0 37.050781 12.292969 37.050781 27.988281 0 15.691407-16.273438 27.984375-37.050781 27.984375zm0-42.320312c-12.6875 0-23.410157 6.5625-23.410157 14.332031s10.722657 14.332031 23.410157 14.332031 23.398437-6.5625 23.398437-14.332031-10.710937-14.332031-23.398437-14.332031zm0 0" fill="#4c241d"/><path d="m197.800781 249.382812c-3.773437 0-6.828125-3.054687-6.828125-6.828124v-90.6875c0-3.769532 3.054688-6.828126 6.828125-6.828126 3.773438 0 6.824219 3.058594 6.824219 6.828126v90.6875c0 3.773437-3.050781 6.828124-6.824219 6.828124zm0 0" fill="#4c241d"/><path d="m252.214844 182.097656-54.414063-12.089844v-24.1875l54.414063 12.09375zm0 0" fill="#ffce56"/><path d="m252.214844 188.925781c-.496094 0-.988282-.054687-1.480469-.164062l-54.414063-12.089844c-3.128906-.695313-5.347656-3.464844-5.347656-6.664063v-24.1875c0-2.070312.941406-4.027343 2.554688-5.324218 1.617187-1.296875 3.75-1.789063 5.75-1.339844l54.414062 12.09375c3.128906.695312 5.347656 3.464844 5.347656 6.664062v24.183594c0 2.070313-.941406 4.03125-2.550781 5.328125-1.230469.976563-2.734375 1.5-4.273437 1.5zm-47.589844-24.394531 40.761719 9.058594v-10.199219l-40.761719-9.058594zm0 0" fill="#4c241d"/></svg>