<svg height="387pt" viewBox="0 0 387.47122 387" width="387pt" xmlns="http://www.w3.org/2000/svg"><path d="m307.199219 153.835938c0 84.832031-68.769531 153.601562-153.597657 153.601562-84.832031 0-153.601562-68.769531-153.601562-153.601562 0-84.832032 68.769531-153.601563 153.601562-153.601563 84.828126 0 153.597657 68.769531 153.597657 153.601563zm0 0" fill="#ffe8dc"/><path d="m361.75 270.832031-173.910156 70.757813-97.570313-77.761719 30.179688-185.3125zm0 0" fill="#fff"/><path d="m187.839844 348.417969c-1.519532 0-3.027344-.511719-4.253906-1.488281l-97.570313-77.757813c-1.933594-1.539063-2.878906-4-2.484375-6.4375l30.183594-185.3125c.390625-2.394531 2.015625-4.398437 4.277344-5.273437 2.257812-.878907 4.8125-.480469 6.710937 1.03125l241.300781 192.316406c1.898438 1.515625 2.851563 3.917968 2.503906 6.3125-.34375 2.398437-1.941406 4.4375-4.183593 5.351562l-173.90625 70.757813c-.835938.332031-1.707031.5-2.578125.5zm-90.191406-87.4375 91.320312 72.777343 159.40625-64.855468-223.0625-177.78125zm0 0" fill="#4c241d"/><path d="m192.886719 371.5625 1.746093-2.1875c8.1875-10.273438 6.496094-25.242188-3.777343-33.429688l-95.753907-76.316406c-10.273437-8.1875-25.242187-6.496094-33.429687 3.777344l-1.742187 2.1875c-8.191407 10.273438-6.5 25.242188 3.773437 33.429688l95.753906 76.316406c10.273438 8.1875 25.242188 6.496094 33.429688-3.777344zm0 0" fill="#bd53b5"/><path d="m174.253906 387.335938c-6.691406 0-13.425781-2.171876-19.050781-6.65625l-95.753906-76.316407c-13.199219-10.523437-15.378907-29.824219-4.863281-43.023437l1.75-2.195313c10.507812-13.207031 29.8125-15.386719 43.019531-4.859375l95.753906 76.316406c13.199219 10.523438 15.378906 29.824219 4.863281 43.023438l-1.742187 2.191406s0 0-.003907 0c-6.039062 7.574219-14.964843 11.519532-23.972656 11.519532zm-93.960937-126.0625c-4.988281 0-9.9375 2.183593-13.277344 6.382812l-1.75 2.191406c-5.828125 7.308594-4.617187 18.007813 2.695313 23.835938l95.75 76.316406c7.324218 5.832031 18.011718 4.621094 23.839843-2.691406l1.746094-2.1875c5.828125-7.316406 4.617187-18.011719-2.695313-23.84375l-95.75-76.3125c-3.121093-2.484375-6.851562-3.691406-10.558593-3.691406zm112.597656 110.289062h.066406zm0 0" fill="#4c241d"/><path d="m376.519531 282.605469c-6.5 8.160156-18.386719 9.5-26.546875 3l-241.296875-192.316407c-8.160156-6.503906-9.5-18.390624-3-26.546874 6.503907-8.160157 18.390625-9.503907 26.546875-3l241.300782 192.316406c8.160156 6.5 9.5 18.386718 2.996093 26.546875zm0 0" fill="#fc8c29"/><g fill="#4c241d"><path d="m361.722656 296.539062c-5.621094 0-11.277344-1.828124-16.003906-5.59375l-241.296875-192.316406c-5.371094-4.285156-8.757813-10.402344-9.53125-17.226562-.769531-6.828125 1.164063-13.546875 5.449219-18.917969 4.277344-5.367187 10.394531-8.753906 17.222656-9.527344 6.832031-.75 13.546875 1.164063 18.917969 5.445313l241.296875 192.316406c5.371094 4.28125 8.753906 10.394531 9.527344 17.222656.769531 6.828125-1.164063 13.546875-5.441407 18.917969-5.074219 6.363281-12.574219 9.679687-20.140625 9.679687zm-241.257812-230.082031c-3.550782 0-7.070313 1.554688-9.449219 4.539063-2.007813 2.519531-2.914063 5.667968-2.554687 8.871094.363281 3.203124 1.949218 6.074218 4.46875 8.082031l241.296874 192.316406c5.21875 4.152344 12.816407 3.285156 16.957032-1.914063 2.011718-2.523437 2.917968-5.671874 2.558594-8.875-.363282-3.199218-1.953126-6.070312-4.472657-8.078124l-241.296875-192.316407c-2.21875-1.769531-4.871094-2.625-7.507812-2.625zm0 0"/><path d="m305.71875 163c-3.652344 0-6.679688-2.886719-6.820312-6.570312-.59375-15.464844-7.839844-29.835938-19.878907-39.433594-11.074219-8.828125-24.925781-12.816406-38.980469-11.21875-3.753906.421875-7.128906-2.269532-7.546874-6.015625-.425782-3.746094 2.269531-7.128907 6.015624-7.550781 17.679688-2.007813 35.089844 3.011718 49.019532 14.105468 15.152344 12.078125 24.269531 30.152344 25.015625 49.597656.144531 3.765626-2.792969 6.9375-6.5625 7.078126-.085938.007812-.179688.007812-.261719.007812zm0 0"/><path d="m94.222656 286.71875c-.253906-3.761719-3.507812-6.609375-7.269531-6.359375-3.761719.253906-6.605469 3.507813-6.355469 7.269531.25 3.761719 3.503906 6.605469 7.265625 6.355469s6.609375-3.503906 6.359375-7.265625zm0 0"/><path d="m137.367188 318.042969c-.25-3.761719-3.503907-6.609375-7.265626-6.355469-3.765624.25-6.609374 3.503906-6.359374 7.265625.253906 3.761719 3.507812 6.609375 7.269531 6.355469 3.761719-.25 6.605469-3.503906 6.355469-7.265625zm0 0"/><path d="m173.703125 349.824219c-.25-3.761719-3.503906-6.605469-7.265625-6.355469s-6.609375 3.503906-6.359375 7.265625c.253906 3.761719 3.507813 6.609375 7.269531 6.359375 3.761719-.253906 6.605469-3.507812 6.355469-7.269531zm0 0"/></g></svg>