<svg height="398pt" viewBox="0 -5 398.63607 398" width="398pt" xmlns="http://www.w3.org/2000/svg"><path d="m307.199219 153.917969c0 84.832031-68.769531 153.601562-153.597657 153.601562-84.832031 0-153.601562-68.769531-153.601562-153.601562s68.769531-153.601563 153.601562-153.601563c84.828126 0 153.597657 68.769532 153.597657 153.601563zm0 0" fill="#ffe8dc"/><path d="m361.75 270.914062-173.910156 70.757813-97.570313-77.761719 30.179688-185.3125zm0 0" fill="#fff"/><path d="m187.839844 348.5c-1.519532 0-3.027344-.511719-4.253906-1.488281l-97.570313-77.757813c-1.933594-1.539062-2.878906-4-2.484375-6.4375l30.183594-185.316406c.390625-2.390625 2.015625-4.398438 4.277344-5.273438 2.265624-.878906 4.8125-.480468 6.710937 1.03125l241.300781 192.316407c1.898438 1.515625 2.851563 3.917969 2.503906 6.3125-.34375 2.402343-1.941406 4.4375-4.183593 5.351562l-173.90625 70.757813c-.835938.335937-1.707031.503906-2.578125.503906zm-90.191406-87.4375 91.320312 72.777344 159.40625-64.855469-223.0625-177.78125zm0 0" fill="#4c241d"/><path d="m192.886719 371.644531 1.746093-2.1875c8.1875-10.273437 6.496094-25.242187-3.777343-33.429687l-95.753907-76.316406c-10.273437-8.1875-25.242187-6.496094-33.429687 3.777343l-1.742187 2.1875c-8.191407 10.273438-6.5 25.242188 3.773437 33.429688l95.753906 76.316406c10.273438 8.1875 25.242188 6.496094 33.429688-3.777344zm0 0" fill="#bd53b5"/><path d="m174.253906 387.417969c-6.691406 0-13.425781-2.171875-19.050781-6.65625l-95.753906-76.316407c-13.199219-10.523437-15.378907-29.824218-4.863281-43.023437l1.75-2.195313c10.507812-13.199218 29.8125-15.382812 43.019531-4.859374l95.753906 76.316406c13.199219 10.523437 15.378906 29.824218 4.863281 43.023437l-1.742187 2.191407s0 0-.003907.003906c-6.039062 7.570312-14.964843 11.515625-23.972656 11.515625zm-93.960937-126.0625c-4.988281 0-9.9375 2.183593-13.277344 6.382812l-1.75 2.191407c-5.828125 7.308593-4.617187 18.007812 2.695313 23.835937l95.75 76.316406c7.328124 5.832031 18.015624 4.625 23.839843-2.691406l1.746094-2.1875c5.828125-7.316406 4.617187-18.011719-2.695313-23.84375l-95.75-76.3125c-3.121093-2.484375-6.851562-3.691406-10.558593-3.691406zm112.597656 110.289062h.066406zm0 0" fill="#4c241d"/><path d="m376.519531 282.6875c-6.5 8.160156-18.386719 9.5-26.546875 3l-241.296875-192.316406c-8.160156-6.503906-9.5-18.390625-3-26.546875 6.503907-8.160157 18.390625-9.5 26.546875-3l241.300782 192.316406c8.160156 6.503906 9.503906 18.386719 2.996093 26.546875zm0 0" fill="#fc8c29"/><g fill="#4c241d"><path d="m361.722656 296.621094c-5.621094 0-11.277344-1.828125-16.003906-5.59375l-241.296875-192.316406c-5.371094-4.285157-8.757813-10.402344-9.53125-17.226563-.769531-6.828125 1.164063-13.542969 5.449219-18.917969 4.277344-5.367187 10.394531-8.753906 17.222656-9.527344 6.820312-.761718 13.542969 1.164063 18.917969 5.445313l241.296875 192.316406c5.371094 4.28125 8.753906 10.398438 9.527344 17.222657.769531 6.828124-1.164063 13.546874-5.441407 18.917968-5.074219 6.363282-12.574219 9.679688-20.140625 9.679688zm-241.257812-230.082032c-3.550782 0-7.070313 1.554688-9.449219 4.539063-2.007813 2.519531-2.914063 5.667969-2.554687 8.871094.363281 3.207031 1.949218 6.074219 4.46875 8.082031l241.296874 192.316406c5.214844 4.152344 12.8125 3.292969 16.957032-1.914062 2.011718-2.523438 2.917968-5.671875 2.558594-8.875-.363282-3.199219-1.953126-6.070313-4.472657-8.078125l-241.296875-192.316407c-2.21875-1.769531-4.871094-2.625-7.507812-2.625zm0 0"/><path d="m345.414062 158.59375c-3.5625 0-6.558593-2.753906-6.804687-6.363281-1.777344-26.039063-14.421875-50.242188-34.691406-66.398438-19.417969-15.46875-43.699219-22.4375-68.367188-19.675781-3.730469.433594-7.125-2.269531-7.546875-6.015625-.425781-3.746094 2.269532-7.125 6.015625-7.550781 28.308594-3.179688 56.140625 4.816406 78.40625 22.566406 23.257813 18.539062 37.765625 46.292969 39.800781 76.148438.257813 3.761718-2.582031 7.015624-6.347656 7.273437-.152344.007813-.308594.015625-.464844.015625zm0 0"/><path d="m391.804688 153.355469c-3.519532 0-6.507813-2.699219-6.796876-6.265625-3.199218-38.785156-21.6875-73.472656-52.058593-97.679688-29.140625-23.222656-65.558594-33.734375-102.621094-29.535156-3.71875.414062-7.128906-2.269531-7.550781-6.015625-.425782-3.746094 2.269531-7.128906 6.015625-7.550781 40.652343-4.589844 80.671875 6.925781 112.667969 32.421875 33.34375 26.582031 53.644531 64.664062 57.152343 107.238281.308594 3.757812-2.484375 7.054688-6.242187 7.363281-.191406.015625-.382813.023438-.566406.023438zm0 0"/><path d="m305.71875 163.082031c-3.652344 0-6.679688-2.886719-6.820312-6.566406-.59375-15.46875-7.839844-29.839844-19.878907-39.4375-11.078125-8.824219-24.917969-12.820313-38.980469-11.21875-3.71875.4375-7.125-2.269531-7.546874-6.015625-.425782-3.746094 2.269531-7.128906 6.015624-7.550781 17.679688-2.007813 35.089844 3.011719 49.019532 14.105469 15.152344 12.078124 24.269531 30.152343 25.015625 49.597656.144531 3.765625-2.792969 6.9375-6.5625 7.078125-.085938.007812-.175781.007812-.261719.007812zm0 0"/><path d="m94.21875 286.800781c-.25-3.761719-3.503906-6.609375-7.265625-6.359375-3.761719.253906-6.605469 3.507813-6.355469 7.269532.25 3.761718 3.503906 6.605468 7.265625 6.355468s6.609375-3.503906 6.355469-7.265625zm0 0"/><path d="m137.367188 318.125c-.253907-3.761719-3.503907-6.609375-7.265626-6.355469-3.765624.25-6.609374 3.503907-6.359374 7.265625.253906 3.761719 3.507812 6.609375 7.269531 6.355469 3.761719-.25 6.605469-3.503906 6.355469-7.265625zm0 0"/><path d="m173.703125 349.90625c-.25-3.761719-3.503906-6.605469-7.265625-6.355469s-6.609375 3.503907-6.359375 7.265625c.253906 3.761719 3.507813 6.609375 7.269531 6.359375 3.761719-.253906 6.605469-3.507812 6.355469-7.269531zm0 0"/></g></svg>