<svg height="419pt" viewBox="0 0 419 419.44406" width="419pt" xmlns="http://www.w3.org/2000/svg"><path d="m307.421875 153.601562c0 84.828126-68.769531 153.597657-153.601563 153.597657-84.828124 0-153.597656-68.769531-153.597656-153.597657 0-84.832031 68.769532-153.601562 153.597656-153.601562 84.832032 0 153.601563 68.769531 153.601563 153.601562zm0 0" fill="#ffe8dc"/><path d="m412.835938 252.585938c0 88.382812-71.644532 160.03125-160.027344 160.03125-88.382813 0-160.027344-71.648438-160.027344-160.03125 0-88.378907 71.644531-160.027344 160.027344-160.027344 88.382812 0 160.027344 71.648437 160.027344 160.027344zm0 0" fill="#bd53b5"/><path d="m252.808594 419.445312c-92 0-166.855469-74.851562-166.855469-166.859374 0-92.007813 74.855469-166.855469 166.855469-166.855469s166.855468 74.847656 166.855468 166.855469c0 92.007812-74.855468 166.859374-166.855468 166.859374zm0-320.0625c-84.472656 0-153.199219 68.730469-153.199219 153.207032 0 84.476562 68.726563 153.203125 153.199219 153.203125s153.199218-68.726563 153.199218-153.203125c0-84.476563-68.726562-153.207032-153.199218-153.207032zm0 0" fill="#4c241d"/><path d="m306.316406 252.585938c0 29.550781-23.957031 53.507812-53.507812 53.507812-29.550782 0-53.507813-23.957031-53.507813-53.507812 0-29.550782 23.957031-53.507813 53.507813-53.507813 29.550781 0 53.507812 23.957031 53.507812 53.507813zm0 0" fill="#fff"/><g fill="#4c241d"><path d="m252.808594 312.921875c-33.265625 0-60.332032-27.066406-60.332032-60.335937 0-33.265626 27.0625-60.332032 60.332032-60.332032 33.269531 0 60.335937 27.066406 60.335937 60.332032 0 33.269531-27.070312 60.335937-60.335937 60.335937zm0-107.015625c-25.738282 0-46.679688 20.941406-46.679688 46.683594 0 25.738281 20.941406 46.679687 46.679688 46.679687 25.738281 0 46.679687-20.941406 46.679687-46.679687 0-25.742188-20.941406-46.683594-46.679687-46.683594zm0 0"/><path d="m125.042969 291.847656c-3.046875 0-5.828125-2.058594-6.613281-5.148437-9.105469-35.894531-3.699219-73.1875 15.238281-105.007813 18.933593-31.824218 49.136719-54.367187 85.027343-63.480468 3.640626-.929688 7.367188 1.28125 8.300782 4.9375.925781 3.652343-1.289063 7.367187-4.941406 8.296874-32.359376 8.214844-59.578126 28.539063-76.652344 57.226563-17.074219 28.6875-21.953125 62.3125-13.734375 94.667969.925781 3.65625-1.285157 7.371094-4.941407 8.296875-.566406.144531-1.125.210937-1.683593.210937zm0 0"/><path d="m147.035156 286.265625c-3.046875 0-5.824218-2.058594-6.613281-5.148437-7.621094-30.023438-3.089844-61.214844 12.75-87.828126 15.832031-26.613281 41.089844-45.464843 71.113281-53.085937 3.632813-.917969 7.363282 1.277344 8.296875 4.9375.925781 3.660156-1.285156 7.371094-4.941406 8.296875-26.484375 6.722656-48.765625 23.359375-62.738281 46.835938-13.976563 23.480468-17.964844 50.996093-11.242188 77.484374.929688 3.652344-1.285156 7.367188-4.9375 8.292969-.566406.148438-1.125.214844-1.6875.214844zm0 0"/><path d="m285.234375 387.175781c-3.046875 0-5.824219-2.058593-6.613281-5.148437-.925782-3.652344 1.289062-7.371094 4.941406-8.296875 32.359375-8.214844 59.578125-28.539063 76.652344-57.226563 17.074218-28.691406 21.953125-62.3125 13.734375-94.667968-.925781-3.65625 1.289062-7.371094 4.941406-8.296876 3.640625-.941406 7.367187 1.277344 8.300781 4.9375 9.105469 35.890626 3.699219 73.1875-15.242187 105.007813-18.933594 31.824219-49.132813 54.367187-85.027344 63.480469-.566406.144531-1.125.210937-1.6875.210937zm0 0"/><path d="m279.648438 365.179688c-3.046876 0-5.824219-2.054688-6.613282-5.144532-.925781-3.660156 1.289063-7.371094 4.941406-8.296875 26.488282-6.722656 48.765626-23.359375 62.742188-46.835937 13.972656-23.480469 17.964844-51 11.238281-77.484375-.925781-3.652344 1.289063-7.367188 4.941407-8.296875 3.652343-.917969 7.367187 1.277344 8.300781 4.9375 7.617187 30.023437 3.089843 61.214844-12.75 87.828125-15.832031 26.613281-41.089844 45.46875-71.113281 53.085937-.566407.140625-1.125.207032-1.6875.207032zm0 0"/><path d="m171.109375 280.152344c-3.046875 0-5.828125-2.058594-6.613281-5.148438-5.988282-23.589844-2.425782-48.101562 10.019531-69.015625 12.445313-20.910156 32.285156-35.726562 55.871094-41.710937 3.648437-.925782 7.367187 1.277344 8.300781 4.9375.925781 3.652344-1.285156 7.367187-4.941406 8.296875-20.050782 5.089843-36.917969 17.679687-47.5 35.460937-10.578125 17.78125-13.605469 38.617188-8.511719 58.671875.925781 3.652344-1.285156 7.367188-4.941406 8.292969-.566407.148438-1.125.214844-1.683594.214844zm0 0"/><path d="m273.542969 341.105469c-3.046875 0-5.828125-2.054688-6.613281-5.144531-.925782-3.65625 1.285156-7.371094 4.941406-8.296876 20.050781-5.089843 36.917968-17.6875 47.5-35.46875 10.578125-17.773437 13.605468-38.609374 8.511718-58.664062-.925781-3.65625 1.289063-7.371094 4.941407-8.296875 3.640625-.933594 7.367187 1.277344 8.300781 4.9375 5.984375 23.59375 2.425781 48.101563-10.019531 69.011719-12.441407 20.910156-32.289063 35.730468-55.875 41.714844-.566407.140624-1.128907.207031-1.6875.207031zm0 0"/><path d="m171.109375 280.152344c-3.046875 0-5.828125-2.058594-6.613281-5.148438-5.988282-23.589844-2.425782-48.101562 10.019531-69.015625 12.445313-20.910156 32.285156-35.726562 55.871094-41.710937 3.648437-.925782 7.367187 1.277344 8.300781 4.9375.925781 3.652344-1.285156 7.367187-4.941406 8.296875-20.050782 5.089843-36.917969 17.679687-47.5 35.460937-10.578125 17.78125-13.605469 38.617188-8.511719 58.671875.925781 3.652344-1.285156 7.367188-4.941406 8.292969-.566407.148438-1.125.214844-1.683594.214844zm0 0"/><path d="m265.21875 252.585938c0 6.855468-5.558594 12.410156-12.410156 12.410156-6.851563 0-12.410156-5.554688-12.410156-12.410156 0-6.851563 5.558593-12.410157 12.410156-12.410157 6.851562 0 12.410156 5.558594 12.410156 12.410157zm0 0"/></g></svg>