<svg height="402pt" viewBox="0 -3 402.77376 402" width="402pt" xmlns="http://www.w3.org/2000/svg"><path d="m402.773438 153.988281c0 84.828125-68.769532 153.597657-153.601563 153.597657-84.828125 0-153.597656-68.769532-153.597656-153.597657 0-84.832031 68.769531-153.601562 153.597656-153.601562 84.832031 0 153.601563 68.769531 153.601563 153.601562zm0 0" fill="#ffe8dc"/><path d="m354.992188 232.492188c-.199219 0-.398438-.003907-.597657-.027344l-348.160156-30.519532c-3.761719-.324218-6.535156-3.640624-6.2070312-7.394531.3320312-3.75 3.7382812-6.539062 7.3906252-6.207031l348.160156 30.523438c3.761719.324218 6.535156 3.640624 6.207031 7.390624-.3125 3.554688-3.289062 6.234376-6.792968 6.234376zm0 0" fill="#4c241d"/><path d="m6.820312 324.453125c-3.5 0-6.480468-2.679687-6.7929682-6.230469-.3242188-3.753906 2.4492182-7.070312 6.2070312-7.394531l348.160156-30.519531c3.714844-.339844 7.0625 2.453125 7.394531 6.207031.324219 3.753906-2.449218 7.066406-6.207031 7.390625l-348.160156 30.523438c-.203125.015624-.402344.023437-.601563.023437zm0 0" fill="#4c241d"/><path d="m37.546875 389.507812c-16.964844 0-30.71875-13.753906-30.71875-30.722656v-204.796875c0-16.96875 13.753906-30.722656 30.71875-30.722656s30.71875 13.753906 30.71875 30.722656v204.796875c0 16.96875-13.753906 30.722656-30.71875 30.722656zm0 0" fill="#fc8c29"/><path d="m37.546875 396.332031c-20.699219 0-37.546875-16.84375-37.546875-37.546875v-204.796875c0-20.703125 16.847656-37.546875 37.546875-37.546875s37.546875 16.84375 37.546875 37.546875v204.796875c0 20.703125-16.847656 37.546875-37.546875 37.546875zm0-266.238281c-13.171875 0-23.894531 10.71875-23.894531 23.894531v204.796875c0 13.175782 10.722656 23.894532 23.894531 23.894532 13.175781 0 23.894531-10.71875 23.894531-23.894532v-204.796875c0-13.175781-10.71875-23.894531-23.894531-23.894531zm0 0" fill="#4c241d"/><path d="m129.875 369.027344c-15.175781 0-27.472656-12.300782-27.472656-27.472656v-170.332032c0-15.175781 12.296875-27.476562 27.472656-27.476562 15.171875 0 27.472656 12.300781 27.472656 27.476562v170.332032c0 15.171874-12.300781 27.472656-27.472656 27.472656zm0 0" fill="#fff"/><path d="m129.875 375.855469c-18.914062 0-34.300781-15.390625-34.300781-34.300781v-170.335938c0-18.910156 15.386719-34.296875 34.300781-34.296875s34.300781 15.386719 34.300781 34.300781v170.332032c-.003906 18.910156-15.386719 34.300781-34.300781 34.300781zm0-225.28125c-11.386719 0-20.648438 9.257812-20.648438 20.648437v170.332032c0 11.386718 9.261719 20.648437 20.648438 20.648437s20.648438-9.261719 20.648438-20.648437v-170.332032c-.003907-11.390625-9.261719-20.648437-20.648438-20.648437zm0 0" fill="#4c241d"/><path d="m218.621094 348.546875c-15.175782 0-27.472656-12.300781-27.472656-27.472656v-129.375c0-15.171875 12.296874-27.472657 27.472656-27.472657 15.175781 0 27.472656 12.300782 27.472656 27.472657v129.375c0 15.171875-12.296875 27.472656-27.472656 27.472656zm0 0" fill="#bd53b5"/><path d="m218.621094 355.375c-18.914063 0-34.300782-15.390625-34.300782-34.300781v-129.375c0-18.914063 15.386719-34.300781 34.300782-34.300781 18.914062 0 34.300781 15.386718 34.300781 34.300781v129.375c-.003906 18.910156-15.386719 34.300781-34.300781 34.300781zm0-184.320312c-11.386719 0-20.648438 9.257812-20.648438 20.644531v129.375c0 11.386719 9.261719 20.648437 20.648438 20.648437 11.386718 0 20.648437-9.261718 20.648437-20.648437v-129.375c-.003906-11.386719-9.261719-20.644531-20.648437-20.644531zm0 0" fill="#4c241d"/><path d="m307.367188 328.066406c-15.171876 0-27.472657-12.300781-27.472657-27.472656v-88.414062c0-15.171876 12.300781-27.472657 27.472657-27.472657 15.175781 0 27.472656 12.300781 27.472656 27.472657v88.414062c0 15.171875-12.296875 27.472656-27.472656 27.472656zm0 0" fill="#ffce56"/><g fill="#4c241d"><path d="m307.367188 334.894531c-18.914063 0-34.300782-15.386719-34.300782-34.300781v-88.414062c0-18.914063 15.386719-34.300782 34.300782-34.300782 18.914062 0 34.300781 15.386719 34.300781 34.300782v88.414062c0 18.914062-15.386719 34.300781-34.300781 34.300781zm0-143.359375c-11.386719 0-20.648438 9.257813-20.648438 20.644532v88.414062c0 11.386719 9.261719 20.648438 20.648438 20.648438 11.386718 0 20.648437-9.261719 20.648437-20.648438v-88.414062c-.003906-11.386719-9.261719-20.644532-20.648437-20.644532zm0 0"/><path d="m136.535156 171.054688c0 3.769531-3.058594 6.824218-6.828125 6.824218s-6.828125-3.054687-6.828125-6.824218c0-3.769532 3.058594-6.828126 6.828125-6.828126s6.828125 3.058594 6.828125 6.828126zm0 0"/><path d="m136.535156 341.71875c0 3.773438-3.058594 6.828125-6.828125 6.828125s-6.828125-3.054687-6.828125-6.828125c0-3.769531 3.058594-6.824219 6.828125-6.824219s6.828125 3.054688 6.828125 6.824219zm0 0"/><path d="m225.28125 191.535156c0 3.769532-3.058594 6.824219-6.828125 6.824219s-6.824219-3.054687-6.824219-6.824219c0-3.773437 3.054688-6.828125 6.824219-6.828125s6.828125 3.054688 6.828125 6.828125zm0 0"/><path d="m225.28125 321.238281c0 3.773438-3.058594 6.828125-6.828125 6.828125s-6.824219-3.054687-6.824219-6.828125c0-3.769531 3.054688-6.824219 6.824219-6.824219s6.828125 3.054688 6.828125 6.824219zm0 0"/><path d="m314.027344 212.011719c0 3.773437-3.058594 6.828125-6.828125 6.828125s-6.824219-3.054688-6.824219-6.828125c0-3.769531 3.054688-6.824219 6.824219-6.824219s6.828125 3.054688 6.828125 6.824219zm0 0"/><path d="m314.027344 300.761719c0 3.769531-3.058594 6.824219-6.828125 6.824219s-6.824219-3.054688-6.824219-6.824219c0-3.773438 3.054688-6.828125 6.824219-6.828125s6.828125 3.054687 6.828125 6.828125zm0 0"/><path d="m45.707031 153.988281c0 4.503907-3.652343 8.15625-8.160156 8.15625s-8.160156-3.652343-8.160156-8.15625c0-4.507812 3.652343-8.160156 8.160156-8.160156s8.160156 3.652344 8.160156 8.160156zm0 0"/><path d="m45.707031 358.785156c0 4.507813-3.652343 8.160156-8.160156 8.160156s-8.160156-3.652343-8.160156-8.160156c0-4.503906 3.652343-8.15625 8.160156-8.15625s8.160156 3.652344 8.160156 8.15625zm0 0"/><path d="m255.5 122.734375c-.808594 0-1.621094-.140625-2.414062-.441406l-196.265626-74.230469c-3.527343-1.335938-5.304687-5.273438-3.972656-8.800781 1.332032-3.53125 5.300782-5.300781 8.800782-3.972657l196.265624 74.230469c3.527344 1.335938 5.304688 5.277344 3.972657 8.800781-1.03125 2.734376-3.632813 4.414063-6.386719 4.414063zm0 0"/></g><path d="m253.378906 148.214844c-7.019531-2.753906-10.480468-10.675782-7.726562-17.695313l12.460937-31.777343c2.753907-7.019532 10.675781-10.480469 17.695313-7.726563 7.019531 2.753906 10.476562 10.675781 7.726562 17.695313l-12.464844 31.777343c-2.75 7.019531-10.671874 10.480469-17.691406 7.726563zm0 0" fill="#a9ba5a"/><path d="m258.332031 155.988281c-2.476562 0-5.007812-.460937-7.453125-1.421875-10.503906-4.121094-15.703125-16.027344-11.578125-26.539062l12.460938-31.78125c4.113281-10.511719 16.027343-15.710938 26.539062-11.585938 10.515625 4.121094 15.714844 16.035156 11.585938 26.546875l-12.460938 31.773438c-3.160156 8.066406-10.90625 13.007812-19.09375 13.007812zm12.5-59.085937c-2.726562 0-5.304687 1.644531-6.363281 4.332031l-12.460938 31.777344c-1.375 3.507812.359376 7.476562 3.859376 8.847656 3.492187 1.367187 7.472656-.359375 8.855468-3.867187l12.460938-31.773438c1.371094-3.503906-.363282-7.472656-3.867188-8.851562-.816406-.320313-1.65625-.464844-2.484375-.464844zm0 0" fill="#4c241d"/></svg>